<svg width="66" height="66" viewBox="0 0 66 66" fill="none" xmlns="http://www.w3.org/2000/svg">
<path fill-rule="evenodd" clip-rule="evenodd" d="M35.8558 63.696C36.0308 63.404 36.4815 62.2774 36.881 61.1988C38.6797 56.3118 41.8915 50.7105 44.3934 48.0799C46.2103 46.1547 46.6247 45.1262 45.6001 45.0925C44.2782 45.0489 40.6037 49.1297 38.3365 53.174C37.2295 55.1392 37.2455 55.1562 37.678 52.5733C38.0676 50.2867 38.5759 44.3979 38.4314 43.7645C37.9795 41.9134 35.2961 45.0342 35.302 47.3669C35.3173 48.4096 35.0598 50.7005 34.9418 51.7718C31.6479 46.2316 29.2773 45.7409 28.1032 46.2316C26.2252 46.9969 29.0599 47.178 30.7978 53.174C31.6147 55.9966 32.4368 57.5123 32.7067 60.3665C33.2327 65.9917 34.0476 66.8622 35.8558 63.696ZM39.3802 37.5592C39.4977 33.9899 38.0165 29.7393 36.6445 29.7106C35.3556 29.6682 34.7811 32.5442 35.5852 35.2505C35.8671 36.2358 36.2594 37.8865 36.457 38.9187C37.0146 42.0801 39.2648 41.0624 39.3802 37.5592ZM33.9023 34.6161C33.8263 33.406 32.463 33.113 30.7978 34.4477C25.6626 37.1734 23.4463 30.6323 24.5263 27.4752C25.1673 25.5939 24.1791 25.4621 22.7972 27.2363C19.2386 31.8171 22.7191 38.648 28.2964 38.0708C30.819 37.823 33.9771 35.8593 33.9023 34.6161ZM39.4745 22.641C39.7367 21.2104 39.4704 17.7443 39.0349 16.9028C38.116 15.1687 36.0344 17.598 36.2661 20.1036C36.4006 21.5472 36.7427 24.7181 36.8266 25.184C36.9974 26.5296 39.1321 24.499 39.4745 22.641ZM35.5145 26.3484C35.5144 23.3377 29.0394 21.04 26.718 23.2133C25.3013 24.5396 25.6739 25.2798 28.1032 25.8561C29.7938 26.2592 31.0312 26.8624 32.9077 28.1483C33.9584 28.8943 35.5157 27.8207 35.5145 26.3484ZM36.142 11.3154C37.286 9.73197 33.3991 1.68008 31.3726 1.43136C29.6093 1.22439 28.5446 3.91876 29.7483 5.54648C30.1913 6.15661 30.8378 7.1209 31.1657 7.71069C33.1219 11.1002 34.0985 12.588 34.3629 12.5967C34.7435 12.5927 35.7088 11.9132 36.142 11.3154Z" fill="#FDB716"/>
</svg>
