<svg width="416" height="71" viewBox="0 0 416 71" fill="none" xmlns="http://www.w3.org/2000/svg">
<path fill-rule="evenodd" clip-rule="evenodd" d="M413.994 32.4347C414.835 19.2432 415.135 16.7681 415.856 15.0002C416.456 13.5043 415.135 11.9267 412.793 11.4371C409.129 10.6484 410.03 11.3555 408.889 22.9151C408.589 25.9614 408.709 32.3259 408.409 35.073C408.289 35.9162 404.685 36.297 404.805 34.8826L405.286 8.93484L407.988 8.74446C411.111 8.52686 411.532 8.01009 409.309 6.86773C407.568 5.97017 405.346 5.75257 393.575 5.37178C243.015 0.693571 243.555 0.203992 142.842 0.0407984C110.952 -0.0135995 84.5873 -0.0135995 84.2871 0.0407984C82.8457 0.285589 41.7074 0.149595 7.29542 1.18315C1.83033 1.34635 1.34988 1.56394 3.69206 2.78789C6.03424 4.01185 11.0789 4.14783 45.2507 3.76705C107.108 3.11427 245.537 3.65826 245.537 4.55582C245.537 4.80061 231.904 4.90941 211.005 4.82781C151.309 4.58302 68.4323 6.26935 15.5231 8.77165C-0.511849 9.53322 -0.631962 9.56042 0.328933 10.866C1.83033 12.8515 1.89039 23.9758 2.61106 27.6477C2.79122 28.4637 5.91413 61.1568 5.91413 62.0543C5.91413 64.339 6.51469 65.8078 7.59569 66.1886C8.79681 66.5965 11.6795 66.6509 11.9798 66.243C12.0999 66.0526 12.7004 66.0526 13.9016 66.243C17.2647 66.8141 37.0231 67.1133 59.6041 66.9501C71.7954 66.8413 90.0524 66.8957 100.142 67.0589C122.663 67.3853 204.099 68.1197 238.571 68.8541C248.78 69.0717 313.701 70.2956 328.955 70.6492C350.755 71.1388 397.659 71.1116 398.379 70.5948C400.241 69.2076 392.854 67.9293 382.945 67.9021C374.777 67.9021 374.537 66.0798 383.966 65.9166C384.627 65.9166 389.731 65.8078 405.406 66.107C405.406 66.107 405.406 66.8685 404.985 68.4189C404.565 70.0236 408.349 72.4715 410.21 68.3373C410.33 68.0109 410.871 66.0526 410.871 66.0526C410.871 66.0526 413.934 65.9166 414.414 65.835C416.156 65.5358 416.516 64.5294 414.895 63.5775C414.354 63.2783 412.012 62.9519 412.012 62.9519C412.012 62.9519 412.553 54.6834 413.994 32.4347Z" fill="#FDB716"/>
</svg>
