<svg width="190" height="39" viewBox="0 0 190 39" fill="none" xmlns="http://www.w3.org/2000/svg">
<path fill-rule="evenodd" clip-rule="evenodd" d="M189.084 17.8162C189.468 10.5702 189.605 9.21067 189.934 8.23955C190.208 7.41784 189.605 6.5513 188.535 6.28237C186.862 5.84911 187.273 6.23755 186.752 12.5872C186.615 14.2605 186.67 17.7565 186.533 19.2655C186.478 19.7286 184.832 19.9378 184.887 19.1609L185.106 4.90787L186.341 4.80329C187.767 4.68377 187.959 4.39991 186.944 3.77242C186.149 3.27939 185.134 3.15986 179.758 2.9507C110.992 0.380976 111.239 0.112052 65.2401 0.0224104C50.6751 -0.00747013 38.6336 -0.00747013 38.4965 0.0224104C37.8382 0.156873 19.0491 0.0821718 3.33204 0.649901C0.835968 0.739543 0.616533 0.859067 1.68628 1.53138C2.75602 2.20369 5.06009 2.27839 20.6674 2.06922C48.9197 1.71066 112.144 2.00946 112.144 2.50249C112.144 2.63696 105.918 2.69672 96.3725 2.65189C69.1077 2.51743 31.2551 3.44373 7.08986 4.81823C-0.233777 5.23656 -0.288636 5.2515 0.150234 5.96863C0.835968 7.05927 0.863397 13.1698 1.19255 15.1868C1.27484 15.635 2.70117 33.5932 2.70117 34.0862C2.70117 35.3412 2.97546 36.1479 3.46919 36.3571C4.01778 36.5812 5.33438 36.6111 5.47153 36.387C5.52639 36.2824 5.80068 36.2824 6.34927 36.387C7.88532 36.7007 16.9096 36.8651 27.223 36.7754C32.7912 36.7157 41.1297 36.7456 45.7378 36.8352C56.0239 37.0145 93.2181 37.4179 108.963 37.8212C113.626 37.9408 143.277 38.6131 150.244 38.8073C160.201 39.0762 181.623 39.0613 181.952 38.7774C182.802 38.0155 179.429 37.3133 174.903 37.2983C171.172 37.2983 171.063 36.2973 175.369 36.2077C175.671 36.2077 178.002 36.1479 185.161 36.3123C185.161 36.3123 185.161 36.7306 184.969 37.5822C184.777 38.4637 186.505 39.8083 187.356 37.5374C187.411 37.3581 187.657 36.2824 187.657 36.2824C187.657 36.2824 189.056 36.2077 189.276 36.1629C190.071 35.9985 190.236 35.4457 189.495 34.9228C189.248 34.7585 188.179 34.5792 188.179 34.5792C188.179 34.5792 188.425 30.0374 189.084 17.8162Z" fill="#FDB716"/>
</svg>
