<svg width="244" height="62" viewBox="0 0 244 62" fill="none" xmlns="http://www.w3.org/2000/svg">
<path fill-rule="evenodd" clip-rule="evenodd" d="M242.823 28.3233C243.316 16.804 243.493 14.6426 243.915 13.0988C244.268 11.7925 243.493 10.4149 242.119 9.98737C239.97 9.29858 240.498 9.91611 239.829 20.0104C239.653 22.6705 239.724 28.2283 239.547 30.6271C239.477 31.3634 237.363 31.6959 237.434 30.4609L237.716 7.80226L239.301 7.636C241.133 7.44599 241.379 6.99472 240.076 5.99717C239.054 5.21338 237.751 5.02337 230.847 4.69085C142.538 0.605654 142.855 0.178134 83.7821 0.0356268C65.0775 -0.0118756 49.6137 -0.0118756 49.4376 0.0356268C48.5922 0.249387 24.463 0.130632 4.27904 1.03318C1.07356 1.17568 0.791758 1.3657 2.16554 2.4345C3.53931 3.5033 6.49822 3.62205 26.5413 3.28954C62.8231 2.71951 144.017 3.19453 144.017 3.97832C144.017 4.19208 136.021 4.28709 123.763 4.21583C88.7488 4.00207 40.1382 5.47465 9.10488 7.65976C-0.300219 8.32479 -0.37067 8.34854 0.192932 9.48859C1.07356 11.2224 1.10878 20.9367 1.53148 24.1431C1.63716 24.8556 3.46886 53.4045 3.46886 54.1883C3.46886 56.1834 3.82112 57.466 4.45517 57.7985C5.15967 58.1547 6.85047 58.2022 7.0266 57.846C7.09705 57.6797 7.4493 57.6797 8.1538 57.846C10.1264 58.3447 21.7155 58.606 34.9601 58.4635C42.1108 58.3685 52.8192 58.416 58.737 58.5585C71.9464 58.8435 119.712 59.4848 139.931 60.1261C145.919 60.3161 183.997 61.3849 192.945 61.6937C205.731 62.1212 233.242 62.0974 233.665 61.6462C234.757 60.4349 230.424 59.3186 224.612 59.2948C219.821 59.2948 219.68 57.7035 225.211 57.561C225.598 57.561 228.592 57.466 237.786 57.7272C237.786 57.7272 237.786 58.3922 237.54 59.7461C237.293 61.1474 239.512 63.285 240.604 59.6748C240.675 59.3898 240.992 57.6797 240.992 57.6797C240.992 57.6797 242.788 57.561 243.07 57.4897C244.091 57.2284 244.303 56.3497 243.352 55.5184C243.035 55.2571 241.661 54.9721 241.661 54.9721C241.661 54.9721 241.978 47.7517 242.823 28.3233Z" fill="#FDB716"/>
</svg>
