<svg width="65" height="58" viewBox="0 0 65 58" fill="none" xmlns="http://www.w3.org/2000/svg">
<path opacity="0.7" fill-rule="evenodd" clip-rule="evenodd" d="M3.34179 0.771573C0.122455 2.91909 -1.41053 20.3447 1.68616 19.2403C3.95503 18.4426 4.50695 15.9576 5.3961 2.76569C5.64138 -0.302183 5.36537 -0.578292 3.34179 0.771573ZM1.77824 23.3205C-1.07318 25.0998 0.950346 40.8994 4.01638 40.8994C6.07062 40.8994 6.34653 37.5554 4.9055 29.3028C3.67909 22.3694 3.5872 22.1854 1.77824 23.3205ZM42.7099 37.2179C39.5518 38.1383 43.9363 41.5743 49.4551 42.5561C50.7735 42.7708 51.877 43.0162 51.969 43.0776C52.1223 43.231 46.5421 45.2251 40.0114 47.4033C29.5869 50.87 29.8935 53.9686 40.1647 50.3485C48.1058 47.5567 53.1957 45.808 53.441 45.808C53.5943 45.808 53.318 46.2375 52.8888 46.7897C46.5727 54.5821 45.132 56.9137 46.1745 57.65C47.7075 58.7851 50.1603 57.1591 53.5943 52.7721C58.7452 46.2068 60.3699 44.5195 64.3864 41.7277C65.9501 40.654 64.509 40.1938 60.2473 40.4392C53.7779 40.8074 50.3133 40.0711 46.7261 37.6781C45.561 36.8498 44.4268 36.7271 42.7099 37.2179ZM20.2357 54.3674C23.455 54.3674 23.9149 53.7231 25.6011 52.1585L24.9572 51.637C24.5894 51.3302 22.9951 50.9007 21.1862 50.5939C17.0777 49.919 13.9504 48.2316 10.823 44.9797C10.4245 44.5809 10.0259 44.2741 9.90323 44.3047C1.25701 45.716 11.1295 54.3674 20.2357 54.3674Z" fill="#FDB716"/>
</svg>
