<svg width="188" height="123" viewBox="0 0 188 123" fill="none" xmlns="http://www.w3.org/2000/svg">
<path d="M20.7704 97.9999L17.0561 29.9999H161.23L164.944 97.9999H20.7704Z" stroke="#FDB716" stroke-width="2"/>
<path d="M180.777 0.629923C178.283 -0.678222 177.826 -0.404301 171.559 5.92347C165.688 11.8253 165.353 12.312 166.57 13.1029C168.761 14.5632 169.704 14.0156 176.427 7.35321C181.903 1.90768 182.237 1.39047 180.777 0.629923Z" fill="#FDB716"/>
<path d="M187.409 21.5299C185.736 18.9441 185.706 19.0353 176.64 19.6438C169.947 20.1001 168.304 20.6477 169.034 22.0775C169.856 23.629 170.16 23.6899 178.708 23.4465C186.801 23.2336 188.444 23.1119 187.409 21.5299Z" fill="#FDB716"/>
<path d="M6.90886 121.924C9.40347 123.232 9.8598 122.958 16.1267 116.63C21.9982 110.729 22.3328 110.242 21.1159 109.451C18.9255 107.991 17.9825 108.538 11.2592 115.201C5.78325 120.646 5.44861 121.163 6.90886 121.924Z" fill="#FDB716"/>
<path d="M0.27685 101.024C1.95006 103.61 1.98048 103.519 11.0462 102.91C17.739 102.454 19.3818 101.906 18.6517 100.476C17.8303 98.9248 17.5261 98.8639 8.97757 99.1073C0.885288 99.3203 -0.757498 99.442 0.27685 101.024Z" fill="#FDB716"/>
</svg>
