<svg width="55" height="104" viewBox="0 0 55 104" fill="none" xmlns="http://www.w3.org/2000/svg">
<path fill-rule="evenodd" clip-rule="evenodd" d="M52.9312 0.83859C51.0594 -1.16717 40.0053 4.91355 41.455 7.14794C42.5188 8.83643 43.2835 8.73683 47.2077 6.51731C53.5813 2.93981 54.2604 2.28896 52.9312 0.83859ZM36.1787 9.5021C35.0591 8.9447 27.7831 13.5455 25.7273 16.1371C24.3524 17.8568 24.579 19.118 26.3056 19.2838C27.6456 19.4073 34.0022 15.4616 37.0779 12.5693C37.9183 11.7682 37.4213 10.1187 36.1787 9.5021ZM19.6744 21.7112C17.5498 21.2577 10.4145 27.8582 11.2953 29.4886C11.9394 30.6809 12.3964 30.685 14.3431 29.6308C19.7373 26.7095 22.6614 22.3582 19.6744 21.7112ZM46.1147 81.3691C43.755 79.4703 45.7673 90.4898 48.8172 96.1351C49.7769 97.9114 49.0439 97.3963 46.7308 94.6859C43.9454 91.3821 38.7808 86.536 38.0207 86.4758C36.1637 86.3492 37.4961 88.6471 41.4715 92.4703C45.811 96.6309 45.8522 96.4827 40.809 94.7791C34.2622 92.5372 32.3434 92.6328 33.6815 95.0534C34.3782 96.3431 36.0262 97.149 42.5289 99.4777C45.1932 100.425 48.3155 101.659 49.5318 102.227C55.0615 104.831 55.1084 104.806 52.0891 98.2634C49.6173 92.9025 48.4694 89.6555 47.954 86.5692C47.5693 84.2299 46.7511 81.8737 46.1147 81.3691ZM34.4129 81.7617C33.6582 81.0381 29.6202 77.9408 26.9375 75.5564C23.6653 72.642 22.2699 72.3598 23.4175 74.8207C24.352 76.8308 34.0736 85.3423 35.3291 85.1971C36.2974 85.0816 35.7599 83.0766 34.4129 81.7617ZM7.39084 34.2136C4.37726 32.7318 -0.79435 43.5844 1.19073 47.2587C1.28275 47.4291 1.61066 48.5411 1.90482 49.7028C3.15284 54.594 5.42096 55.0327 4.40285 50.1742C3.50409 45.8172 4.06532 43.6576 7.52952 38.5104C8.99153 36.3347 8.95252 34.972 7.39084 34.2136ZM19.0074 67.8361C18.1447 66.8565 15.2332 64.7218 13.5585 63.081C9.31564 58.931 7.06425 58.0744 8.77326 61.2377C9.85125 63.233 18.502 70.9406 19.4909 70.751C20.5164 70.573 20.3001 69.2748 19.0074 67.8361Z" fill="#FDB716"/>
</svg>
