<svg width="38" height="34" viewBox="0 0 38 34" fill="none" xmlns="http://www.w3.org/2000/svg">
<path fill-rule="evenodd" clip-rule="evenodd" d="M9.53108 7.5824C9.70638 8.11132 9.84274 8.62066 9.84274 8.71861C9.84274 8.79697 9.18047 8.87534 8.36239 8.87534C7.1158 8.87534 4.05776 9.22795 2.53848 9.56098C2.01257 9.67851 0.707522 10.7168 0.279005 11.3828C-0.422205 12.4406 0.298464 15.9668 1.3308 16.5153C1.66193 16.6916 1.68148 16.7504 1.40879 17.2793C0.707579 18.631 1.21399 20.6683 2.65536 22.2355C3.35657 22.9995 3.45398 23.215 3.45398 24.0181C3.45398 25.2327 3.99933 26.2318 5.2654 27.3876C5.8887 27.9557 6.37567 28.5825 6.45358 28.9155C7.27166 32.285 12.4528 33.4995 20.6726 32.2458C25.0941 31.5797 25.1525 31.5601 25.5421 31.9519C26.1654 32.5396 26.925 32.7551 28.3274 32.7551C29.4961 32.7551 29.6714 32.8139 30.022 33.2645C30.5284 33.9109 31.8529 34.146 33.5281 33.9109C34.1708 33.813 35.0474 33.7346 35.4954 33.7346C36.742 33.7346 37.1705 33.3036 36.5667 32.6768C36.1381 32.2262 35.9434 32.1674 34.6189 32.1674C32.3984 32.1674 32.5542 32.8335 32.0672 21.589C31.9503 19.0619 31.814 15.7709 31.736 14.2821C31.5802 10.9518 31.3659 11.1673 34.833 11.324C37.8326 11.4612 38.417 11.324 37.7547 10.5796C36.9367 9.65891 34.3656 9.07123 31.2296 9.07123H30.5674C30.2947 9.07123 30.0414 9.18877 29.8661 9.38466C29.6908 9.58056 29.5935 9.83522 29.5935 10.1095C29.6129 10.5404 29.6325 10.9127 29.6325 10.8539L27.2951 10.8931C24.9967 10.9322 24.9577 10.9322 24.9772 11.3632C24.9967 11.9509 24.8214 11.9313 23.4774 11.1085C22.2503 10.3641 21.7244 9.61974 19.0169 4.80068C18.1014 3.15515 17.3223 2.01895 16.6211 1.25496C13.8357 -1.80103 7.44693 0.882739 9.53108 7.5824ZM14.0695 1.37249C14.6344 1.82305 15.2577 3.11596 15.9199 5.23164C17.2834 9.58055 20.3414 12.7149 24.5682 14.0862L25.1525 14.2821C25.1915 15.5162 25.3862 25.3894 25.4447 28.9743L23.5358 29.0919C21.588 29.229 16.1731 30.0126 14.4591 30.424C11.8685 31.0312 8.88834 29.6404 8.88834 27.8381C8.88834 27.5247 8.79095 27.27 8.69356 27.27C7.40801 27.27 5.44074 23.9398 6.18091 23.0386C6.29778 22.9015 6.06402 22.5685 5.57707 22.0787C4.33048 20.8838 4.15515 20.394 4.2915 18.4155C4.40837 16.77 4.38893 16.7112 3.94093 16.3977C2.63591 15.5358 2.38267 12.8128 3.53188 12.0684C3.82405 11.8725 5.30432 11.6571 7.95333 11.4024C13.3293 10.8931 12.9981 11.2849 12.1411 6.48539C11.4009 2.64581 12.3944 0.0208037 14.0695 1.37249ZM29.7687 30.6002C29.7493 30.6002 27.9963 30.6002 28.0547 30.6002L27.334 12.9696C27.3729 12.9696 29.3403 12.9696 29.2624 12.9696C29.5156 22.5489 29.1844 18.7485 29.7687 30.6002Z" fill="#FDB716"/>
</svg>
