<svg width="150" height="149" viewBox="0 0 150 149" fill="none" xmlns="http://www.w3.org/2000/svg">
<path d="M80.2271 90.8922L83.7606 88.6601L87.2015 81.5895L89.4335 80.937L91.1094 79.6355L92.5963 76.0093L92.1327 72.4757L90.2715 71.0816L87.9467 72.9428L86.1781 64.8488L80.6906 60.3847C80.6906 60.3847 77.1571 58.9905 73.9943 59.3613C70.8316 59.7321 64.196 60.9195 63.4365 65.2945C62.677 69.6696 61.782 73.1389 61.782 73.1389C61.782 73.1389 59.9457 70.6145 59.2005 70.7999C58.4553 70.9853 56.3159 73.032 56.8757 75.6384C57.4355 78.2449 59.3289 80.3059 61.618 81.4968C63.9072 82.6877 63.0122 88.5674 68.2216 90.4251C73.431 92.2864 80.2199 90.8887 80.2199 90.8887L80.2271 90.8922Z" fill="#FBFBFB"/>
<path d="M40.9836 95.2386C40.9836 95.2386 40.4951 90.7031 39.7963 89.5193C39.0974 88.3356 34.8793 82.6484 34.2517 82.4023C33.6242 82.1563 31.7415 82.0529 32.5759 84.4241C33.4102 86.7952 34.2517 86.6561 33.5885 86.8665C32.9253 87.0769 26.7532 84.1816 25.4624 84.4597C24.1717 84.7378 22.2533 84.9839 23.159 88.9239C24.0647 92.8639 33.3282 95.5916 33.3282 95.5916L33.9344 98.4085L37.8922 97.2746L40.9801 95.2351L40.9836 95.2386Z" fill="#FBFBFB"/>
<path d="M115.388 99.0753L115.773 96.4581L121.46 94.4364C121.46 94.4364 126.798 90.6355 126.484 88.0183C126.17 85.4011 124.113 84.7736 121.146 85.8539C118.18 86.9343 115.741 87.5975 115.741 87.5975C115.741 87.5975 117.292 83.8144 116.507 83.0264C115.723 82.2384 110.089 87.3872 109.358 90.1077C108.627 92.8283 107.857 95.2351 108.242 95.688C108.627 96.1408 110.161 97.6419 111.38 98.0948C112.599 98.5476 115.391 99.0718 115.391 99.0718L115.388 99.0753Z" fill="#FBFBFB"/>
<path d="M79.9632 83.0335C78.7152 83.1797 77.6063 83.3045 76.4974 83.4365C74.465 83.6754 72.4611 83.3794 70.4501 83.1262C69.983 83.0692 69.5123 83.0585 69.0488 82.9943C67.7081 82.816 66.6562 83.3544 65.7399 84.2744C65.4653 84.5489 65.2086 84.7379 65.3583 85.2442C65.4974 85.7256 65.0303 86.0394 64.6416 86.2248C64.3992 86.3425 64.0248 86.371 63.7895 86.264C63.4115 86.0929 63.3438 85.6614 63.4472 85.287C63.711 84.3243 63.9713 83.3544 64.3279 82.4238C64.6666 81.5395 65.3369 80.8906 66.1428 80.395C66.8809 79.9386 67.6368 80.1347 68.3963 80.3451C68.9703 80.5055 69.5515 80.7587 70.1292 80.7587C71.5162 80.7515 72.9032 80.6125 74.2902 80.5412C74.6254 80.5233 74.9713 80.5233 75.2958 80.5911C76.8325 80.9156 78.3622 80.994 79.9133 80.6374C80.6193 80.477 81.3502 80.4235 82.0776 80.3593C82.3414 80.3379 82.6374 80.3807 82.8834 80.4805C84.3346 81.0689 85.3901 82.9337 85.2011 84.5026C85.1761 84.7237 85.2189 84.9519 85.2367 85.1765C85.2653 85.5616 85.1726 85.8967 84.7803 86.0501C84.4487 86.182 84.0066 85.9681 83.8105 85.5901C83.7392 85.4475 83.675 85.287 83.6607 85.1301C83.5716 84.064 82.8371 83.5862 81.9385 83.3438C81.2575 83.1619 80.5372 83.1191 79.9632 83.0335Z" fill="#FDB716"/>
<path d="M69.8046 64.157C69.8546 64.157 69.9009 64.157 69.9508 64.157C70.9599 64.1784 71.3807 64.6027 71.4948 65.6154C71.5447 66.0432 71.7301 66.4568 71.8299 66.8776C71.9155 67.2306 71.7479 67.3982 71.4128 67.2734C70.1969 66.8098 69.2021 67.2948 68.2358 67.9651C67.8828 68.2111 67.5191 68.4679 67.1197 68.6105C66.7168 68.7567 66.5457 68.5534 66.6491 68.122C66.7382 67.7405 66.7168 67.4089 66.4458 67.088C66.2248 66.8277 66.3032 65.9862 66.5849 65.7901C67.109 65.4264 67.676 65.1233 68.2179 64.7881C68.4283 64.6562 68.603 64.4601 68.8241 64.3638C69.1272 64.2319 69.4588 64.1641 69.7797 64.0679C69.7868 64.1 69.7975 64.1285 69.8046 64.1606V64.157Z" fill="#FDB716"/>
<path d="M78.7615 67.0488C78.0722 67.17 77.7394 66.8895 77.7632 66.2073C77.7632 66.1431 77.7632 66.0646 77.8024 66.0219C78.3408 65.3872 78.7366 64.6063 79.5424 64.2462C79.6957 64.1784 79.9418 64.1963 80.0986 64.2711C81.0115 64.7168 81.9278 65.1625 82.805 65.6689C83.3148 65.9648 83.4111 66.4176 83.2435 66.9775C83.0973 67.4731 82.9476 67.9651 82.8192 68.4643C82.7123 68.8815 82.5411 68.8351 82.2416 68.6248C81.5962 68.1791 80.9473 67.7191 80.2484 67.3768C79.8063 67.1593 79.2607 67.1486 78.7651 67.0452L78.7615 67.0488Z" fill="#FDB716"/>
<path d="M33.9165 97.6705C33.9165 97.6705 34.0199 97.6455 34.0663 97.6883C34.922 98.4121 35.7635 97.9664 36.6157 97.6847C37.7852 97.2961 38.805 96.64 39.7499 95.8698C40.5486 95.2209 40.652 94.3295 40.4951 93.3739C40.4808 93.2954 40.463 93.217 40.4523 93.1385C40.4488 93.0922 40.463 93.0423 40.488 92.8319C40.8873 93.2134 40.8945 93.9052 41.1583 94.2617C41.6361 94.9142 42.4312 95.1888 42.8449 95.8841C42.9982 96.1408 43.0659 96.451 43.1479 96.7434C43.2834 97.2176 43.3405 97.7275 43.5366 98.1732C44.535 100.459 45.569 102.727 46.5923 105.001C46.8241 105.518 46.9703 106.039 46.7243 106.595C46.5923 106.888 46.6565 107.109 46.9739 107.205C47.2912 107.301 47.5872 107.319 47.7048 106.902C48.1077 105.501 48.5285 104.106 48.9207 102.702C49.3593 101.126 49.7444 99.5353 50.2115 97.97C51.2098 94.604 53.5846 92.5181 56.7259 91.2309C58.5693 90.475 60.5268 90.147 62.5165 90.0971C64.1816 90.0543 65.8468 90.0971 67.5155 90.0971C67.7294 90.0971 67.9434 90.0721 68.1537 90.0578C68.168 90.0151 68.1858 89.9687 68.2001 89.9259C67.7437 89.5159 67.2873 89.1022 66.7988 88.6637C67.1981 88.4105 67.3978 88.6494 67.6296 88.842C68.4461 89.5087 69.2448 90.204 70.1006 90.8173C71.049 91.4984 72.1615 91.7979 73.3132 91.9155C73.5771 91.9441 73.8588 91.8834 74.1155 91.8121C75.3064 91.477 76.5045 91.5269 77.6704 91.1204C78.7758 90.7353 79.8383 90.2326 80.9294 89.7975C81.2075 89.687 81.5106 89.2948 81.7994 89.2128C82.2558 89.0844 82.5732 88.817 82.7443 88.3535C82.8192 88.1538 82.9796 87.9791 83.1223 87.8079C83.5644 87.2802 84.0172 86.7596 84.4665 86.239C84.5129 86.1856 84.5663 86.1249 84.6305 86.1036C85.0584 85.9574 85.2616 85.722 85.1975 85.2193C85.1689 85.0089 85.4578 84.7771 85.5398 84.5347C85.7573 83.8715 85.9427 83.1976 86.1317 82.5237C86.3135 81.8818 86.4704 81.2329 86.6594 80.5946C86.695 80.4734 86.8127 80.3522 86.9268 80.2951C86.9732 80.2737 87.1087 80.4164 87.1978 80.4948C87.2691 80.559 87.319 80.6481 87.3939 80.7087C88.0286 81.2222 88.0571 81.2329 87.7683 81.9781C86.8412 84.3742 85.5433 86.5457 83.7284 88.382C83.1009 89.0131 82.4484 89.6193 81.8244 90.2575C81.7138 90.3716 81.6996 90.582 81.639 90.7496C81.8279 90.7104 82.0847 90.7389 82.1916 90.6248C83.0117 89.7583 83.9851 89.8225 85.0299 90.0543C86.3064 90.336 87.5936 90.582 88.8843 90.8031C91.4195 91.2345 93.73 92.0867 95.52 94.0442C96.012 94.5791 96.5647 95.0604 97.0996 95.5561C97.2279 95.6737 97.3848 95.7843 97.5488 95.8306C98.237 96.0231 98.647 96.4867 98.8824 97.1356C99.4636 98.7366 99.9342 100.363 100.152 102.063C100.348 103.604 100.619 105.133 100.872 106.667C100.943 107.094 101.856 107.761 102.277 107.69C102.416 107.665 102.584 107.497 102.641 107.355C102.894 106.741 103.118 106.117 103.339 105.497C103.935 103.825 104.523 102.149 105.115 100.477C105.582 99.1645 106.049 97.8559 106.52 96.5473C106.759 95.8805 107.172 95.4312 107.907 95.2565C108.16 95.1959 108.353 94.8679 108.56 94.6753C108.745 95.0105 108.995 95.4241 109.216 95.8556C109.615 96.6293 110.353 97.018 111.063 97.3924C111.747 97.7525 112.492 98.0163 113.23 98.2552C113.872 98.4656 114.924 98.6582 115.409 98.1839C115.438 98.1554 115.716 99.6066 115.759 100.462C115.808 101.493 114.707 102.252 114.257 103.137C113.455 104.709 112.574 106.249 111.911 107.879C110.838 110.51 109.611 113.053 108.192 115.513C107.29 117.078 105.989 118.169 104.466 119.039C103.807 119.417 103.101 119.71 102.405 120.02C101.728 120.319 101.1 120.305 100.523 119.745C100.359 119.585 100.063 119.499 99.8237 119.492C98.1479 119.449 96.6467 118.932 95.3381 117.877C94.2007 116.961 93.0704 116.037 92.3323 114.739C92.2859 114.657 92.2253 114.586 92.1326 114.45C92.0578 114.614 92.0043 114.679 92.0007 114.743C91.9116 116.797 91.8188 118.85 91.7475 120.904C91.7226 121.578 92.3216 122.241 92.2966 122.915C92.2681 123.735 91.1699 124.195 90.4639 124.402C89.1625 124.787 87.8574 125.183 86.5275 125.454C81.8493 126.402 77.0999 126.431 72.3541 126.345C69.6549 126.295 66.9557 126.089 64.2565 125.939C63.8714 125.917 63.4792 125.857 63.1084 125.743C62.5913 125.586 62.0957 125.365 61.5894 125.172C60.8977 124.908 60.2095 124.634 59.5106 124.384C59.0257 124.209 58.5123 124.106 58.038 123.906C57.4925 123.678 56.5119 123.393 56.4264 122.808C56.2623 121.689 56.7722 120.398 56.6474 119.271C56.5975 118.825 56.6296 118.365 56.6332 117.916C56.6332 117.463 56.6617 117.01 56.6474 116.558C56.6439 116.433 56.5512 116.226 56.462 116.205C56.3372 116.176 56.1518 116.247 56.0448 116.337C55.5243 116.772 55.0643 117.289 54.5045 117.663C52.7145 118.875 50.7784 119.742 48.5641 119.613C46.7136 119.503 44.8737 119.257 43.4296 117.895C43.3369 117.806 43.2299 117.716 43.1123 117.67C41.9641 117.221 41.333 116.294 40.7554 115.267C39.0011 112.151 37.2005 109.056 35.4283 105.946C35.0005 105.194 34.7188 104.392 34.6938 103.504C34.6867 103.24 34.5655 102.973 34.4585 102.719C34.1982 102.11 33.8844 101.518 33.6527 100.901C33.5243 100.562 33.4316 100.17 33.4779 99.8205C33.5671 99.111 33.7632 98.4157 33.9201 97.6812L33.9165 97.6705Z" fill="#FDB716"/>
<path d="M85.144 63.2729C84.3025 62.8164 83.5252 62.4706 82.8335 61.9964C82.3806 61.6861 82.0669 61.1763 81.6639 60.7805C80.5871 59.7143 79.2999 59.1545 77.7667 59.2722C76.9181 59.34 76.0802 59.4719 75.2315 59.5575C74.1797 59.6644 73.1243 59.7357 72.0724 59.8498C71.5233 59.9105 70.9528 59.9604 70.4429 60.1529C69.7155 60.4275 68.9988 60.6913 68.2429 60.8946C67.3123 61.1442 66.7667 61.95 66.1784 62.6738C65.4403 63.5866 64.688 64.4994 63.8465 65.3124C63.1583 65.9792 62.9693 66.8171 62.7946 67.6586C62.6591 68.3075 62.7376 68.9993 62.6734 69.6696C62.5664 70.7928 62.4274 71.9124 62.2919 73.0356C62.2776 73.1461 62.1813 73.2459 62.1243 73.3493C62.0066 73.2816 61.8319 73.2388 61.782 73.139C61.5466 72.679 61.347 72.2048 61.2222 71.6842C61.3969 71.8482 61.5609 72.0229 61.7463 72.1727C61.8497 72.2582 62.0458 72.383 62.1029 72.3438C62.2134 72.2689 62.3097 72.0978 62.3204 71.9587C62.3881 71.103 62.4274 70.2472 62.4808 69.3915C62.5129 68.8424 62.545 68.2933 62.5842 67.7442C62.6484 66.8527 62.9051 66.0326 63.4329 65.2981C63.9249 64.6171 64.3884 63.9111 64.8805 63.2301C65.1337 62.8806 65.1515 62.5383 65.041 62.1318C64.9055 61.6398 64.7807 61.1263 64.7593 60.6164C64.6915 58.9834 64.6808 57.3468 64.6238 55.7137C64.606 55.2002 64.5739 54.669 64.4348 54.1769C64.335 53.8275 64.0462 53.5315 63.8465 53.2106C63.3722 52.4511 62.6128 51.7309 62.4951 50.9144C62.3382 49.8268 62.5379 48.6252 62.841 47.5484C63.1155 46.5714 64.3884 46.2826 65.2264 46.8745C65.6756 47.1918 66.0322 47.2988 66.592 47.0706C67.0199 46.8959 67.5726 47.0456 68.0682 47.0207C68.4747 46.9993 68.8811 46.9351 69.2876 46.8852C69.3482 46.8781 69.4089 46.8174 69.4695 46.821C70.229 46.846 70.4536 46.3468 70.7567 45.7371C71.5376 44.1575 73.1492 42.7633 75.1495 42.9059C75.8199 42.9523 76.4189 43.1448 76.9288 43.587C78.1589 44.6531 79.2607 45.8298 80.063 47.2631C80.1949 47.4949 80.3233 47.5805 80.555 47.3986C80.9437 47.0956 81.3716 47.067 81.8422 47.1811C82.0169 47.2239 82.2345 47.1312 82.4199 47.0635C82.8513 46.903 83.2685 46.7069 83.6999 46.55C83.8461 46.4965 84.0208 46.5179 84.1813 46.5072C85.7894 46.3717 86.8983 47.01 87.6043 48.4755C87.9787 49.2563 88.0286 50.0657 87.6043 50.8145C87.1015 51.7131 86.5346 52.5831 85.9249 53.4139C85.6075 53.8489 85.4364 54.2482 85.4899 54.7902C85.7359 57.3147 85.5897 59.8356 85.4007 62.3565C85.3793 62.6489 85.2438 62.9341 85.144 63.2835V63.2729Z" fill="#FDB716"/>
<path d="M117.62 45.8511C118.529 46.0615 119.627 46.0793 120.412 46.9672C120.547 47.1205 120.8 47.1847 121.014 47.2453C121.817 47.4664 122.259 47.9905 122.244 48.8249C122.237 49.21 122.162 49.595 122.08 49.9766C121.613 52.1766 121.153 54.3801 120.654 56.573C120.08 59.1082 118.861 61.8751 118.269 64.4067C118.251 64.4851 118.436 66.1574 118.707 67.056C118.736 67.1487 118.772 67.2414 118.782 67.3376C118.882 68.2825 119.264 68.9921 120.212 69.3879C120.715 69.5983 121.029 70.0725 121.036 70.6679C121.05 71.513 120.298 72.03 119.545 71.6449C119.121 71.4274 118.968 71.513 118.811 71.9373C118.697 72.244 118.476 72.5328 118.24 72.7645C117.82 73.1782 117.267 73.2495 116.81 72.9999C116.308 72.7253 116.108 72.2582 116.208 71.7269C116.318 71.1279 116.504 70.5325 116.714 69.9584C116.843 69.609 116.821 69.3344 116.686 68.9921C116.29 68.0008 115.937 66.9918 115.587 65.9827C115.42 65.4978 115.217 65.0592 114.618 65.0307C114.265 65.0128 113.584 64.3033 113.316 64.0323C112.093 62.7843 111.173 62.0712 109.986 60.7911C109.633 60.4132 109.326 59.996 108.987 59.6002C108.388 58.9013 107.804 58.1954 107.18 57.5214C106.467 56.7513 105.793 55.9811 105.7 54.8615C105.689 54.7153 105.468 54.5121 105.304 54.4621C104.135 54.1163 103.721 53.2712 104.224 52.1516C104.63 51.2459 105.286 50.515 106.053 49.9124C108.374 48.0832 110.977 46.7818 113.865 46.1578C115.042 45.9046 116.279 45.9474 117.62 45.844V45.8511Z" fill="#FDB716"/>
<path d="M32.3049 61.7895C32.3833 61.9214 32.4653 62.0498 32.5438 62.1817C32.9681 62.877 32.7827 63.5902 32.0446 63.9182C31.6916 64.0751 31.5133 64.2997 31.442 64.6634C31.0498 66.6816 30.6433 68.6962 30.2618 70.7179C30.2261 70.8997 30.2796 71.16 30.3937 71.2991C30.8145 71.8054 31.3636 72.1513 30.9892 72.761C30.7289 73.1889 29.841 73.524 29.3133 73.3707C28.6073 73.1639 28.1153 72.5863 28.0974 71.9052C28.0903 71.6485 28.1081 71.3846 28.1616 71.1315C28.7 68.5642 29.2491 66.0005 29.7911 63.4368C29.9231 62.8022 30.0336 62.1639 30.1512 61.5292C30.1726 61.4187 30.2047 61.2868 30.1655 61.1941C29.8696 60.4881 30.1334 59.8284 30.2903 59.1545C30.7039 57.3895 31.0997 55.621 31.524 53.856C32.0089 51.845 32.5402 49.8411 33.0073 47.8265C33.2141 46.928 33.3104 46.008 33.4673 45.0988C33.6812 43.8472 34.4229 43.3302 35.5354 43.8972C37.0864 44.6923 38.7694 45.0096 40.3953 45.5302C41.1334 45.7656 41.8964 45.9367 42.6452 46.1435C43.8861 46.4858 43.9431 47.1169 43.6686 48.3863C43.1658 50.7289 42.6524 52.9895 42.089 55.3143C41.6861 56.983 41.547 58.6874 41.1227 60.3526C40.9587 60.9944 40.2634 61.7574 40.135 62.4064C39.9639 63.2871 40.0566 63.5581 39.1759 63.3941C38.3023 63.23 37.4394 63.0054 36.5623 62.8521C36.006 62.7558 35.4391 62.738 34.8722 62.7059C34.1448 62.6631 33.4637 62.5419 32.9431 61.95C32.8148 61.8038 32.5794 61.7574 32.394 61.6647C32.3619 61.7075 32.3334 61.7467 32.3013 61.7895H32.3049Z" fill="#FDB716"/>
<path d="M95.9087 32.5477C94.2649 32.3231 92.5178 32.102 90.7777 31.8346C90.4604 31.7847 90.1537 31.5779 89.8756 31.3925C89.2481 30.9682 88.6597 30.4868 88.0286 30.0696C87.4332 29.681 87.1051 29.1818 86.9768 28.4687C86.8377 27.6806 86.4811 26.9283 86.5988 26.0975C86.6024 26.0654 86.5952 26.0333 86.5917 26.0012C86.5667 25.2489 86.5596 25.256 86.0212 24.6998C85.5327 24.197 85.5648 23.5873 85.8358 23.0239C86.0782 22.5176 86.0461 22.1896 85.5826 21.833C85.2046 21.5442 85.1833 21.127 85.44 20.8525C85.7502 20.5173 86.121 20.5601 86.4526 20.7918C86.6737 20.9452 86.4312 21.291 86.6452 21.4551C86.8341 21.5977 87.5259 21.4943 87.7148 21.4551C88.4886 21.3017 89.1375 21.5905 89.7366 22.0149C90.9132 22.8385 92.1291 23.6337 93.484 24.1043C94.5359 24.4716 95.6127 24.657 96.7216 24.6748C96.9926 24.6784 97.2886 24.6713 97.5346 24.575C98.6471 24.1364 99.7346 23.6408 100.847 23.2058C101.507 22.9491 101.878 22.3072 102.569 22.2038C102.876 22.1575 103.678 21.2696 103.942 21.3659C104.206 21.4622 104.573 20.6457 104.687 20.9951C104.791 21.3053 104.388 21.8865 104.363 22.5069C104.334 23.245 104.666 24.0294 104.616 24.3575C104.538 24.8638 104.623 25.2881 104.762 25.7837C104.973 26.5432 105.015 27.4097 104.873 28.1834C104.78 28.6933 104.438 29.6275 103.996 29.9448C102.608 30.9325 101.175 31.7098 99.4493 32.0664C98.3333 32.2981 97.1852 32.3837 95.9158 32.5513L95.9087 32.5477Z" fill="#FDB716"/>
<path d="M61.1758 14.6981C61.1045 15.8427 61.0688 16.9908 60.9511 18.1283C60.887 18.7487 60.7443 19.3834 60.5197 19.9646C59.5178 22.5318 58.4659 25.0741 56.7437 27.2741C56.3943 27.7198 56.0163 28.1014 55.4636 28.2654C55.157 28.3545 55.0714 28.5221 55.1106 28.8395C55.214 29.6809 54.9323 30.1017 54.1158 30.2835C53.6166 30.3941 53.2565 30.6437 53.0212 31.0822C52.6183 31.8382 52.1725 32.5762 51.8445 33.3642C51.6948 33.7208 51.7554 34.1772 51.7518 34.5873C51.7482 35.1649 51.873 35.7603 51.7661 36.313C51.5771 37.29 50.6964 37.8427 49.7836 37.6858C48.9777 37.5467 48.4785 36.9334 48.5962 36.1276C48.6568 35.7211 48.8351 35.3253 49.0027 34.9474C49.3022 34.2663 49.616 33.5924 49.9547 32.9328C50.5716 31.7419 51.2134 30.5652 51.8409 29.3814C51.9515 29.1711 52.1191 28.9536 52.1333 28.7289C52.2225 27.4168 52.7288 26.233 53.3421 25.1169C54.2299 23.5017 55.2604 21.9649 56.1589 20.3532C57.0789 18.6988 57.9168 16.998 58.7797 15.3114C58.8973 15.0832 58.9366 14.8194 59.0328 14.5769C59.179 14.2025 59.3181 13.8174 59.5035 13.4644C59.6782 13.1364 59.7566 12.409 60.1667 12.4839C60.6017 12.5623 61.0367 13.3575 61.0938 13.7746C61.1366 14.0742 61.1009 14.3879 61.1009 14.6946C61.1259 14.6946 61.1473 14.6946 61.1722 14.6981H61.1758Z" fill="#FDB716"/>
<path d="M33.8345 97.0179C33.6777 96.5758 33.5208 96.1301 33.3318 95.5952C33.749 95.7343 34.1091 95.7592 33.9415 96.2976C33.8738 96.5151 33.9308 96.7683 33.9308 97.0072C33.8987 97.0108 33.8666 97.0143 33.8381 97.0179H33.8345Z" fill="#FDB716"/>
<path d="M108.788 131.162C108.677 131.294 108.602 131.359 108.56 131.441C107.932 132.628 106.948 133.437 105.818 134.122C101.282 136.875 96.4899 138.996 91.2698 140.059C90.1609 140.283 89.0377 140.504 87.8325 140.012C87.8325 140.233 87.8218 140.38 87.8325 140.529C87.9217 141.61 88.0215 142.69 88.1071 143.774C88.1392 144.195 88.182 144.619 88.1499 145.036C88.0714 146.099 87.6008 146.919 86.5988 147.375C85.3544 147.942 84.053 148.167 82.6802 148.16C77.6277 148.131 72.5716 148.121 67.5191 148.149C66.2569 148.156 65.0339 148.067 63.8429 147.621C62.1956 147.008 61.593 146.113 61.7071 144.362C61.7784 143.264 61.8925 142.17 61.9852 141.071C62.0102 140.754 62.0245 140.437 62.0423 140.098C59.582 140.64 57.3571 139.848 55.1392 139.185C51.16 137.994 47.4339 136.229 43.9039 134.043C42.8342 133.384 41.9179 132.596 41.3117 131.48C41.2618 131.384 41.1762 131.309 41.0657 131.17C39.9104 132.221 38.7302 133.202 37.8067 134.446C37.5464 134.796 37.2932 135.16 36.9901 135.473C36.0239 136.479 34.6974 136.689 33.4851 135.987C32.961 135.68 32.4618 135.291 32.0304 134.86C29.8054 132.642 27.6411 130.36 25.384 128.174C23.045 125.914 20.6132 123.742 18.2313 121.521C17.7714 121.093 17.3043 120.655 16.9192 120.159C15.9814 118.95 15.9279 117.478 16.9085 116.304C17.6074 115.47 18.4952 114.793 19.3189 114.065C19.704 113.723 20.1247 113.427 20.574 113.078C18.9088 112.093 18.2135 110.414 17.3078 108.931C14.4839 104.317 12.1983 99.439 10.2372 94.4008C9.70591 93.0351 9.57042 91.6017 9.45275 90.1648C9.4171 89.7084 9.26734 89.5765 8.82877 89.6371C8.09068 89.7405 7.34546 89.7868 6.61094 89.8974C4.89587 90.1612 3.65503 89.4338 3.23072 87.7508C2.93477 86.5778 2.77788 85.3654 2.5889 84.1674C1.90074 79.8672 1.209 75.5635 0.549362 71.2598C0.331858 69.8514 0.199929 68.4322 0.0359098 67.0167C0.00738477 66.76 0.00381968 66.4997 0.000254042 66.2394C-0.0140085 64.6455 0.570756 63.9895 2.13963 63.7684C3.64077 63.5545 5.1419 63.312 6.63947 63.0695C7.14935 62.9875 7.12796 62.4598 7.12796 62.1888C7.12796 60.5914 7.56653 59.0831 7.94805 57.5642C9.48841 51.442 12.184 45.819 15.4181 40.4349C15.7782 39.8394 16.1169 39.2261 16.5234 38.6628C17.0297 37.9639 17.5931 37.3042 18.1779 36.5733C18.1386 36.5376 18.0138 36.4271 17.8819 36.3201C17.3899 35.9243 16.8728 35.5571 16.4057 35.1328C14.7406 33.6209 14.5908 31.8809 16.0456 30.1694C17.3792 28.6041 18.7341 27.053 20.1675 25.5769C22.8417 22.8242 25.5552 20.1072 28.3007 17.4223C29.0352 16.7056 29.8767 16.0638 30.761 15.5432C32.4725 14.5305 34.1769 14.6839 35.7386 15.9247C36.3198 16.3882 36.8511 16.9159 37.3895 17.4294C37.5927 17.6219 37.7282 17.6398 37.96 17.4544C38.3736 17.1192 38.8122 16.809 39.2686 16.5344C44.7597 13.2113 50.511 10.4336 56.5512 8.25145C58.113 7.68808 59.7068 7.40283 61.3684 7.59538C61.429 7.60251 61.4932 7.59181 61.6109 7.58468C61.6287 7.40996 61.6572 7.23881 61.6608 7.06766C61.6608 5.91953 61.6608 4.76783 61.6608 3.61969C61.6608 3.3594 61.6429 3.10268 61.6429 2.84239C61.6429 1.13445 62.5914 0.146765 64.2993 0.103977C66.2747 0.0540585 68.2501 -0.00655627 70.2254 0.000574997C75.3279 0.0148375 80.4303 0.0540585 85.5327 0.103977C87.2941 0.121806 88.2497 1.13445 88.2355 2.89944C88.2248 4.21159 88.1998 5.52018 88.1891 6.83233C88.1891 7.07123 88.2248 7.31012 88.2462 7.58468C88.3852 7.58468 88.4958 7.59538 88.6027 7.58468C90.0789 7.42779 91.5158 7.6239 92.91 8.11239C99.2426 10.348 105.254 13.2576 110.977 16.7662C111.305 16.9694 111.626 17.1976 111.911 17.4579C112.143 17.6647 112.282 17.6148 112.478 17.4258C113.006 16.9231 113.523 16.4061 114.09 15.9497C115.687 14.6767 117.388 14.5198 119.15 15.561C119.952 16.0352 120.726 16.6022 121.389 17.2547C125.553 21.3587 129.782 25.4022 133.576 29.8663C133.776 30.1017 133.972 30.3406 134.147 30.5902C135.106 31.9843 135.027 33.4855 133.858 34.712C133.326 35.2718 132.685 35.7282 132.093 36.2274C131.936 36.3594 131.772 36.4877 131.619 36.6089C133.761 38.6556 134.988 41.2692 136.325 43.783C137.669 46.3075 138.853 48.9282 139.973 51.5597C141.096 54.2018 141.866 56.9687 142.43 59.7856C142.579 60.5272 142.611 61.2938 142.708 62.0462C142.743 62.3243 142.768 62.6167 142.872 62.8734C142.922 62.9946 143.136 63.1016 143.285 63.123C144.113 63.2514 144.947 63.3619 145.778 63.4582C146.512 63.5438 147.254 63.5901 147.988 63.6828C148.926 63.8005 149.646 64.4245 149.764 65.405C149.86 66.2144 149.839 67.0595 149.721 67.8653C149.037 72.5933 148.309 77.3142 147.589 82.0351C147.332 83.7324 147.061 85.4261 146.78 87.1197C146.723 87.4692 146.619 87.815 146.494 88.1466C145.988 89.4659 144.847 90.1113 143.446 89.9223C142.597 89.8082 141.741 89.7262 140.889 89.6228C140.593 89.5872 140.433 89.6727 140.426 90.0043C140.358 92.5003 139.524 94.7823 138.554 97.0465C136.607 101.578 134.439 105.993 131.79 110.161C131.112 111.231 130.567 112.429 129.255 113.035C129.458 113.206 129.604 113.327 129.747 113.448C130.634 114.179 131.576 114.853 132.399 115.648C134.065 117.256 134.072 119.143 132.407 120.758C130.684 122.423 128.852 123.978 127.133 125.646C124.377 128.317 121.674 131.045 118.939 133.737C118.258 134.407 117.577 135.081 116.839 135.68C116.008 136.354 115.092 136.529 114.104 135.702C112.678 134.507 111.273 133.288 109.861 132.075C109.508 131.776 109.159 131.473 108.788 131.159V131.162ZM88.3959 72.0514C88.5991 71.7768 88.7097 71.6235 88.8309 71.4737C89.7508 70.3078 91.2484 70.2721 92.1541 71.4488C92.4893 71.8873 92.7674 72.4257 92.8922 72.957C93.4805 75.4922 92.967 77.8384 91.5158 79.9849C90.8526 80.9654 89.9327 81.5573 88.7525 81.6821C88.3602 81.7249 88.2069 81.8854 88.1107 82.2562C87.4617 84.8163 86.2886 87.0948 84.4487 89.0131C84.3667 89.0987 84.3133 89.2092 84.1992 89.3803C84.463 89.3803 84.6342 89.3946 84.8053 89.3803C86.4348 89.2342 88.0429 89.3803 89.6332 89.7369C94.9495 90.9278 98.7077 93.9622 100.516 99.1751C101.104 100.869 101.471 102.637 101.942 104.37C102.006 104.606 102.07 104.841 102.134 105.076C102.313 104.93 102.38 104.787 102.43 104.641C102.637 104.028 102.84 103.411 103.044 102.798C103.903 100.166 105.08 97.6847 106.634 95.392C106.83 95.1032 107.14 94.7538 107.44 94.7074C107.861 94.6397 107.907 94.4935 107.939 94.1333C108.103 92.3006 108.374 90.4857 109.401 88.899C110.688 86.9058 112.182 85.0731 113.862 83.4008C114.261 83.0014 114.789 82.6769 115.316 82.4666C116.411 82.0387 117.427 82.6876 117.62 83.8429C117.762 84.7022 117.602 85.5152 117.249 86.3032C117.174 86.4672 117.11 86.6384 116.989 86.9272C117.288 86.8345 117.456 86.7953 117.616 86.7311C118.533 86.3638 119.438 85.9645 120.369 85.6293C121.31 85.2906 122.255 84.9162 123.232 84.7236C125.732 84.228 127.579 86.1 127.144 88.6102C126.937 89.8082 126.377 90.8387 125.66 91.7943C124.084 93.8873 121.952 95.1282 119.467 95.8306C118.64 96.0659 117.82 96.3155 117.01 96.5972C116.789 96.6756 116.515 96.8646 116.454 97.0643C116.279 97.6241 116.201 98.216 116.083 98.8114C116.144 98.84 116.197 98.8756 116.258 98.8935C117.135 99.1787 117.409 99.6601 117.181 100.555C117.099 100.883 116.978 101.204 116.846 101.518C116.44 102.505 116.037 103.497 115.602 104.474C114.104 107.829 112.617 111.191 111.07 114.525C110.442 115.877 109.611 117.128 108.567 118.212C104.566 122.362 97.4312 122.184 93.5126 117.848C93.3914 117.713 93.2559 117.592 93.0526 117.388C93.0704 119.235 93.7051 120.918 93.3093 122.719C93.5162 122.648 93.6837 122.605 93.8406 122.534C94.5502 122.22 95.2526 121.881 95.9729 121.592C96.1797 121.51 96.4614 121.525 96.6824 121.585C97.2743 121.746 97.8377 122.02 98.4367 122.141C100.687 122.587 102.919 122.441 105.115 121.796C105.383 121.717 105.511 121.788 105.689 121.974C106.998 123.339 108.296 124.723 109.654 126.039C111.326 127.661 113.067 129.216 114.76 130.82C115.227 131.262 115.206 131.305 115.641 130.842C119.649 126.573 123.906 122.569 128.256 118.661C128.395 118.537 128.609 118.487 128.784 118.401C128.409 118.005 128.203 117.831 127.989 117.659C126.006 116.066 123.999 114.504 122.052 112.871C120.69 111.726 119.378 110.514 118.101 109.273C116.86 108.071 116.75 106.677 117.684 105.226C117.884 104.912 118.105 104.609 118.337 104.317C120.358 101.785 121.87 98.9755 122.947 95.9233C123.04 95.6594 123.268 95.4063 123.496 95.2387C125.136 94.0478 126.562 92.6536 127.358 90.7709C128.106 88.9917 128.374 87.1269 127.753 85.2264C127.725 85.1408 127.732 85.0481 127.711 84.8841C128.071 84.8841 128.392 84.8734 128.709 84.8841C130.328 84.959 131.943 85.0624 133.562 85.1087C136.429 85.1943 139.292 85.2406 142.159 85.3262C142.572 85.3405 142.676 85.1765 142.733 84.8128C143.417 80.4306 144.127 76.0484 144.808 71.6663C145.025 70.2578 145.179 68.8423 145.36 67.4267C145.389 67.2057 145.457 66.9703 145.082 66.9489C143.449 66.8598 141.82 66.7065 140.183 66.6672C136.265 66.571 132.346 66.5282 128.427 66.4569C127.796 66.4462 127.161 66.4497 126.534 66.3856C124.587 66.1895 123.589 64.7989 123.885 62.7165C124.231 60.2634 124.776 57.8387 125.24 55.4034C125.304 55.0718 125.393 54.7438 125.475 54.4157C125.553 54.1055 125.635 53.7989 125.714 53.4887C125.778 53.4815 125.846 53.478 125.91 53.4708C126.609 56.1308 127.329 58.7836 127.996 61.4507C128.114 61.925 128.285 62.0747 128.762 62.0711C131.579 62.0711 134.4 62.0925 137.217 62.1246C138.422 62.1389 138.425 62.1532 138.186 60.9729C137.224 56.1878 135.551 51.6559 133.259 47.3593C131.768 44.5674 130.146 41.8469 128.559 39.0514C128.399 39.1833 128.238 39.2903 128.106 39.4258C126.709 40.8449 125.311 42.2605 123.927 43.6974C123.721 43.9114 123.553 43.9934 123.264 43.9042C122.248 43.5869 121.225 43.2874 120.201 42.9879C119.809 42.8738 119.406 42.7882 118.968 42.6812C119.075 42.5386 119.139 42.4459 119.21 42.3603C122.28 38.8125 125.539 35.4608 129.404 32.7509C129.921 32.3872 129.911 32.373 129.483 31.8809C126.031 27.8981 122.202 24.279 118.483 20.5565C118.176 20.2498 117.809 20.0002 117.484 19.7078C117.099 19.3584 116.768 19.3727 116.4 19.7542C115.42 20.7668 114.418 21.7581 113.423 22.7565C111.776 24.4073 110.125 26.0547 108.474 27.702C108.356 27.8197 108.221 27.9124 108.028 28.0728C107.854 26.4255 107.732 24.878 107.504 23.3483C107.419 22.7672 107.561 22.407 107.971 22.0469C108.374 21.6903 108.731 21.2732 109.144 20.8453C108.913 20.6884 108.759 20.5743 108.595 20.478C103.297 17.244 97.7343 14.5591 91.9045 12.4232C90.8776 12.0453 89.9077 11.5033 88.9129 11.0398C88.7774 10.9756 88.6455 10.9043 88.4458 10.8044C88.4458 11.0719 88.4458 11.2466 88.4458 11.4213C88.4601 12.8796 88.4922 14.3344 88.4779 15.7928C88.4779 16.0103 88.3282 16.292 88.157 16.4382C87.2228 17.2404 86.2672 18.0142 85.3116 18.7879C85.005 19.0375 84.6698 19.255 84.3489 19.4903C84.299 19.4725 84.2491 19.4511 84.1992 19.4333C84.1992 18.4991 84.1956 17.5649 84.1992 16.6307C84.217 13.878 84.2384 11.1254 84.2633 8.37268C84.274 7.14254 84.2776 5.90883 84.3311 4.68225C84.3489 4.24011 84.2063 4.16524 83.8141 4.19376C82.6517 4.2722 81.4857 4.36848 80.3197 4.35778C75.5418 4.32212 70.7638 4.25794 65.9895 4.18663C65.5616 4.1795 65.5188 4.33995 65.5259 4.69652C65.5616 6.3795 65.5758 8.06247 65.5865 9.74902C65.6008 11.6602 65.6222 13.5714 65.6079 15.4826C65.5972 17.1798 65.5545 18.8806 65.5045 20.5779C65.4974 20.7775 65.4047 21.0343 65.2621 21.1662C64.3885 21.9827 63.4864 22.7778 62.5914 23.573C62.4381 23.7085 62.2669 23.819 62.0387 23.9902C62.1671 23.2129 62.2634 22.5283 62.3953 21.8544C62.9266 19.1837 63.465 16.5166 63.0157 13.7746C62.7019 11.8527 61.7071 10.373 59.7353 9.88451C59.4465 9.8132 59.2968 9.82746 59.1755 10.1163C58.9259 10.7117 58.6407 11.2894 58.3947 11.8848C58.2413 12.2592 57.981 12.4518 57.6031 12.5873C51.923 14.6553 46.514 17.2939 41.3545 20.4388C41.1548 20.56 40.9658 20.7027 40.7555 20.8488C40.8339 20.9629 40.8731 21.0343 40.9266 21.0877C42.7843 22.8706 44.6491 24.6462 46.5033 26.4326C46.76 26.6787 46.9739 26.6002 47.2378 26.4576C48.6034 25.7159 49.9798 24.9921 51.3525 24.2647C51.4951 24.1898 51.652 24.1364 51.8624 24.0472C51.8161 24.2005 51.8054 24.2647 51.7768 24.3253C50.8212 26.3399 49.8657 28.3545 48.9101 30.3655C48.8673 30.4511 48.8281 30.5438 48.7639 30.6151C47.9759 31.5208 46.4248 31.7846 45.3694 31.1464C44.9166 30.8718 44.5065 30.5188 44.1 30.173C41.0621 27.5629 38.2631 24.7033 35.4962 21.8116C34.8044 21.0842 34.0663 20.4031 33.3568 19.6936C33.0787 19.4155 32.8077 19.3905 32.5046 19.6437C32.0945 19.9895 31.6524 20.2962 31.2816 20.6741C27.6945 24.3467 24.1146 28.0265 20.549 31.7205C19.8323 32.4621 19.8501 32.3587 20.6809 32.9435C24.7636 35.8316 28.1509 39.4436 31.3636 43.2303C32.5438 44.6209 32.5759 45.7477 31.6381 47.3237C31.2495 47.9762 30.8644 48.6394 30.5435 49.3276C28.347 54.0128 26.6997 58.8728 25.9474 64.0144C25.7584 65.3016 24.8955 66.1859 23.5905 66.3749C22.9701 66.464 22.3318 66.4747 21.7007 66.4818C18.4453 66.5211 15.1899 66.5068 11.9344 66.5924C9.55615 66.6566 7.18144 66.8527 4.80316 66.9775C4.35746 67.0024 4.46799 67.2912 4.50365 67.5301C5.3808 73.3243 6.26864 79.1184 7.14222 84.9162C7.19571 85.262 7.33476 85.3654 7.6842 85.3547C10.0946 85.2763 12.5085 85.2264 14.9189 85.1479C17.0226 85.0802 19.1263 84.9875 21.2265 84.9055C21.4547 84.8983 21.6793 84.9055 21.9717 84.9055C21.854 85.1907 21.7756 85.3512 21.7221 85.5188C21.3798 86.6526 20.8628 87.7366 21.2229 89.0059C21.583 90.2753 22.1892 91.3343 23.1341 92.2649C24.0112 93.135 24.9633 93.8445 26.0829 94.358C26.2825 94.4507 26.4751 94.7003 26.5464 94.9178C27.7124 98.4799 29.4274 101.735 31.7558 104.68C33.2997 106.634 33.1357 107.993 31.3386 109.737C31.3137 109.758 31.2923 109.783 31.2673 109.804C28.3649 112.564 25.277 115.106 22.0822 117.524C21.7898 117.745 21.5046 117.98 21.0304 118.351C21.28 118.497 21.4725 118.569 21.6116 118.697C23.9292 120.84 26.2754 122.958 28.5467 125.151C30.5043 127.041 32.3798 129.016 34.2874 130.952C34.4906 131.159 34.6297 131.341 34.9435 131.027C36.1736 129.808 37.418 128.602 38.6945 127.433C40.6164 125.671 42.6559 124.024 44.2141 121.91C44.6991 121.254 45.1305 121.104 45.9363 121.275C47.9081 121.696 49.8906 121.788 51.7519 120.733C51.8874 120.655 52.1584 120.719 52.3259 120.801C53.1888 121.214 54.0339 121.656 54.8896 122.081C55.0358 122.152 55.1998 122.188 55.2533 122.206C55.4387 120.523 55.6206 118.886 55.8024 117.253C55.7347 117.207 55.6634 117.16 55.5956 117.114C55.5065 117.267 55.4423 117.442 55.3246 117.567C50.725 122.498 42.5311 121.507 39.2864 116.383C38.5162 115.167 37.7639 113.919 37.197 112.603C35.4819 108.635 33.8631 104.627 32.2122 100.63C32.0838 100.316 31.9876 99.9845 31.9305 99.6529C31.8057 98.9291 32.1052 98.4691 32.8005 98.2481C32.9146 98.2124 33.0252 98.1589 33.1036 98.1269C33.0073 97.617 32.8932 97.1606 32.8469 96.7006C32.8041 96.2692 32.5902 96.0231 32.1944 95.8948C31.4099 95.6416 30.6255 95.3742 29.8375 95.1282C28.1188 94.5933 26.5036 93.8659 25.1558 92.6393C23.7296 91.3343 22.6064 89.8296 22.2249 87.8863C21.7542 85.5081 23.3124 83.711 25.7227 83.8893C26.4038 83.9392 27.0991 84.1317 27.7409 84.3778C29.103 84.8948 30.4329 85.4902 31.7808 86.0465C31.9412 86.1142 32.1195 86.1427 32.3833 86.2105C32.2407 85.8611 32.1338 85.6257 32.0517 85.3833C31.8093 84.6915 31.631 83.9891 31.7843 83.2439C32.0731 81.8354 33.232 81.2471 34.4871 81.9638C35.079 82.3026 35.6352 82.7697 36.0809 83.2867C37.1149 84.4883 38.0812 85.7505 39.0582 86.9985C40.2099 88.4747 40.9266 90.1363 41.137 92.0047C41.2154 92.7071 41.2974 93.4095 41.383 94.1547C42.0498 93.9943 42.3279 94.4471 42.6167 94.8928C44.4637 97.7132 45.6546 100.822 46.5888 104.039C46.6495 104.245 46.7386 104.442 46.8135 104.641C46.9739 104.488 47.031 104.342 47.0666 104.192C47.3554 103.08 47.6122 101.956 47.9295 100.855C48.6177 98.4549 49.5483 96.1551 51.2277 94.2581C54.6258 90.4215 59.0293 89.063 64.0105 89.1985C64.3528 89.2092 64.6916 89.2377 65.1373 89.2662C65.0125 89.0666 64.9733 88.981 64.9126 88.9132C63.0799 86.9415 61.9246 84.6167 61.322 82.0102C61.2436 81.675 61.0938 81.5252 60.7444 81.486C59.4643 81.3363 58.5301 80.6445 57.8491 79.5713C56.6653 77.7029 56.2196 75.6562 56.537 73.4847C56.6439 72.7431 56.947 71.9658 57.3642 71.3418C58.2592 69.9904 59.91 70.0368 60.8549 71.3525C60.9441 71.4773 61.0368 71.6021 61.2044 71.8303C61.2721 71.57 61.3149 71.4274 61.3506 71.2812C61.675 69.9441 61.9995 68.6069 62.324 67.2698C62.3846 67.0202 62.4951 66.7742 62.5165 66.5211C62.6128 65.241 63.0906 64.1107 63.8002 63.0553C63.9535 62.8271 64.0462 62.4848 64.0177 62.2138C63.8358 60.4916 63.5648 58.7765 63.4222 57.0543C63.301 55.5817 62.8909 54.2553 62.078 53.0073C61.3042 51.8164 60.9726 50.465 61.0475 49.0245C61.1794 46.4287 63.1548 44.8063 65.7006 45.302C66.6134 45.4802 67.4835 45.8689 68.3749 46.1648C68.9989 46.3717 69.2413 46.3075 69.6228 45.7691C70.0151 45.2128 70.3681 44.6316 70.7638 44.079C71.3664 43.241 72.0938 42.5279 73.0423 42.0822C73.6484 41.7969 74.2617 41.6436 74.8928 42.0501C74.982 42.1072 75.1781 42.0751 75.2815 42.0144C75.7129 41.7684 76.1479 41.7827 76.5972 41.9289C77.4387 42.2034 78.1376 42.7097 78.6796 43.3908C79.2643 44.1217 79.7706 44.9133 80.2983 45.6906C80.8082 46.443 81.0115 46.5107 81.8779 46.2112C82.6124 45.958 83.3398 45.6621 84.0922 45.4945C86.6737 44.924 88.6847 46.4216 88.9129 49.053C88.9521 49.5023 88.9272 49.9622 88.8737 50.408C88.7239 51.6738 88.1855 52.7969 87.4795 53.8417C87.0374 54.4977 86.7236 55.193 86.6167 55.981C86.3171 58.1632 85.9998 60.3418 85.7146 62.524C85.686 62.7379 85.7859 63.0053 85.9107 63.1908C86.5311 64.1214 86.959 65.1162 87.1337 66.2287C87.2371 66.8954 87.4082 67.5551 87.5544 68.2147C87.6578 68.6711 87.7791 69.1275 87.8753 69.5839C88.0429 70.3719 88.1962 71.1599 88.3852 72.0834L88.3959 72.0514ZM91.9972 123.19C92.0043 123.129 92.015 123.065 92.0222 123.004C91.7583 122.908 91.5016 122.776 91.227 122.73C90.8633 122.666 90.4854 122.676 90.1145 122.63C87.9217 122.366 86.663 121 86.6594 118.797C86.6594 117.795 86.7985 116.797 86.8734 115.795C87.1765 111.808 87.5794 107.825 87.7505 103.832C87.9324 99.5995 87.2299 95.4027 86.9233 91.1881C86.9162 91.0776 86.7807 90.8886 86.6951 90.8815C85.8607 90.8102 85.0264 90.7745 84.1599 90.7246C84.1742 90.91 84.1635 91.0098 84.192 91.0954C85.3366 94.9285 85.44 98.8471 85.1227 102.791C84.9622 104.766 84.0244 106.235 82.0491 106.859C79.7528 107.586 77.3817 107.972 74.9891 108.096C73.8089 108.157 72.6001 107.954 71.4306 107.736C69.8617 107.44 68.2964 107.077 66.7668 106.62C65.7113 106.306 64.8805 105.579 64.4776 104.516C64.2459 103.903 64.0426 103.24 64.0141 102.591C63.9428 100.926 63.9071 99.2572 63.9891 97.592C64.0997 95.3278 64.3564 93.0708 65.1266 90.9136C65.1551 90.8316 65.1408 90.7353 65.148 90.6461C64.36 90.6461 63.604 90.6533 62.8481 90.6461C62.5201 90.6426 62.3917 90.7816 62.3668 91.1025C62.3026 91.9084 62.2099 92.7142 62.1314 93.52C61.889 96.0516 61.6002 98.5761 61.4183 101.111C61.1438 104.951 61.4575 108.781 61.7606 112.61C61.9175 114.597 62.1314 116.579 62.1778 118.569C62.2313 120.69 60.9797 122.042 58.8831 122.33C58.4196 122.395 57.9454 122.38 57.4818 122.444C57.2679 122.473 57.0647 122.601 56.8579 122.683C56.8721 122.74 56.8864 122.794 56.9007 122.851C57.0611 122.915 57.2216 122.994 57.3856 123.044C58.687 123.436 59.9849 123.846 61.2971 124.202C62.3917 124.502 63.5185 124.68 64.5989 125.008C66.2961 125.525 67.1091 126.798 66.8274 128.542C66.56 130.2 66.5243 131.861 66.5707 133.53C66.6562 136.643 66.5707 139.749 66.2391 142.847C66.1891 143.303 66.3068 143.443 66.7668 143.443C72.2079 143.432 77.6526 143.432 83.0938 143.443C83.5252 143.443 83.6607 143.311 83.6144 142.876C83.2293 139.342 83.2364 135.798 83.2864 132.246C83.3042 130.941 83.0974 129.636 82.9975 128.328C82.8727 126.702 83.593 125.575 85.1333 125.04C85.5612 124.89 86.0069 124.798 86.4455 124.684C88.1213 124.249 89.8008 123.821 91.4766 123.382C91.6549 123.336 91.8225 123.25 91.9972 123.183V123.19ZM36.63 105.426C36.7013 105.636 36.7406 105.775 36.7976 105.903C37.4822 107.512 38.1169 109.145 38.8692 110.724C39.6038 112.272 40.3811 113.809 41.2796 115.263C42.3029 116.921 43.8861 117.888 45.7723 118.344C47.0987 118.665 48.4465 118.711 49.7729 118.433C52.3224 117.898 54.5366 116.836 55.7204 114.308C55.8096 114.119 55.9344 113.94 56.0734 113.787C56.5584 113.252 57.2964 113.363 57.5603 114.033C57.6815 114.343 57.7493 114.696 57.7421 115.024C57.7065 116.757 57.6387 118.487 57.5817 120.216C57.5746 120.43 57.5817 120.644 57.5817 120.975C58.2199 120.676 58.7548 120.423 59.2932 120.173C59.9457 119.87 60.2916 119.364 60.288 118.64C60.2844 117.895 60.2809 117.15 60.2381 116.408C59.9493 111.152 59.6319 105.896 59.8173 100.63C59.9314 97.403 60.3379 94.2046 61.5075 91.156C61.5467 91.0562 61.5502 90.9457 61.5681 90.8351C61.4968 90.8066 61.4504 90.7674 61.4112 90.7745C61.0083 90.8244 60.6054 90.8636 60.2096 90.935C55.1535 91.805 51.652 94.5541 50.0653 99.4961C49.4877 101.293 49.1311 103.162 48.6676 104.998C48.4715 105.782 48.2861 106.57 48.0436 107.34C47.9046 107.783 47.5516 108.071 47.0631 108.093C46.571 108.114 46.2358 107.825 46.0326 107.408C45.865 107.059 45.7224 106.695 45.6154 106.321C45.1305 104.609 44.6598 102.891 44.182 101.172C44.1321 100.997 44.0501 100.837 43.9431 100.569C42.3493 103.543 39.7428 104.809 36.63 105.415V105.426ZM91.1022 121.264C91.145 121.218 91.1878 121.172 91.2342 121.125C91.2342 120.886 91.2342 120.647 91.2342 120.409C91.2163 118.629 91.17 116.85 91.1878 115.071C91.1949 114.283 91.5194 113.851 91.9901 113.78C92.6854 113.673 92.9564 114.176 93.2202 114.671C93.6623 115.502 94.0724 116.386 94.8889 116.907C95.8231 117.503 96.7858 118.116 97.8199 118.49C102.042 120.023 106.099 118.658 108.31 114.764C109.829 112.083 110.995 109.202 112.321 106.41C112.443 106.15 112.364 106.028 112.09 105.968C111.615 105.861 111.138 105.761 110.681 105.604C108.406 104.816 106.484 103.586 105.372 101.347C105.336 101.275 105.311 101.197 105.283 101.126C105.076 101.372 104.998 101.546 104.948 101.725C104.466 103.354 103.999 104.991 103.503 106.617C103.357 107.094 103.186 107.579 102.933 108.004C102.445 108.817 101.453 108.756 101.043 107.9C100.868 107.54 100.765 107.141 100.683 106.745C100.298 104.959 99.9664 103.158 99.5421 101.379C98.968 98.9719 98.0303 96.7256 96.3009 94.8928C94.0439 92.5003 91.1593 91.4306 87.9752 91.017C87.9038 91.0063 87.829 91.0455 87.7184 91.0704C87.911 91.6802 88.1178 92.2578 88.2747 92.8461C89.134 96.0623 89.4406 99.3499 89.3479 102.662C89.2303 106.738 88.9914 110.813 88.7952 114.889C88.7346 116.165 88.592 117.442 88.5742 118.718C88.5671 119.153 88.6919 119.749 88.9878 119.995C89.6153 120.515 90.3962 120.858 91.1129 121.271L91.1022 121.264ZM63.7823 82.6876C63.8251 82.6876 63.8715 82.6876 63.9143 82.6876C64.0248 82.406 64.1139 82.1171 64.2423 81.8426C65.0374 80.1382 66.1606 79.3288 68.1681 79.828C69.2271 80.0919 70.3395 80.1596 71.427 80.3094C71.5911 80.3308 71.7622 80.3094 71.9762 80.3094C71.6802 79.8601 71.3843 79.5107 71.2024 79.1113C70.9386 78.5265 71.0741 78.1486 71.5233 77.9525C71.6196 79.0757 72.322 79.6497 73.3382 79.8744C73.8303 79.9849 74.3616 79.9314 74.8608 80.017C75.5882 80.1418 76.2442 79.935 76.8789 79.6462C77.5706 79.3288 77.9343 78.7405 78.0449 77.8312C78.2124 78.1058 78.3479 78.2342 78.38 78.3839C78.5512 79.1933 77.9914 79.7175 77.4601 80.345C77.9343 80.345 78.2909 80.3842 78.6368 80.3379C79.6458 80.206 80.6549 80.0598 81.6569 79.8779C83.0724 79.6248 84.0423 80.0098 84.8053 81.2329C85.0442 81.6144 85.1975 82.0458 85.3865 82.4594C85.4436 82.5807 85.4899 82.709 85.5969 82.9765C85.7181 82.6591 85.7966 82.488 85.85 82.3097C86.6773 79.5962 86.8698 76.8079 86.7557 73.9946C86.6844 72.2475 86.5133 70.5074 86.4277 68.7603C86.335 66.9026 85.5719 65.3551 84.3168 64.0322C83.2043 62.8591 81.8387 62.0462 80.3447 61.4721C77.8523 60.513 75.3493 59.6893 72.6001 60.4096C70.2112 61.0335 67.8899 61.7681 65.9716 63.394C64.4348 64.699 63.4507 66.3321 63.2796 68.3895C63.137 70.1152 62.9337 71.8374 62.8374 73.5667C62.6877 76.2766 62.784 78.9758 63.465 81.6251C63.5577 81.9817 63.6754 82.3311 63.7823 82.6841V82.6876ZM11.4602 62.0961C11.6385 62.1211 11.7169 62.1425 11.7954 62.1425C14.9367 62.1139 18.078 62.0783 21.2193 62.064C21.6365 62.064 21.7649 61.8929 21.8469 61.5149C23.045 56.0702 24.7172 50.7859 27.3701 45.8546C27.5056 45.6015 27.502 45.4125 27.3023 45.2057C25.4518 43.2802 23.6083 41.3477 21.7578 39.4222C21.6223 39.2796 21.444 39.1762 21.3513 39.1049C20.6809 40.2174 20.0391 41.2799 19.4009 42.3461C19.1406 42.7775 18.8839 43.2089 18.6307 43.6404C15.632 48.7535 13.2074 54.1019 11.8988 59.9139C11.7383 60.6199 11.6135 61.3331 11.4638 62.0997L11.4602 62.0961ZM65.3191 96.5508H65.3227C65.2977 97.0679 65.2478 97.5849 65.2549 98.1055C65.2728 99.6102 65.2763 101.115 65.3583 102.616C65.4439 104.181 66.3032 105.24 67.7972 105.657C69.3982 106.103 71.0277 106.463 72.6608 106.781C73.6877 106.98 74.6825 107.269 75.8056 106.948C77.5706 106.442 79.4212 106.235 81.2076 105.789C82.8442 105.383 83.65 104.217 83.8034 102.545C84.1492 98.7223 83.7285 94.9071 83.7499 91.0883C83.7499 90.9777 83.5716 90.7638 83.4967 90.7745C82.9797 90.8387 82.4591 90.9207 81.9528 91.0562C81.6212 91.1453 81.6069 91.3807 81.7603 91.7016C82.8407 93.9978 82.3343 96.9538 80.5729 98.7972C79.4569 99.9667 78.0734 100.669 76.5437 101.133C75.6309 101.411 74.7039 101.6 73.7697 101.404C72.4468 101.129 71.1846 100.669 70.0471 99.9168C67.1269 97.9807 66.1606 94.6896 67.5904 91.4912C67.701 91.2416 67.6403 91.1239 67.4442 90.967C66.97 90.5855 66.4138 90.614 65.8682 90.6212C65.7719 90.6212 65.6044 90.8422 65.5972 90.9706C65.4903 92.8283 65.4083 94.6896 65.3191 96.5508ZM25.9438 85.1158C24.35 85.1265 23.5727 85.9217 23.7117 87.191C23.7759 87.7758 23.9542 88.3713 24.2038 88.9025C24.9918 90.5927 26.2219 91.8941 27.8407 92.8283C29.2884 93.6591 30.8501 94.1619 32.4689 94.5363C33.9629 94.8857 34.2838 95.2922 34.4051 96.829C34.455 97.4565 34.5584 97.5635 35.1931 97.4922C36.7441 97.321 38.1454 96.7683 39.3363 95.7557C39.6893 95.4562 39.9603 95.0604 40.2527 94.6967C40.4595 94.4364 40.4595 94.169 40.349 93.8374C40.053 92.9495 39.8391 92.0332 39.5467 91.1453C39.2828 90.3359 39.1117 89.4445 38.6446 88.7635C37.4287 86.9914 36.088 85.3084 34.7652 83.6111C34.5156 83.2902 34.1483 83.0371 33.7918 82.8231C33.4138 82.5985 33.1714 82.7483 33.232 83.1797C33.2962 83.6539 33.4281 84.1282 33.5992 84.5774C33.8132 85.1337 34.1269 85.6543 34.348 86.2069C34.7295 87.1483 34.2232 87.7722 33.2177 87.5761C32.6508 87.4656 32.091 87.2766 31.549 87.0698C30.2154 86.5671 28.9033 86.0108 27.5662 85.5259C26.9493 85.3013 26.2897 85.1979 25.9438 85.1123V85.1158ZM125.678 88.193C125.682 86.7275 125.026 85.9716 123.927 85.9787C123.229 85.9823 122.501 86.1071 121.838 86.3246C120.408 86.7917 119.014 87.3729 117.595 87.8756C117.049 88.0682 116.475 88.2286 115.905 88.2893C115.135 88.3677 114.721 87.7972 114.978 87.0662C115.127 86.6419 115.384 86.2533 115.552 85.8361C115.798 85.2228 116.022 84.5988 116.215 83.9677C116.258 83.8287 116.194 83.5719 116.09 83.497C115.987 83.4222 115.719 83.4471 115.605 83.5363C115.156 83.8786 114.675 84.2066 114.322 84.6345C113.22 85.9716 112.164 87.3444 111.105 88.7171C110.496 89.5051 110.071 90.3859 109.825 91.3628C109.554 92.429 109.187 93.4666 108.895 94.5256C108.838 94.7324 108.848 95.0319 108.959 95.203C110.196 97.132 112.086 97.9236 114.268 98.1732C114.582 98.2089 114.753 98.052 114.767 97.7275C114.774 97.5813 114.807 97.4387 114.824 97.2961C114.985 95.9768 115.352 95.5703 116.657 95.2672C116.832 95.228 117.007 95.1888 117.178 95.1531C118.629 94.85 120.02 94.3758 121.328 93.6734C122.975 92.7891 124.248 91.5233 125.086 89.8546C125.4 89.2306 125.561 88.5282 125.678 88.193ZM126.452 110.824C126.577 110.468 126.644 110.204 126.759 109.958C126.88 109.694 127.022 109.437 127.183 109.195C130.449 104.278 133.02 99.0076 135.234 93.5486C135.712 92.3719 136.354 91.2594 136.921 90.1149C137.003 89.9508 137.095 89.7904 137.22 89.5551C136.956 89.5337 136.785 89.5123 136.614 89.5123C134.396 89.473 132.178 89.4445 129.961 89.3982C129.632 89.391 129.515 89.5194 129.429 89.8189C129.03 91.238 128.627 92.6536 128.196 94.062C126.823 98.5262 125.104 102.826 122.155 106.527C121.934 106.806 122.023 106.98 122.248 107.18C123.382 108.171 124.509 109.17 125.643 110.161C125.885 110.371 126.135 110.571 126.452 110.828V110.824ZM23.4015 110.778C23.5477 110.678 23.6725 110.61 23.7759 110.517C24.9847 109.466 26.197 108.417 27.3986 107.355C27.9513 106.866 27.9441 106.848 27.5091 106.278C25.9581 104.228 24.6531 102.031 23.6725 99.6565C22.3568 96.4795 21.3228 93.2098 20.442 89.8867C20.3672 89.6014 20.3065 89.3839 19.9215 89.391C17.6537 89.441 15.3895 89.4695 13.1218 89.5087C12.9827 89.5087 12.8472 89.5408 12.6297 89.5658C12.7724 89.8189 12.89 90.0079 12.9899 90.204C13.5318 91.288 14.138 92.3434 14.5908 93.463C16.4057 97.9593 18.4952 102.316 20.9591 106.499C21.7827 107.9 22.8916 109.138 23.4051 110.771L23.4015 110.778ZM87.6578 136.268C88.2141 136.137 88.6812 136.012 89.1518 135.923C89.6439 135.83 90.1502 135.801 90.6387 135.694C95.1207 134.735 99.2426 132.906 103.172 130.585C104.127 130.021 105.14 129.551 106.124 129.034C106.16 129.016 106.181 128.962 106.27 128.845C106.11 128.716 105.935 128.595 105.782 128.456C104.292 127.105 102.908 125.65 101.724 124.02C101.446 123.635 101.229 123.66 100.851 123.874C99.6562 124.552 98.4581 125.233 97.2173 125.828C94.297 127.23 91.2199 128.164 88.0572 128.831C87.7719 128.891 87.5615 128.945 87.5687 129.34C87.6186 131.408 87.6329 133.48 87.6578 135.552C87.6578 135.776 87.6578 135.997 87.6578 136.265V136.268ZM43.501 128.788C43.5509 128.855 43.6008 128.923 43.6543 128.995C43.7827 129.048 43.9146 129.098 44.0394 129.155C44.5921 129.419 45.1768 129.633 45.6903 129.961C47.8903 131.373 50.2008 132.564 52.6041 133.591C55.6669 134.903 58.8475 135.773 62.2063 136.176C62.2063 136.005 62.2063 135.766 62.2063 135.527C62.2206 133.537 62.2063 131.548 62.2669 129.558C62.2812 129.087 62.1992 128.913 61.7285 128.813C57.1895 127.868 52.8929 126.299 48.9386 123.846C48.5785 123.621 48.3824 123.685 48.1435 124.01C46.9276 125.675 45.5084 127.162 43.9788 128.542C43.8504 128.656 43.6615 128.706 43.501 128.784V128.788ZM84.9693 49.8268C85.3544 49.7626 86.0248 49.6627 86.688 49.5415C87.041 49.4738 87.1479 49.2598 87.0481 48.8961C86.7949 47.9477 86.146 47.3629 85.1654 47.3843C84.4594 47.3986 83.7499 47.5162 83.0546 47.6624C80.7369 48.1545 80.145 47.9441 78.783 46.0115C77.9771 44.8705 77.0001 43.9506 75.7807 43.2303C75.1888 42.8809 74.8536 42.8952 74.2938 43.2446C73.4345 43.783 72.5966 44.3143 71.9512 45.1094C71.534 45.6229 71.1382 46.1577 70.7246 46.6783C70.2326 47.2952 69.6371 47.7694 68.8099 47.7765C68.3463 47.7765 67.8792 47.6874 67.4157 47.6161C66.5707 47.4841 65.7327 47.2666 64.8805 47.2167C63.9178 47.1597 63.276 47.723 62.9765 48.6394C62.8481 49.0316 62.9266 49.3026 63.3402 49.3561C64.2352 49.4631 65.1301 49.5772 66.0287 49.5986C66.8987 49.6164 67.7758 49.4738 68.6459 49.4916C70.1078 49.5201 71.3557 50.0799 72.3078 51.2174C73.0387 52.0909 73.3454 53.1321 73.5557 54.2339C73.8125 55.596 74.1334 56.9473 74.4222 58.3058C74.4792 58.5768 74.6005 58.7301 74.9071 58.7373C75.2173 58.748 75.3528 58.5947 75.417 58.3344C75.7165 57.0793 76.1123 55.8348 76.2906 54.5619C76.7719 51.146 78.9541 49.3383 82.3914 49.6235C83.1509 49.6877 83.9068 49.7483 84.9622 49.8339L84.9693 49.8268ZM74.9142 90.9742C75.2102 90.9742 75.6808 91.0063 76.1479 90.9706C79.2001 90.7388 81.5499 89.227 83.4539 86.9201C83.9674 86.2996 84.028 85.7577 83.4646 85.1943C82.2523 83.9713 80.8617 83.112 79.0111 83.5505C78.6653 83.6325 78.3123 83.7074 77.9593 83.7252C76.8005 83.7859 75.6345 83.8893 74.4792 83.8429C73.0958 83.7859 71.7052 83.6789 70.3431 83.4364C68.5104 83.112 67.1233 83.8536 65.9217 85.0731C65.3512 85.6543 65.4047 86.1178 65.911 86.756C68.1681 89.5978 71.0384 91.1596 74.9142 90.9742ZM62.8802 50.0478C62.9194 50.3402 62.9087 50.5078 62.9658 50.6469C63.251 51.3849 63.572 52.1052 63.8394 52.8504C64.1282 53.6491 64.5382 54.4549 64.5989 55.2786C64.7415 57.2754 64.7094 59.2828 64.7486 61.2831C64.7486 61.4186 64.7486 61.5541 64.7486 61.6896C64.7807 61.7217 64.8092 61.7574 64.8413 61.7895C67.3729 59.1545 70.5499 58.4342 74.0621 58.6874C74.0371 58.5091 74.0514 58.4057 74.0121 58.3272C73.3739 57.0365 73.1207 55.6352 72.7856 54.2517C72.1651 51.7023 70.3681 50.3473 67.7366 50.4258C66.1463 50.4721 64.5418 50.7788 62.8838 50.0514L62.8802 50.0478ZM75.7629 58.7052C79.2893 58.5055 82.4556 59.265 84.9836 61.9071C85.0478 61.6861 85.062 61.5327 85.062 61.3794C85.0727 60.053 85.0549 58.7266 85.0941 57.4002C85.1441 55.6851 85.4043 54.0235 86.3564 52.5295C86.6559 52.0624 86.8021 51.4919 86.9946 50.9606C87.0624 50.7752 87.0552 50.5648 87.0838 50.3473C86.959 50.3473 86.8876 50.3295 86.8342 50.3473C85.793 50.7574 84.7162 50.711 83.6251 50.6469C82.6624 50.5898 81.664 50.4935 80.7298 50.6647C78.6653 51.0498 77.5671 52.5045 77.0964 54.4585C76.7755 55.7814 76.4617 57.1006 75.8556 58.3272C75.8164 58.4092 75.8092 58.5055 75.7593 58.6981L75.7629 58.7052ZM84.7946 84.8056C84.791 84.8627 84.7839 84.9197 84.7804 84.9768C84.8517 84.7058 84.9729 84.4384 84.9872 84.1638C85.0371 83.2653 84.6556 82.4987 84.1849 81.7677C83.5645 80.8086 82.7372 80.4199 81.5748 80.6588C79.464 81.0867 77.346 81.2186 75.2244 80.6588C74.875 80.5661 74.4721 80.641 74.0977 80.6766C73.2776 80.7586 72.4575 80.9726 71.6446 80.9334C70.3253 80.8727 69.0096 80.6695 67.6974 80.5055C67.1554 80.4377 66.6134 80.3842 66.157 80.7372C65.0909 81.5645 64.4705 82.6484 64.442 84.0141C64.4348 84.2815 64.5882 84.5525 64.6559 84.7807C65.2656 84.2886 65.747 83.8037 66.3175 83.4614C67.6368 82.6698 69.0666 82.652 70.5428 82.9479C73.3133 83.5006 76.1052 83.5149 78.8828 83.0192C80.5836 82.7162 82.1667 82.8624 83.6001 83.9C84.0066 84.1923 84.3988 84.5061 84.7946 84.8092V84.8056ZM41.9036 95.4526C41.8501 95.4419 41.7931 95.4348 41.7396 95.4241C39.9603 98.3657 37.254 99.6137 33.856 99.6993C33.9594 99.9489 34.02 100.109 34.0949 100.259C34.562 101.186 35.0397 102.103 35.4962 103.033C36.0453 104.149 36.0417 104.167 37.2611 103.878C39.5681 103.329 41.5506 102.259 42.9626 100.28C43.4297 99.6244 43.5973 98.9897 43.1837 98.216C42.7059 97.3246 42.3279 96.3761 41.9072 95.4526H41.9036ZM107.458 95.9233C107.319 96.1408 107.219 96.2656 107.151 96.4046C106.738 97.264 106.345 98.1375 105.914 98.9897C105.65 99.5067 105.675 99.981 105.985 100.455C106.188 100.765 106.374 101.097 106.613 101.379C108.21 103.283 110.307 104.27 112.714 104.688C113.013 104.741 113.152 104.616 113.277 104.367C113.883 103.186 114.503 102.013 115.117 100.833C115.181 100.712 115.217 100.58 115.295 100.38C111.901 100.245 109.219 98.9434 107.458 95.9233ZM60.8585 80.4306C60.8977 80.3878 60.9405 80.345 60.9797 80.3022C60.9726 80.1453 60.9619 79.992 60.9583 79.8351C60.9156 78.6228 60.8193 77.4105 60.8478 76.2018C60.8656 75.5136 60.4378 75.2711 59.9885 74.9894C59.5321 74.7042 59.4287 75.1927 59.1898 75.3781C59.1755 75.3888 59.1648 75.3995 59.1541 75.4102C58.9366 75.6099 58.7869 75.5742 58.7013 75.2854C58.5872 74.8932 58.7869 74.2478 59.1078 74.0089C59.4501 73.7522 59.9635 73.7771 60.3736 74.0802C60.5233 74.1907 60.666 74.3084 60.8229 74.4332C61.2864 73.3457 61.0867 72.6147 60.1882 71.9408C59.443 71.381 58.8011 71.4987 58.3162 72.2903C58.2235 72.44 58.1486 72.604 58.0809 72.768C57.2608 74.8112 57.9775 78.1343 59.5963 79.6283C59.9564 79.9599 60.4342 80.1667 60.8585 80.4306ZM88.51 80.5376C89.1197 80.5126 89.7402 80.1632 90.2286 79.5606C91.3982 78.1129 91.9259 76.4335 91.8296 74.5972C91.794 73.909 91.58 73.1924 91.2876 72.5612C90.9097 71.7447 90.2215 71.6449 89.4727 72.1619C88.5457 72.8037 88.3317 73.5275 88.7667 74.6721C88.8844 74.5794 88.9949 74.4938 89.1019 74.4082C89.4656 74.1123 89.8685 73.9625 90.3142 74.1658C90.7635 74.3726 90.9168 74.7826 90.8847 75.2497C90.8705 75.4244 90.7778 75.5956 90.7207 75.7703C90.5674 75.674 90.4105 75.5813 90.2572 75.4851C90.0931 75.3781 89.9256 75.1713 89.7687 75.1784C89.2873 75.1962 88.7596 75.8559 88.7453 76.3444C88.7239 77.218 88.699 78.088 88.6562 78.9616C88.6312 79.4857 88.5635 80.0063 88.5136 80.5376H88.51ZM68.3392 92.3505C68.3071 94.4364 68.653 96.287 70.0222 97.8131C71.0776 98.9897 72.404 99.7243 73.9693 100.263C72.6715 97.1463 71.5768 94.0585 68.3392 92.347V92.3505ZM75.1852 100.156C78.1661 100.156 81.7888 95.2387 80.8403 92.486C80.6834 92.5716 80.5159 92.6322 80.3839 92.7356C79.8384 93.1635 79.2821 93.5842 78.7616 94.0478C76.9217 95.6844 76.3084 98.0377 75.1817 100.156H75.1852ZM77.9807 92.7H71.1204C73.0209 94.0941 73.9622 96.0231 74.5292 98.2623C75.0319 97.1427 75.3742 96.098 75.9411 95.1959C76.5152 94.2795 77.3103 93.5058 77.9843 92.7H77.9807Z" fill="#1E1E1E"/>
<path d="M122.694 51.2637C122.622 53.3674 121.966 55.9668 121.164 58.5376C120.54 60.5379 119.684 62.442 118.682 64.2783C118.476 64.6598 118.419 65.0164 118.561 65.4336C118.796 66.1217 119.01 66.8206 119.203 67.523C119.399 68.2326 119.791 68.689 120.526 68.9243C121.503 69.2381 121.931 69.9049 121.866 70.7642C121.777 71.9373 120.725 72.6932 119.599 72.358C119.182 72.2332 118.971 72.2475 118.832 72.7324C118.618 73.4812 117.951 73.9376 117.285 73.9162C116.579 73.8948 115.948 73.3992 115.709 72.6718C115.448 71.8802 115.598 71.1172 115.965 70.4147C116.293 69.7908 116.325 69.206 116.097 68.5535C115.926 68.0686 115.801 67.5551 115.737 67.0452C115.666 66.4783 115.452 66.029 115.017 65.6724C113.715 64.6099 112.407 63.5509 111.116 62.4776C108.991 60.7091 106.78 59.0261 104.99 56.8939C104.577 56.4018 104.22 55.8491 103.917 55.2822C103.24 54.0057 103.257 52.69 104.074 51.5026C104.655 50.6611 105.326 49.8339 106.106 49.1814C108.923 46.8316 112.139 45.2913 115.808 44.8313C117.399 44.6316 119.064 44.6566 120.308 45.7405C122.113 47.313 122.729 47.6232 122.69 51.2637H122.694ZM111.323 60.9088C111.426 61.0371 111.48 61.1156 111.544 61.1797C112.746 62.3564 113.947 63.5366 115.152 64.7097C115.227 64.7846 115.356 64.8987 115.42 64.8773C115.755 64.7775 115.808 65.0235 115.894 65.2232C116.208 65.9363 116.482 66.6637 116.828 67.359C117.427 68.5749 117.698 69.748 116.778 70.9567C116.49 71.3382 116.479 71.8446 116.707 72.3045C116.974 72.8429 117.531 72.8857 117.852 72.3794C117.987 72.1655 118.062 71.9087 118.144 71.6663C118.344 71.0922 118.611 70.9567 119.185 71.1493C119.445 71.2348 119.702 71.3454 119.973 71.3882C120.394 71.4523 120.807 71.1742 120.922 70.7927C121.039 70.4005 120.868 70.0689 120.426 69.8585C120.28 69.7908 120.126 69.7337 119.97 69.6945C119.167 69.4948 118.686 68.9742 118.465 68.1969C118.165 67.1558 117.866 66.111 117.581 65.0663C117.47 64.6598 117.459 64.2747 117.901 64.0037C118.044 63.9146 118.13 63.6935 118.194 63.5152C118.989 61.2546 119.834 59.0118 120.547 56.7263C121.175 54.7188 121.653 52.6614 121.603 50.5292C121.581 49.6057 121.367 48.7214 120.95 47.8371C116.621 51.8449 111.237 53.6277 105.907 55.5389C106.035 55.9775 106.395 56.031 106.784 56.0345C107.982 56.0452 109.13 55.8028 110.243 55.3606C110.453 55.2751 110.681 55.2358 110.902 55.1752C110.92 55.2287 110.938 55.2786 110.956 55.3321C109.8 56.1736 108.584 56.8689 107.03 56.7798C107.376 57.5036 107.675 57.6926 108.317 57.6034C108.845 57.5285 109.373 57.4287 109.897 57.3289C111.394 57.0472 112.742 56.3661 114.097 55.7101C114.286 55.6209 114.486 55.5532 114.678 55.4747C114.692 55.5175 114.71 55.5567 114.725 55.5995C112.742 56.7726 110.731 57.878 108.228 58.1811C108.684 58.6054 109.016 58.9263 109.365 59.2258C109.455 59.3007 109.604 59.3506 109.722 59.3434C111.123 59.2507 112.482 59.0011 113.726 58.3058C114.029 58.1383 114.339 57.9814 114.646 57.8209C113.362 59.0511 111.776 59.5645 110.032 59.7321C110.453 60.1992 110.763 60.7126 111.498 60.4773C111.918 60.3418 112.385 60.349 112.831 60.2919C112.842 60.3418 112.849 60.3917 112.86 60.4417C112.364 60.5914 111.868 60.7412 111.323 60.9052V60.9088ZM116.418 45.9402C112.699 46.2219 109.226 47.477 106.245 49.9801C105.507 50.5969 104.887 51.3279 104.548 52.2514C104.167 53.2819 104.595 53.9879 105.675 53.9272C106.648 53.8702 107.65 53.7347 108.577 53.4388C111.993 52.3441 115.127 50.6576 118.094 48.6644C118.493 48.3969 118.868 48.0689 119.185 47.7088C119.313 47.5662 119.363 47.1811 119.264 47.042C118.857 46.4786 118.376 45.9937 117.581 46.0329C117.245 46.0508 116.903 45.9866 116.422 45.9474L116.418 45.9402Z" fill="#1E1E1E"/>
<path d="M101.45 25.0635C101.318 24.6891 101.161 24.3254 101.061 23.9439C100.958 23.541 100.797 23.5588 100.48 23.7442C100.07 23.9795 99.7882 24.2077 99.9772 24.7497C100.059 24.985 99.9914 25.2703 99.9914 25.5341C99.9308 25.5377 99.8738 25.5448 99.8131 25.5484C99.7276 25.1705 99.6455 24.7889 99.5457 24.3397C99.1178 24.5001 98.6222 24.5572 98.3441 24.8317C98.0695 25.1027 98.016 25.5948 97.8663 25.987C97.8235 25.9799 97.7807 25.9763 97.7415 25.9692C97.7629 25.6554 97.7807 25.338 97.8057 24.9458C97.3778 24.9886 96.9785 25.0029 96.5934 25.0884C96.4864 25.1134 96.3901 25.3345 96.3438 25.4842C96.2511 25.7944 96.194 26.1189 96.1227 26.4363C96.0621 26.4256 95.9979 26.4184 95.9373 26.4077C95.9694 26.1046 96.0336 25.8016 96.0264 25.4985C96.0264 25.3523 95.9159 25.1027 95.8161 25.0849C95.2491 24.9636 94.6715 24.8995 94.0832 24.8139C94.0047 24.9993 93.9263 25.1812 93.8229 25.4165C93.7409 25.3059 93.6695 25.2525 93.6767 25.2097C93.7551 24.5821 93.2631 24.4787 92.8601 24.2505C92.1862 23.8654 91.5444 23.4269 90.8919 23.0132C90.76 22.9277 90.6281 22.8385 90.4533 22.7244C90.2465 23.1238 90.0611 23.4803 89.8721 23.8405C89.8294 23.8226 89.7901 23.8048 89.7473 23.787C89.8507 23.4768 89.9791 23.1737 90.0504 22.8599C90.0825 22.7137 90.0718 22.4641 89.9791 22.3893C88.5457 21.2803 87.0196 21.341 86.1104 22.8564C85.8679 23.2593 85.8679 23.8084 85.7574 24.2897C85.7396 24.3646 85.7217 24.4359 85.6825 24.6C85.3188 24.1899 85.3866 23.7727 85.4044 23.3734C85.4115 23.2307 85.4508 23.081 85.5114 22.9526C85.7182 22.5248 85.8394 22.1789 85.219 21.9543C85.0514 21.8936 84.8731 21.4087 84.9516 21.2233C85.1191 20.8311 85.3901 20.4246 85.7289 20.175C86.2495 19.7899 86.7166 20.0859 86.7344 20.7312C86.7379 20.8917 86.7344 21.0486 86.7344 21.2269C86.8378 21.234 86.9091 21.259 86.959 21.2376C88.1285 20.7312 89.2161 21.0022 90.243 21.6262C91.088 22.1361 91.8974 22.7102 92.7425 23.2165C94.5467 24.2933 96.4686 24.5179 98.4332 23.7834C99.2391 23.4803 99.9843 22.9847 100.712 22.5105C101.464 22.0184 102.17 21.4765 103.147 21.587C103.247 21.5977 103.389 21.4301 103.475 21.316C103.589 21.1627 103.639 20.9594 103.767 20.8204C104.031 20.528 104.395 20.3212 104.762 20.5066C105.03 20.6421 105.304 20.9273 105.404 21.2055C105.536 21.5834 105.311 21.9471 104.958 22.1432C104.62 22.3322 104.588 22.4927 104.805 22.8207C105.297 23.5659 105.418 24.3646 105.062 25.2239C104.994 25.388 105.033 25.6768 105.14 25.8194C105.882 26.8106 105.95 27.8768 105.532 28.9928C105.162 29.9876 104.448 30.7079 103.586 31.2927C102.134 32.2768 100.505 32.7902 98.7969 33.0648C95.9373 33.5283 93.1133 33.4142 90.3785 32.3695C89.8222 32.1555 89.2696 31.8988 88.7704 31.5779C86.8592 30.3549 85.6255 28.7789 86.2138 26.3008C85.8038 26.1617 85.408 25.9941 85.5042 25.445C85.6112 24.8353 86.2388 24.14 86.7522 24.0865C87.1409 24.0473 87.3869 24.2291 87.5545 24.5821C87.6151 24.7105 87.7969 24.8816 87.9075 24.8709C88.8809 24.7889 89.6582 25.2382 90.4391 25.7124C91.1308 26.1296 91.8118 26.5824 92.5464 26.9105C94.4825 27.7769 96.5114 27.6985 98.558 27.3918C99.642 27.2278 100.594 26.8071 101.489 26.1867C102.259 25.6554 103.026 25.0849 104.053 25.1598C104.135 25.1669 104.299 24.9672 104.313 24.846C104.416 24.0972 104.21 23.4304 103.693 22.8777C103.215 22.3643 102.683 22.2894 102.067 22.6246C101.924 22.703 101.799 22.8064 101.657 22.8813C101.264 23.0846 101.157 23.3662 101.304 23.7941C101.435 24.1863 101.496 24.6035 101.592 25.01C101.546 25.0278 101.5 25.0457 101.45 25.0635ZM89.7509 27.62C89.7081 27.5987 89.6653 27.5808 89.6225 27.5594C89.6546 27.4382 89.6832 27.317 89.7188 27.1993C89.9019 26.6003 89.6998 26.1605 89.1127 25.88C87.9182 25.3131 86.8663 25.9442 86.795 27.267C86.7451 28.2405 87.1587 29.0249 87.7934 29.7131C88.5956 30.576 89.6012 31.1251 90.7101 31.4852C93.6695 32.4479 96.6611 32.455 99.6634 31.717C101.107 31.3604 102.47 30.8113 103.578 29.7773C104.199 29.1996 104.659 28.5186 104.659 27.6272C104.659 27.1137 104.566 26.5967 104.078 26.315C103.628 26.0547 103.243 26.3685 102.858 26.5646C102.815 26.586 102.776 26.6145 102.733 26.6359C102.48 26.7607 102.423 26.9212 102.577 27.1815C102.887 27.7163 102.776 28.2833 102.744 28.8787C102.634 28.8359 102.584 28.8288 102.58 28.8145C102.494 28.4366 102.43 28.0551 102.323 27.6842C102.259 27.4632 102.284 27.1066 101.885 27.1779C101.386 27.267 101.079 27.6272 101.15 28.0051C101.211 28.3189 101.279 28.6291 101.343 28.9429C101.189 28.893 101.136 28.8217 101.1 28.7397C100.715 27.7769 100.719 27.7841 99.6955 28.0943C99.4387 28.1727 99.3639 28.2975 99.4209 28.5542C99.4637 28.7539 99.4601 28.9607 99.4744 29.164L99.346 29.1782C99.2747 28.9821 99.2177 28.7824 99.1285 28.597C99.0715 28.4758 98.9716 28.2833 98.8896 28.2833C98.5224 28.2761 98.1515 28.3082 97.795 28.3867C97.7629 28.3938 97.8235 28.8181 97.8306 29.0463C97.8306 29.0855 97.7985 29.1283 97.7665 29.2103C97.4634 28.8823 97.581 28.2298 96.8323 28.294C96.2404 28.3439 96.0157 28.6256 95.8267 29.164C95.8018 28.4936 95.4809 28.3118 94.9211 28.326C94.4682 28.3367 93.9405 28.0551 93.8407 28.8645C93.7052 28.5507 93.666 28.2084 93.5055 28.1335C92.8922 27.8554 92.2433 27.6664 91.5623 27.4311C91.4482 27.8304 91.3412 28.2119 91.2306 28.5899C91.1379 28.3546 91.113 28.1442 91.1415 27.941C91.2663 27.1565 91.2378 27.103 90.5318 26.7465C90.3036 26.6324 90.1752 26.6716 90.0789 26.9069C89.9791 27.1529 89.8579 27.3883 89.7438 27.6307L89.7509 27.62ZM86.1995 20.8168L86.0498 20.7705C85.9286 20.9273 85.7645 21.0735 85.6968 21.2518C85.654 21.3624 85.7182 21.5656 85.8073 21.6619C85.8858 21.7439 86.0961 21.7867 86.1888 21.7367C86.2744 21.6868 86.3208 21.4943 86.3172 21.3695C86.3101 21.1841 86.2423 21.0022 86.2031 20.8168H86.1995ZM103.796 21.6226C103.775 21.6868 103.757 21.751 103.735 21.8152C103.824 21.8437 103.953 21.9257 103.992 21.8936C104.195 21.7367 104.377 21.5513 104.566 21.3731C104.498 21.3089 104.384 21.1769 104.366 21.1876C104.167 21.3196 103.981 21.4729 103.796 21.6226Z" fill="#1E1E1E"/>
<path d="M33.0929 62.745C33.2106 63.5794 32.9467 64.1392 32.3655 64.5813C32.2122 64.699 32.1587 64.9735 32.1088 65.1875C31.7415 66.7956 31.3992 68.4073 31.0249 70.0118C30.9143 70.4825 30.868 70.8568 31.3101 71.217C31.7023 71.5343 31.7451 72.0406 31.6381 72.522C31.4206 73.4918 30.4864 74.123 29.4381 74.0338C28.4933 73.9554 27.7231 73.1745 27.7623 72.1583C27.7944 71.3275 27.9869 70.5003 28.1367 69.6731C28.5753 67.2591 29.0709 64.8523 29.4631 62.4312C30.4437 56.3982 31.5419 50.3901 33.2498 44.5104C33.339 44.2002 33.4388 43.8899 33.5672 43.594C33.8132 43.0164 34.0449 42.9807 34.6832 43.0449C36.7691 43.266 38.5983 44.2465 40.5308 44.924C41.3046 45.195 41.9642 45.6478 42.6845 45.9937C43.0018 46.147 43.337 46.2718 43.6757 46.3645C44.1428 46.4893 44.3354 46.6818 44.2355 47.1561C44.0002 48.2792 43.7114 49.3917 43.4654 50.5113C42.8984 53.0679 42.4028 55.6423 41.7645 58.1774C41.2867 60.0744 40.6271 61.9214 40.0388 63.7898C39.8712 64.3246 39.5467 64.4744 39.0832 64.3353C37.9707 64.0037 36.8582 63.6757 35.7386 63.3761C34.9007 63.1515 34.0485 62.9732 33.0965 62.7486L33.0929 62.745ZM36.63 62.4598C36.5195 62.1924 36.4304 62.0426 36.3947 61.8786C36.2949 61.3794 36.1237 60.8695 36.1451 60.3703C36.1915 59.3719 36.9474 58.887 37.7247 58.4377C39.0547 57.6747 39.2401 57.1826 38.7409 55.735C38.5733 55.2465 38.3594 54.7723 38.1846 54.2873C38.0634 53.9522 37.9493 53.6134 37.8709 53.2676C37.5927 52.0053 37.9743 51.1852 39.1153 50.5684C39.5289 50.3473 39.9603 50.1583 40.3704 49.9301C40.8232 49.6805 40.9872 49.2847 40.8589 48.7784C40.7947 48.5288 40.6877 48.2864 40.6414 48.0332C40.5415 47.4698 40.4774 46.8958 40.3739 46.3324C40.349 46.2005 40.2563 46.0115 40.1493 45.9687C38.5269 45.3305 36.9081 44.6673 35.2573 44.111C34.3266 43.7972 34.3623 43.6297 34.0342 44.8206C33.4459 46.9564 32.8647 49.0922 32.3798 51.253C31.6631 54.4514 31.0356 57.6711 30.3688 60.8802C30.3117 61.1512 30.3902 61.276 30.6968 61.333C32.4119 61.6539 34.1234 62.0069 35.8349 62.3421C36.0631 62.3885 36.2949 62.4099 36.63 62.4562V62.4598ZM36.8154 60.8766C36.983 61.3794 37.1399 61.8821 37.3253 62.3778C37.3717 62.4954 37.5072 62.6167 37.6284 62.663C38.1098 62.852 38.6054 63.0017 39.0868 63.1872C39.4504 63.3262 39.6145 63.1872 39.725 62.8449C40.1457 61.5363 40.6628 60.2526 40.9979 58.9262C41.6647 56.2805 42.2423 53.6134 42.8414 50.9535C43.091 49.8517 43.3013 48.7428 43.5295 47.6339C43.583 47.3736 43.6401 47.1275 43.2657 47.0241C42.8949 46.9207 42.5454 46.7531 42.1746 46.639C41.8751 46.5463 41.5613 46.4964 41.2547 46.4251C41.2547 46.7532 41.2547 47.0812 41.2547 47.4092C41.2547 47.4556 41.2725 47.5055 41.2832 47.5519C41.7467 49.5379 41.5863 49.8945 39.8141 50.8394C38.4663 51.5561 38.2346 52.1444 38.7373 53.6099C38.9833 54.3301 39.2757 55.0326 39.4754 55.7635C39.8462 57.1256 39.5218 57.9706 38.3915 58.805C38.067 59.0439 37.7425 59.2864 37.4359 59.5502C37.0472 59.889 36.8618 60.324 36.8154 60.8731V60.8766ZM28.315 71.5486L28.3506 71.5557C28.3613 71.7661 28.3506 71.98 28.3827 72.1833C28.4754 72.7573 28.9104 73.203 29.4168 73.2672C29.9445 73.335 30.5185 73.0426 30.7646 72.579C30.9286 72.276 30.95 71.9301 30.679 71.734C29.9801 71.2312 30.1014 70.6072 30.2689 69.9119C30.6576 68.3145 31.0142 66.7064 31.3493 65.0983C31.4599 64.5635 31.5668 64.0679 32.066 63.7327C32.2051 63.64 32.3227 63.3405 32.2728 63.1979C32.2158 63.0267 31.9804 62.8449 31.795 62.8056C31.3565 62.7129 30.8858 62.7557 30.4508 62.6452C30.0193 62.5382 29.9124 62.7058 29.8446 63.0695C29.5344 64.7667 29.2028 66.4604 28.8926 68.1612C28.6858 69.288 28.5075 70.4183 28.315 71.5486Z" fill="#1E1E1E"/>
<path d="M59.9991 11.7635C61.5573 12.3626 61.7499 13.7353 61.8782 15.076C62.1813 18.2352 61.3398 21.1697 59.9385 23.9687C59.1755 25.4948 58.3019 26.9496 56.9577 28.0585C56.8436 28.1512 56.7366 28.2582 56.6082 28.3188C55.9165 28.6504 55.4316 29.0747 55.4672 29.959C55.4851 30.4118 55.0821 30.7256 54.6543 30.9003C53.2173 31.4922 52.7074 32.7687 52.3402 34.1165C52.2617 34.4125 52.3794 34.7869 52.4864 35.1006C52.9249 36.3771 52.5719 37.3826 51.4666 37.9282C50.2828 38.5094 48.689 38.1528 48.065 37.1616C47.7262 36.6196 47.7298 36.042 47.983 35.4857C48.2753 34.8368 48.6141 34.2092 48.9492 33.5852C49.8763 31.8595 50.9603 30.2014 51.7126 28.4044C54.041 22.8455 57.1966 17.7039 59.7032 12.2378C59.7567 12.1201 59.8173 12.006 59.8779 11.8919C59.8993 11.8527 59.9421 11.8206 59.9956 11.7635H59.9991ZM60.0063 12.7298C59.9136 12.9046 59.8458 13.0115 59.7995 13.1256C59.0222 14.9726 58.3447 16.8695 57.4533 18.6595C56.0769 21.4229 54.5509 24.1113 53.0925 26.8355C52.8358 27.3169 52.8679 27.4203 53.3492 27.652C54.6293 28.2689 55.1606 28.2011 56.2481 27.2812C56.3836 27.1671 56.5155 27.0459 56.6403 26.9175C57.6672 25.8835 58.4303 24.664 59.1006 23.3875C60.4484 20.8167 61.2614 18.1246 60.8763 15.1794C60.7658 14.3308 60.5411 13.5143 60.0027 12.737L60.0063 12.7298ZM49.9904 37.2115C51.2526 37.1473 51.7411 36.4877 51.4416 35.2682C51.3525 34.8974 51.2669 34.4766 51.3561 34.1236C51.7554 32.4977 52.4543 31.0501 53.9875 30.1729C54.1265 30.0945 54.3405 30.0339 54.3833 29.9126C54.4867 29.6238 54.5223 29.3065 54.558 28.9963C54.5616 28.957 54.3975 28.8786 54.3013 28.8536C53.8698 28.7324 53.4206 28.6611 53.0105 28.4935C52.6753 28.358 52.5149 28.3723 52.333 28.7217C51.2598 30.7862 50.158 32.8365 49.074 34.8974C48.9029 35.2254 48.7496 35.5677 48.6355 35.9172C48.4928 36.3629 48.6711 36.7301 49.0776 36.9334C49.3593 37.0724 49.6838 37.1223 49.9904 37.2115Z" fill="#1E1E1E"/>
<path d="M79.6851 63.6187C80.2164 63.7898 80.6799 63.8861 81.0935 64.0822C81.7924 64.4174 82.477 64.7846 83.1295 65.1947C83.7713 65.5976 84.0209 66.2145 83.7963 66.9561C83.5895 67.6336 83.3684 68.3111 83.0939 68.9636C82.8122 69.6303 82.3772 69.6731 81.9386 69.0919C81.2433 68.172 80.3804 67.5551 79.2073 67.4339C78.7866 67.3911 78.3623 67.3127 77.9415 67.3198C77.5422 67.3269 77.4994 67.0631 77.5172 66.8171C77.5992 65.7973 77.8809 64.831 78.6475 64.1107C78.9185 63.8576 79.3428 63.772 79.6815 63.6151L79.6851 63.6187ZM82.4948 68.5642C82.7266 67.8475 82.912 67.2877 83.0867 66.7208C83.2151 66.3143 83.1046 65.9363 82.7444 65.7474C81.8352 65.2696 80.9081 64.8167 79.9597 64.4138C79.5033 64.2177 79.0504 64.4388 78.8615 64.8774C78.5619 65.5762 78.3551 66.3143 78.0556 67.195C79.9383 66.4819 81.3075 67.0096 82.4913 68.5642H82.4948Z" fill="#1E1E1E"/>
<path d="M67.1947 68.4251C68.1146 67.3055 69.0916 66.6458 70.4394 66.8063C70.8459 66.8562 71.2559 66.9204 71.6482 67.3304C71.4164 67.3625 71.2952 67.4053 71.1846 67.391C69.8618 67.2306 68.7707 67.6977 67.9756 68.721C67.2018 69.7123 66.7739 69.4698 66.4174 68.4251C66.2284 67.876 66.0465 67.3197 65.9075 66.7564C65.7363 66.0504 65.961 65.4264 66.5885 65.0805C67.5049 64.5742 68.4462 64.0928 69.4268 63.7291C70.3467 63.3868 71.067 63.6757 71.5127 64.5564C71.8407 65.2053 72.0012 65.947 72.1759 66.6637C72.2187 66.8384 72.0226 67.0737 71.937 67.2805C71.7979 67.1201 71.6018 66.981 71.5376 66.7956C71.3843 66.3534 71.313 65.8864 71.1775 65.4371C70.8459 64.346 70.3467 64.0714 69.2877 64.4744C68.5817 64.7453 67.8935 65.0841 67.2303 65.4513C66.6064 65.7936 66.4994 66.111 66.6848 66.7849C66.8239 67.2912 66.9986 67.7904 67.1982 68.4251H67.1947Z" fill="#1E1E1E"/>
<path d="M80.2734 75.3388C81.4786 74.9929 82.6161 74.8931 83.6501 75.7417C81.8994 75.4208 80.2628 75.6704 78.7652 76.6866C78.7402 76.6367 78.7153 76.5832 78.6867 76.5333C78.8044 76.3978 78.9149 76.2552 79.0433 76.134C79.1824 76.002 79.3357 75.8879 79.5354 75.7275C78.9363 75.428 78.4158 75.0999 78.7616 74.3547C78.9292 73.991 79.3606 73.8377 79.7564 73.9625C80.2271 74.1087 80.3769 74.4724 80.277 75.3388H80.2734Z" fill="#1E1E1E"/>
<path d="M69.2592 75.1926C69.2592 74.2762 69.4232 73.9589 69.9224 73.8591C70.3431 73.7735 70.746 74.0017 70.8851 74.4046C71.0491 74.8717 70.8494 75.1926 70.0686 75.6526C70.2183 75.7881 70.3396 75.9271 70.4893 76.0305C70.6462 76.1375 70.8281 76.2124 70.9992 76.3015C70.935 76.4049 70.8673 76.5083 70.8031 76.6153C69.302 75.6454 67.6974 75.2283 65.8896 75.7203C66.3104 74.9929 67.1269 74.8895 69.2556 75.1962L69.2592 75.1926Z" fill="#1E1E1E"/>
<path d="M72.2115 76.7437C72.4861 75.8665 73.8339 74.861 74.6469 74.8396C75.6453 74.8147 76.9574 75.7096 77.3639 76.79C76.8861 76.5333 76.476 76.3515 76.1052 76.1054C75.1425 75.4636 74.4329 75.4529 73.4667 76.0733C73.0958 76.3122 72.6893 76.4905 72.2115 76.7437Z" fill="#1E1E1E"/>
<path d="M72.076 86.4708C73.1957 85.5509 74.5577 85.9466 75.8307 85.9181C76.4047 85.9039 76.9431 86.1214 77.4138 86.6954H72.0939C72.0867 86.6206 72.0832 86.5457 72.076 86.4708Z" fill="#1E1E1E"/>
<path d="M37.1364 103.176C36.409 103.169 35.8456 102.591 35.8599 101.867C35.8706 101.247 36.3412 100.772 36.9331 100.78C37.6427 100.787 38.338 101.436 38.3237 102.081C38.313 102.705 37.796 103.183 37.1399 103.176H37.1364Z" fill="#1E1E1E"/>
<path d="M111.904 103.796C111.241 103.768 110.777 103.276 110.806 102.63C110.831 101.992 111.583 101.364 112.264 101.411C112.856 101.45 113.273 101.942 113.256 102.573C113.234 103.297 112.649 103.828 111.904 103.796Z" fill="#1E1E1E"/>
<path d="M117.374 55.2965C116.925 55.5889 116.479 55.8813 116.03 56.1736C116.001 56.1273 115.972 56.0845 115.944 56.0382C116.408 55.7458 116.867 55.4534 117.331 55.161C117.345 55.2074 117.36 55.2501 117.374 55.2965Z" fill="#1E1E1E"/>
<path d="M113.444 47.912C113.623 47.912 113.805 47.887 113.976 47.9155C114.421 47.9975 114.603 48.3969 114.4 48.7998C113.951 49.6983 111.316 50.9891 110.314 50.8037C109.708 50.6896 109.462 50.1547 109.804 49.6377C109.961 49.3988 110.175 49.1885 110.399 49.0066C111.198 48.3684 112.421 47.9369 113.444 47.912ZM113.398 48.5645C112.917 48.1972 111.387 48.9781 110.927 49.8124C111.89 49.5629 112.649 49.1457 113.398 48.5645Z" fill="#1E1E1E"/>
</svg>
