<svg width="138" height="149" viewBox="0 0 138 149" fill="none" xmlns="http://www.w3.org/2000/svg">
<path d="M86.2203 90.8922C86.5431 90.3225 87.3483 90.1402 87.2458 89.2438C87.0749 89.3007 86.9229 89.3121 86.8394 89.3919C86.1937 90.03 85.5252 90.6529 85.3771 91.6291C85.3391 91.8759 85.2099 92.2102 85.0162 92.3203C84.3098 92.7267 83.5577 93.0534 82.8247 93.4142C82.574 93.5396 82.2701 93.6117 82.0802 93.8016C81.4763 94.4018 80.7736 94.7094 79.9266 94.7968C79.5392 94.8385 79.1328 95.0209 78.7985 95.2336C77.7844 95.8793 76.8311 96.6237 75.7942 97.2238C75.3232 97.4935 74.6965 97.4821 74.1609 97.6568C72.7898 98.1012 71.4338 98.595 70.0589 99.0318C69.4929 99.2141 68.9042 99.366 68.3155 99.4268C66.424 99.6205 64.6426 99.0584 62.8308 98.6254C61.8623 98.3937 61.0267 98.0366 60.2177 97.4897C59.3783 96.9238 58.4211 96.5212 57.6197 95.9134C56.8904 95.3589 56.2105 94.6904 55.6712 93.9498C55.2192 93.3231 54.9837 92.533 54.6913 91.8038C54.4748 91.2606 54.2696 90.7061 54.1367 90.1401C53.7569 88.4803 53.4568 86.8053 53.0542 85.1531C52.5681 83.1476 51.9907 81.165 51.4894 79.1633C51.1323 77.7466 50.8285 76.3184 50.5018 74.8941C50.4942 74.8599 50.5018 74.8219 50.4904 74.7915C49.8599 73.5191 49.9283 72.11 49.746 70.7578C49.6358 69.9488 49.7194 69.1094 49.784 68.289C49.8675 67.2483 49.9397 66.1886 50.1714 65.1745C50.6917 62.8613 51.5577 60.6736 52.8339 58.6643C53.0162 58.3756 53.2365 58.106 53.4568 57.8401C54.0418 57.1412 54.6229 56.4348 55.2306 55.7549C55.5003 55.451 55.8041 55.1586 56.146 54.9383C58.2084 53.6051 60.4835 52.7885 62.865 52.2415C63.9551 51.9908 65.0338 51.687 66.1201 51.4211C66.4012 51.3527 66.6974 51.2996 66.9861 51.2958C68.8472 51.2692 70.6969 51.273 72.4897 51.9491C73.2304 52.2263 74.085 52.1845 74.875 52.3517C75.5131 52.4846 76.1398 52.6821 76.7551 52.9062C78.1946 53.4304 79.638 53.9393 81.0471 54.5356C82.3879 55.1054 83.7058 55.7131 84.7276 56.8488C85.4113 57.6084 86.2659 58.2161 87.0445 58.8922C87.0825 58.9264 87.1242 58.9606 87.1546 59.0023C88.0662 60.2102 89.0917 61.3496 89.8476 62.6486C90.273 63.3779 90.535 63.9704 91.477 64.1337C92.4 64.2933 93.0495 65.0985 93.4977 65.8088C93.9838 66.5798 94.4738 67.4458 94.4548 68.4827C94.4206 70.4806 94.1927 72.4366 93.5204 74.3244C93.3533 74.7915 93.1026 75.2283 92.8672 75.6651C92.286 76.7514 92.3734 77.9707 92.1569 79.1329C91.8302 80.8801 91.5986 82.6387 90.9643 84.3441C90.5237 85.5291 89.9349 86.6268 89.426 87.7663C89.2247 88.2107 88.7841 88.5601 88.4232 88.9209C87.8041 89.5438 87.1622 90.1439 86.5241 90.7479C86.4444 90.82 86.3304 90.8542 86.2317 90.9074L86.2203 90.8922Z" fill="#FBFBFB"/>
<path d="M73.3822 125.805C72.4251 125.965 71.6313 125.471 70.8184 125.129C69.7587 124.685 68.718 124.165 68.0647 123.128C67.8672 122.816 67.6203 122.877 67.3773 123.105C67.0658 123.401 66.7354 123.678 66.4277 123.978C66.0669 124.328 65.6491 124.373 65.1819 124.279C64.2323 124.089 63.5031 123.318 63.5487 122.433C63.5676 122.102 63.7234 121.722 63.9361 121.464C64.916 120.287 65.9036 119.117 66.9519 118.004C68.2281 116.652 69.5726 115.36 70.883 114.042C71.297 113.628 71.7376 113.237 72.1022 112.781C72.9037 111.775 73.9786 111.285 75.1408 110.772C76.9146 109.99 78.4073 110.673 79.9342 111.27C81.3661 111.828 82.5094 112.842 83.5425 113.974C84.53 115.06 84.7617 116.302 84.568 117.749C84.3629 119.307 83.4931 120.435 82.5322 121.544C81.6054 122.619 80.6482 123.678 79.2315 124.104C78.4643 124.336 77.6628 124.465 76.8804 124.643C76.7209 124.681 76.5158 124.7 76.4208 124.806C75.7182 125.57 74.8028 125.733 73.838 125.786C73.6823 125.794 73.5266 125.802 73.3784 125.809L73.3822 125.805Z" fill="#FBFBFB"/>
<path d="M48.3065 113.837C48.5914 113.131 48.8307 112.508 49.0927 111.893C49.3282 111.334 49.6929 110.749 50.3082 110.761C50.8931 110.772 51.2159 111.346 51.4438 111.9C52.1617 113.651 52.3554 115.455 52.0705 117.32C52.0174 117.673 51.8996 117.822 51.5274 117.848C51.1893 117.875 50.8475 117.974 50.5323 118.106C47.7975 119.261 45.5452 121.077 43.5701 123.257C43.2055 123.659 42.8105 123.781 42.2863 123.724C41.2418 123.614 40.4062 123.162 39.6693 122.417C39.13 121.871 38.5489 121.384 38.0703 120.758C37.5461 120.074 36.7523 119.713 35.818 120.017C35.3774 120.161 34.9292 120.302 34.4772 120.397C33.8695 120.526 33.5846 120.294 33.7707 119.725C34.067 118.817 34.3784 117.886 34.8722 117.081C35.4267 116.177 36.2282 115.433 36.8511 114.567C37.4208 113.777 37.9032 112.926 38.4083 112.09C39.0123 111.084 39.7909 110.407 41.0519 110.415C41.9027 110.423 42.7915 110.145 43.6005 110.305C45.5528 110.689 47.2582 111.551 48.1052 113.533C48.1318 113.594 48.1774 113.647 48.2989 113.826L48.3065 113.837Z" fill="#FBFBFB"/>
<path d="M49.5636 12.3565C50.0878 12.2957 50.6157 12.2007 51.1437 12.1817C54.695 12.0564 58.2464 11.9349 61.8015 11.8475C62.2991 11.8361 62.5687 11.6842 62.8118 11.255C64.8629 7.65806 66.9443 4.07634 69.0105 0.490825C69.2004 0.164178 69.4169 -0.0333302 69.8347 0.00465196C70.2791 0.0426342 70.6627 0.0806165 70.8754 0.581981C72.5201 4.40299 74.1875 8.2088 75.8283 12.0298C76.003 12.4362 76.2233 12.5882 76.6525 12.6489C80.0177 13.1199 83.3792 13.6175 86.7406 14.1226C87.1128 14.1796 87.4661 14.3353 87.8307 14.4455C87.8345 14.5138 87.8383 14.5822 87.8421 14.6506C87.542 14.8329 87.2457 15.019 86.9419 15.1975C84.4199 16.6636 81.9055 18.1336 79.3682 19.5769C78.9201 19.8314 78.8897 20.0744 79.0454 20.5264C80.3938 24.4272 81.6396 28.3546 82.4334 32.4111C82.5663 33.0871 82.6423 33.7708 82.7373 34.4545C82.8056 34.9445 82.1827 35.3813 81.6434 35.161C80.7356 34.7925 79.7936 34.4545 78.9656 33.9379C77.1691 32.8175 75.3991 31.6362 73.6823 30.3942C72.0909 29.2433 70.5716 27.9861 69.0371 26.7593C68.7294 26.5124 68.5091 26.5124 68.1749 26.7137C65.2769 28.4875 62.4016 30.303 59.4428 31.9743C57.9653 32.8099 56.3396 33.3872 54.7596 34.0329C54.0037 34.3406 53.5821 34.0367 53.6733 33.2391C53.81 32.0654 53.9544 30.8728 54.2772 29.7371C55.2913 26.1744 56.8106 22.8054 58.4477 19.4933C58.6831 19.0147 58.6148 18.783 58.1818 18.502C55.9218 17.0397 53.6695 15.566 51.4361 14.0657C50.7563 13.6099 50.1372 13.0667 49.4915 12.5616C49.5142 12.497 49.5332 12.4286 49.556 12.3641L49.5636 12.3565Z" fill="#FDB716"/>
<path d="M93.5509 13.4542C93.8472 13.5643 94.1624 13.6365 94.4359 13.7846C96.8098 15.0532 99.1799 16.3256 101.539 17.6208C101.869 17.8032 102.101 17.807 102.427 17.6208C105.276 15.9686 108.144 14.3392 110.996 12.687C111.38 12.4667 111.657 12.5578 111.991 12.7705C112.318 12.9794 112.329 13.2453 112.288 13.5757C111.896 16.865 111.516 20.1543 111.114 23.4435C111.068 23.8157 111.209 24.0018 111.475 24.2108C113.773 26.0301 116.063 27.8608 118.353 29.6954C118.619 29.9081 118.855 30.155 119.102 30.3867L119.045 30.5576C118.422 30.5766 117.795 30.6411 117.176 30.6108C115.037 30.5044 112.903 30.3867 110.768 30.2309C110.202 30.1891 110.043 30.3829 109.948 30.907C109.405 33.862 108.748 36.7942 107.65 39.6011C107.338 40.395 106.894 41.1432 106.45 41.8801C106.138 42.3966 105.724 42.3928 105.405 41.8687C104.683 40.676 103.905 39.4986 103.339 38.23C102.26 35.8029 101.303 33.3227 100.323 30.8538C100.171 30.4664 99.9889 30.3487 99.5711 30.3487C96.5363 30.3487 93.5015 30.3601 90.4667 30.2727C89.5324 30.2461 88.598 29.9651 87.6789 29.7448C87.037 29.589 86.9344 29.0763 87.375 28.6053C89.6084 26.22 92.2861 24.3817 94.9107 22.475C95.3437 22.1597 95.7729 21.8369 96.2362 21.571C96.6275 21.3469 96.6426 21.1152 96.4755 20.7316C95.5488 18.616 94.6448 16.4852 93.737 14.362C93.6307 14.1113 93.5395 13.8568 93.4408 13.6023C93.4749 13.5567 93.5091 13.5074 93.5471 13.4618L93.5509 13.4542Z" fill="#FDB716"/>
<path d="M43.6119 17.0891C43.5131 17.3512 43.4181 17.6208 43.308 17.8791C42.4002 20.0061 41.4962 22.1331 40.5695 24.2487C40.3986 24.6399 40.4669 24.8298 40.8164 25.0881C43.2016 26.8505 45.5793 28.6281 47.9266 30.4398C48.5647 30.9298 49.1003 31.5565 49.6776 32.1224C50.1182 32.5592 50.0157 33.091 49.4155 33.2391C48.5154 33.4632 47.6 33.7405 46.6808 33.7747C43.8397 33.8696 40.9911 33.8734 38.1462 33.8848C36.9346 33.8886 36.9612 33.8658 36.4978 35.0015C35.4571 37.5387 34.424 40.0797 33.3073 42.5827C32.8743 43.5513 32.2514 44.4401 31.6779 45.3402C31.3132 45.91 30.9258 45.9138 30.5688 45.3402C30.17 44.7021 29.7749 44.0412 29.4977 43.3424C28.3544 40.4785 27.6935 37.4779 27.1086 34.4621C26.9681 33.7329 26.9681 33.7177 26.235 33.7595C24.2713 33.8658 22.3076 33.9987 20.344 34.0937C19.5767 34.1317 18.8095 34.1013 18.0422 34.1013C18.0195 34.0481 17.9967 33.9912 17.9739 33.938C18.1942 33.7177 18.3955 33.4708 18.6386 33.2771C20.9365 31.4274 23.2382 29.5814 25.5551 27.7583C25.8856 27.5 25.9843 27.2607 25.9311 26.8505C25.5285 23.5802 25.1563 20.3062 24.7651 17.0359C24.7233 16.6865 24.8145 16.4586 25.1221 16.2573C25.4526 16.0408 25.7222 16.0066 26.0717 16.2079C28.9241 17.8563 31.788 19.4858 34.6405 21.138C34.9709 21.3279 35.2026 21.3127 35.5292 21.1342C37.8727 19.8466 40.2276 18.5818 42.5863 17.3208C42.875 17.165 43.2054 17.0853 43.5169 16.9713C43.5511 17.0093 43.5853 17.0473 43.6195 17.0891H43.6119Z" fill="#FDB716"/>
<path d="M15.7254 36.5093C15.7672 36.722 15.8166 36.9309 15.847 37.1436C16.1091 38.9706 16.3863 40.7975 16.6218 42.6244C16.6826 43.0878 16.8497 43.2398 17.3245 43.2815C19.7971 43.5056 22.266 43.7639 24.7348 44.0412C25.278 44.102 25.8135 44.2729 26.3453 44.4134C26.8846 44.5539 27.0251 44.9566 26.6225 45.3554C26.0262 45.9479 25.4299 46.5746 24.7348 47.038C22.9497 48.2154 21.1227 49.3245 19.292 50.4298C18.2133 51.0831 18.2247 51.0527 18.4298 52.3137C18.7716 54.4407 19.1097 56.5715 19.3793 58.7099C19.4895 59.5759 19.4363 60.4647 19.4135 61.3459C19.3983 61.8776 19.1248 62.0485 18.6653 61.813C18.0424 61.4902 17.3739 61.1825 16.8649 60.7192C15.0873 59.0897 13.3516 57.4109 11.6424 55.7093C11.2511 55.3181 11.0194 55.2801 10.5865 55.5954C9.25707 56.5563 7.90491 57.4831 6.54894 58.4022C6.08556 58.7175 5.5842 58.9796 5.09803 59.2644C5.06004 59.2341 5.01826 59.2037 4.98028 59.1771C5.04485 58.9036 5.08663 58.6187 5.18159 58.3567C5.97921 56.1499 6.77304 53.9431 7.60105 51.7478C7.74918 51.3566 7.7112 51.0983 7.45672 50.7716C5.81589 48.7054 4.19025 46.624 2.5836 44.5274C2.44687 44.3526 2.42788 44.0298 2.46206 43.7943C2.51144 43.4601 2.78491 43.3537 3.11915 43.3461C5.72473 43.2853 8.32651 43.198 10.9321 43.1524C11.4031 43.1448 11.6575 43.0119 11.8968 42.5865C12.93 40.7519 14.0086 38.944 15.0797 37.136C15.2203 36.8967 15.4178 36.6878 15.5925 36.4675C15.6381 36.4827 15.6799 36.4979 15.7254 36.5169V36.5093Z" fill="#FDB716"/>
<path d="M120.845 36.3308C121.115 36.6764 121.312 36.8816 121.453 37.1208C122.539 38.963 123.625 40.8051 124.689 42.6624C124.871 42.9815 125.053 43.1334 125.441 43.141C128.08 43.1904 130.72 43.274 133.36 43.3385C133.706 43.3461 133.937 43.4373 134.097 43.7753C134.256 44.1096 134.131 44.3261 133.941 44.5691C132.312 46.6468 130.694 48.732 129.053 50.7982C128.798 51.1173 128.798 51.368 128.935 51.7326C129.759 53.928 130.557 56.1347 131.351 58.3415C131.446 58.6074 131.487 58.8922 131.556 59.1657C131.518 59.1961 131.48 59.2265 131.442 59.2569C130.959 58.972 130.458 58.7137 129.995 58.4023C128.597 57.4527 127.203 56.4956 125.828 55.5118C125.463 55.2497 125.277 55.3295 124.973 55.6258C123.23 57.3426 121.479 59.0518 119.679 60.7116C119.185 61.1674 118.536 61.475 117.924 61.7865C117.396 62.0561 117.104 61.889 117.123 61.3003C117.164 59.8038 117.191 58.2997 117.369 56.8146C117.582 55.0522 117.932 53.3051 118.254 51.5617C118.327 51.1629 118.216 50.9805 117.882 50.7868C116.181 49.7993 114.464 48.8383 112.823 47.7559C111.809 47.0874 110.897 46.2518 109.99 45.4351C109.469 44.968 109.602 44.5084 110.286 44.3944C112.428 44.045 114.578 43.7297 116.728 43.4411C117.582 43.3271 118.448 43.2967 119.31 43.2702C119.702 43.2588 119.846 43.1106 119.895 42.7346C120.146 40.8697 120.419 39.0124 120.689 37.1512C120.719 36.9385 120.769 36.7258 120.845 36.3346V36.3308Z" fill="#FDB716"/>
<path d="M93.0799 139.335C92.9317 139.635 92.738 139.882 92.6849 140.159C92.5291 140.964 91.9594 141.249 91.2605 141.378C89.2437 141.75 87.2344 142.191 85.2024 142.457C81.8371 142.894 78.5745 143.767 75.2852 144.538C74.8142 144.648 74.3395 144.743 73.8647 144.808C73.0974 144.914 72.6113 144.683 72.4555 144.166C72.2998 143.657 72.5391 143.277 73.2456 142.806C73.0709 142.806 70.7387 144.584 70.0285 144.728C69.9981 144.736 69.9525 144.755 69.9411 144.777C69.436 145.788 68.418 145.628 67.5558 145.83C67.1608 145.921 66.7772 146.069 66.3784 146.149C66.0973 146.206 65.8011 146.221 65.5162 146.198C64.1602 146.095 62.8081 145.974 61.4521 145.871C61.3306 145.864 61.1824 145.928 61.0799 146.004C60.6393 146.327 60.2101 146.27 59.7809 145.993C59.5796 145.86 59.3821 145.723 59.1808 145.59C58.8199 145.351 58.4819 145.127 57.9919 145.29C57.7792 145.359 57.4792 145.252 57.2475 145.157C53.586 143.63 49.9321 142.092 46.2782 140.55C46.0731 140.463 45.868 140.36 45.6857 140.235C45.3439 139.999 45.0286 139.749 44.5614 139.92C44.4399 139.965 44.2652 139.859 44.117 139.836C43.9575 139.809 43.7828 139.749 43.6423 139.794C42.8104 140.06 42.5788 139.984 42.1685 139.255C41.5115 139.38 40.8544 139.555 40.1897 139.608C39.8934 139.631 39.5478 139.452 39.2705 139.289C38.8299 139.031 38.5678 138.537 37.9791 138.446C37.4664 138.366 37.3296 137.903 37.4626 137.082C36.5282 137.022 36.4788 136.991 36.1864 136.231C35.6394 136.292 35.1039 136.38 34.5645 136.399C34.0024 136.421 33.6415 135.867 33.8277 135.305C33.8922 135.111 34.0024 134.936 34.1429 134.651C33.7517 134.579 33.3985 134.488 33.0414 134.45C32.3426 134.374 32.0805 134.021 32.1716 133.345C32.2096 133.064 32.145 132.741 32.0387 132.471C31.8906 132.103 31.7007 131.738 31.45 131.431C31.0284 130.914 31.1157 130.375 31.2563 129.813C31.4006 129.239 31.4956 128.696 31.4234 128.065C31.3588 127.484 31.7234 126.812 32.0159 126.238C32.616 125.057 33.2693 123.902 33.953 122.767C34.3214 122.151 34.7696 121.574 35.233 121.023C35.6926 120.48 36.2851 120.53 36.7295 121.065C36.8131 121.168 37.1815 121.039 37.2992 121.092C39.0464 121.908 39.0198 122.345 40.1593 123.887C40.2922 123.849 40.4328 123.8 40.5771 123.77C41.4127 123.591 42.1078 123.773 42.2027 124.617C42.2217 124.784 42.8104 124.56 42.8142 124.727C42.818 124.958 42.5104 125.98 42.3888 126.121C41.8077 126.778 42.1344 127.442 41.9634 128.221C41.9179 128.419 41.4393 128.722 41.5001 128.943C41.5608 129.171 41.6596 129.391 41.6862 129.623C41.7773 130.42 42.1989 130.697 42.7611 131.267C42.9092 131.415 43.0535 131.871 43.27 131.955L43.3992 131.837C43.1789 131.396 42.9814 130.941 42.7345 130.515C42.2597 129.691 42.4268 128.867 42.7573 128.077C43.4447 126.436 44.2044 124.822 45.3591 123.447C46.2213 122.417 47.1062 121.399 48.0368 120.431C49.2142 119.204 50.6462 118.41 52.3402 118.118C52.5225 118.087 52.7048 118.027 52.9555 117.962C52.5035 117.605 52.0667 117.187 52.2148 116.674C52.2338 116.602 52.2946 116.42 52.2528 116.352C51.949 115.854 52.306 115.508 52.625 115.11C52.8112 114.874 52.8757 114.669 52.6174 114.441C52.5453 114.377 52.5073 114.266 52.4731 114.171C52.0781 112.937 51.5464 112.022 51.1361 110.73C50.2815 110.73 49.8713 110.909 49.3662 111.471C49.1953 111.661 49.0699 111.893 48.9142 112.098C48.6217 112.477 48.2647 113.116 47.8431 112.945C47.4025 112.766 47.091 111.847 47.186 111.376C47.2582 111.023 47.4139 110.628 47.6646 110.377C50.103 107.939 52.5035 105.455 55.318 103.438C55.5915 103.24 56.0131 103.24 56.3701 103.16C56.598 103.111 56.9322 102.636 57.1487 102.553C58.4515 102.051 59.6631 102.017 60.9621 101.504C61.5433 101.276 62.1244 101.125 62.6675 101.679C62.8992 101.364 63.0853 101.102 63.2828 100.843C63.7006 100.297 64.5439 99.6129 65.1136 99.9851C65.2427 100.069 65.463 100.084 65.615 100.038C66.6709 99.723 67.3128 100.008 68.3649 99.685C68.7523 99.5673 69.1663 99.328 69.4853 99.6091C69.5879 99.7002 69.8006 99.7344 69.9411 99.704C70.583 99.5673 71.149 99.6774 71.7909 99.5559C72.1517 99.4875 72.5315 99.5369 72.8999 99.5065C73.0747 99.4913 73.2836 99.4609 73.4089 99.3546C75.0156 98.0404 76.6184 97.0187 78.3846 95.9856C79.7367 95.1955 81.4953 94.8119 82.6993 93.7674C83.2349 93.3002 83.9186 93.0002 84.5415 92.6355C84.9327 92.4076 85.2745 92.1836 85.4037 91.6784C85.4682 91.4201 85.7645 91.1808 86.0114 91.0137C86.6495 90.5807 87.337 90.2199 87.9637 89.7717C88.2751 89.5476 88.4954 89.1944 88.7651 88.9057C89.1715 88.4613 89.6691 88.3739 90.0413 88.6892C90.1438 88.7765 90.2654 88.8943 90.2806 89.0158C90.4135 89.9502 91.9252 90.2806 91.3403 91.2302C91.2985 91.2986 90.2806 91.986 90.2502 92.081C90.8047 92.0088 91.3327 91.2378 91.8568 91.2378C92.9925 91.2416 94.1358 91.2302 95.2563 91.3783C96.5439 91.5455 97.8163 92.4836 99.0811 92.7951C100.031 93.0268 100.767 93.6611 101.398 94.3827C104.083 97.4745 105.371 101.136 105.58 105.173C105.648 106.491 105.652 107.882 104.801 109.055C104.771 109.093 104.744 109.158 104.756 109.2C104.965 109.929 104.459 110.4 104.129 110.928C103.126 112.531 102.123 114.133 101.185 115.778C101.546 115.307 101.899 114.836 102.268 114.373C102.697 113.833 103.214 113.704 103.658 114.016C104.099 114.327 104.125 114.855 103.829 115.455C103.525 116.067 103.293 116.712 103.031 117.343C102.986 117.453 102.948 117.571 102.891 117.677C102.553 118.3 102.294 118.893 102.294 119.671C102.294 120.404 101.861 121.141 101.595 121.87C101.071 123.314 100.597 124.776 99.9888 126.181C99.3887 127.568 98.6595 128.901 97.9644 130.246C97.8201 130.523 97.7023 130.72 97.9378 131.028C98.2189 131.396 98.1087 131.799 97.8808 132.19C97.6871 132.524 97.52 132.878 97.3909 133.242C97.0908 134.082 96.8173 134.936 96.5324 135.783C96.4527 136.026 96.3577 136.269 96.3008 136.52C96.0463 137.675 95.3398 138.575 94.6106 139.449C94.2345 139.897 93.7635 139.836 93.1027 139.342L93.0799 139.335ZM77.002 110.088C75.4637 109.526 73.7318 110.096 72.7328 111.395C72.5809 111.592 72.4366 111.794 72.2998 111.999C71.1907 113.674 69.5195 114.745 68.1978 116.184C68.1294 116.257 68.0192 116.287 67.9357 116.352C67.0621 117.024 66.048 117.544 65.4782 118.543C65.4061 118.672 65.2845 118.881 65.1972 119.003C64.2514 120.309 63.3056 121.616 62.3257 122.972C63.2373 123.538 64.2248 124.149 65.1098 124.696C65.4288 124.522 65.6377 124.377 65.8656 124.29C66.4392 124.073 67.0203 123.883 67.5976 123.682C68.0192 123.534 68.3801 123.618 68.7599 123.868C69.4739 124.339 70.2032 124.806 70.9742 125.171C71.5896 125.464 72.2656 125.646 72.9303 125.798C73.576 125.946 74.2407 126.022 74.9016 126.06C75.1523 126.075 75.4295 125.935 75.665 125.809C76.0639 125.596 76.4171 125.258 76.8349 125.126C77.6363 124.875 78.4833 124.761 79.2961 124.533C80.3103 124.252 81.3358 123.956 82.1068 123.185C83.0564 122.239 83.4058 121.118 84.3136 120.131C84.4465 119.987 84.5225 119.728 84.5225 119.523C84.5225 117.989 84.6782 116.743 84.6478 115.208C84.6478 115.022 84.5643 114.791 84.4389 114.658C83.9338 114.122 83.797 113.469 83.2691 112.956C81.9283 111.657 80.4166 110.647 78.5175 110.438C77.982 110.377 77.4806 110.263 76.9982 110.088H77.002ZM89.312 128.544C89.3196 128.578 89.3234 128.616 89.331 128.65C89.5399 128.548 89.783 128.487 89.9463 128.339C91.3707 127.036 92.7912 125.729 94.189 124.4C94.6941 123.918 95.1423 123.375 95.6361 122.835C95.355 122.714 95.1271 122.615 94.9904 122.554C93.0723 124.579 91.1922 126.561 89.312 128.544ZM77.454 104.585C79.1556 103.229 81.0661 102.105 82.3499 100.293C80.4052 101.356 78.9315 102.974 77.454 104.585ZM60.9697 122.045C60.6697 121.912 60.3468 121.764 60.0164 121.631C59.929 121.597 59.8113 121.582 59.7239 121.608C59.3555 121.715 58.9947 121.84 58.611 121.962C58.9681 121.992 59.1428 121.84 59.477 122.007C59.5644 122.049 59.8682 122.038 59.9366 122.007C60.3088 121.836 60.6583 122.212 60.9773 122.049L60.9697 122.045Z" fill="#FDB716"/>
<path d="M67.5712 34.4355C67.7345 34.3558 67.8826 34.3064 68.008 34.2228C69.5425 33.1518 71.3884 32.7833 73.0672 32.0313C73.5724 31.8072 74.2598 31.8793 74.841 31.9629C76.8008 32.2478 78.6544 32.9087 80.4661 33.6759C81.1536 33.9684 81.7689 34.3786 82.1867 35.0357C82.2931 35.199 82.4906 35.3091 82.6577 35.4269C84.7923 36.9044 86.794 38.5376 88.4272 40.5735C88.8868 41.147 89.2742 41.7889 89.6464 42.427C89.9503 42.9512 89.9199 43.5399 89.4869 43.9653C89.0463 44.4021 89.1337 44.8958 89.1413 45.3972C89.1413 45.5339 89.2362 45.6859 89.202 45.8036C88.6893 47.471 89.2818 49.3018 88.2867 50.9274C87.5422 52.139 87.3599 53.5862 87.2839 55.0105C87.2118 56.3437 86.3951 56.7881 85.1341 56.3893C83.8883 55.998 82.8134 55.3941 81.8297 54.5661C81.4651 54.2585 81.0663 53.9736 80.6484 53.7381C78.8709 52.7316 76.9756 52.0365 74.9967 51.4971C71.4416 50.5248 67.875 50.5438 64.2743 51.049C63.9857 51.0907 63.678 51.1781 63.4007 51.1249C62.3524 50.9274 61.7219 51.5769 61.0876 52.2074C60.3811 52.9101 59.933 53.0012 59.01 52.6176C58.8543 52.5531 58.5998 52.5834 58.4479 52.6708C57.9731 52.9481 57.5249 53.2709 57.0691 53.5824C55.9486 54.3496 54.9687 54.0002 54.5281 52.7126C54.1597 51.6377 54.1483 50.54 54.2546 49.4385C54.2888 49.0891 54.5623 48.77 54.7104 48.4282C54.7902 48.2459 54.9079 48.0332 54.8775 47.8547C54.7104 46.8177 54.5433 45.777 54.3002 44.7591C54.0951 43.8931 53.795 43.0461 53.5216 42.1953C53.3354 41.6218 53.0582 41.071 52.9366 40.4899C52.686 39.2897 53.6355 38.3439 54.8547 38.5224C55.7435 38.6554 55.7625 38.663 56.1006 37.8426C56.5298 36.8018 57.297 36.122 58.3263 35.7383C60.328 34.9901 62.3372 34.2684 64.3465 33.543C64.525 33.4784 64.7111 33.4328 64.8934 33.391C66.3216 33.053 66.7546 33.2163 67.5712 34.4431V34.4355Z" fill="#FDB716"/>
<path d="M97.4858 137.588C97.8315 137.436 98.0176 137.367 98.1923 137.272C116.257 127.705 127.651 112.979 132.316 93.0801C133.618 87.5233 133.991 81.8639 133.747 76.1666C133.694 74.8942 133.512 73.6256 133.402 72.357C133.368 71.962 133.341 71.5632 133.364 71.1681C133.406 70.4693 133.877 69.8881 134.462 69.7476C135.084 69.5995 135.749 69.854 136.053 70.5262C136.387 71.2707 136.737 72.0645 136.805 72.8584C137.758 83.6947 136.285 94.1967 132.281 104.323C123.618 126.246 104.368 142.164 81.1839 146.589C77.04 147.379 72.8544 147.767 68.6308 147.793C67.3773 147.801 66.1239 147.957 64.8743 148.09C63.0398 148.291 61.2774 148.055 59.5302 147.448C58.5275 147.102 57.4602 146.927 56.4119 146.741C28.9622 141.921 7.06923 120.697 1.42888 93.4181C0.47932 88.8261 -0.0220454 84.1846 0.000743911 79.4938C0.000743911 79.0191 0.0957001 78.5329 0.221041 78.0733C0.369172 77.5378 0.741396 77.1465 1.25795 76.9186C1.94163 76.6186 2.61771 76.8465 2.8684 77.553C3.04312 78.0467 3.15326 78.5937 3.15326 79.114C3.15326 98.9749 12.5577 118.585 29.2698 131.157C29.4293 131.279 29.6003 131.381 29.8168 131.529C29.8585 131.362 29.9041 131.267 29.9003 131.176C29.8206 128.749 30.622 126.561 31.7501 124.472C32.2742 123.5 32.8439 122.554 33.4137 121.608C33.5998 121.301 33.6074 121.122 33.3491 120.811C33.0946 120.507 32.9275 120.055 32.8933 119.656C32.8022 118.581 33.1972 117.598 33.8163 116.754C34.4468 115.896 35.2178 115.148 35.9015 114.331C36.4523 113.674 37.022 113.025 37.4854 112.31C38.7844 110.297 40.5012 109.014 42.989 109.204C43.855 109.272 44.7134 109.64 45.5376 109.959C45.9174 110.107 46.1073 110.119 46.4226 109.826C48.3673 108.015 50.3082 106.203 52.3098 104.46C54.3722 102.663 56.7727 101.47 59.4315 100.806C60.4874 100.544 61.5357 100.262 62.5878 99.989C62.7625 99.9435 62.9334 99.8789 63.2525 99.7763C62.998 99.6168 62.8727 99.5105 62.7283 99.4497C61.7446 99.0319 60.7684 98.5989 59.7695 98.2115C57.5476 97.3455 55.5459 96.168 54.0494 94.2575C52.7922 92.6509 52.2908 90.7556 52.0781 88.7767C51.8388 86.5319 51.7135 84.272 51.4628 82.0273C51.2197 79.8547 50.555 77.7808 49.7916 75.7412C48.8003 73.0938 47.9571 70.4123 48.0064 67.5484C48.0786 63.1767 49.6852 59.3861 52.6934 56.2677C53.6886 55.2346 53.962 54.1939 53.9013 52.8911C53.7417 49.6512 53.0885 46.4987 52.3478 43.3538C52.1427 42.484 51.9794 41.5914 51.93 40.7026C51.8274 38.8681 53.2404 37.3602 55.0711 37.2728C55.356 37.2576 55.656 37.3336 55.9257 37.4286C56.2106 37.5311 56.3511 37.4704 56.5031 37.2083C58.387 33.9912 61.285 32.2858 64.8819 31.6629C66.0214 31.4654 67.1115 31.6971 68.1066 32.3314C68.2661 32.4339 68.5586 32.4795 68.7143 32.4035C71.6655 30.9146 74.7497 30.9488 77.8604 31.6705C81.5257 32.5213 84.8302 34.1127 87.5231 36.7943C90.3908 39.6467 91.2681 43.1639 90.4781 47.0343C89.9578 49.5943 89.0956 52.0859 88.3663 54.6041C88.1156 55.4663 87.8194 56.3133 87.5079 57.1527C87.3788 57.4984 87.4471 57.7262 87.6902 57.9807C88.7955 59.1354 89.8096 60.3888 90.2616 61.9385C90.5389 62.8956 90.8807 63.5147 91.9328 63.8224C92.9963 64.1338 93.6952 65.0492 94.2573 66.0102C96.0729 69.1209 95.6665 73.8155 93.5015 76.2502C93.3458 76.4249 93.2926 76.7515 93.3002 77.006C93.3838 80.1965 92.909 83.2693 91.3441 86.1027C91.0934 86.5547 90.7972 86.9839 90.5085 87.4093C90.3452 87.6524 90.33 87.8347 90.6111 88.0056C91.3707 88.4652 91.9518 89.073 92.2595 89.9314C92.3089 90.0719 92.6089 90.2086 92.7874 90.2048C95.807 90.1023 98.5038 91.1278 100.855 92.8712C104.186 95.34 106.4 98.5913 106.94 102.834C107.376 106.252 107.016 109.606 106.013 112.861C105.063 115.938 103.852 118.935 102.8 121.985C101.17 126.694 99.5787 131.419 97.972 136.137C97.8239 136.57 97.6871 137.003 97.4934 137.588H97.4858ZM75.4562 109.587C75.6499 109.587 75.8132 109.595 75.9765 109.587C77.4274 109.511 78.8404 109.602 80.1052 110.446C80.2457 110.54 80.409 110.624 80.5724 110.662C82.0043 110.989 82.9842 111.969 83.8958 113.006C85.7189 115.079 86.0266 117.609 84.8036 120.082C84.1921 121.32 83.3375 122.372 82.3309 123.31C81.1915 124.37 79.8811 124.928 78.301 124.898C77.8908 124.89 77.4312 125.095 77.0742 125.327C76.0031 126.022 74.8636 126.246 73.614 126.041C72.053 125.783 70.6818 125.053 69.3144 124.309C68.7333 123.994 68.2927 124.104 67.8369 124.567C67.3736 125.038 67.3773 125.547 67.5141 126.14C67.5635 126.345 67.3887 126.599 67.3166 126.831C67.1305 126.736 66.9216 126.668 66.7658 126.535C66.1277 125.988 65.5732 125.308 64.8629 124.886C63.5336 124.096 62.1168 123.454 60.7419 122.737C59.1162 121.89 57.54 122.038 55.8763 122.729C51.5919 124.507 49.2788 127.841 48.2001 132.179C48.0102 132.935 48.033 133.751 48.0102 134.541C48.0026 134.747 48.147 135.001 48.3027 135.153C49.4574 136.292 50.6462 137.394 51.7933 138.537C52.7922 139.532 53.6924 140.641 54.7521 141.564C55.8687 142.533 57.1146 143.353 58.3224 144.219C60.1114 145.499 62.1282 146.115 64.316 145.921C66.0708 145.765 67.7686 145.309 69.3942 144.573C71.5364 143.604 73.4697 142.309 75.2852 140.846C82.7335 134.853 89.6235 128.263 96.0539 121.191C98.7013 118.277 101.117 115.174 102.887 111.623C104.08 109.23 104.801 106.716 104.794 104.019C104.79 102.184 104.528 100.392 103.692 98.7546C102.537 96.4985 100.733 94.831 98.5911 93.5207C98.3328 93.3611 97.9682 93.308 97.6568 93.3194C94.2498 93.4523 91.12 94.474 88.241 96.2858C84.9897 98.3368 82.2664 100.996 79.5506 103.681C77.83 105.382 76.5538 107.35 75.4524 109.58L75.4562 109.587ZM56.56 77.0858C56.7917 77.0288 56.9854 76.949 57.1791 76.9414C57.7413 76.9262 58.3034 76.9149 58.8579 76.9718C59.0175 76.9908 59.1504 77.2567 59.2947 77.4086C59.139 77.496 58.9871 77.5947 58.8276 77.6669C57.9882 78.0543 57.0956 78.3544 56.3207 78.8443C55.4092 79.4217 54.8774 80.3218 54.8698 81.4499C54.8508 83.3528 56.1384 85.0848 57.9578 85.6622C58.2958 85.7685 58.5997 85.985 58.9339 86.1103C59.1314 86.1863 59.3973 86.2737 59.5682 86.1977C63.1689 84.6328 66.6823 82.9122 69.7854 80.4624C70.678 79.7559 71.5668 79.0419 72.4822 78.362C73.7432 77.4276 75.1637 77.063 76.7286 77.2377C80.0938 77.6137 82.8057 79.19 84.9289 81.7804C85.4911 82.4641 85.9354 83.2617 86.3305 84.0593C86.6571 84.7202 86.6761 85.4684 86.4026 86.1787C86.0418 87.1283 85.2404 87.4853 84.3174 87.0751C83.816 86.8548 83.3451 86.5509 82.8969 86.2357C82.0499 85.6394 81.2485 84.9823 80.3976 84.3935C78.3846 82.9996 77.7427 83.011 75.7752 84.4885C74.518 85.4305 73.314 86.437 72.053 87.3751C68.3763 90.1023 64.373 91.9862 59.686 92.1039C59.0744 92.1191 58.4553 92.2673 57.859 92.423C57.3538 92.5521 57.126 92.9585 57.0918 93.4751C57.0576 94.003 56.936 94.5044 57.5058 94.9032C58.8162 95.8262 60.2025 96.5706 61.7484 97.0112C62.056 97.0986 62.3447 97.2657 62.6372 97.4062C63.1879 97.6683 63.7083 98.0557 64.2894 98.1887C66.5038 98.6938 68.7713 98.5951 70.8907 97.9152C75.9233 96.2972 80.6673 94.022 85.0011 90.9607C89.369 87.8765 91.8113 83.6833 92.1227 78.3012C92.1759 77.3517 92.1873 77.363 91.2378 77.3858C89.7602 77.42 88.7385 76.5312 87.751 75.6007C87.6826 75.5361 87.6826 75.3956 87.6219 75.1905C87.9523 75.236 88.2068 75.2474 88.4461 75.312C88.993 75.4639 89.5324 75.6462 90.0793 75.8134C90.8693 76.0527 91.5226 75.821 91.9974 75.1753C92.2595 74.8182 92.4988 74.4232 92.6583 74.0092C93.4635 71.9126 93.4711 69.7894 92.6925 67.6852C92.4912 67.1458 92.1873 66.6179 91.8265 66.1659C90.9377 65.0492 89.7527 64.7682 88.4461 65.3379C87.1395 65.9076 86.2317 66.8989 85.6164 68.1676C85.5442 68.3157 85.4797 68.4638 85.4113 68.6119C85.3619 68.6044 85.3163 68.5968 85.267 68.5854C85.267 68.3461 85.229 68.0954 85.2746 67.8637C85.6962 65.6911 86.9762 64.2554 89.0652 63.5489C89.4488 63.4198 89.5438 63.2868 89.2931 62.9374C88.0207 61.1636 86.6077 59.5266 84.8985 58.1479C79.9685 54.1597 70.0741 51.1705 61.5471 53.3887C57.1943 54.5244 54.076 57.1147 51.8806 60.9319C50.7829 62.8387 50.3689 64.9543 50.1486 67.1154C50.1144 67.4611 50.3347 67.4459 50.5626 67.4953C51.7401 67.7535 52.9137 68.0308 54.0912 68.2853C54.7863 68.4372 55.1471 68.874 55.28 69.5539C55.4585 70.4693 55.6674 71.377 55.846 72.2886C56.0662 73.4205 55.5725 73.9143 54.4254 73.7813C53.4151 73.6674 52.401 73.58 51.3868 73.5192C50.6994 73.4813 50.6728 73.5534 50.8931 74.2257C50.9083 74.2751 50.9235 74.3245 50.9425 74.3738C52.4124 78.6089 53.681 82.8857 53.6126 87.4359C53.605 87.8803 53.8557 87.9715 54.2203 87.8879C55.2117 87.6562 56.1992 87.4207 57.1829 87.17C57.3425 87.1283 57.483 87.0105 57.7451 86.8662C57.4526 86.7522 57.2969 86.6839 57.1374 86.6307C53.9165 85.6014 52.3934 81.1195 54.5812 78.6278C54.885 78.2822 54.6343 78.1873 54.3722 78.0315C53.7759 77.6859 53.5518 76.9414 53.8139 76.2616C54.076 75.5779 54.7141 75.1981 55.4092 75.3082C56.0587 75.4108 56.4727 75.9197 56.5106 76.668C56.5182 76.7857 56.5372 76.8997 56.56 77.082V77.0858ZM59.6936 51.6339C69.322 48.827 78.0389 50.8439 86.1975 56.4007C86.3115 55.8917 86.414 55.4093 86.5318 54.9346C87.1813 52.3062 87.8763 49.6892 88.4727 47.0495C89.4298 42.803 88.0776 39.415 84.5339 36.893C81.5447 34.766 78.2289 33.505 74.5636 33.2087C71.5706 32.9657 68.9688 33.8469 66.8988 36.0688C66.1961 36.8247 65.5124 37.6109 64.9123 38.4503C62.1814 42.2865 60.7115 46.6506 59.6974 51.1933C59.6708 51.3187 59.6974 51.4554 59.6974 51.6339H59.6936ZM95.3284 92.3394C95.3284 92.2938 95.3285 92.2445 95.3322 92.1989C95.2449 92.1571 95.1575 92.0925 95.0626 92.0773C93.2546 91.7507 91.4657 91.576 89.802 92.6357C89.4982 92.8294 89.1677 92.9851 88.8449 93.1522C85.1796 95.0437 81.8524 97.3911 79.1177 100.509C77.4692 102.39 75.8132 104.27 74.2749 106.237C73.1279 107.703 71.7757 108.413 69.8918 108.353C67.5331 108.277 65.1668 108.394 62.8043 108.391C62.1016 108.391 61.3876 108.326 60.7001 108.182C59.8683 108.007 59.5492 107.342 59.8911 106.56C60.0696 106.154 60.2975 105.743 60.6013 105.428C61.7826 104.197 62.9904 102.99 64.2134 101.801C64.7452 101.284 65.3453 100.832 65.991 100.285C65.7973 100.3 65.6985 100.285 65.6112 100.316C64.9237 100.54 64.2324 100.76 63.5487 101.003C63.3588 101.072 63.1689 101.174 63.0208 101.307C62.5916 101.706 62.1662 102.112 61.7712 102.545C59.1276 105.455 56.8829 108.657 54.7939 111.976C54.1975 112.922 53.5404 113.83 52.9213 114.76C52.8416 114.882 52.8036 115.041 52.7694 115.19C52.6744 115.607 52.6061 116.033 52.4921 116.443C52.3592 116.914 52.5567 117.218 53.0239 117.351C53.6354 117.522 54.2507 117.708 54.8204 117.981C55.5345 118.323 56.1954 118.775 56.8943 119.147C57.0424 119.227 57.2855 119.231 57.4412 119.166C58.1781 118.843 58.8655 118.331 59.629 118.171C61.8054 117.719 64.0045 117.385 66.2037 117.051C66.6633 116.982 67.0203 116.849 67.3128 116.496C68.0724 115.581 68.8473 114.677 69.6107 113.765C70.6894 112.481 71.7719 111.194 73.2912 110.4C73.8115 110.126 74.3205 109.933 74.0546 109.188C74.0242 109.105 74.0584 108.976 74.104 108.888C74.3813 108.36 74.5978 107.779 74.97 107.327C75.722 106.412 76.6298 105.614 77.3553 104.68C79.4063 102.04 81.6435 99.5902 84.2149 97.448C87.1243 95.0248 90.3528 93.2358 94.1244 92.5521C94.5232 92.48 94.922 92.4078 95.3208 92.3356L95.3284 92.3394ZM74.6737 124.947C75.3992 124.875 76.0031 124.647 76.5538 124.263C77.1388 123.849 77.7845 123.663 78.4985 123.675C79.3569 123.686 80.1318 123.413 80.8003 122.877C82.1296 121.814 83.1665 120.518 83.8426 118.95C84.5871 117.218 84.3174 115.611 83.1741 114.137C82.2018 112.888 80.9256 112.056 79.4481 111.539C77.0856 110.711 74.8257 110.795 72.8012 112.432C72.1745 112.937 71.601 113.522 71.0464 114.111C69.1131 116.173 67.195 118.247 65.2769 120.325C65.0073 120.613 64.7528 120.925 64.5325 121.251C63.9817 122.068 64.3274 122.964 65.2769 123.211C65.4896 123.268 65.7175 123.272 65.9416 123.299C66.2303 123.333 66.3974 123.265 66.4962 122.93C66.7355 122.106 67.4115 121.741 68.232 122.011C68.7675 122.186 69.2765 122.459 69.774 122.729C70.7008 123.227 71.5858 123.804 72.5353 124.248C73.2114 124.567 73.9597 124.727 74.6775 124.955L74.6737 124.947ZM103.848 114.194C103.802 114.175 103.753 114.156 103.707 114.137C103.62 114.259 103.517 114.369 103.441 114.498C101.725 117.347 99.6356 119.914 97.4555 122.406C93.3192 127.135 88.8715 131.564 84.2832 135.852C83.8882 136.22 83.7933 136.585 83.8692 137.086C84.1123 138.655 84.6592 140.113 85.4037 141.511C85.6316 141.94 85.8861 142.069 86.3532 141.902C88.9664 140.968 91.5834 140.049 94.2004 139.133C94.6789 138.966 94.9524 138.659 95.1233 138.18C96.6274 133.994 98.1353 129.809 99.6698 125.635C100.961 122.125 102.291 118.627 103.593 115.121C103.704 114.821 103.76 114.502 103.844 114.191L103.848 114.194ZM42.3813 124.886C40.6911 124.791 39.3009 124.275 38.4159 122.794C38.2678 122.543 38.0931 122.304 37.907 122.076C37.379 121.415 36.6763 121.103 35.8407 121.062C35.4609 121.043 35.195 121.168 34.9633 121.483C33.8429 123.033 32.9769 124.712 32.4034 126.535C31.7083 128.757 31.7311 130.956 32.7224 133.091C32.9085 133.489 33.2276 133.9 33.5922 134.135C36.5206 136.034 39.601 137.652 42.8143 139.016C43.0687 139.126 43.3954 139.183 43.6613 139.133C45.4578 138.795 47.1822 138.066 49.0547 138.222C49.0623 138.138 49.0813 138.097 49.0699 138.074C49.0244 137.983 48.9788 137.888 48.9104 137.812C48.2533 137.052 47.638 136.277 46.8442 135.613C45.3287 134.348 43.9575 132.901 42.5788 131.48C41.6862 130.557 41.2646 129.383 41.4393 128.107C41.5647 127.184 41.9027 126.284 42.1572 125.38C42.2066 125.209 42.3053 125.053 42.3813 124.89V124.886ZM51.6299 116.61C51.5654 114.829 51.2007 113.488 50.7146 112.178C50.5209 111.657 50.2056 111.589 49.8866 112.041C49.427 112.694 49.0965 113.439 48.6863 114.126C48.5762 114.308 48.3977 114.498 48.2077 114.567C48.1166 114.601 47.8735 114.392 47.7899 114.24C46.9847 112.808 45.7921 111.832 44.2804 111.247C42.0014 110.362 39.6466 111.122 38.3096 113.104C37.7247 113.974 37.0714 114.798 36.4105 115.619C35.5711 116.659 34.7962 117.727 34.4164 119.033C34.1657 119.892 34.2493 119.979 35.1153 119.778C36.4143 119.478 37.6829 119.481 38.7388 120.404C39.2325 120.837 39.62 121.411 39.9808 121.969C40.2581 122.395 40.5695 122.744 41.0519 122.881C41.6444 123.048 42.2711 123.113 42.8409 123.333C43.2245 123.481 43.4296 123.39 43.6195 123.105C45.2983 120.583 47.6798 118.954 50.4487 117.867C51.2539 117.552 51.8198 117.21 51.6299 116.602V116.61ZM90.8997 90.3188C90.5617 89.8554 90.2502 89.4566 89.9692 89.0312C89.7071 88.64 89.5058 88.6931 89.2209 89.0198C87.8649 90.5581 86.3229 91.8912 84.5605 92.9319C82.274 94.2803 79.957 95.5793 77.6135 96.8251C74.5788 98.4394 71.958 100.46 70.3969 103.624C70.3058 103.81 70.1918 103.985 70.0589 104.144C69.5157 104.817 68.6763 104.763 68.2851 103.992C68.0306 103.491 67.8901 102.929 67.7002 102.393C67.6052 102.127 67.5103 101.862 67.4153 101.596C67.3698 101.599 67.3204 101.603 67.2748 101.611C67.2444 101.854 67.2368 102.101 67.1874 102.34C67.0089 103.18 66.838 104.019 66.6101 104.843C66.5607 105.025 66.2911 105.147 66.1239 105.299C65.991 105.117 65.7593 104.938 65.7441 104.748C65.6796 103.84 65.6795 102.929 65.6568 102.021C65.653 101.846 65.6568 101.672 65.6568 101.406C65.501 101.524 65.4251 101.565 65.3757 101.626C64.8098 102.321 64.2438 103.016 63.6855 103.719C62.9068 104.706 62.1244 105.694 61.3648 106.7C61.0723 107.088 61.1407 107.244 61.6155 107.308C62.075 107.373 62.5422 107.43 63.0056 107.411C65.3833 107.316 67.761 107.13 70.1387 107.111C71.4604 107.099 72.3378 106.655 73.0671 105.531C76.0525 100.942 79.9191 97.1632 84.1655 93.7562C86.038 92.2521 88.0776 91.048 90.4591 90.5087C90.5845 90.4821 90.7022 90.4099 90.9111 90.3188H90.8997ZM57.6615 120.769C57.5742 120.674 57.5362 120.606 57.483 120.579C56.0701 119.899 54.6609 119.212 53.2366 118.562C53.0087 118.46 52.682 118.456 52.439 118.536C49.4042 119.493 46.8594 121.187 45.0856 123.846C44.2918 125.034 43.7752 126.417 43.1827 127.731C42.8484 128.476 43.0346 129.228 43.3802 129.927C44.1474 131.48 45.5604 132.468 46.7416 133.812C47.7899 127.215 50.9159 122.509 57.6615 120.773V120.769ZM54.904 54.0648C54.999 54.0458 55.0749 54.0496 55.1281 54.0192C56.2258 53.4115 57.3349 52.8114 58.4136 52.1695C58.5731 52.0745 58.7098 51.7782 58.7022 51.5845C58.668 50.5704 58.6301 49.5525 58.5009 48.546C58.1553 45.8568 57.6691 43.1943 56.8031 40.6191C56.617 40.0683 56.3511 39.5404 56.0776 39.0238C55.9105 38.7048 55.6219 38.5225 55.2155 38.5946C54.1444 38.7883 53.4493 39.6505 53.5252 40.7292C53.5442 41.0217 53.5936 41.3103 53.6582 41.599C53.9582 42.9284 54.3001 44.2502 54.566 45.5833C55.1015 48.2877 55.4282 51.0034 54.8774 53.7495C54.8584 53.8407 54.8888 53.9432 54.9002 54.0686L54.904 54.0648ZM66.6519 33.7747C66.6291 33.7253 66.6025 33.6759 66.5797 33.6228C66.3366 33.6228 66.0936 33.6076 65.8505 33.6228C63.3512 33.8089 61.1255 34.7166 59.1466 36.2207C58.4667 36.7373 57.878 37.3792 57.2513 37.9717C56.9854 38.2224 56.9398 38.4997 57.088 38.8605C57.2893 39.3543 57.4716 39.8632 57.5741 40.3836C58.0185 42.6815 58.4325 44.987 58.8579 47.2925C58.8997 47.509 58.9491 47.7255 58.9947 47.9458C59.0441 47.9496 59.0934 47.9572 59.1428 47.961C60.2367 42.4878 62.4663 37.6109 66.6557 33.7709L66.6519 33.7747ZM61.2394 101.782C61.1103 101.736 61.0761 101.717 61.0457 101.717C60.9773 101.721 60.909 101.732 60.8406 101.748C58.5503 102.287 56.3359 103.073 54.5432 104.63C52.1389 106.719 49.8524 108.941 47.5241 111.114C47.4329 111.198 47.3266 111.387 47.3645 111.46C47.5544 111.847 47.7861 112.212 48.0178 112.603C48.4015 111.969 48.6673 111.376 49.0699 110.905C49.9283 109.902 51.1514 110.005 51.8274 111.137C52.1579 111.691 52.3212 112.341 52.5567 112.949C52.6251 113.127 52.682 113.309 52.796 113.636C54.7065 108.93 57.7603 105.234 61.2394 101.782ZM74.6775 144.026C74.7725 144.029 74.875 144.056 74.9738 144.041C77.7769 143.581 80.58 143.118 83.3868 142.662C83.7857 142.597 83.8502 142.434 83.6983 142.062C83.1096 140.622 82.8171 139.13 82.9918 137.565C83.0032 137.474 82.9576 137.379 82.9349 137.257C80.1698 139.525 77.4388 141.766 74.6813 144.029L74.6775 144.026ZM65.7745 118.057C65.7517 118.027 65.7251 117.993 65.7023 117.962C63.2905 118.665 60.8786 119.368 58.4249 120.085C58.9909 120.553 59.234 121.381 60.1379 121.529C60.533 121.593 60.9014 121.836 61.2774 122.011C62.0674 122.376 62.056 122.376 62.565 121.65C62.7815 121.339 63.0246 121.046 63.2829 120.769C63.9893 120.013 64.711 119.269 65.4213 118.517C65.5542 118.376 65.6568 118.213 65.7745 118.061V118.057ZM46.9163 140.493C47.562 141.01 52.1351 142.335 52.5529 142.115C51.573 141.177 50.612 140.243 49.6283 139.335C49.5371 139.251 49.2598 139.293 49.1155 139.369C48.5686 139.65 48.0444 139.973 47.5051 140.265C47.3341 140.36 47.1366 140.41 46.9201 140.493H46.9163ZM71.3427 99.6852C70.1045 99.8713 68.9878 100.042 67.8217 100.221C68.3193 100.98 68.7789 101.687 69.2727 102.443C69.9715 101.512 70.6248 100.642 71.3427 99.6852Z" fill="#1E1E1E"/>
<path d="M2.01373 75.6006C1.4288 75.5778 1.14014 75.179 1.17812 74.427C1.20471 73.8611 1.61492 73.4622 2.13148 73.4964C2.65943 73.5306 3.08483 74.0396 3.06204 74.6093C3.03925 75.1752 2.56447 75.6196 2.01373 75.6006Z" fill="#1E1E1E"/>
<path d="M132.984 64.6466C133.504 64.6542 133.899 65.0606 133.884 65.5772C133.873 66.0709 133.474 66.4621 132.984 66.4659C132.486 66.4697 132.05 66.0443 132.046 65.5506C132.046 65.0454 132.464 64.639 132.98 64.6466H132.984Z" fill="#1E1E1E"/>
<path d="M134.667 67.7687C134.667 68.2207 134.275 68.5815 133.785 68.5739C133.303 68.5663 132.95 68.2397 132.942 67.7915C132.935 67.3281 133.311 66.9521 133.789 66.9483C134.26 66.9445 134.663 67.3205 134.667 67.7687Z" fill="#1E1E1E"/>
<path d="M3.38484 72.053C3.38104 72.505 3.00881 72.8734 2.56062 72.8696C2.11623 72.862 1.7516 72.486 1.7554 72.034C1.7592 71.582 2.13902 71.206 2.57962 71.2174C3.02781 71.2288 3.39243 71.6048 3.38484 72.053Z" fill="#1E1E1E"/>
<path d="M132.931 63.7008C132.733 63.8413 132.528 64.0996 132.342 64.0844C132.148 64.073 131.875 63.8223 131.814 63.6248C131.723 63.3095 131.981 63.093 132.293 63.131C132.513 63.1576 132.714 63.3361 132.923 63.4463C132.923 63.5298 132.931 63.6134 132.931 63.697V63.7008Z" fill="#1E1E1E"/>
<path d="M3.8825 69.4437C3.60903 69.6602 3.4495 69.8539 3.2558 69.9071C3.17223 69.9298 2.87597 69.6222 2.90256 69.5462C2.98612 69.3183 3.17983 69.1322 3.33176 68.9309C3.47609 69.0638 3.62042 69.1968 3.8863 69.4399L3.8825 69.4437Z" fill="#1E1E1E"/>
<path d="M59.4923 61.0687C59.4885 60.6091 59.667 60.2596 60.0203 59.9862C62.2422 58.2656 64.6807 56.9894 67.4458 56.3855C68.5929 56.1348 69.0296 56.4007 69.3563 57.5135C69.5728 58.258 69.8235 58.991 70.0286 59.7393C70.3096 60.761 69.9868 61.232 68.9271 61.2586C66.5646 61.3193 64.6465 62.4322 62.8158 63.7692C62.3562 64.1034 61.9194 64.4719 61.4446 64.7833C60.7191 65.2543 60.2634 65.0986 60.0734 64.2668C59.8342 63.2109 59.6784 62.136 59.4885 61.0687H59.4923Z" fill="#1E1E1E"/>
<path d="M67.0924 72.505C66.1163 72.5126 65.3224 71.7264 65.3072 70.7389C65.2883 69.7779 66.0213 69.0069 66.9709 68.9879C67.9508 68.9689 68.6877 69.7323 68.7029 70.7845C68.718 71.7644 68.0306 72.5012 67.0962 72.5088L67.0924 72.505Z" fill="#1E1E1E"/>
<path d="M91.6062 67.6927C90.9377 67.7459 90.2464 67.6433 89.7071 67.8864C89.1753 68.1257 88.7955 68.7144 88.4195 69.0829C88.9588 69.4133 89.4526 69.6146 89.7944 69.9602C90.0945 70.2641 90.2274 70.7351 90.4363 71.1339C90.3718 71.1795 90.311 71.2288 90.2464 71.2744C90.0375 71.0959 89.8286 70.9212 89.6235 70.7389C89.3159 70.4654 89.031 70.1615 88.7006 69.9223C88.4157 69.7172 88.1346 69.7172 87.9637 70.1312C87.8991 70.2869 87.694 70.3856 87.5497 70.5072C87.4965 70.3401 87.3864 70.1653 87.4016 70.002C87.5117 68.7904 88.0055 67.7763 89.0576 67.1116C89.8894 66.5874 91.0061 66.8457 91.6062 67.6927Z" fill="#1E1E1E"/>
<path d="M44.9412 125.365C44.9488 123.982 45.887 122.866 47.0454 122.866C48.1241 122.866 49.0129 123.785 49.0205 124.913C49.0281 126.136 48.0026 127.256 46.9049 127.234C45.6857 127.207 44.9336 126.493 44.9412 125.369V125.365ZM46.1415 125.289C46.1111 125.821 46.4415 126.258 46.8897 126.288C47.4442 126.322 47.9722 125.79 48.0102 125.164C48.0406 124.636 47.6797 124.169 47.2126 124.134C46.658 124.096 46.1794 124.613 46.1415 125.289Z" fill="#1E1E1E"/>
</svg>
