<svg width="147" height="149" viewBox="0 0 147 149" fill="none" xmlns="http://www.w3.org/2000/svg">
<path d="M73.147 26.8674C73.1945 26.5462 73.074 26.0936 73.158 25.7797C73.3733 24.9621 73.2675 24.1774 73.585 23.4C73.8478 22.7576 74.2821 22.1882 74.6398 21.586C74.7165 21.4583 75.1983 21.3889 75.3005 21.2831C75.7092 20.8524 76.1545 20.4399 76.6034 20.0786C76.9429 19.8012 77.5853 19.9144 78.0853 19.8122C78.3043 19.7647 78.589 19.6662 78.6985 19.4946C79.0963 18.8632 79.0744 18.8559 79.8336 19.0858C80.1292 19.1734 80.4395 19.2209 80.7242 19.3924C80.757 19.3851 80.7972 19.3924 80.8191 19.3742C81.2643 19.0055 81.4286 18.9398 82.0454 19.0238C82.4834 19.0822 82.9323 19.1479 83.3484 19.2939C83.6148 19.3888 83.8265 19.6333 84.0565 19.8231C84.1441 19.8925 84.1915 20.0275 84.2864 20.0677C84.6952 20.2501 85.1368 20.3669 85.5201 20.5896C85.7464 20.721 85.8705 21.0166 86.0676 21.2174C87.0932 22.2503 87.553 23.5642 87.7903 24.9402C87.9837 26.0425 87.9947 27.1776 88.1042 28.2981C88.1407 28.6667 88.2392 29.0281 88.3122 29.3894C88.3743 29.4077 88.4363 29.4259 88.4984 29.4405C88.6407 29.2215 88.8269 29.0208 88.9181 28.7835C89.0787 28.3674 88.8634 27.7324 88.9729 27.298C89.0532 26.9623 89.3524 26.6812 89.743 26.6082C90.4145 26.4841 91.0934 27.0717 91.1445 27.7579C91.1883 28.3456 91.3307 28.9843 91.1664 29.5172C90.9438 30.2362 90.8197 31.0465 90.1883 31.5939C89.9145 31.8312 89.6846 32.1159 89.4218 32.3677C89.1079 32.6706 88.8196 32.7144 88.5896 32.2071C88.1516 32.8385 87.7319 33.4408 87.272 34.0977C87.0603 33.7036 86.8961 33.3714 86.7063 33.0575C86.188 32.1925 85.6004 31.9589 84.6149 32.1779C83.4689 32.4334 82.3191 32.3787 81.1621 32.1925C80.7534 32.1268 80.3117 32.1195 79.9029 32.1925C78.7642 32.3896 77.6327 32.2509 76.5524 31.9845C75.5012 31.7253 74.9537 32.2327 74.388 33.1159C74.2566 33.3203 74.169 33.5576 74.0777 33.7437C73.1799 33.4736 73.231 32.6925 73.1215 31.9991C71.8112 32.4188 71.2418 32.1779 70.6615 30.937C70.1067 29.7544 69.7819 28.5426 70.2709 27.2396C70.6286 26.287 71.2856 26.1082 72.1068 26.7031C72.3879 26.9075 72.8003 26.9367 73.1507 27.0462C73.1507 26.9878 73.1507 26.9258 73.147 26.8674ZM77.87 21.951C77.2203 21.8962 76.3516 22.3963 75.6764 22.7613C75.5705 22.8197 75.5486 23.316 75.5778 23.4474C75.6618 23.8599 75.7932 24.2687 75.9355 24.6665C76.0268 24.9183 76.2056 24.9293 76.3954 24.7504C76.5414 24.6154 76.6691 24.4548 76.8334 24.3562C77.3115 24.0679 77.7349 23.5825 78.3116 23.7577C78.5853 23.8416 78.9686 23.8343 78.9175 23.4474C78.8591 23.0058 78.7386 22.8853 78.5233 22.4839C78.4065 22.2685 78.1254 22.1444 77.87 21.9437V21.951ZM86.0749 23.8453C85.9982 23.6737 85.9508 23.3525 85.7646 23.1956C85.3777 22.8744 84.9434 22.5715 84.4762 22.3853C83.644 22.0532 82.9652 22.3744 82.6659 23.1481C82.4396 23.7285 82.6768 24.0533 83.2864 24.0059C83.9725 23.9511 84.5273 24.2358 85.031 24.6701C85.2062 24.8198 85.4142 24.9256 85.6113 25.0534C85.7354 24.8344 85.8741 24.619 85.9763 24.3891C86.0347 24.2577 86.0311 24.1008 86.0749 23.8453Z" fill="#FBFBFB"/>
<path d="M74.5339 34.9774C75.2748 34.0832 76.2165 33.5539 77.3005 33.5685C78.1071 33.5795 78.9284 33.9153 79.735 33.9445C80.6547 33.9773 81.5271 33.8861 82.4468 33.8532C83.0199 33.6963 83.6805 33.5758 84.374 33.7693C85.1404 33.7437 86.3595 34.5576 86.6369 35.2402C86.6588 35.2949 86.6843 35.3789 86.6588 35.419C86.385 35.8497 86.1624 36.3388 85.8047 36.6855C85.3631 37.1126 84.8265 37.452 84.2937 37.7732C83.8922 38.0177 83.4396 38.1856 83.0016 38.3645C82.5052 38.5652 82.0015 38.744 81.4979 38.9265C81.33 38.9886 81.1475 39.0944 80.9869 39.0725C80.1949 38.963 79.3554 38.9448 78.6364 38.6491C77.8918 38.3426 77.2677 37.7513 76.5815 37.2914C76.3698 37.1491 76.1289 37.0542 75.9172 36.9118C75.7311 36.7877 75.5194 36.6563 75.4026 36.4775C75.0887 35.9957 74.8186 35.4811 74.5266 34.9737L74.5339 34.9774Z" fill="#FBFBFB"/>
<path d="M109.273 48.7226C109.273 48.7226 109.613 47.9781 109.916 47.7335C110.135 47.5547 110.335 47.3612 110.536 47.1641C110.923 46.7846 111.281 46.5327 111.919 46.7408C112.412 46.9014 113.003 46.7152 113.547 46.7663C113.905 46.7992 114.263 46.9379 114.598 47.0839C115.73 47.5766 116.124 48.5256 116.245 49.6826C116.336 50.5658 116.482 51.3724 116.022 52.2229C115.679 52.8506 115.39 53.4237 114.85 53.8544C114.478 54.15 113.799 54.0843 113.252 54.1281C112.898 54.1573 112.591 54.2923 112.266 54.139C111.303 53.6792 109.368 53.4127 109.288 52.3871C109.237 51.7301 109.635 51.3141 109.616 50.6534C109.598 49.9964 109.277 48.7299 109.277 48.7299L109.273 48.7226Z" fill="#FBFBFB"/>
<path d="M71.0884 59.3547C71.3658 59.4204 71.833 59.5774 72.1688 59.7307C72.9973 60.1139 73.2601 61.2527 72.6104 61.9096C72.1724 62.3513 71.603 62.7601 71.0154 62.9243C69.9679 63.2199 68.997 63.6324 68.0444 64.1397C67.6466 64.3514 67.1867 64.512 66.7414 64.5521C66.1137 64.6105 65.5224 63.563 65.8728 63.0338C66.5042 62.0848 66.8728 61.2089 67.6612 60.4059C68.1539 59.9059 69.2708 59.7891 69.9679 59.5117C70.2635 59.3949 70.6504 59.4168 71.0848 59.3547H71.0884Z" fill="#FBFBFB"/>
<path d="M104.664 122.49L134.884 122.578L136.549 79.2173H104.664V122.49Z" fill="url(#paint0_linear_419_600)"/>
<path d="M111.533 7.3113C111.533 7.3113 110.814 5.89516 111.533 5.17613C112.252 4.45711 113.339 4.89509 113.544 5.44622C113.748 5.99735 113.978 6.94997 113.518 7.40985C113.058 7.86973 111.868 7.70549 111.533 7.3113Z" fill="#FDB716"/>
<path d="M132.081 3.17235L132.935 2.18689L133.804 3.322L133.395 4.19067L132.081 3.17235Z" fill="#FDB716"/>
<path d="M137.286 28.9914L138.863 28.0388L139.111 29.2871L138.257 29.8783L137.286 28.9914Z" fill="#FDB716"/>
<path d="M102.43 10.3225L104.05 9.11804L104.905 10.651L103.591 11.724L102.43 10.3225Z" fill="#FDB716"/>
<path d="M56.467 124.874C56.5437 124.618 56.6349 124.443 56.6495 124.257C56.7809 122.508 56.9999 120.753 56.4232 119.03C56.2991 118.661 56.2663 118.245 56.259 117.851C56.2188 115.763 56.1312 113.676 56.1933 111.592C56.2407 109.942 57.1057 109.194 58.7518 109.216C60.4746 109.237 62.1973 109.329 63.9201 109.387C64.1025 109.394 65.3106 108.584 65.3106 108.584C65.3106 108.584 64.6135 106.697 65.3508 105.434C65.6245 104.963 65.9567 104.518 66.318 104.113C67.0626 103.277 67.5042 102.39 67.4385 101.336C67.3217 99.4814 67.4969 97.5397 67.4823 95.6855C67.4568 92.5211 67.6575 90.5283 67.7013 87.3638C67.7123 86.674 67.5261 84.5607 67.5261 84.5607C67.5261 84.5607 67.8327 84.141 67.8327 83.9038C67.8327 81.0532 68.1612 78.1881 68.1174 75.3412C68.0919 73.6367 67.9495 71.9322 67.9641 70.2277C67.9823 68.5232 68.1356 66.8224 68.2269 65.1215C68.2342 64.9719 68.2342 64.8223 68.2269 64.6763C68.2269 64.6325 68.1867 64.5923 68.1356 64.4938C67.5809 64.7566 66.975 64.7602 66.4567 64.4938C67.0881 64.293 67.7013 64.1726 68.3437 63.8952C68.9788 63.6214 69.6211 63.2419 70.2818 63.0448C70.9752 62.8367 72.1213 62.6542 72.6323 62.1141C73.0557 61.6651 73.2126 61.1541 73.0009 60.5629C72.7856 59.946 71.7782 59.4314 71.1504 59.362C70.3621 59.2745 69.6613 59.592 68.9167 59.873C68.1466 60.1614 67.5407 60.5921 67.11 61.322C66.7012 62.0192 66.1793 62.6469 65.661 63.3696C65.5479 62.8039 65.2012 62.9316 64.8143 62.917C63.3908 62.8696 62.0258 62.5265 60.7885 61.7965C59.2774 60.9023 58.3358 59.5372 57.7372 57.9277C56.1422 53.65 56.9561 49.8395 59.9636 46.4415C62.0367 44.0983 64.2887 41.9595 66.7925 40.0798C68.1502 39.0615 69.6065 38.2549 71.2745 37.9045C71.9133 37.7694 72.5848 37.7767 73.2418 37.7256C73.6871 37.6928 74.136 37.6928 74.5777 37.6307C75.1142 37.5541 75.6033 37.6088 76.0376 37.9519C76.5814 38.3826 77.1618 38.5396 77.8443 38.2877C77.9939 38.233 78.2202 38.3498 78.3954 38.4191C78.859 38.6089 79.3407 38.5834 79.8225 38.6381C80.4977 38.7111 81.1109 38.6929 81.7569 38.514C81.9175 38.4702 82.1657 38.6783 82.3482 38.806C82.8957 39.1783 83.1512 39.16 83.5563 38.6491C83.9943 38.0979 84.5345 37.9118 85.228 38.0395C85.5747 38.1052 85.9434 38.0724 86.3047 38.0687C88.0019 38.0651 89.7392 38.1709 91.2722 38.806C92.6701 39.3827 93.8964 40.3681 94.6994 41.8427C95.5571 42.8209 96.7579 44.0728 97.7908 45.2517C99.2325 46.8978 100.857 48.0657 103.021 48.23C103.434 48.2628 103.861 48.1022 104.28 48.0548C105.379 47.9343 106.481 47.8248 107.583 47.719C107.645 47.7117 107.722 47.7372 107.77 47.7774C108.204 48.1387 108.671 48.1497 109.222 47.8832C109.306 49.5038 109.175 51.1353 109.259 52.7594C108.989 52.7594 109.113 53.3945 108.354 53.7449C107.412 54.1829 105.55 54.3544 105.05 54.3763C102.937 54.4676 100.842 54.2778 98.8091 53.6391C97.1922 53.1281 95.871 52.1317 94.6045 51.0513C94.2285 50.7301 93.8307 50.4308 93.4183 50.1607C92.9803 49.876 92.9256 49.5184 92.7285 48.9818C92.4328 48.646 92.3416 48.4891 91.8488 48.4672C91.7466 48.4635 91.5532 48.6825 91.5349 48.8139C91.4583 49.3724 91.4766 49.5439 91.4145 50.1023C90.9875 53.8471 90.9583 57.6101 90.8962 61.3731C90.8707 63.0302 90.7648 64.6836 90.6736 66.3369C90.6553 66.6727 90.8342 66.7895 91.0641 66.9501C91.9036 67.5341 92.765 68.0962 93.546 68.7532C94.1884 69.2933 94.568 70.0416 94.7432 70.8847C94.8271 71.2862 95.0352 71.6621 95.1301 72.0599C95.2761 72.6804 95.5389 73.3337 95.4659 73.936C95.0571 77.261 94.9038 80.6043 94.7103 83.9476C94.641 85.1703 94.6665 86.393 94.4877 87.6084C94.4256 88.0318 94.7103 88.9917 94.4877 89.3603C94.3125 89.6523 93.7468 89.28 93.8928 89.4844C94.4585 90.2874 94.9914 91.1086 95.1629 92.1014C95.2067 92.3605 95.2432 92.6306 95.225 92.8897C95.152 93.784 94.349 94.2183 93.5241 93.8679C93.2212 93.7402 92.8635 93.6671 92.5387 93.6817C90.7831 93.7547 89.0311 93.8752 87.2792 93.9555C86.0674 94.0102 85.4287 93.0138 86.02 91.9517C86.4069 91.2619 86.9434 90.6597 87.3631 89.9844C87.5602 89.6632 87.7464 89.2691 87.75 88.9041C87.7902 85.955 87.7829 83.0022 87.8048 80.0531C87.8121 79.2757 87.8741 78.4983 87.9289 77.7209C87.9727 77.0895 87.8303 76.9143 87.1953 76.896C87.177 76.896 87.1624 76.896 87.1442 76.896C83.8739 77.2172 82.0416 75.1514 80.3846 72.8082C80.1875 72.5271 78.9174 72.4797 77.91 74.4068C77.4939 75.1295 76.8844 75.7463 76.68 76.5566C75.8223 79.9656 75.3806 83.5096 75.1507 87.0207C74.95 90.0903 74.5777 93.0613 74.6251 96.1418C74.658 98.2952 74.8441 100.445 74.9682 102.598C75.0047 103.266 75.0302 103.92 74.5959 104.507C74.512 104.62 74.5047 104.89 74.5813 105.011C75.4354 106.31 75.8515 107.449 74.3842 108.595C74.3222 108.643 73.3404 108.745 73.2674 108.778C73.2929 108.825 73.3148 108.869 73.3404 108.916C73.5119 108.938 73.6834 108.971 73.8586 108.982C74.6215 109.015 75.3879 108.993 76.1435 109.088C76.7201 109.161 77.2786 109.383 77.8479 109.533C78.2604 109.643 78.6692 109.789 79.0925 109.832C79.8408 109.909 80.5707 110.004 81.2168 110.442C81.6913 110.763 81.8592 110.665 81.8701 110.092C81.8993 108.599 81.9175 107.11 81.954 105.617C81.9759 104.69 82.1037 103.755 82.038 102.836C81.9248 101.204 81.7022 99.5799 81.527 97.9521C81.5197 97.8681 81.5015 97.7878 81.4832 97.7076C81.0306 95.5906 81.8226 95.0614 83.5709 94.4044C83.9505 94.2621 84.4615 94.4592 84.9141 94.5066C85.2608 94.5431 85.6112 94.5942 85.9579 94.6417C86.4726 94.711 87.031 94.6818 87.4982 94.8716C88.3559 95.222 89.2063 95.3643 90.1188 95.2329C91.9547 94.9701 93.7906 94.6745 95.6374 94.4884C97.3017 94.3205 98.977 94.2767 100.652 94.2C101.01 94.1854 101.386 94.2292 101.729 94.3314C102.408 94.5395 102.846 95.1563 102.835 95.8279C102.802 97.8462 102.773 99.8683 102.714 101.887C102.536 107.902 102.317 113.917 102.163 119.932C102.079 123.264 102.098 126.596 102.058 129.929C102.054 130.337 102.006 130.764 101.875 131.144C101.649 131.794 101.149 132.181 100.444 132.188C99.9953 132.195 99.9187 132.414 99.9479 132.786C99.9807 133.25 100.017 133.713 100.01 134.177C99.9917 135.225 99.5209 135.776 98.5135 136.053C98.2324 136.13 97.966 136.287 97.7251 136.455C97.3054 136.747 96.8601 136.893 96.3674 136.761C95.9294 136.644 95.8308 136.845 95.8491 137.217C95.8673 137.597 95.8965 137.98 95.8856 138.36C95.8454 139.798 94.8746 140.484 93.5205 140.031C93.2686 139.947 93.1409 140.002 93.0825 140.25C93.0642 140.331 93.0496 140.415 93.0314 140.495C92.8343 141.353 92.2795 141.882 91.5313 141.933C90.7977 141.98 90.1626 141.521 89.8451 140.71C89.7538 140.477 89.7137 140.097 89.3633 140.225C89.1552 140.302 88.9581 140.59 88.8888 140.82C88.6442 141.619 88.4764 142.444 88.2464 143.247C88.0566 143.908 87.6004 144.324 86.9106 144.422C86.2901 144.513 85.6441 144.192 85.363 143.564C85.1623 143.119 85.0747 142.619 84.9871 142.134C84.8666 141.466 84.79 140.791 84.6914 140.119C84.6841 140.061 84.6331 140.006 84.6075 139.955C84.5564 139.951 84.5089 139.933 84.4943 139.947C83.8118 140.692 82.987 140.754 82.0781 140.48C81.9066 140.429 81.7204 140.418 81.5416 140.382C81.2168 140.316 81.0306 140.429 80.8846 140.743C80.2386 142.152 78.9539 142.32 77.9173 141.174C77.764 141.006 77.4684 140.864 77.2421 140.875C75.4865 140.948 73.7309 141.064 71.979 141.156C71.5227 141.181 71.3731 141.375 71.4497 141.827C71.5665 142.535 71.3256 143.137 70.7636 143.59C70.1139 144.116 69.216 144.061 68.7233 143.418C68.3619 142.944 67.9021 142.685 67.3327 142.659C65.5442 142.572 63.7558 142.506 61.971 142.448C61.3761 142.429 60.7775 142.477 60.1826 142.451C58.865 142.397 58.2226 141.772 58.1131 140.473C58.0912 140.225 58.0401 140.002 57.7335 140.156C56.4853 140.791 55.1312 140.772 53.7917 140.805C52.5507 140.834 51.3061 140.831 50.0652 140.772C48.9154 140.718 47.9227 140.345 47.4409 139.144C47.3862 139.006 47.054 138.889 46.8642 138.907C46.1634 138.973 45.5612 138.838 45.021 138.356C44.8677 138.217 44.5466 138.166 44.3312 138.217C43.3676 138.44 42.4661 138.466 41.6449 137.79C41.4661 137.644 41.1814 137.626 40.9405 137.564C39.8017 137.265 39.3528 136.254 39.8674 135.203C39.9587 135.013 40.0244 134.67 39.9258 134.557C39.6813 134.283 39.4294 133.885 38.9331 134.068C38.7944 134.119 38.6557 134.173 38.5133 134.224C37.1702 134.699 36.1993 134.177 35.8051 132.812C35.3489 131.217 35.1627 129.6 35.2102 127.947C35.2284 127.301 35.2175 126.655 35.2102 126.009C35.1992 125.096 35.6409 124.498 36.5241 124.271C36.7468 124.213 36.9804 124.184 37.2103 124.173C38.9477 124.081 40.6886 123.928 42.426 123.928C43.7947 123.928 45.1634 124.111 46.5284 124.213C46.9226 124.242 47.3205 124.3 47.7146 124.293C49.5396 124.264 51.3609 124.184 53.1858 124.184C54.299 124.184 55.456 124.056 56.4853 124.877L56.467 124.874ZM69.2781 52.5806C69.2416 52.5806 69.2014 52.5806 69.1649 52.5806C69.1649 51.7521 69.2197 50.9236 69.154 50.0987C69.0226 48.4818 68.0335 47.9964 66.6575 48.8176C66.6137 48.8431 66.5735 48.8687 66.5297 48.8979C65.4165 49.6753 64.7632 50.8177 64.0624 51.9747C63.3762 53.1098 63.212 54.5917 63.8434 55.829C64.7522 57.6065 65.6464 58.6357 67.2195 59.8657C67.5006 60.0847 67.7634 60.0774 68.0918 59.9314C68.6138 59.7051 68.8948 59.8037 69.2489 59.3767C69.4788 59.0993 69.6795 58.3875 69.654 58.0262C69.5189 56.2086 69.4021 54.3946 69.2781 52.5769V52.5806ZM81.4066 131.308C81.4686 131.308 81.527 131.301 81.5891 131.301V122.979C81.5343 122.979 81.4759 122.979 81.4212 122.979C81.2496 125.757 81.1985 128.534 81.4102 131.312L81.4066 131.308ZM81.4467 120.965C81.5234 120.946 81.5964 120.932 81.673 120.913C81.7022 120.618 81.7715 120.315 81.7387 120.026C81.7205 119.881 81.5161 119.756 81.3956 119.621C81.2606 119.793 80.9905 119.994 81.0197 120.132C81.0781 120.428 81.2934 120.691 81.4467 120.965ZM81.6219 115.074C81.7205 115.023 81.819 114.971 81.9175 114.92C81.8263 114.72 81.7497 114.504 81.6256 114.325C81.6037 114.293 81.3774 114.402 81.246 114.442C81.3701 114.65 81.4978 114.862 81.6219 115.07V115.074Z" fill="#FDB716"/>
<path d="M112.398 22.5276C112.449 21.6333 112.529 20.7428 112.544 19.8486C112.551 19.4471 112.507 19.02 112.368 18.6441C112.16 18.0711 112.142 17.5418 112.445 17.0199C112.682 16.6111 112.69 16.195 112.649 15.7315C112.58 14.892 112.609 14.0453 112.598 13.2021C112.58 12.0342 112.763 10.8662 112.336 9.70922C112.069 8.99385 112.533 8.26753 113.288 8.12518C113.741 8.04123 114.241 8.09963 114.704 8.18723C115.613 8.35512 116.507 8.59601 117.413 8.7931C119.062 9.14714 120.705 9.56323 122.373 9.82237C124.566 10.1655 126.774 10.4209 128.983 10.6399C131.121 10.8516 133.257 10.7056 135.377 10.3808C136.038 10.2786 136.644 10.3552 137.213 10.7786C137.432 10.9392 137.808 10.9538 138.107 10.9319C138.651 10.8918 139.188 10.7786 139.728 10.6947C139.841 10.6764 139.958 10.6509 140.071 10.6399C141.056 10.5341 141.761 10.9246 141.962 11.6984C142.151 12.4138 141.717 13.1766 140.856 13.5343C136.348 15.403 132.282 18.0711 128.088 20.5128C125.596 21.9618 123.223 23.6335 120.533 24.7065C118.748 25.4183 116.927 26.0424 115.091 26.6008C113.609 27.0497 112.576 26.2249 112.522 24.6664C112.496 23.9547 112.518 23.2429 112.518 22.5312C112.478 22.5312 112.434 22.5312 112.394 22.5312L112.398 22.5276Z" fill="#FDB716"/>
<path d="M137.625 74.3594C137.501 76.1296 137.261 82.0095 137.261 82.0095L104.437 87.9697V74.9762C115.515 74.7718 126.541 74.5638 137.629 74.3594H137.625Z" fill="#FDB716"/>
<path d="M80.5489 19.0456C80.0197 18.8777 79.5707 18.7207 79.1145 18.6076C79.0013 18.5784 78.7824 18.6587 78.7349 18.7536C78.5415 19.1332 78.2203 19.166 77.8881 19.0748C77.0998 18.8594 76.4793 19.1405 75.888 19.6405C75.5084 19.9617 75.0996 20.9253 74.5814 20.6004C74.0485 20.2683 74.1105 19.0894 74.1507 18.5455C74.2091 17.7535 74.2091 16.9615 74.2091 16.1658C74.2091 15.9979 74.1324 15.7862 74.0156 15.6658C73.3331 14.9577 73.2711 14.0453 73.1324 13.151C73.1032 12.9613 73.0338 12.7678 72.9389 12.5963C72.5995 11.9904 72.782 11.4356 73.4572 11.3079C74.4317 11.1254 75.4245 11.0049 76.4136 11.2787C76.6837 11.3517 76.9793 11.4648 77.2385 11.421C77.5341 11.3699 77.8662 11.2239 78.0743 11.0159C78.5634 10.5268 78.9758 9.95376 79.4503 9.45008C79.9613 8.90625 80.5781 8.57776 81.3628 8.74931C81.7789 8.84055 82.0672 9.07049 82.2242 9.49023C82.3191 9.74572 82.4797 9.98661 82.6549 10.1947C83.0819 10.702 83.5418 11.1801 83.9761 11.6765C84.2207 11.9539 84.4798 11.9502 84.8229 11.8663C85.5237 11.6947 86.239 11.494 86.9508 11.4831C88.1589 11.4685 88.7939 12.2459 88.5859 13.4321C88.4764 14.0416 88.2647 14.6584 87.9727 15.2059C87.3668 16.3374 87.1223 17.5272 87.1442 18.7937C87.1479 19.0419 87.1953 20.2975 87.1405 20.5384C86.969 21.3048 86.2062 20.5822 85.6113 20.0748C85.2025 19.7281 84.79 19.5748 84.2681 19.5602C84.0564 19.5529 83.8593 19.3412 83.6403 19.2682C83.0563 19.0711 82.4614 18.8996 81.8701 18.7207C81.8409 18.7098 81.8044 18.7207 81.7716 18.7134C81.2497 18.6623 80.8993 18.7609 80.5452 19.0419L80.5489 19.0456Z" fill="#FDB716"/>
<path d="M86.9326 34.1852C86.9326 34.2509 86.9545 34.3276 86.9326 34.3823C86.8413 34.594 86.7355 34.802 86.6333 35.0101C86.469 34.8714 86.2792 34.7582 86.1479 34.594C85.5566 33.8421 84.7828 33.4552 83.8338 33.4954C82.8265 33.5392 81.8264 33.7034 80.8191 33.7144C79.9832 33.7253 79.1365 33.6304 78.3043 33.5136C76.8115 33.3056 75.4246 33.4005 74.315 34.5867C74.023 34.9006 73.7894 34.6743 73.658 34.4115C73.5777 34.2509 73.5558 33.9991 73.6252 33.8385C73.9573 33.0829 74.2493 32.2727 75.0012 31.8274C75.2676 31.6704 75.6545 31.6449 75.9757 31.6741C77.1582 31.7872 78.3371 32.1705 79.5197 31.8712C80.4869 31.6266 81.3738 32.1376 82.3155 32.0354C82.9871 31.9624 83.6733 31.988 84.3339 31.8675C85.323 31.6887 85.9179 31.8858 86.4216 32.7618C86.6698 33.1961 86.8377 33.6779 87.0421 34.1378C87.0056 34.1524 86.9691 34.1706 86.9289 34.1852H86.9326Z" fill="#FDB716"/>
<path d="M78.297 23.6919C77.8225 23.7576 77.3334 23.7795 76.8736 23.9109C76.6071 23.9875 76.3808 24.2211 76.1618 24.4146C75.9319 24.619 75.7494 24.6445 75.6399 24.327C75.5085 23.9583 75.3443 23.5824 75.3151 23.2028C75.3005 22.9948 75.4757 22.6699 75.6618 22.5677C76.191 22.2685 76.7568 22.0312 77.3261 21.8159C77.7422 21.6589 78.0926 21.8341 78.2751 22.221C78.4649 22.6188 78.7423 23.2868 78.8445 23.7138C78.87 23.8196 78.3335 23.7576 78.297 23.6919Z" fill="#FDB716"/>
<path d="M83.5929 21.9545C84.3886 21.991 84.9835 22.4509 85.5383 22.9363C85.896 23.2502 85.8376 24.3488 85.4689 24.6335C85.3667 24.7138 85.0419 24.67 84.947 24.5678C84.374 23.9437 83.7061 23.6189 82.8447 23.7101C82.5344 23.7429 82.5052 23.8561 82.4833 23.5276C82.4396 22.8779 82.9469 21.9253 83.5966 21.9545H83.5929Z" fill="#FDB716"/>
<path d="M135.983 93.8898C136.147 87.6302 136.202 81.3817 136.914 75.2097C136.071 75.2097 135.246 75.1805 134.425 75.2134C124.975 75.5784 115.526 75.4798 106.072 75.2608C105.405 75.2462 105.397 75.2426 105.423 75.8996C105.791 84.787 105.456 93.6708 105.226 102.555C105.076 108.34 104.937 114.125 104.766 119.906C104.583 126.005 104.404 131.48 104.185 137.575C104.174 137.841 103.992 138.177 103.78 138.352C103.105 138.915 102.397 139.429 101.689 139.947C101.649 139.98 101.561 140.028 101.492 140.064C101.317 140.155 101.127 140.236 101.127 140.236C101.127 140.236 101.963 110.424 102.39 95.1928C102.116 95.2147 101.857 95.2366 101.598 95.2585C97.7069 95.5906 93.8125 95.5395 89.9145 95.4264C87.6114 95.3607 85.3083 95.3059 83.0016 95.2402C82.6622 95.2293 82.4614 95.2804 82.4614 95.722C82.4468 104.938 82.4286 114.157 82.3811 123.373C82.3556 128.381 82.2643 133.389 82.2023 138.393C82.195 139.006 82.1293 139.079 81.5344 139.123C81.0562 139.159 80.5818 139.185 80.0416 139.217C80.0306 139.009 80.0087 138.82 80.0124 138.626C80.1584 129.308 80.3044 119.994 80.465 110.675C80.4723 110.183 80.3263 110.073 79.8518 110.066C75.377 110 70.8987 109.887 66.4239 109.829C63.358 109.789 60.2885 109.81 57.2226 109.789C56.7846 109.789 56.7591 109.986 56.77 110.343C57.0584 119.738 57.3357 129.137 57.6131 138.531C57.6204 138.758 57.6131 138.98 57.6131 139.312C56.551 139.075 55.5802 138.871 54.6275 138.619C54.5217 138.59 54.4414 138.261 54.4414 138.075C54.4779 135.739 54.529 133.4 54.5837 131.064C54.6275 129.14 54.6713 127.217 54.7297 125.297C54.7407 124.906 54.6567 124.746 54.2115 124.753C48.3425 124.844 42.4735 124.921 36.6045 124.987C36.2213 124.99 36.13 125.114 36.1337 125.479C36.1483 127.005 36.1337 128.531 36.13 130.056C36.13 130.221 36.13 130.385 36.13 130.633C35.9512 130.549 35.8344 130.516 35.7358 130.447C35.1409 130.023 34.5423 129.604 33.973 129.155C33.8416 129.053 33.7321 128.823 33.7394 128.658C33.8197 126.969 33.9292 125.282 34.0313 123.596C34.0605 123.089 34.2868 122.826 34.8343 122.808C37.2688 122.731 39.7032 122.618 42.1413 122.538C46.0175 122.413 49.8973 122.315 53.7735 122.184C54.8283 122.147 54.6969 122.246 54.7005 121.213C54.7115 117.647 54.7261 114.084 54.7443 110.519C54.7443 110.205 54.7662 109.887 54.7918 109.573C54.883 108.42 55.6641 107.697 56.8211 107.726C59.7885 107.803 62.7558 107.905 65.7231 107.96C66.7269 107.978 67.7342 107.854 68.7416 107.84C70.3986 107.818 72.0557 107.865 73.7127 107.825C74.7712 107.799 74.6763 107.913 74.6909 106.832C74.7237 104.23 72.9207 102.54 70.249 102.58C68.6138 102.606 67.4094 103.303 66.6721 104.752C66.2852 105.515 65.7195 107.35 65.3655 108.172C65.0297 108.143 64.8727 107.865 64.8472 107.58C64.807 107.091 64.7815 106.584 64.8837 106.11C65.11 105.062 65.9312 103.16 66.7488 102.452C66.8838 102.336 66.9897 102.102 66.9933 101.919C67.1429 94.5431 67.2634 87.1667 67.424 79.7903C67.497 76.3777 67.6284 72.9651 67.7561 69.5525C67.8109 68.0779 67.924 66.607 68.008 65.1361C68.0153 65.0376 68.008 64.9427 68.008 64.8003C67.8693 64.8076 67.7452 64.8332 67.6211 64.8186C67.1977 64.7711 66.6904 64.8405 66.3728 64.6288C65.4494 64.0156 64.3581 63.939 63.3799 63.5265C62.5587 63.1798 61.6937 62.906 60.9199 62.4754C57.0036 60.2854 55.3904 56.5881 56.3795 52.2156C57.062 49.1825 58.6205 46.6276 60.7447 44.4122C63.7668 41.255 67.351 38.9885 71.5045 37.565C72.5046 37.2219 73.4499 37.2292 74.523 37.1891C74.4317 37.0321 74.3879 36.9153 74.3113 36.8277C73.3514 35.7109 72.7236 34.4261 72.3841 32.999C72.3039 32.6559 72.1506 32.4954 71.8038 32.437C71.1833 32.3384 70.7052 31.988 70.3512 31.4734C69.4862 30.2032 69.1905 28.809 69.4971 27.3052C69.5738 26.9293 69.7526 26.5424 69.9789 26.2285C70.5045 25.5022 71.3695 25.4803 71.9863 26.1373C72.0739 26.2322 72.1433 26.3417 72.2929 26.5424C72.3732 26.2468 72.4207 26.0935 72.4571 25.9438C72.7236 24.8343 72.9718 23.7174 73.2674 22.6152C73.3696 22.2356 73.5266 21.8487 73.7492 21.5348C74.0339 21.137 74.0959 20.7464 74.0266 20.2792C73.8952 19.3777 73.7894 18.4689 73.7127 17.5637C73.6397 16.6878 73.4244 15.8848 72.9353 15.1329C72.4243 14.3519 72.2163 13.4613 72.3185 12.5196C72.479 10.9794 73.6689 10.0815 75.1836 10.3954C75.6982 10.5013 76.1946 10.7093 76.6873 10.9027C77.0961 11.0633 77.3699 10.9648 77.6217 10.6107C78.0268 10.0487 78.421 9.46469 78.9101 8.97926C79.4065 8.48288 80.0124 8.09964 80.7898 8.43178C80.8445 8.45368 80.9248 8.45733 80.9832 8.43178C81.7242 8.12884 82.3045 8.49018 82.768 8.97196C83.2462 9.46834 83.644 10.0487 84.0236 10.629C84.3083 11.067 84.6112 11.1984 85.1039 10.9976C85.5164 10.8297 85.9471 10.6837 86.3814 10.5925C88.0348 10.2494 89.2757 11.2422 89.3378 12.9321C89.3706 13.8409 89.1115 14.6804 88.6005 15.4176C88.1224 16.1111 87.8851 16.8557 87.7902 17.6805C87.6698 18.7025 87.4837 19.7135 87.3669 20.7355C87.3377 20.991 87.4289 21.272 87.5092 21.5275C87.7172 22.1845 87.9946 22.8196 88.1662 23.4838C88.429 24.4948 88.6261 25.5205 88.8523 26.5388C88.8633 26.5826 88.9035 26.6154 89.0312 26.8016C89.1115 26.6446 89.1516 26.5059 89.2356 26.4183C89.878 25.754 90.7941 25.7942 91.254 26.5935C91.5387 27.0899 91.7102 27.7031 91.7613 28.2761C91.8635 29.4441 91.5423 30.5427 90.8999 31.5354C90.4838 32.1778 89.9327 32.6085 89.1553 32.7435C88.9837 32.7727 88.7502 32.9479 88.7064 33.1012C88.2757 34.6305 87.5603 35.9956 86.4763 37.1599C86.4471 37.1927 86.4398 37.2475 86.4179 37.3022C86.458 37.3351 86.4982 37.3898 86.531 37.3862C87.6223 37.2365 88.6443 37.6344 89.6955 37.795C92.0569 38.1599 93.8198 39.5286 95.3783 41.2149C95.9951 41.8828 96.5864 42.5872 97.1011 43.3355C99.2691 46.467 102.309 47.7043 106.021 47.5401C106.748 47.5073 107.478 47.4233 108.2 47.4489C108.525 47.4598 108.839 47.6715 109.255 47.8284C109.613 47.4708 110.084 47.0072 110.551 46.54C110.587 46.5035 110.606 46.4451 110.646 46.4269C111.288 46.1459 111.182 45.6312 111.149 45.0691C111.058 43.4486 110.996 41.8208 111.011 40.2002C111.069 33.9005 111.127 27.5972 111.259 21.2976C111.339 17.5017 111.547 13.7095 111.73 9.91727C111.763 9.2457 111.569 8.75297 111.076 8.30769C110.412 7.70546 110.025 6.94993 110.047 6.02287C110.076 4.78556 111.04 3.8658 112.27 3.90229C113.854 3.94609 115.051 5.38049 114.807 6.94263C114.785 7.08863 114.755 7.23097 114.719 7.42442C114.942 7.47916 115.142 7.53756 115.347 7.57771C123.194 9.12161 131.129 9.57054 139.107 9.43549C141.115 9.40264 143.119 9.32965 145.09 8.88801C145.557 8.78217 146.006 8.82596 146.257 9.30045C146.509 9.77858 146.301 10.1874 145.944 10.4976C145.141 11.1911 144.334 11.8846 143.495 12.5269C138.447 16.3885 133.308 20.115 127.723 23.1845C124.103 25.1737 120.318 26.7614 116.241 27.5607C115.354 27.7359 114.434 27.7907 113.525 27.8089C113.058 27.8199 112.982 27.9695 112.978 28.3783C112.941 31.561 112.901 34.7437 112.832 37.9264C112.774 40.6419 112.682 43.361 112.602 46.0984C112.971 46.1604 113.354 46.175 113.704 46.2918C115.128 46.77 116.073 47.7518 116.464 49.1935C116.847 50.606 116.621 51.9637 115.799 53.1864C115.124 54.1938 114.171 54.661 112.865 54.4274C112.909 54.9055 112.967 55.3253 112.978 55.7487C113.102 60.6541 113.23 65.5558 113.336 70.4613C113.35 71.089 113.292 71.7205 113.215 72.3446C113.153 72.8775 113.379 72.9724 113.858 72.9797C116.628 73.0052 119.398 73.0125 122.165 73.122C127.267 73.3228 132.366 73.6002 137.469 73.8264C137.947 73.8483 138.107 74.0126 138.151 74.498C138.363 76.9361 138.158 79.3633 138.107 81.7978C138.074 83.3708 137.797 84.8892 137.501 86.4148C137.049 88.7544 136.56 91.0903 136.093 93.4262C136.06 93.5832 136.009 93.7365 135.965 93.8934L135.983 93.8898ZM92.1737 49.1278C92.1737 50.3906 92.2248 51.6316 92.1628 52.8653C92.0679 54.7668 91.8014 56.6684 91.7868 58.57C91.7649 61.2527 91.8963 63.9353 91.9839 66.618C91.9876 66.7494 92.1555 66.9318 92.2905 66.9902C94.7067 68.0852 96.0024 70.0561 96.2762 72.5891C96.4587 74.2681 96.309 75.9981 96.1521 77.6917C95.9148 80.2648 95.5316 82.8234 95.2287 85.3892C95.0973 86.5061 95.0024 87.6266 94.9221 88.7508C94.8929 89.1376 94.8308 89.6085 95.006 89.9078C95.5389 90.8093 95.798 91.7655 95.8564 92.7875C95.882 93.2401 96.0426 93.3605 96.4842 93.3751C98.2581 93.4226 100.028 93.5029 101.798 93.5941C102.543 93.6306 102.532 93.6562 102.576 92.9225C102.831 88.769 103.058 84.6155 103.375 80.4692C103.539 78.3085 103.872 76.1587 104.127 74.0053C104.189 73.487 104.539 73.1184 105.098 73.0162C105.404 72.9614 105.726 72.9432 106.04 72.9395C107.682 72.9322 109.321 72.9286 110.963 72.9359C111.288 72.9359 111.478 72.9067 111.471 72.4869C111.368 67.8626 111.273 63.2418 111.204 58.6174C111.182 57.1539 111.018 55.6793 111.478 54.2851C110.817 53.8836 110.164 53.4857 109.489 53.077C109.383 53.6573 108.985 53.9456 108.456 54.0953C105.492 54.9311 102.521 55.0844 99.5246 54.2522C96.7689 53.4857 94.6118 51.8433 92.7431 49.7519C92.546 49.5329 92.3453 49.3212 92.1737 49.1314V49.1278ZM74.5631 38.0906C74.1689 38.0906 73.7638 38.0942 73.3587 38.0906C73.0703 38.0869 72.9462 38.2256 72.9243 38.5103C72.8878 38.9885 72.8404 39.4702 72.771 39.9447C72.2747 43.4851 72.0922 47.0364 72.417 50.606C72.5484 52.0732 72.6433 53.5478 72.7199 55.0187C72.7564 55.7012 72.6177 56.3801 72.0411 56.8108C71.4607 57.2414 70.8001 57.5626 70.1906 57.9568C70.0555 58.0444 69.9205 58.2233 69.9059 58.3729C69.8803 58.5882 69.9679 58.8145 70.0044 59.0372C70.0336 58.9861 70.0628 58.935 70.092 58.8875C70.8257 59.0335 71.6067 59.0664 72.282 59.3547C73.4025 59.8292 73.6872 61.0921 73.0302 62.1213C72.636 62.7418 72.0484 63.1031 71.3731 63.3221C70.8038 63.5046 70.2198 63.6287 69.6467 63.793C68.6759 64.0704 68.6795 64.074 68.727 65.0595C68.7452 65.439 68.7416 65.8223 68.727 66.2019C68.6613 67.6436 68.57 69.0816 68.5189 70.5233C68.4715 71.7971 68.4642 73.0746 68.4386 74.352C68.435 74.6221 68.4569 74.8338 68.8328 74.8265C70.0738 74.7973 71.322 74.8667 72.5557 74.7681C75.6873 74.5163 78.4028 73.3848 80.4139 70.8409C80.9358 70.1802 81.5344 69.5743 82.1366 68.9794C84.2024 66.9355 86.7026 66.0449 89.5896 66.2457C89.9802 66.2712 90.3634 66.3807 90.805 66.4647C90.805 66.0741 90.8233 65.731 90.8014 65.3916C90.7649 64.8624 90.6663 64.3368 90.659 63.8076C90.6371 62.1834 90.6408 60.5628 90.6517 58.9386C90.6517 58.5554 90.6517 58.2853 90.1626 58.132C89.5896 57.9495 89.0604 57.6064 88.5385 57.2852C87.98 56.9422 87.6953 56.391 87.6734 55.7414C87.6552 55.2121 87.6735 54.6792 87.7318 54.1537C88.0932 50.825 88.5385 47.5 88.3523 44.1384C88.2538 42.3828 88.0932 40.6346 87.9508 38.8826C87.9399 38.7512 87.8669 38.5286 87.7829 38.5103C87.3048 38.3935 86.8121 38.3242 86.2463 38.222C86.3084 38.5067 86.3339 38.6344 86.3668 38.7585C86.9179 40.9192 87.0128 43.1201 86.8157 45.3246C86.6515 47.1678 85.9909 47.8321 84.2061 48.292C81.5745 48.9745 78.9649 48.9271 76.3552 48.1642C74.5887 47.6459 73.9025 46.8831 73.8624 45.0509C73.8332 43.7442 73.8952 42.4303 74.0193 41.1309C74.1142 40.1345 74.3697 39.1527 74.5668 38.0942L74.5631 38.0906ZM112.978 25.9913C113.675 25.8343 114.252 25.6847 114.832 25.5752C119.398 24.7248 123.636 23.0166 127.65 20.7099C132.487 17.9287 137.027 14.6913 141.618 11.5415C141.702 11.4831 141.761 11.3918 141.874 11.2677C141.717 11.2568 141.637 11.2385 141.556 11.2458C137.399 11.5962 133.238 11.5561 129.081 11.2969C124.048 10.983 119.095 10.2239 114.321 8.50478C114.161 8.44638 113.942 8.48653 113.766 8.53763C113.142 8.72377 112.872 9.1289 113.025 9.79683C113.077 10.0158 113.04 10.2604 113.036 10.4903C113.014 15.3957 112.993 20.3048 112.967 25.2102C112.967 25.4365 112.967 25.6665 112.967 25.9876L112.978 25.9913ZM79.1985 74.0345C78.3225 75.0783 77.4976 76.166 77.2531 77.5749C77.0669 78.6516 76.837 79.7246 76.7238 80.8086C76.4063 83.8088 76.0669 86.8054 75.8734 89.8129C75.669 93.0503 75.6033 96.2987 75.5121 99.5434C75.4683 101.065 75.5084 102.587 75.5121 104.113C75.5121 104.226 75.5267 104.347 75.5668 104.452C75.9647 105.434 76.0231 106.449 75.8333 107.482C75.7603 107.869 75.8807 108.015 76.2895 108.018C77.483 108.026 78.6765 108.048 79.8664 108.113C80.3701 108.142 80.5161 107.997 80.5234 107.489C80.5672 104.807 80.6365 102.12 80.7314 99.4376C80.7788 98.0287 80.8737 96.6235 80.9832 95.2183C81.0635 94.1891 81.6621 93.6854 82.6841 93.6854C83.414 93.6854 84.144 93.6598 84.8703 93.6708C85.2499 93.6781 85.4251 93.543 85.5127 93.1561C85.8084 91.813 86.4033 90.6304 87.4362 89.6924C87.5165 89.6194 87.5749 89.4698 87.5676 89.3603C87.5201 88.5026 87.4216 87.6485 87.3961 86.7908C87.3121 83.7249 87.2501 80.6627 87.1771 77.5968C87.1734 77.3887 87.1369 77.1843 87.1187 76.9945C83.79 77.7756 81.3738 76.2938 79.1948 74.0345H79.1985ZM69.8256 56.694C71.0082 56.3764 71.5921 55.6319 71.5556 54.5624C71.4826 52.3433 71.3768 50.1242 71.3111 47.9051C71.2162 44.7808 71.2819 41.6711 72.2966 38.6636C72.3185 38.5979 72.2966 38.5176 72.2966 38.3388C70.8987 38.9812 69.5519 39.5396 68.2635 40.2075C64.5479 42.1346 61.4199 44.7407 59.1935 48.3358C58.2592 49.8395 57.573 51.4455 57.3504 53.2266C56.9051 56.767 58.4198 59.8219 61.4783 61.5483C61.6316 61.6359 61.7922 61.7016 61.9893 61.7928C62.5989 60.3365 63.431 59.0956 64.6172 58.1503C64.6063 58.0809 64.6099 58.0408 64.5953 58.0152C64.5442 57.9313 64.4858 57.851 64.4274 57.7707C63.4675 56.4385 63.1025 54.9493 63.4091 53.3434C63.8654 50.9746 65.1574 49.2482 67.5225 48.4927C68.4532 48.1971 69.2708 48.6789 69.5263 49.6169C69.6431 50.0439 69.6942 50.4965 69.7051 50.9418C69.7562 52.6463 69.7818 54.3544 69.8183 56.0589C69.8219 56.2523 69.8183 56.4458 69.8183 56.6903L69.8256 56.694ZM94.4293 85.0534C94.4658 84.6556 94.506 84.3162 94.5279 83.9767C94.5936 82.9365 94.6593 81.8926 94.7067 80.8524C94.8308 78.2063 95.0279 75.5601 95.0389 72.914C95.0571 69.3481 92.192 67.3662 89.0421 67.2092C86.9873 67.107 85.1185 67.8443 83.5673 69.2094C82.7388 69.9393 82.0161 70.7934 81.257 71.6C81.173 71.6876 81.0781 71.8336 81.0927 71.9395C81.2168 72.7753 81.3665 73.6002 81.9395 74.2827C83.2024 75.7828 84.8047 76.4762 86.761 76.3886C87.0457 76.3777 87.1333 76.2682 87.1223 75.9945C87.1004 75.4981 87.0749 74.998 87.1041 74.5053C87.1223 74.2024 87.2464 73.9067 87.3231 73.6075C87.3888 73.6075 87.4545 73.6038 87.5201 73.6002C87.626 73.7717 87.7793 73.9323 87.8304 74.1221C87.9362 74.5382 88.0421 74.9615 88.0567 75.3886C88.1625 78.3851 88.2465 81.3817 88.3377 84.3746C88.345 84.568 88.3377 84.7614 88.3377 85.0169C90.3889 84.5315 92.3781 84.2833 94.4293 85.0571V85.0534ZM68.2452 75.8704V98.1017C70.2636 97.6637 72.1944 97.682 74.1324 98.3609C74.1507 98.1346 74.1653 97.974 74.1726 97.8134C74.2675 95.9446 74.3076 94.0686 74.4646 92.2035C74.815 88.0938 75.1982 83.984 75.6252 79.8816C75.7822 78.3778 76.1691 76.9142 76.9611 75.593C77.0888 75.3813 77.1509 75.1294 77.2932 74.7754C74.2894 75.9653 71.3001 76.1514 68.2452 75.874V75.8704ZM73.7528 33.0939C73.8112 33.0939 73.8696 33.0939 73.928 33.0976C73.9864 32.9844 74.0485 32.8713 74.0996 32.7545C74.6471 31.5719 75.3113 31.2398 76.5669 31.5208C76.8078 31.5756 77.0487 31.6449 77.2969 31.6778C77.7604 31.7398 78.2276 31.7763 78.7459 31.8311C78.4271 31.0938 78.3614 30.6303 78.5488 30.4405C78.8517 31.4734 79.6474 31.6376 80.5745 31.6559C81.5125 31.6741 82.268 31.4478 82.6074 30.4332C82.7534 30.713 82.6634 31.1887 82.3373 31.8603C82.549 31.8603 82.7206 31.8785 82.8921 31.8603C83.4506 31.7909 84.0126 31.7289 84.5638 31.6303C85.7573 31.415 86.4142 31.7508 86.907 32.8567C86.9763 33.01 87.0457 33.1633 87.1187 33.3166C87.1698 33.3129 87.2209 33.3056 87.2683 33.302C87.407 32.7107 87.5749 32.1267 87.6734 31.5281C88.0494 29.2652 87.8851 27.0023 87.7063 24.7357C87.626 23.732 87.2756 22.8524 86.6077 22.1297C84.9944 20.3887 82.8775 19.5931 80.6 19.542C78.786 19.4982 77.0487 20.1698 75.5376 21.2501C74.5887 21.929 73.8587 22.8232 73.6799 23.9802C73.3258 26.2577 73.1068 28.5571 73.3587 30.8639C73.439 31.6121 73.6142 32.3494 73.7456 33.0939H73.7528ZM90.5568 56.9714L90.7649 56.8984C90.7649 56.3071 90.7466 55.7122 90.7649 55.1209C90.8342 53.1061 90.8598 51.0841 91.3197 49.1022C91.5825 47.9744 91.7868 47.8686 92.6738 48.5949C93.495 49.2665 94.2615 50.0038 95.0827 50.6717C98.1011 53.128 101.598 53.9529 105.419 53.6573C105.912 53.6171 106.127 53.431 106.189 52.9127C106.353 51.5294 106.248 50.168 106.018 48.8066C105.963 48.4781 105.832 48.3321 105.492 48.3978C105.346 48.427 105.196 48.4343 105.047 48.4453C102.401 48.6825 100.025 48.0547 98.123 46.1276C97.2653 45.2589 96.5171 44.2771 95.7141 43.3537C94.9951 42.5288 94.3089 41.6748 93.5315 40.9083C92.3161 39.7111 90.8999 38.8388 89.1553 38.6308C88.9546 38.6052 88.7465 38.6308 88.502 38.6308C88.6334 39.1308 88.7684 39.5724 88.867 40.0214C89.4327 42.5544 89.4509 45.1202 89.2976 47.6934C89.1589 50.0585 88.9801 52.4236 88.8341 54.7887C88.8159 55.0771 88.7867 55.4384 88.9326 55.6501C89.3341 56.2414 89.9108 56.6575 90.5495 56.9714H90.5568ZM85.9836 41.7879C85.9836 41.7879 85.9872 41.7879 85.9909 41.7879C85.9909 40.7586 85.9982 39.733 85.9836 38.7038C85.9836 38.5614 85.8777 38.295 85.8303 38.295C85.5127 38.3096 85.1879 38.3607 84.8849 38.4556C84.8265 38.4738 84.7973 38.7731 84.8484 38.9118C85.531 40.8243 84.9032 42.7223 83.1951 43.8209C81.3665 44.9961 79.5306 45.0253 77.6874 43.8428C75.9026 42.6967 75.2712 40.7513 76.034 38.7695C76.0851 38.6381 76.0815 38.3607 76.0304 38.3424C75.7311 38.2293 75.4135 38.1563 75.096 38.1198C75.0485 38.1125 74.9245 38.3716 74.9135 38.5103C74.8478 39.3863 74.7785 40.2623 74.7602 41.1419C74.731 42.5799 74.7091 44.0216 74.742 45.4633C74.7602 46.2773 75.1872 46.916 75.9756 47.1715C77.7422 47.7445 79.5123 48.3869 81.4285 48.0182C82.3702 47.8357 83.3192 47.6715 84.2535 47.4525C85.3375 47.197 85.9434 46.478 85.9763 45.3648C86.0128 44.1749 85.9836 42.9814 85.9836 41.7879ZM75.7822 13.0708C75.7822 13.0489 75.7822 13.0233 75.7858 13.0014C75.9172 12.9941 76.0486 12.9868 76.1837 12.9795C78.4794 12.87 79.6255 13.8299 79.9686 16.1148C80.0671 16.7681 80.1985 17.4178 80.3628 18.0601C80.4139 18.2718 80.6073 18.4434 80.735 18.6368C80.8737 18.458 81.0854 18.2974 81.1402 18.0966C81.3519 17.2973 81.5125 16.487 81.6913 15.6804C82.0672 13.9796 83.2243 13.0598 84.9543 13.0963C85.301 13.1036 85.6478 13.1693 85.9945 13.173C86.5894 13.1766 87.1844 13.1803 87.772 13.1365C88.2063 13.1036 88.2574 12.8189 88.0895 12.4576C87.8559 11.9612 87.4472 11.7349 86.9252 11.7787C86.3485 11.8262 85.7792 11.932 85.2098 12.0378C84.4835 12.1692 83.9068 11.9466 83.4688 11.3517C83.3593 11.2057 83.2462 11.0633 83.1476 10.91C82.633 10.1071 81.9322 9.51579 81.0927 9.08146C80.9796 9.02306 80.7825 9.03401 80.6584 9.0924C79.7496 9.51579 79.016 10.1509 78.4721 10.9903C77.8918 11.8809 77.1107 12.1145 76.107 11.8335C75.6325 11.7021 75.1325 11.6291 74.6434 11.5962C74.1799 11.5634 73.8149 11.7933 73.5996 12.224C73.3806 12.662 73.4353 12.8554 73.9134 12.9284C74.5303 13.0233 75.1617 13.0306 75.7858 13.0781L75.7822 13.0708ZM80.465 38.3461C82.7169 38.4592 84.447 37.5468 85.8412 35.8861C86.1222 35.5503 86.115 35.2364 85.885 34.8933C85.4215 34.1998 84.071 33.6414 83.2644 33.7984C81.4869 34.1414 79.7021 34.1451 77.9392 33.7473C76.8771 33.5064 76.0559 33.9079 75.3004 34.5356C74.804 34.9481 74.804 35.3167 75.2092 35.8204C76.5669 37.5176 78.3042 38.4227 80.4686 38.3461H80.465ZM68.5919 59.6212C68.6394 59.6285 68.6905 59.6321 68.7379 59.6394C68.8146 59.4825 68.9569 59.3219 68.9533 59.1649C68.9533 58.6539 68.8766 58.143 68.862 57.6283C68.8109 55.9895 68.7963 54.3471 68.727 52.7083C68.6905 51.8506 68.6102 50.9892 68.4824 50.1425C68.4021 49.6205 68.1321 49.4855 67.6576 49.7081C66.2122 50.3906 64.5296 51.8506 64.4785 54.0405C64.4274 56.2268 65.5917 57.9276 67.8364 58.8109C68.2197 58.9605 68.5919 59.0919 68.5919 59.6212ZM86.4142 93.5613C86.615 93.5613 86.7792 93.5649 86.9398 93.5613C88.5275 93.5029 90.1116 93.4299 91.6992 93.3824C92.6081 93.3532 93.5205 93.3459 94.4293 93.3605C94.8381 93.3642 95.0243 93.2401 94.9367 92.8167C94.8272 92.2838 94.7615 91.7363 94.6155 91.2144C94.4293 90.5538 94.0242 90.0319 93.4001 89.7143C90.6736 88.3164 87.0384 89.707 86.4142 93.5686V93.5613ZM74.5449 20.2865C74.585 20.3157 74.6252 20.3449 74.6653 20.3778C76.1946 18.8558 78.1035 18.4799 80.1693 18.5894C79.8408 17.4214 79.5999 16.3228 79.2204 15.2753C78.859 14.2862 78.0743 13.6766 77.0049 13.6036C75.8442 13.527 74.6799 13.5489 73.4134 13.527C73.5923 13.9796 73.8113 14.4504 73.9645 14.9431C74.1799 15.633 74.4354 16.3264 74.5084 17.0345C74.6069 17.9689 74.5449 18.9178 74.5485 19.8632C74.5485 20.0055 74.5485 20.1479 74.5485 20.2902L74.5449 20.2865ZM86.7792 20.5785C86.8595 20.4471 86.8887 20.4216 86.8887 20.3924C86.896 20.2756 86.8997 20.1625 86.8997 20.0457C86.896 18.1222 86.8449 16.195 87.9545 14.476C88.1005 14.2497 88.1187 13.9431 88.1771 13.7423C87.3705 13.7423 86.6515 13.7496 85.9325 13.7423C85.5857 13.7387 85.239 13.6876 84.8923 13.6949C83.6294 13.7204 82.7352 14.3409 82.2899 15.5016C81.9176 16.4688 81.6548 17.4798 81.3482 18.4762C81.3409 18.4981 81.3738 18.531 81.4176 18.6186C83.4213 18.5638 85.2974 19.0091 86.7829 20.5858L86.7792 20.5785ZM112.836 46.9452C112.836 47.5292 112.854 48.0365 112.832 48.5438C112.792 49.3942 112.584 50.2264 111.909 50.7702C111.514 51.0914 111.456 51.3579 111.606 51.7703C111.697 52.0185 111.759 52.2776 111.872 52.5185C112.591 54.0515 114.263 54.2194 115.234 52.8361C116.037 51.6937 116.219 50.4198 115.774 49.0986C115.416 48.0328 114.668 47.3065 113.562 47.0036C113.321 46.9379 113.055 46.9598 112.836 46.9452ZM70.6979 59.4861C70.0482 59.6796 69.3365 59.8767 68.6357 60.1102C68.362 60.2015 68.0299 60.311 67.8766 60.5227C67.3254 61.2855 66.7962 62.0739 66.3436 62.8987C65.9239 63.6652 66.2743 64.2054 67.1539 64.2127C67.4313 64.2127 67.7196 64.074 67.9824 63.9536C68.5043 63.7163 69.0007 63.4134 69.5373 63.209C70.0592 63.0119 70.6395 62.9535 71.1541 62.7381C71.5994 62.5557 72.0666 62.3075 72.3951 61.968C73.0594 61.2855 72.8404 60.2635 71.979 59.8584C71.614 59.6869 71.1943 59.6248 70.6943 59.4861H70.6979ZM74.2784 34.532C74.4828 34.4225 74.5376 34.4115 74.5668 34.3787C75.4245 33.4297 76.4939 33.145 77.7239 33.3896C79.5817 33.7546 81.4395 33.7911 83.3082 33.4772C84.5455 33.2691 85.6076 33.5757 86.4361 34.5539C86.4726 34.5977 86.542 34.6123 86.6478 34.6707C86.6989 34.4991 86.7646 34.3677 86.7792 34.229C86.8997 32.9698 85.7938 31.9004 84.5638 32.1085C83.29 32.3238 82.0271 32.3822 80.7679 32.0282C80.6584 31.999 80.5307 31.9734 80.4248 32.0026C79.005 32.364 77.5962 32.2216 76.1873 31.926C75.6873 31.8201 75.2383 31.9588 74.9537 32.3749C74.6872 32.7654 74.4609 33.1961 74.293 33.6378C74.2054 33.8713 74.2784 34.167 74.2784 34.5356V34.532ZM94.2067 89.0938C94.2578 88.1449 94.3198 87.2288 94.3381 86.3126C94.3381 86.2031 94.1045 86.017 93.9549 85.9915C93.3709 85.8856 92.776 85.8199 92.1847 85.7579C91.0313 85.6447 89.878 85.5316 88.7246 85.7871C88.4253 85.8528 88.2757 85.9549 88.2574 86.2944C88.2173 87.0718 88.1224 87.8419 88.053 88.6194C88.0384 88.7872 88.053 88.9551 88.053 89.1486C91.108 88.0281 91.9438 88.0208 94.2104 89.0938H94.2067ZM74.1762 102.514C74.1762 101.916 74.1799 101.394 74.1762 100.876C74.1689 100.113 74.1762 100.014 73.4207 99.9303C71.7819 99.7441 70.1358 99.6675 68.4897 99.558C68.4021 99.5507 68.2306 99.6566 68.2306 99.715C68.2124 100.343 68.2197 100.974 68.2197 101.631C70.3329 101.211 72.3185 101.288 74.1799 102.514H74.1762ZM66.9969 59.7562C66.4568 59.4204 65.8801 59.0408 65.2815 58.6977C65.183 58.6393 64.9494 58.6612 64.8691 58.7379C63.9968 59.6139 63.2777 60.5957 62.8069 61.749C62.7011 62.0118 62.7375 62.1943 63.0368 62.2819C63.5734 62.4462 64.1063 62.636 64.6464 62.7819C64.7632 62.8148 64.9822 62.7381 65.0479 62.6396C65.7122 61.6797 66.3546 60.7052 66.9933 59.7526L66.9969 59.7562ZM106.824 53.3726C107.2 53.3288 107.474 53.2996 107.748 53.2667C108.441 53.184 108.82 52.8044 108.883 52.128C108.894 52.0112 108.912 51.898 108.919 51.7812C108.992 50.6899 109.032 49.595 108.667 48.5402C108.598 48.3431 108.365 48.0584 108.211 48.062C107.781 48.0693 107.354 48.2044 106.879 48.2993C107.346 50.0038 107.401 51.6645 106.821 53.3726H106.824ZM70.7344 28.7615C70.7965 28.5097 70.7892 28.2141 70.9315 28.0243C71.2892 27.5498 71.6943 27.9622 72.0703 28.0681C72.3002 27.276 72.0046 26.6592 71.333 26.4804C70.8695 26.3563 70.4607 26.7286 70.2891 27.4987C69.9935 28.8564 70.2964 30.0974 71.1541 31.1814C71.3622 31.4442 71.7016 31.6011 72.0995 31.8931C72.0995 31.5829 72.0995 31.4588 72.0995 31.3347C72.0812 30.7252 72.0374 30.112 72.0484 29.5025C72.0557 29.1156 72.0484 28.725 71.6323 28.6009C71.4206 28.5352 71.1432 28.6776 70.7308 28.7615H70.7344ZM88.9947 32.0063C89.5385 31.9296 89.8561 31.6303 90.1189 31.2653C90.8269 30.2835 91.1153 29.1849 90.9401 27.9841C90.8926 27.6666 90.7722 27.3344 90.5897 27.0716C90.4729 26.9038 90.1809 26.7505 89.9765 26.7651C89.221 26.8162 88.8195 27.6447 89.1845 28.3418C89.5312 28.1593 89.9145 27.8819 90.2393 28.298C90.389 28.4841 90.3743 28.8017 90.4327 29.0572C90.378 29.0754 90.3269 29.0937 90.2722 29.1119C90.2065 29.0718 90.1298 29.0426 90.0714 28.9915C89.7101 28.6885 89.1772 28.8528 89.1334 29.3236C89.0567 30.1923 89.0385 31.0646 88.991 32.0026L88.9947 32.0063ZM84.1988 39.3243C82.2935 40.3207 81.5599 42.0872 80.8153 43.9012C82.9724 43.445 84.4433 41.5069 84.1988 39.3243ZM79.9102 43.8902C79.1984 42.0543 78.5378 40.255 76.6983 39.2403C76.1253 40.9813 77.9064 43.569 79.9102 43.8902ZM80.3774 42.5982C80.8299 41.3645 81.4139 40.2842 82.476 39.5031C82.4395 39.4739 82.4067 39.4447 82.3702 39.4155H78.348C79.4247 40.2988 79.9832 41.3791 80.3774 42.5982ZM112.394 48.0146C112.365 48 112.336 47.9817 112.306 47.9671C112.252 47.7116 112.259 47.416 112.128 47.2043C111.996 46.989 111.748 46.7444 111.525 46.7189C111.332 46.697 111 46.916 110.916 47.1131C110.503 48.0474 110.346 49.0183 110.846 49.9819C111.109 50.4855 111.471 50.5184 111.708 50.0038C112.003 49.3723 112.171 48.6789 112.394 48.0109V48.0146ZM111.343 53.3178C111.376 53.2083 111.409 53.1609 111.401 53.1208C111.273 52.482 111.146 51.8396 111.007 51.2046C110.989 51.117 110.941 51.0111 110.872 50.96C110.098 50.3979 110.011 49.5585 109.956 48.7081C109.945 48.5292 109.956 48.3467 109.956 48.1642C109.894 48.1496 109.828 48.135 109.766 48.1204C109.657 48.3212 109.423 48.5511 109.463 48.7117C109.744 49.8614 109.635 51.0111 109.551 52.1645C109.543 52.2703 109.613 52.4419 109.697 52.4893C110.23 52.7777 110.777 53.0368 111.343 53.3178ZM111.467 5.99732C111.471 6.6105 111.985 7.29667 112.452 7.30762C112.989 7.32222 113.463 6.84409 113.456 6.29661C113.449 5.69438 112.865 5.14325 112.248 5.1615C111.777 5.1761 111.463 5.51189 111.463 5.99732H111.467Z" fill="#1E1E1E"/>
<path d="M138.465 24.1992C138.615 24.7576 138.797 25.3088 138.91 25.8745C139.031 26.4877 139.053 27.1228 139.177 27.7396C139.29 28.298 139.429 28.3053 139.976 28.2068C140.556 28.1009 141.151 28.0717 141.743 28.0571C141.874 28.0571 142.013 28.2433 142.148 28.3418C142.027 28.4586 141.929 28.6411 141.786 28.6849C141.33 28.8273 140.852 28.9003 140.396 29.0389C139.304 29.3674 138.753 30.2106 138.79 31.342C138.812 31.9844 138.761 32.6304 138.702 33.2728C138.673 33.583 138.593 33.9444 138.162 33.9079C137.772 33.875 137.761 33.5429 137.724 33.2363C137.629 32.4333 137.571 31.6194 137.403 30.8274C137.188 29.8091 136.801 29.6193 135.775 29.7653C135.22 29.8419 134.655 29.8492 134.092 29.8237C133.91 29.8164 133.738 29.6083 133.56 29.4915C133.713 29.3382 133.837 29.1156 134.019 29.0462C134.498 28.8674 134.994 28.7251 135.498 28.6302C136.936 28.3564 137.688 27.5972 137.921 26.1336C138.016 25.5497 138.122 24.9657 138.228 24.3817C138.239 24.327 138.282 24.2759 138.312 24.2211C138.363 24.2138 138.414 24.2065 138.465 24.1992ZM138.279 29.4404C138.443 29.2324 138.574 29.0681 138.72 28.8856C138.596 28.7433 138.483 28.6192 138.407 28.528C138.206 28.6849 138.042 28.8127 137.852 28.9586C137.998 29.1229 138.115 29.2543 138.279 29.4404Z" fill="#1E1E1E"/>
<path d="M103.886 5.59949C104.018 6.09587 104.164 6.5886 104.28 7.08863C104.445 7.79671 104.562 8.51573 104.74 9.22016C104.905 9.86253 105.149 9.98298 105.792 9.88443C106.182 9.82238 106.58 9.77859 106.978 9.77494C107.102 9.77494 107.23 9.92458 107.354 10.0085C107.259 10.1071 107.178 10.2531 107.065 10.2969C106.649 10.4538 106.215 10.567 105.795 10.713C104.551 11.1436 104.058 11.9284 104.127 13.246C104.16 13.8372 104.116 14.4358 104.069 15.0307C104.058 15.1767 103.894 15.3118 103.802 15.4505C103.697 15.3264 103.521 15.2132 103.496 15.0745C103.346 14.2789 103.233 13.4759 103.105 12.6802C103.076 12.5014 103.029 12.3225 102.977 12.151C102.678 11.1473 102.328 10.9575 101.309 11.1874C100.926 11.275 100.525 11.3115 100.131 11.3298C100.014 11.3334 99.7948 11.1984 99.7948 11.129C99.7948 10.9976 99.8897 10.8042 100.003 10.7458C100.324 10.5779 100.667 10.4538 101.01 10.337C102.612 9.78954 103.467 8.83327 103.401 7.17258C103.379 6.65795 103.591 6.13602 103.697 5.62139L103.883 5.60679L103.886 5.59949ZM103.828 9.78223C103.598 10.0049 103.39 10.2056 103.167 10.4173C103.342 10.6181 103.525 10.8261 103.722 11.056C103.912 10.8516 104.087 10.6619 104.262 10.4721C104.113 10.2312 103.97 10.0085 103.828 9.78223Z" fill="#1E1E1E"/>
<path d="M133.435 0.42041C133.534 0.945991 133.64 1.47157 133.727 2.0008C133.866 2.83662 134.012 2.95707 134.863 2.97167C135.103 2.97532 135.341 3.07386 135.582 3.12861C135.363 3.26001 135.155 3.44615 134.917 3.5082C133.899 3.77099 133.512 4.25277 133.435 5.43898C133.425 5.61782 133.435 5.80031 133.326 6.01566C133.271 5.90251 133.195 5.79302 133.162 5.67257C133.071 5.34043 133.001 5.00099 132.91 4.66886C132.684 3.86589 132.348 3.63594 131.512 3.61404C131.319 3.61039 131.132 3.46075 130.943 3.38045C131.089 3.23811 131.209 3.03007 131.384 2.96437C132.373 2.57748 133.034 1.94241 133.151 0.840145C133.165 0.697801 133.224 0.559105 133.264 0.42041C133.322 0.42041 133.377 0.42041 133.435 0.42041ZM132.998 2.57383C132.848 2.74173 132.702 2.90962 132.56 3.07021C132.822 3.28556 133.049 3.47535 133.315 3.69799C133.684 3.21256 133.027 2.97532 132.998 2.57383Z" fill="#1E1E1E"/>
<path d="M80.2168 58.7343C81.5563 58.789 82.8958 58.8328 84.2353 58.9021C85.3156 58.9569 85.7938 59.4022 85.8668 60.446C85.9617 61.7636 85.8412 63.063 85.3959 64.3149C84.6331 66.4501 82.9943 67.5961 80.8555 67.8261C77.9429 68.1363 75.1508 66.5012 74.669 63.0265C74.5449 62.1323 74.523 61.2089 74.585 60.3073C74.658 59.2197 75.1362 58.8255 76.2348 58.8072C77.5597 58.7853 78.8846 58.8036 80.2095 58.8036C80.2095 58.7817 80.2095 58.7598 80.2095 58.7379L80.2168 58.7343ZM85.2573 61.2417C85.2281 61.2344 85.1989 61.2308 85.1697 61.2235C85.1697 61.0738 85.1697 60.9242 85.1697 60.7745C85.1478 59.7672 84.9762 59.5993 83.9725 59.5737C83.0929 59.5518 82.2169 59.5044 81.3373 59.4971C79.6292 59.4825 77.9247 59.4788 76.2165 59.4934C75.5158 59.5007 75.3515 59.6321 75.2968 60.3256C75.2493 60.9497 75.2749 61.5848 75.3296 62.2089C75.5304 64.4718 76.556 66.0595 78.8152 66.8589C80.6913 67.5231 83.9798 66.4245 84.6696 63.9572C84.9178 63.0703 85.0602 62.1505 85.25 61.2454L85.2573 61.2417Z" fill="#1E1E1E"/>
<path d="M83.5637 21.6481C84.5419 21.8999 85.3339 22.232 85.9507 22.8598C86.115 23.0241 86.1807 23.3891 86.1332 23.6336C86.0493 24.0825 85.8741 24.5205 85.6843 24.9403C85.5128 25.3198 85.2573 25.3563 85.0054 25.0278C84.447 24.3088 83.7572 23.9365 82.8265 23.9803C82.4432 23.9986 82.1841 23.765 82.3228 23.3416C82.4615 22.9219 82.6038 22.4839 82.8484 22.1299C83.0126 21.8926 83.3593 21.7795 83.5637 21.6481ZM82.6914 23.6883C84.0893 23.6701 83.79 23.3745 85.3522 24.5461C85.4653 24.2212 85.6296 23.9219 85.6551 23.6117C85.6734 23.3891 85.5711 23.046 85.4069 22.9401C84.9215 22.6335 84.3886 22.3963 83.8557 22.1737C83.5455 22.0459 83.2389 22.1591 83.1038 22.4729C82.9396 22.8562 82.8338 23.265 82.6914 23.692V23.6883Z" fill="#1E1E1E"/>
<path d="M78.1729 23.9145C77.4429 23.9109 76.8736 24.2284 76.4064 24.7723C75.9903 25.2577 75.7859 25.2212 75.5377 24.6372C74.8734 23.0787 75.0377 22.659 76.5889 21.9546C76.6655 21.9217 76.7385 21.8889 76.8152 21.856C78.005 21.3706 78.6109 21.6735 78.9467 22.9218C79.1657 23.7467 79.0416 23.9109 78.1729 23.9182V23.9145ZM75.983 24.5241C76.7312 23.6226 77.5707 23.3342 78.6583 23.7357C78.5415 23.2685 78.4832 22.9254 78.3664 22.6006C78.1766 22.075 77.8882 21.9217 77.359 22.1152C76.8809 22.2904 76.3991 22.4984 75.9757 22.7758C75.7968 22.8962 75.6801 23.2357 75.6837 23.4766C75.6873 23.7759 75.8443 24.0715 75.9793 24.5241H75.983Z" fill="#1E1E1E"/>
<path d="M83.0381 29.4807C83.1439 29.3456 83.2534 29.2143 83.3592 29.0792C83.3154 29.0829 83.2753 29.0902 83.2315 29.0938C83.1549 28.8055 83.0381 28.5208 83.0308 28.2288C83.0308 28.1375 83.3994 27.9185 83.4724 27.966C83.7279 28.1266 83.9286 28.3748 84.1075 28.6522C84.6914 28.6777 85.3557 28.5098 85.9032 29.0537C84.8995 28.8748 83.9578 29.0537 83.0344 29.4807H83.0381Z" fill="#1E1E1E"/>
<path d="M77.8917 29.1193C77.91 29.1412 78.0232 29.2726 78.1399 29.404C77.2238 28.9733 76.2968 28.7251 75.2091 28.9879C75.6069 28.5207 75.6799 28.5098 76.9537 28.5974C77.264 28.3017 77.4793 28.0499 77.7458 27.8747C77.8042 27.8346 78.1764 28.0755 78.1691 28.1667C78.1472 28.455 78.0158 28.7324 77.8917 29.1157V29.1193Z" fill="#1E1E1E"/>
<path d="M79.0853 29.5536C79.4905 28.9623 79.9065 28.4513 80.6694 28.4988C81.3555 28.5426 81.7023 29.039 82.0636 29.5791C81.0635 28.8163 80.089 28.7871 79.0817 29.5536H79.0853Z" fill="#1E1E1E"/>
<path d="M82.0453 35.7182H78.8882C79.4941 35.0138 81.5051 35.043 82.0453 35.7182Z" fill="#1E1E1E"/>
<path d="M68.4204 148.579C30.6917 148.579 0 117.888 0 80.1591C0 42.4304 30.6917 11.7386 68.4204 11.7386C68.7708 11.7386 69.1212 11.7386 69.4679 11.7459L69.3475 19.7757C69.0409 19.772 68.7307 19.7684 68.4241 19.7684C35.1263 19.7684 8.03336 46.8613 8.03336 80.1591C8.03336 113.457 35.1263 140.55 68.4241 140.55C80.2569 140.55 91.7175 137.13 101.558 130.659L101.601 140.01C92.0533 145.09 81.83 148.579 68.4241 148.579H68.4204Z" fill="#1E1E1E"/>
<path d="M128.486 73.8557C126.826 60.4278 122.577 51.2302 114.474 41.069L114.453 29.3091C128.008 42.2077 134.841 57.0773 136.549 74.0491L128.486 73.8557Z" fill="#1E1E1E"/>
<path d="M108.532 34.959C102.12 29.5171 96.9952 26.5826 91.2868 24.2467C91.2503 23.1115 90.9875 15.4249 90.9875 15.4249C98.0829 18.447 101.138 19.5967 108.66 24.8197L108.536 34.959H108.532Z" fill="#1E1E1E"/>
<defs>
<linearGradient id="paint0_linear_419_600" x1="120.606" y1="122.578" x2="120.606" y2="79.2173" gradientUnits="userSpaceOnUse">
<stop stop-color="#FEFEFD" stop-opacity="0"/>
<stop offset="0.08" stop-color="#FEEFCD" stop-opacity="0.21"/>
<stop offset="0.17" stop-color="#FEE2A2" stop-opacity="0.4"/>
<stop offset="0.26" stop-color="#FDD67C" stop-opacity="0.56"/>
<stop offset="0.35" stop-color="#FDCC5D" stop-opacity="0.7"/>
<stop offset="0.45" stop-color="#FDC443" stop-opacity="0.81"/>
<stop offset="0.56" stop-color="#FDBE2F" stop-opacity="0.89"/>
<stop offset="0.67" stop-color="#FDBA20" stop-opacity="0.95"/>
<stop offset="0.81" stop-color="#FDB718" stop-opacity="0.99"/>
<stop offset="1" stop-color="#FDB716"/>
</linearGradient>
</defs>
</svg>
