<svg width="149" height="149" viewBox="0 0 149 149" fill="none" xmlns="http://www.w3.org/2000/svg">
<path d="M145.24 66.4666C144.907 63.5284 143.87 60.7644 142.864 58.0163C140.702 52.1241 138.5 46.2476 136.544 40.2841C136.148 39.0803 135.534 37.9399 134.94 36.8113C134.283 35.5719 133.554 34.3721 132.822 33.1762C131.38 30.824 129.793 28.5867 127.745 26.6979C126.146 25.2248 124.649 23.633 122.997 22.2193C121.445 20.8888 119.794 19.6612 118.107 18.5089C115.478 16.7151 112.785 15.0124 110.104 13.2938C109.138 12.6761 108.156 12.0702 107.134 11.5396C106.053 10.9813 104.881 10.712 103.646 10.7516C103.392 10.7595 103.083 10.7001 102.885 10.5536C101.777 9.74183 100.498 9.30229 99.2265 8.8667C98.3316 8.56179 97.397 8.33608 96.4665 8.17373C94.7044 7.86882 92.9264 7.63519 91.1722 7.3778C91.0336 6.59375 90.8039 6.34824 90.0713 6.19381C89.8773 6.15025 89.6793 6.11857 89.4853 6.10669C87.9607 5.99977 85.8581 4.36436 84.3335 4.35644C79.7678 4.33664 75.1982 4.33268 70.6325 4.42376C68.1536 4.47127 66.2529 6.17797 63.774 6.32052C63.58 6.32844 63.3067 6.24528 63.1919 6.10669C62.9108 5.7701 62.5979 5.65527 62.194 5.75822C61.8456 5.8493 61.4892 5.92454 61.1565 6.05125C56.7096 7.74211 52.2588 9.429 47.8198 11.1476C42.668 13.1394 37.6588 15.4559 32.6971 17.8674C31.6993 18.3505 31.5844 18.6198 31.9448 19.5147C29.5807 21.1105 27.2207 22.7064 24.8685 24.2943C24.8052 24.2467 24.7656 24.2349 24.7497 24.2032C24.5319 23.823 24.3141 23.3835 23.7677 23.6171C23.2489 23.8389 23.3083 24.2863 23.4509 24.7259C23.5816 25.1219 23.3994 25.3832 23.0826 25.5852C20.8612 26.9949 19.1069 28.9788 17.032 30.5706C16.8578 30.7052 16.739 31.0458 16.7667 31.2715C16.7904 31.4655 17.032 31.7506 17.2181 31.7863C17.4874 31.8378 17.8358 31.7665 18.0774 31.6279C18.5051 31.3745 18.9129 31.224 19.4871 31.4695C19.2812 31.6912 19.1228 31.9051 18.9208 32.0754C17.9071 32.9386 17.1072 33.9563 16.4816 35.1324C16.3113 35.4571 15.9589 35.7461 15.6183 35.9045C13.8245 36.7361 12.5534 38.0983 11.6585 39.8129C10.621 41.8047 9.54788 43.7925 8.65692 45.8517C7.9679 47.4435 7.4452 49.1225 7.01358 50.8015C6.58592 52.4606 6.15825 54.104 5.48508 55.684C4.58224 57.7945 4.03182 60.0041 3.64771 62.2692C2.83594 67.0566 2.74487 71.8758 3.12105 76.687C3.4022 80.3023 3.92886 83.9058 4.507 87.4894C5.86918 95.9437 9.20733 103.657 13.6305 110.924C15.5668 114.104 17.6814 117.176 19.6257 120.348C21.1621 122.851 23.043 125.001 25.3714 126.791C28.2502 129 31.1924 131.135 33.695 133.808C34.3642 134.524 35.2671 135.107 36.1739 135.495C38.5537 136.508 40.9692 137.443 43.4085 138.298C46.4259 139.363 49.4869 140.31 52.5241 141.316C56.7651 142.717 61.01 144.064 65.4807 144.571C69.1673 144.99 72.8539 145.299 76.5683 145.133C79.1897 145.014 81.5973 144.289 83.6366 142.563C83.9177 142.325 84.2108 142.278 84.5315 142.452C86.4916 143.501 88.6141 143.89 90.8039 144.084C92.0473 144.198 93.2669 144.183 94.4113 143.688C96.1418 142.939 97.896 142.214 99.5393 141.3C103.464 139.106 106.968 136.306 110.453 133.487C112.318 131.974 114.44 130.925 116.555 129.848C116.82 129.709 117.133 129.638 117.434 129.602C118.764 129.436 119.865 128.834 120.752 127.856C123.397 124.954 125.924 121.952 128.086 118.673C130.387 115.181 132.204 111.415 134.018 107.665C134.616 106.429 135.685 105.451 136.243 104.196C137.015 102.485 137.756 100.763 138.488 99.0363C139.019 97.785 139.055 96.2724 139.585 95.025C140.052 93.9242 140.417 92.7521 140.639 91.576C140.963 89.8297 142.373 88.2616 142.607 86.4955C142.666 86.0678 142.001 85.6877 142.056 85.26C142.08 85.0818 142.112 84.9353 142.171 84.8126C142.274 84.5948 142.456 84.4641 142.801 84.4047C143.909 84.2067 144.234 83.2761 144.666 82.2545C144.876 81.7635 144.99 81.225 145.105 80.7023C146.139 75.9663 145.771 71.2145 145.24 66.4706V66.4666ZM23.2727 68.7039C22.7302 69.0405 22.2352 69.3494 21.7798 69.6385C21.269 69.2227 20.7384 68.7871 20.3068 68.4386C20.8374 67.904 21.4274 67.3101 22.0174 66.7161C22.1323 67.512 22.5085 68.2525 23.2727 68.7039ZM27.0702 32.5545C27.2801 32.0476 27.5295 31.5368 27.8701 31.1131C28.7492 30.0202 29.6797 28.9669 30.5984 27.9056C30.7251 27.7591 30.8716 27.5691 31.0419 27.5334C32.0675 27.3156 32.6417 26.5039 33.3624 25.8663C36.1422 23.4033 38.728 20.7106 41.9394 18.7505C43.5629 17.7605 45.0756 16.5844 46.6398 15.4955C47.4634 14.9253 48.2356 14.2363 49.1344 13.8205C50.5283 13.175 52.0133 12.7157 53.4586 12.1771C53.6922 13.0523 54.0605 13.27 54.8841 12.9731C55.5256 12.7434 56.1671 12.49 56.7651 12.1653C58.7608 11.0961 60.9229 10.6882 63.1483 10.5734C65.0095 10.4744 66.8825 10.4269 68.7476 10.4467C69.4128 10.4546 70.0979 10.6486 70.7314 10.8743C73.3687 11.8207 76.0535 12.0306 78.8016 11.5119C79.0471 11.4644 79.2926 11.3931 79.5302 11.3178C80.4014 11.0486 80.6271 10.6526 80.3974 9.75371C80.5321 9.73391 80.6667 9.69035 80.8013 9.69827C83.3832 9.83686 85.9729 9.89626 88.5428 10.1537C89.9803 10.3002 91.3781 10.7793 92.7957 11.1001C93.2432 11.203 93.4649 11.4406 93.5916 11.9158C93.7302 12.4385 93.9757 12.977 94.3163 13.4007C96.0744 15.5905 96.7476 18.1882 96.9139 20.873C97.0842 23.6488 96.9377 26.4445 96.8862 29.2322C96.807 33.9959 96.6922 38.7596 96.5932 43.5272C96.5813 44.0658 96.5972 44.6043 96.6051 45.1468C96.6288 46.6159 97.1991 47.8197 98.3157 48.7859C99.6066 49.9026 100.898 51.0272 102.129 52.2072C102.759 52.8091 103.329 53.4981 103.8 54.2307C105.241 56.4878 106.362 58.9033 106.917 61.5406C107.154 62.681 107.344 63.8373 107.451 64.9975C107.594 66.5023 107.705 68.0149 107.701 69.5236C107.701 71.2065 107.538 72.8934 107.483 74.5803C107.459 75.202 107.439 75.8514 107.59 76.4454C107.891 77.6373 108.702 78.3976 109.914 78.6748C110.358 78.7738 110.623 79.0114 110.857 79.3915C112.124 81.4625 112.65 83.6642 112.037 86.052C111.882 86.6499 111.597 87.2241 111.292 87.7627C110.948 88.3685 110.476 88.9071 110.124 89.5089C109.415 90.7167 109.284 91.9957 109.665 93.3619C109.815 93.9123 109.795 94.5221 109.803 95.1042C109.831 96.8624 109.756 98.6285 109.863 100.379C109.993 102.557 110.148 104.723 109.677 106.881C108.964 110.148 106.988 112.444 104.085 113.953C102.212 114.923 100.22 115.616 98.1415 116.028C96.6526 116.321 95.1993 116.697 93.8055 117.315C93.358 117.513 92.7838 117.509 92.277 117.473C91.192 117.402 90.1624 117.513 89.2041 118.071C86.8718 119.441 86.4679 122.605 88.3924 124.502C88.5705 124.68 88.7527 124.878 88.9744 124.981C91.0613 125.983 93.1481 126.989 95.2587 127.943C95.8289 128.205 95.9794 128.268 95.8448 128.874C95.5557 130.133 95.2389 131.388 94.9261 132.648C94.8905 132.782 94.8429 132.941 94.7439 133.032C93.853 133.883 93.061 134.877 91.7899 135.21C90.895 135.439 90.0634 135.206 89.2952 134.79C88.3924 134.303 87.5172 133.764 86.6698 133.19C85.0344 132.089 83.2881 131.226 81.4745 130.458C77.582 128.81 73.7211 127.088 69.8524 125.385C65.053 123.279 60.123 121.635 54.9079 120.907C51.8826 120.479 48.8652 119.988 45.8438 119.525C45.7171 119.505 45.5943 119.485 45.4716 119.453C45.1984 119.39 45.0954 119.228 45.2696 118.986C46.3665 117.469 46.8615 115.695 47.4357 113.953C47.5782 113.518 47.8198 113.098 48.0811 112.718C48.6395 111.902 49.1978 111.078 49.8314 110.322C51.7875 107.962 52.3617 105.198 52.2073 102.236C52.0529 99.2621 51.2253 96.4862 49.38 94.1024C46.1725 89.9525 45.1429 85.07 44.6123 80.037C44.3787 77.8076 44.3628 75.5505 44.3074 73.3053C44.1609 67.8011 42.3354 62.7919 39.6942 58.0638C36.7995 52.8843 33.7782 47.7722 30.8202 42.6244C29.747 40.7553 28.9432 38.7873 28.5829 36.645C28.3809 35.4214 27.9295 34.2929 27.1811 33.2871C27.0464 33.1089 26.987 32.7564 27.0702 32.5545ZM113.898 43.4678C113.276 42.9689 112.627 42.4501 111.989 41.9433C112.425 41.377 112.912 40.7514 113.347 40.1851C113.894 40.791 114.472 41.4325 115.058 42.0858C114.694 42.5175 114.286 43.0045 113.898 43.4678ZM33.2753 98.0068C33.8811 98.8581 34.1979 100.145 35.7225 100.137C34.6652 100.846 33.9682 101.753 33.4693 102.877C33.0694 101.919 32.4239 101.226 31.6201 100.838C32.1903 99.856 32.7328 98.9294 33.2753 98.0068ZM120.669 102.616C120.392 101.602 119.917 100.612 118.935 100.018C119.505 99.3927 120.043 98.7988 120.645 98.1414C120.978 98.9928 121.6 99.6264 122.399 99.9392C121.806 100.854 121.239 101.733 120.669 102.616Z" fill="#FDB716"/>
<path d="M62.4592 78.6906C61.8455 78.8213 61.3109 78.944 60.7724 79.0549C59.1686 79.3836 58.044 78.5956 57.0659 77.4591C56.8442 77.2017 56.5749 76.9879 56.365 76.7265C56.1908 76.5087 56.0364 76.2632 55.9295 76.0058C55.7354 75.5267 55.6127 75.0159 55.4107 74.5407C55.0623 73.717 54.9197 72.8894 55.2404 72.0262C55.2484 72.0103 55.2563 71.9905 55.2563 71.9747C55.2563 71.5985 55.3988 71.1233 55.2246 70.8659C54.987 70.5175 54.5198 70.7036 54.1317 70.8461C53.6169 71.0402 53.2288 70.7788 52.9002 70.4026C50.7935 67.9911 49.9184 65.144 50.0372 61.988C50.1164 59.8536 50.5837 57.8103 51.9815 56.0997C52.3102 55.6997 52.6982 55.3433 53.0903 55.0028C53.6407 54.5237 53.9891 54.5395 54.5673 54.9909C54.6465 55.0543 54.7415 55.0939 54.9078 55.1889C54.9593 54.9751 55.0108 54.8167 55.0345 54.6543C55.185 53.605 55.3078 52.5556 55.486 51.5102C55.7156 50.148 56.4997 49.0234 57.1451 47.8474C57.5174 47.1663 58.242 46.9326 58.9825 46.8653C59.6794 46.802 60.2655 46.1882 60.9664 46.2001C61.394 46.208 61.6396 46.6436 61.6475 46.2278C61.6712 45.0992 61.9167 44.0499 62.8909 43.3173C62.974 43.2539 63.0374 43.1589 63.0968 43.0718C63.7264 42.1808 64.3441 41.9353 65.3579 42.3432C65.9795 42.5926 66.5537 42.9847 67.116 43.3648C67.3853 43.547 67.5397 43.5866 67.8011 43.3529C68.5218 42.7075 69.3335 42.8382 69.8404 43.6697C70.3354 44.4736 70.5334 45.3804 70.5017 46.303C70.3987 49.4273 70.2879 52.5517 70.1176 55.676C70.0265 57.2876 69.777 58.8914 69.6424 60.507C69.5791 61.291 69.5751 62.087 69.6147 62.871C69.8087 66.8467 69.7335 70.8145 69.4682 74.7822C69.3019 77.265 68.997 82.2386 68.997 82.2386L66.8151 83.1137C66.8151 83.1137 64.2174 83.2999 63.3938 81.7595C62.883 80.8012 62.4197 79.835 62.4592 78.7025V78.6906Z" fill="#FDB716"/>
<path d="M84.5829 79.3797C84.0721 79.2015 83.8543 78.7936 83.7711 78.2828C83.7553 78.1838 83.6998 78.0333 83.6286 78.0096C83.1296 77.8274 82.8287 77.4829 82.7099 76.9681C82.702 76.9365 82.6703 76.8929 82.6465 76.885C82.0961 76.7464 81.5378 76.6197 80.9874 76.4732C80.532 76.3504 80.231 76.5286 79.8588 76.7979C79.5618 77.0156 79.0787 77.0038 78.6708 77.0434C78.1442 77.0949 77.7403 77.4156 77.7126 77.9423C77.6809 78.5521 77.7284 79.1619 77.2493 79.6608C77.1582 79.7559 77.2017 80.0053 77.2136 80.1796C77.2651 80.8805 77.2849 81.5853 77.4037 82.2743C77.5898 83.3791 75.7881 85.0423 74.7942 85.0343C74.22 85.0343 73.8517 84.7057 73.8398 84.1038C73.8319 83.6207 73.8636 83.1336 73.8953 82.6505C74.0972 79.7242 73.5864 76.8375 73.4438 73.9309C73.4438 73.8755 73.4359 73.824 73.432 73.7686C73.3251 72.149 73.4003 72.0698 74.9605 71.5827C75.2812 71.4837 75.5742 71.2303 75.8316 70.9967C76.2989 70.5651 76.7226 70.3473 77.4235 70.5849C77.7799 70.7076 78.3976 70.4542 78.7263 70.1691C79.447 69.5553 80.0964 68.8465 80.7023 68.1139C81.3121 67.3734 81.8387 66.5656 82.3971 65.7816C82.4485 65.7103 82.4763 65.6192 82.4961 65.5361C82.8406 63.9878 82.8683 62.4355 82.5594 60.8753C82.5317 60.7407 82.4525 60.614 82.3812 60.4912C82.1357 60.0873 81.7872 59.7151 81.6447 59.2795C81.217 57.9411 80.2389 57.0976 79.0946 56.4799C78.1086 55.9453 77.0077 55.6246 75.9702 55.185C75.4277 54.9554 74.8773 54.7178 74.3744 54.4129C73.8755 54.1079 73.824 53.6644 74.1012 53.1536C74.1923 52.9873 74.2992 52.7774 74.2675 52.6111C73.9151 50.7579 74.2913 48.9166 74.3229 47.0673C74.3388 46.0101 74.3229 44.9488 74.4417 43.8995C74.5249 43.1431 74.2041 42.5373 74.4615 41.8205C74.6437 41.3137 75.697 41.0682 76.1841 41.2899C76.4058 41.3929 76.6513 41.4562 76.8929 41.4919C77.5621 41.5909 77.8828 41.9037 77.9541 42.5769C78.0373 43.3807 78.1046 44.1885 78.1877 44.9924C78.2036 45.1468 78.2155 45.3686 78.3145 45.4438C79.2054 46.117 79.2727 47.1822 79.5974 48.1167C80.0132 49.3086 80.7933 49.6492 81.8981 48.9879C83.1455 48.2395 84.4087 47.499 85.5966 46.6634C87.2122 45.527 87.5053 46.1962 88.4794 47.4237C88.8635 47.9068 89.2674 48.3741 89.6911 48.8216C89.7782 48.9166 89.992 48.9007 90.1504 48.9166C91.0176 48.9918 91.382 49.5898 91.0731 50.3817C90.9662 50.651 90.9978 50.9757 90.9107 51.2569C90.6771 52.0171 90.4553 52.7854 90.1425 53.514C90 53.8426 89.6673 54.0961 89.3981 54.3574C89.0496 54.69 88.9823 55.0623 88.9348 55.5454C88.8595 56.373 88.6338 57.2045 88.3368 57.9846C88.1388 58.5034 88.1072 58.8598 88.6061 59.1647C89.4297 58.9033 89.3822 58.9429 89.9247 59.6121C90.1663 59.9091 90.5979 60.1546 91.081 60.02C91.184 59.9923 91.2948 59.921 91.3899 59.9368C92.1145 60.0636 92.8511 60.1546 93.548 60.3764C93.7816 60.4516 94.5696 60.8436 94.5973 61.1129C94.7478 62.6889 94.332 64.2689 94.3914 65.8489C94.4152 66.4468 93.7301 66.9616 93.1362 66.9418C92.7837 66.9299 92.4234 67.0091 92.071 66.9735C91.6789 66.9339 91.2473 66.8943 90.9186 66.7082C90.491 66.4666 90.2574 66.7913 89.996 66.918C89.3228 67.2428 89.0298 67.8763 88.3685 68.2208C88.0478 68.3871 87.921 68.5653 88.1111 68.89C88.5071 69.5711 88.5744 70.0463 88.9862 70.7195C89.3941 71.3848 89.9643 71.9787 89.7069 72.8855C89.6594 73.0558 89.8614 73.3092 89.9802 73.5033C90.2296 73.9191 90.5147 74.315 90.7523 74.7348C90.982 75.1347 90.9266 75.5069 90.6098 75.8713C90.0079 76.5603 89.4258 77.2651 88.8516 77.9779C88.5309 78.3778 88.2458 78.7699 87.6399 78.7501C87.4894 78.7461 87.331 79.0075 87.1726 79.1381C86.8638 79.3916 86.547 79.641 86.2342 79.8945C86.0956 80.0053 85.9372 80.0964 85.8223 80.2231C85.5491 80.5201 85.2442 80.7537 84.8324 80.5478C84.4007 80.334 84.4443 79.9499 84.575 79.5658C84.5908 79.5183 84.5868 79.4628 84.5908 79.3757L84.5829 79.3797Z" fill="#FDB716"/>
<path d="M98.5295 54.9315C99.8719 55.0503 101.444 55.4186 102.957 55.9928C103.741 56.2897 104.156 56.9788 104.501 57.7153C104.865 58.4914 105.301 59.2359 105.637 60.0239C105.93 60.7089 106.255 61.4217 106.334 62.1464C106.477 63.4175 105.313 64.2292 104.164 63.6551C103.586 63.366 103.135 62.7997 102.66 62.3206C102.22 61.8771 101.844 61.3702 101.404 60.9267C101.29 60.8119 101.048 60.8119 100.858 60.7881C100.256 60.7129 99.6462 60.6891 99.0562 60.5703C98.4266 60.4476 97.9118 60.6456 97.4643 61.0297C96.8862 61.5247 96.2922 61.9365 95.528 61.5167C94.732 61.0812 94.5974 60.2971 94.7399 59.5012C94.8944 58.6221 95.1082 57.739 95.4092 56.8996C95.9477 55.3909 96.6605 54.9355 98.5295 54.9315Z" fill="#1E1E1E"/>
<path d="M147.984 68.494C147.893 67.1675 147.754 65.8409 147.576 64.5263C145.39 48.4532 138.758 34.4829 127.531 22.7736C117.216 12.0147 104.707 5.04542 90.1623 1.76667C84.1157 0.404479 77.9898 -0.217217 71.7847 0.0678914C70.4027 0.131249 69.0128 0.135208 67.6388 0.277763C65.7262 0.475755 63.7858 0.610391 61.9326 1.07369C57.9411 2.07949 53.9812 3.21993 50.0452 4.41976C47.4871 5.19985 44.9013 5.99182 42.4819 7.1085C33.1247 11.4366 25.015 17.4991 18.3149 25.3277C4.17431 41.8482 -1.90405 61.0099 0.519376 82.6069C2.66165 101.67 11.1318 117.663 25.708 130.141C42.3353 144.38 61.7505 150.209 83.4702 147.525C102.145 145.216 117.77 136.75 130.101 122.538C142.135 108.667 147.98 92.3798 148.245 73.8477C148.166 72.1965 148.107 70.3433 147.984 68.494ZM141.442 86.2975C140.682 90.5979 139.538 94.7557 137.993 98.771C137.32 100.517 136.572 102.24 135.748 103.931C133.143 109.284 129.769 114.353 125.599 119.109C114.012 132.331 99.369 140.076 81.9021 142.036C62.4949 144.214 45.0914 138.991 30.1073 126.462C16.2162 114.848 8.14208 99.8481 6.12652 81.8585C3.90108 61.9801 9.52803 44.3548 22.5084 29.1252C23.7557 27.6641 25.2724 26.4009 26.7969 25.2129C30.0796 22.6509 33.3663 20.0691 36.8074 17.7248C42.8739 13.5908 49.4037 10.3516 56.4957 8.33605C60.3962 7.22333 64.3956 6.61748 68.4109 6.11853C71.167 5.77403 73.923 5.56812 76.6989 5.67899C85.6917 6.0433 94.2885 8.07074 102.477 11.8009C110.294 15.3608 117.224 20.2037 123.176 26.3929C133.946 37.6033 140.25 50.9479 142.092 66.3913C142.215 67.4288 142.317 68.4663 142.377 69.5077C142.464 71.0521 142.508 72.5964 142.571 74.2635C142.515 77.7799 142.238 81.217 141.727 84.571C141.64 85.1491 141.545 85.7233 141.442 86.2975Z" fill="#1E1E1E"/>
<path d="M110.468 90.5582C110.813 91.1681 111.169 91.7145 111.439 92.2966C112.108 93.7538 112.14 95.2269 111.383 96.6643C111.007 97.3811 110.595 98.078 110.148 98.7512C109.934 99.0679 109.898 99.3333 109.989 99.6976C110.274 100.846 110.651 101.994 110.754 103.162C111.245 108.698 108.005 114.191 102.961 116.519C100.62 117.6 98.1256 118.127 95.6032 118.578C93.7619 118.907 91.9285 119.275 90.099 119.651C89.5921 119.758 89.0932 119.936 88.6141 120.13C87.9211 120.412 87.8419 121.18 88.4478 121.607C90.2653 122.898 92.071 124.205 93.9123 125.464C95.7735 126.739 96.2922 127.848 95.8368 130.05C95.3894 132.22 94.4984 134.227 93.3619 136.112C93.0768 136.587 92.5422 136.96 92.0393 137.237C91.7938 137.372 91.3226 137.269 91.0256 137.126C89.9248 136.595 88.8398 136.029 87.7706 135.431C84.1909 133.435 80.6785 131.309 77.0315 129.44C69.3455 125.504 61.2436 122.756 52.7062 121.326C50.4174 120.942 48.1167 121.073 45.8161 121.097C43.262 121.12 40.7871 121.647 38.2963 122.142C37.0212 122.395 36.3916 121.639 36.8114 120.408C37.3737 118.764 38.5022 117.537 39.8882 116.547C41.4721 115.418 43.2422 114.749 45.1825 114.575C45.531 114.543 45.622 114.393 45.6814 114.08C45.8794 113.003 46.0774 111.922 46.3388 110.856C46.909 108.544 48.2236 106.881 50.6035 106.219C50.9282 106.128 51.0708 105.946 51.0906 105.61C51.1777 104.085 51.2727 102.557 51.3757 101.032C51.443 100.042 51.0747 99.2184 50.5124 98.4304C49.3403 96.795 48.1247 95.1794 47.0595 93.4727C44.8063 89.8613 43.0719 86.0123 42.3116 81.7951C41.6899 78.358 41.6701 74.9446 42.7828 71.5589C43.2065 70.272 42.866 68.989 42.0819 67.8287C41.3573 66.7596 40.6485 65.6667 40.0743 64.5104C36.8549 58.0162 33.6791 51.5023 30.4954 44.9883C29.5094 42.9688 28.5234 40.9453 27.5889 38.9021C26.9593 37.524 26.4247 36.0827 26.4445 34.5502C26.4564 33.5563 26.5593 32.5228 26.8642 31.5882C27.2404 30.4359 27.8423 29.3549 28.4046 28.2699C28.8758 27.3631 29.7074 26.8166 30.6578 26.5315C31.8061 26.183 32.6892 25.5019 33.5049 24.6585C41.2622 16.6596 50.7857 12.0226 61.6356 9.94372C65.0926 9.28242 68.5654 9.13194 72.0104 10.1021C72.4421 10.2249 72.8816 10.3437 73.2974 10.51C74.2794 10.902 75.2377 10.8505 76.2514 10.5852C78.4571 10.0071 80.6667 9.40914 82.9079 8.99731C85.4818 8.52609 88.032 8.71616 90.4633 9.83284C91.2474 10.1932 92.0829 10.4229 92.8828 10.7515C95.5953 11.8682 96.9495 13.9669 97.1515 16.8378C97.2307 17.9466 97.2584 19.0672 97.2188 20.1799C96.9891 26.2622 97.2228 32.3366 97.5514 38.4071C97.7217 41.6027 97.8761 44.8022 98.0306 47.9978C98.0464 48.3305 98.0741 48.6116 98.4028 48.8254C102.83 51.6924 105.574 55.8225 107.17 60.7564C108.849 65.9597 109.261 71.2461 107.998 76.6117C107.902 77.0116 108.013 77.1423 108.401 77.2254C111.755 77.9461 113.957 80.3894 114.258 83.7513C114.444 85.8302 113.605 87.5448 112.187 88.9941C111.648 89.5445 111.047 90.0316 110.472 90.5464L110.468 90.5582ZM101.119 114.001C100.83 113.902 100.7 113.85 100.565 113.806C98.9968 113.335 97.6425 112.508 96.4902 111.359C94.3796 109.257 93.2114 106.663 92.6373 103.776C92.1898 101.539 92.1621 99.3055 92.9422 97.1197C93.9995 94.1577 96.114 92.6372 99.2581 92.5619C100.284 92.5382 101.309 92.5223 102.331 92.459C104.354 92.3283 106.307 91.8412 108.203 91.1285C108.382 91.0611 108.635 90.8077 108.615 90.677C108.496 89.8811 108.928 89.4099 109.447 88.9189C109.914 88.4793 110.342 87.9764 110.69 87.4379C112.334 84.9036 111.645 81.8941 109.031 80.3656C108.298 79.934 107.451 79.6924 106.639 79.3994C105.732 79.0747 105.447 78.5758 105.701 77.661C105.744 77.5066 105.788 77.3482 105.808 77.1898C106.338 73.028 105.843 68.9375 104.952 64.8707C104.897 64.6094 104.762 64.5856 104.509 64.546C103.994 64.4668 103.46 64.3361 103 64.0986C102.58 63.8808 102.224 63.5165 101.876 63.1799C100.973 62.3087 99.9353 62.087 98.7394 62.4235C98.0147 62.6255 97.2742 62.8037 96.5338 62.9264C96.1219 62.9938 96.015 63.1759 95.9913 63.56C95.9358 64.4193 95.8685 65.2786 95.7339 66.126C95.5042 67.5832 94.4944 68.395 93.0214 68.3673C92.7877 68.3633 92.5541 68.3198 92.3205 68.3158C91.6196 68.3039 90.9147 68.2485 90.2178 68.3079C89.2912 68.3871 88.8398 69.1553 89.1843 70.0106C89.315 70.3393 89.4932 70.664 89.7189 70.9372C90.3683 71.7292 91.0811 72.4697 91.7146 73.2735C92.8194 74.6793 92.8551 75.9068 91.58 77.1225C90.1426 78.4926 88.5824 79.7518 86.9707 80.92C85.7313 81.8189 84.6146 81.5971 83.5336 80.5161C83.0624 80.0449 82.6307 79.538 82.1595 79.0668C81.8546 78.7619 81.5457 78.449 81.1854 78.2233C79.9143 77.4155 78.461 78.152 78.3858 79.6608C78.3304 80.7695 78.4016 81.8862 78.3858 82.9989C78.366 84.3254 77.7285 85.2402 76.4692 85.6282C75.899 85.8025 75.2694 85.8421 74.6675 85.8421C74.022 85.8421 73.3964 85.557 73.1865 84.9432C72.9093 84.1433 72.7113 83.284 72.6638 82.4445C72.5331 80.2389 72.4896 78.0253 72.4381 75.8118C72.4104 74.6634 72.3985 73.5151 72.4579 72.3707C72.5054 71.4639 73.04 70.8382 73.8834 70.5135C74.4339 70.3036 75.0001 70.1215 75.5703 69.9552C78.5521 69.0919 80.5201 67.2823 81.0706 64.1223C81.4309 62.0355 80.932 60.1585 79.6648 58.4875C78.4333 56.8679 76.7147 56.072 74.7546 55.7433C73.8161 55.5849 73.2459 54.9949 73.2103 54.0326C73.1905 53.4941 73.1746 52.9516 73.1905 52.4131C73.2618 49.7718 73.337 47.1306 73.436 44.4894C73.4597 43.8677 73.5983 43.25 73.6577 42.6283C73.6815 42.3709 73.6181 42.1056 73.6419 41.8482C73.6577 41.67 73.6973 41.4126 73.8201 41.3334C74.0696 41.1711 74.3784 41.0325 74.6675 41.0166C75.6891 40.9691 76.7187 40.9374 77.7403 40.9849C78.7026 41.0285 79.2609 41.6819 79.2649 42.656C79.2728 43.844 79.2213 45.0319 79.2649 46.2159C79.3045 47.4395 80.631 48.3503 81.7279 47.8117C82.6941 47.3365 83.5415 46.6158 84.4285 45.9783C85.9293 44.8933 86.9707 44.8102 88.428 45.9704C89.7228 47.0039 90.7405 48.2869 91.5879 49.6966C92.5977 51.3716 92.4234 52.5794 91.0454 53.9574C90.6019 54.4049 90.1267 54.8206 89.703 55.2879C88.6893 56.4006 89.1605 58.2459 90.6177 58.63C91.3226 58.8161 92.1067 58.7448 92.8551 58.7409C93.8292 58.7409 93.8292 58.7211 94.142 57.8222C94.9538 55.4701 96.8941 54.0881 99.3848 54.0881C99.6106 54.0881 99.8363 54.0881 100.22 54.0881C97.8643 51.2924 95.2191 48.9838 92.6491 46.6C92.669 46.5564 92.6848 46.5089 92.7046 46.4654C93.746 46.7584 94.7914 47.0475 95.8527 47.3484C95.6349 46.3901 95.3973 45.4833 95.227 44.5686C94.0826 38.4308 93.7064 32.2218 93.4926 26.0009C93.4134 23.7002 93.3421 21.3995 93.2748 19.0989C93.2115 16.921 92.6293 14.9529 91.0256 13.3769C90.6415 13.0007 90.3604 12.5216 89.9763 12.1493C89.7228 11.8999 89.3902 11.6662 89.0536 11.5752C87.3509 11.1158 85.5967 11.0168 83.8583 11.2465C81.5062 11.5554 79.1659 11.9514 76.8415 12.4147C75.3605 12.7077 73.9389 12.7156 72.4698 12.3434C71.2739 12.0385 70.0384 11.8286 68.8069 11.7256C65.3223 11.4287 61.9247 12.0424 58.5509 12.8463C58.4638 12.8661 58.3806 12.9176 58.2421 12.977C58.349 13.0007 58.3846 13.0166 58.4163 13.0166C58.741 13.0166 59.0657 13.0126 59.3864 13.0047C63.7819 12.9057 68.0744 13.5155 72.2203 14.9925C77.8116 16.9883 82.5872 20.1126 85.957 25.1297C86.1352 25.399 86.357 25.6405 86.5589 25.89C89.2912 29.2678 91.5087 32.9544 93.1045 37.0013C93.2194 37.2904 93.2827 37.5953 93.3698 37.8923C93.3104 37.9279 93.251 37.9636 93.1917 37.9992C93.0135 37.7775 92.8234 37.5676 92.665 37.3379C90.301 33.9008 87.9607 30.4478 85.565 27.0304C84.8879 26.0642 84.1592 25.0941 83.292 24.2982C74.6002 16.3349 64.3046 13.86 52.8289 15.4954C52.5676 15.5311 52.2983 15.6261 52.0766 15.7686C48.8968 17.7723 45.9111 20.0176 43.4481 22.8845C38.9734 28.0917 37.247 34.1621 37.9993 40.9295C38.2409 43.1193 38.8151 45.2695 39.2269 47.4395C39.2982 47.8078 39.3298 48.1879 39.3774 48.5601L39.2308 48.5878C39.1794 48.5245 39.1041 48.4651 39.0764 48.3938C38.8467 47.8474 38.6131 47.3049 38.4111 46.7505C36.8668 42.5095 35.8412 38.1735 36.0748 33.6196C36.2966 29.2638 37.6033 25.296 40.2762 21.8114C40.3911 21.6609 40.494 21.5065 40.6049 21.352C40.3554 21.4233 40.1614 21.5461 39.9991 21.7005C38.3755 23.225 36.7203 24.7219 35.1482 26.3018C34.1226 27.3314 33.105 28.3174 31.6834 28.7886C31.1409 28.9668 30.7053 29.3232 30.4954 29.8934C29.8539 31.6476 29.6203 33.4296 30.2856 35.2234C30.6657 36.249 31.0973 37.2627 31.5725 38.2487C35.568 46.5287 39.5833 54.7929 43.5708 63.0769C44.1252 64.2253 44.6439 65.4013 45.0201 66.6131C45.2656 67.3971 45.2181 68.2722 45.3052 69.1078C45.329 69.3493 45.2894 69.6186 45.3884 69.8245C45.9071 70.9095 46.0259 72.0262 45.7408 73.1904C45.2736 75.1109 45.325 77.0433 45.6102 78.9797C46.1566 82.6702 47.5069 86.0915 49.1542 89.4099C50.3936 91.9006 51.9023 94.2211 53.5496 96.4505C54.7495 98.0701 55.1969 99.8639 54.9277 101.844C54.7257 103.341 54.5119 104.837 54.302 106.33C54.108 107.704 53.411 108.722 52.0964 109.225C50.9084 109.676 50.2867 110.536 50.0887 111.747C49.7759 113.656 49.475 115.565 49.1621 117.537C49.368 117.556 49.574 117.576 49.7838 117.596C50.8569 117.691 51.938 117.754 53.0071 117.889C57.8104 118.491 62.483 119.667 67.0646 121.2C74.9407 123.833 82.607 126.906 89.212 132.125C89.3823 132.259 89.5684 132.37 89.7505 132.481C89.9485 132.604 90.1505 132.727 90.3604 132.83C91.0058 133.15 91.2949 133.087 91.7701 132.537C92.3046 131.919 92.4076 131.143 92.5224 130.378C92.6096 129.808 92.4393 129.297 92.0156 128.905C91.485 128.418 90.9464 127.943 90.3722 127.512C89.4654 126.83 88.4834 126.248 87.6162 125.524C86.5233 124.605 85.5373 123.564 85.2601 122.075C84.9275 120.293 85.3908 118.047 88.1666 117.644C89.3585 117.469 90.5346 117.2 91.7146 116.962C94.6806 116.361 97.6306 115.715 100.379 114.381C100.585 114.282 100.787 114.175 101.123 114.001H101.119ZM73.931 77.8155H74.0696C74.0696 79.2885 74.0537 80.7655 74.0775 82.2386C74.0854 82.7732 74.1923 83.3078 74.2755 83.8423C74.3428 84.27 74.6358 84.4363 75.0476 84.4363C76.1643 84.4363 76.7939 83.8582 76.8533 82.7534C76.8692 82.4485 76.8296 82.1436 76.8177 81.8387C76.7939 81.1734 76.7147 80.5082 76.7583 79.8469C76.8216 78.9678 76.988 78.0966 77.6097 77.3997C79.0352 75.7999 81.1933 75.6534 82.7931 77.0908C83.5653 77.7878 84.2662 78.5639 84.9948 79.3083C85.3195 79.6409 85.6838 79.736 86.052 79.443C87.442 78.3342 88.8398 77.2373 90.1822 76.0731C90.8633 75.4831 90.8474 74.9604 90.297 74.2199C89.8891 73.6735 89.41 73.1785 89.0259 72.6162C88.5745 71.9549 88.123 71.2738 87.7865 70.5491C86.947 68.7355 88.2894 66.8269 90.3881 66.5933C91.1365 66.5101 91.8968 66.5616 92.6531 66.5576C93.4886 66.5576 93.8133 66.3478 93.9519 65.5122C94.1975 64.0273 94.5182 62.5423 93.8688 61.0574C93.7144 60.705 93.5599 60.5109 93.1837 60.5268C92.6096 60.5505 92.0354 60.606 91.4612 60.5981C88.9744 60.5783 87.6756 58.7171 87.4618 56.7174C87.3192 55.3829 88.1468 54.4643 89.0417 53.6168C89.3823 53.2961 89.7347 52.9872 90.0634 52.6546C90.5623 52.1477 90.7405 51.5973 90.3802 50.9004C89.6436 49.4788 88.6814 48.2275 87.4895 47.1742C86.7173 46.4891 86.0798 46.5564 85.268 47.2059C84.5117 47.8117 83.7633 48.4413 82.9396 48.9442C80.6944 50.3104 77.4037 48.8967 77.6295 45.7922C77.6889 44.9883 77.7958 44.1845 77.8433 43.3767C77.8789 42.7392 77.7364 42.5808 77.0949 42.5055C76.489 42.4342 75.8753 42.4224 75.2694 42.3471C74.6398 42.2679 74.5883 42.2917 74.5923 42.9371C74.6002 44.43 74.6279 45.9229 74.6121 47.4157C74.5883 49.4828 74.5249 51.5498 74.4972 53.6168C74.4853 54.3415 74.715 54.5118 75.4159 54.5989C76.0891 54.682 76.7821 54.7652 77.4117 54.9988C80.6429 56.1868 82.611 58.4795 83.0426 61.9206C83.4584 65.239 82.1872 67.8921 79.5144 69.8799C78.2512 70.8224 76.79 71.3292 75.2852 71.7133C74.2359 71.9826 73.9428 72.3073 73.9389 73.3963C73.931 74.8693 73.9389 76.3464 73.9389 77.8194L73.931 77.8155ZM107.847 99.654C107.649 99.7332 107.491 99.8045 107.328 99.8678C105.095 100.703 102.822 101.369 100.395 101.155C99.9986 101.119 99.9986 101.357 99.9669 101.61C99.8046 102.877 99.9194 104.125 100.228 105.352C100.858 107.839 102.153 109.823 104.529 110.987C104.925 111.181 105.17 111.134 105.455 110.805C106.663 109.423 107.602 107.887 108.239 106.16C109.055 103.946 108.615 101.82 107.843 99.654H107.847ZM104.03 61.8612C103.78 59.8417 102.256 57.0936 100.802 55.9492C100.66 55.8344 100.446 55.7789 100.256 55.7631C99.3809 55.6799 98.5335 55.8027 97.7376 56.1907C96.1497 56.9669 95.2547 58.8518 95.6903 60.4001C95.821 60.8673 96.0309 60.9782 96.4625 60.8079C97.1317 60.5466 97.8009 60.2733 98.486 60.0635C100.308 59.5051 101.927 59.8774 103.317 61.196C103.519 61.39 103.725 61.5801 104.03 61.8612Z" fill="#1E1E1E"/>
<path d="M48.4414 123.259C53.8228 123.302 58.9271 124.577 63.861 126.601C70.6918 129.404 77.2572 132.758 83.7117 136.33C84.8799 136.976 85.9807 137.728 86.8361 138.777C87.141 139.15 87.537 139.565 87.232 140.072C86.9271 140.579 86.349 140.472 85.9055 140.318C84.9076 139.973 83.8781 139.648 82.9712 139.126C78.8689 136.766 74.7625 134.421 70.4661 132.434C65.5955 130.18 60.6654 128.094 55.4187 126.854C50.4728 125.686 45.4636 125.163 40.3792 125.452C39.9475 125.476 39.5159 125.484 39.0883 125.452C38.9417 125.441 38.8071 125.282 38.6646 125.191C38.7635 125.056 38.8348 124.847 38.9655 124.803C39.8525 124.522 40.7435 124.229 41.6503 124.027C42.5769 123.821 43.5233 123.663 44.4697 123.564C45.7923 123.425 47.1188 123.358 48.4454 123.259H48.4414Z" fill="#1E1E1E"/>
<path d="M39.6704 127.84C40.0743 127.781 40.4782 127.698 40.8861 127.67C49.7482 127.072 58.2777 128.414 66.3954 132.097C68.8228 133.198 71.171 134.453 73.3489 135.998C73.8359 136.342 74.2913 136.79 74.6319 137.281C75.1466 138.017 74.7784 138.67 73.8795 138.631C73.337 138.607 72.7707 138.472 72.2678 138.263C71.4719 137.934 70.7116 137.514 69.9513 137.106C62.689 133.206 55.0148 130.446 46.8932 128.997C44.8261 128.628 42.7274 128.442 40.6445 128.165C40.3198 128.121 39.9951 128.058 39.6704 128.003C39.6704 127.947 39.6664 127.896 39.6625 127.84H39.6704Z" fill="#1E1E1E"/>
<path d="M40.4029 99.2105C40.3237 99.159 40.193 99.1749 40.0861 99.1788C38.1933 99.2422 36.4589 98.7234 34.8868 97.686C34.6493 97.5276 34.4156 97.2385 34.3443 96.9653C34.1226 96.0981 33.98 95.2071 33.7939 94.328C33.6949 93.8489 33.4375 93.5123 32.7129 93.4252C32.5545 93.5875 32.2417 93.8013 32.0872 94.0983C31.9566 94.3478 32.0239 94.6963 31.9724 94.9972C31.8061 95.9674 31.719 96.9613 31.4259 97.8919C30.9666 99.3768 29.8024 100.07 28.3056 100.236C27.7868 100.292 27.2641 100.307 26.7454 100.367C26.4009 100.406 26.0366 100.497 26.0089 100.937C25.9812 101.384 26.3019 101.606 26.6781 101.634C27.5176 101.693 28.361 101.681 29.2005 101.709C29.4817 101.721 29.7747 101.709 30.04 101.788C31.2517 102.157 31.9526 103.032 32.2536 104.224C32.4872 105.146 32.6416 106.089 32.8634 107.011C32.9069 107.182 33.1128 107.316 33.2396 107.467C33.3781 107.32 33.5801 107.201 33.6395 107.031C33.8019 106.576 33.9167 106.105 34.0315 105.633C34.6691 103.032 36.2649 101.349 38.8427 100.589C39.3932 100.43 39.9475 100.268 40.4781 100.054C40.6326 99.9946 40.791 99.7451 40.791 99.5788C40.791 99.456 40.5573 99.3095 40.4029 99.2105ZM33.4692 102.877C33.0693 101.919 32.4238 101.226 31.62 100.838C32.1902 99.856 32.7327 98.9293 33.2752 98.0067C33.881 98.8581 34.1978 100.145 35.7224 100.137C34.6651 100.846 33.9682 101.753 33.4692 102.877Z" fill="#1E1E1E"/>
<path d="M126.593 99.1629C126.122 99.0719 125.627 99.056 125.148 99.0798C123.239 99.1788 122.035 98.2957 121.683 96.4307C121.485 95.3892 121.394 94.3319 121.231 93.2865C121.176 92.9262 121.049 92.5817 120.958 92.2292C120.887 92.2332 120.816 92.2372 120.748 92.2411C120.681 92.4193 120.594 92.5896 120.55 92.7717C120.301 93.8013 120.475 94.9101 119.948 95.8961C119.683 96.395 119.568 97.0009 119.228 97.4285C118.309 98.5808 117.125 99.3649 115.656 99.6856C115.03 99.8242 114.405 100.018 113.807 100.256C113.609 100.331 113.494 100.62 113.339 100.81C113.545 100.949 113.755 101.21 113.953 101.202C114.808 101.175 115.676 101.135 116.511 100.969C117.093 100.854 117.565 100.949 117.949 101.329C118.269 101.65 118.582 102.038 118.737 102.458C119.022 103.23 119.236 104.034 119.39 104.841C119.592 105.899 119.691 106.976 119.885 108.033C119.921 108.235 120.198 108.389 120.364 108.568C120.507 108.385 120.728 108.223 120.776 108.021C120.871 107.586 120.879 107.134 120.911 106.687C121.014 105.229 121.394 103.855 122.095 102.576C122.673 101.511 123.56 100.814 124.752 100.549C125.361 100.41 125.995 100.363 126.597 100.193C126.815 100.129 126.965 99.8322 127.147 99.6381C126.965 99.4718 126.799 99.2025 126.593 99.1629ZM120.669 102.616C120.392 101.602 119.917 100.612 118.935 100.018C119.505 99.3926 120.043 98.7986 120.645 98.1413C120.978 98.9927 121.6 99.6262 122.399 99.9391C121.806 100.854 121.239 101.733 120.669 102.616Z" fill="#1E1E1E"/>
<path d="M26.9593 68.5931C26.2544 68.2406 25.5179 67.9397 24.7933 67.6229C24.033 67.2942 23.5974 66.7121 23.5261 65.8885C23.4113 64.5461 23.3321 63.2037 23.2093 61.8613C23.1697 61.3941 23.0509 60.9307 22.9717 60.4635C22.8806 60.4595 22.7896 60.4595 22.6985 60.4556C22.5797 60.9109 22.4253 61.3584 22.35 61.8217C21.8036 65.1955 19.9504 67.4685 16.7033 68.5851C16.4499 68.6722 16.1766 68.7435 15.9549 68.8861C15.8163 68.9732 15.7529 69.1831 15.6539 69.3375C15.8084 69.4286 15.9588 69.583 16.1212 69.5909C16.438 69.6068 16.7627 69.5553 17.0834 69.5038C19.103 69.191 20.3741 70.074 20.7067 72.0777C20.8334 72.8222 20.8492 73.5825 20.9601 74.3269C20.9958 74.5566 21.1344 74.9011 21.3007 74.9486C21.6769 75.0674 21.7561 74.6912 21.8194 74.418C21.9422 73.8913 22.057 73.3647 22.1441 72.834C22.4332 71.0006 23.1064 70.3116 24.9358 70.0107C25.5733 69.9038 26.2228 69.8285 26.8445 69.6662C27.0979 69.5988 27.2959 69.3335 27.5176 69.1593C27.3355 68.9653 27.185 68.7039 26.9593 68.5931ZM21.7798 69.6384C21.269 69.2227 20.7384 68.7871 20.3067 68.4386C20.8374 67.904 21.4274 67.3101 22.0174 66.7161C22.1322 67.512 22.5084 68.2525 23.2727 68.7039C22.7302 69.0405 22.2352 69.3494 21.7798 69.6384Z" fill="#1E1E1E"/>
<path d="M119.129 41.3888C118.669 41.2502 118.186 41.1592 117.707 41.1037C115.913 40.8978 114.741 39.9237 114.112 38.2606C113.739 37.2864 113.391 36.3084 113.023 35.3342C112.943 35.1323 112.813 34.9462 112.71 34.7561C112.619 34.7799 112.528 34.7997 112.437 34.8234C112.488 35.56 112.492 36.3084 112.599 37.037C112.813 38.4665 112.373 39.6663 111.256 40.5177C110.532 41.0721 109.637 41.4086 108.805 41.8244C108.588 41.9353 108.295 41.9274 108.1 42.066C107.938 42.1769 107.76 42.4382 107.788 42.6045C107.811 42.7708 108.057 42.9728 108.243 43.0243C108.493 43.0955 108.778 43.048 109.047 43.0322C110.179 42.9767 111.185 43.3094 112.021 44.0736C112.912 44.8893 113.522 45.8991 113.874 47.0593C114.005 47.487 114.1 47.9345 114.294 48.3344C114.397 48.5482 114.682 48.671 114.884 48.8333C115.018 48.6037 115.256 48.374 115.26 48.1404C115.264 47.6256 115.185 47.1029 115.086 46.5921C114.725 44.7191 115.383 43.4955 117.184 42.8302C117.822 42.5966 118.499 42.462 119.141 42.2402C119.327 42.1769 119.453 41.9591 119.612 41.8086C119.453 41.666 119.315 41.4443 119.129 41.3888ZM113.898 43.4678C113.276 42.9688 112.627 42.4501 111.989 41.9432C112.425 41.377 112.912 40.7513 113.347 40.185C113.894 40.7909 114.472 41.4324 115.058 42.0858C114.694 42.5174 114.286 43.0045 113.898 43.4678Z" fill="#1E1E1E"/>
<path d="M71.5946 50.1204C71.456 53.3952 71.3174 56.6422 71.1868 59.8893C71.0917 62.2573 71.0006 64.6292 70.9175 67.0012C70.8066 70.1611 70.7432 73.3251 70.5928 76.485C70.5255 77.8591 70.375 79.245 70.1057 80.5953C69.8285 81.9773 69.2266 83.2326 67.8248 83.8741C66.138 84.6463 63.7343 84.0364 62.582 82.4802C62.1741 81.9298 61.9207 81.2606 61.6316 80.627C61.5168 80.3736 61.4455 80.1756 61.105 80.2508C59.1369 80.6943 57.5372 79.8944 56.1235 78.6629C54.2901 77.0592 53.4783 75.0001 53.6209 72.5569C53.6328 72.343 53.5298 72.0025 53.3714 71.9154C51.6014 70.9056 50.5045 69.3415 49.6808 67.5397C48.5444 65.0648 48.1999 62.483 48.7582 59.8141C49.0591 58.3806 49.5779 57.0184 50.4847 55.8423C51.0193 55.1454 51.6766 54.5871 52.5517 54.3693C52.825 54.302 53.1338 54.2426 53.3952 54.3059C53.9535 54.4366 53.9931 54.1713 53.9812 53.7357C53.9575 52.8962 53.8664 52.0369 53.9891 51.2133C54.4129 48.3939 55.8226 46.2397 58.5469 45.1587C59.1092 44.9369 59.818 44.9884 60.4437 45.0636C60.8436 45.1151 60.9941 45.0518 61.1129 44.7033C61.6 43.3094 62.483 42.2561 63.8729 41.7097C65.738 40.9771 67.4368 41.3335 68.9455 42.6165C70.0701 43.5747 70.7393 44.8261 71.0244 46.2476C71.2818 47.5267 71.4085 48.8334 71.5946 50.1243V50.1204ZM69.6979 51.6172C69.6147 50.647 69.4999 48.8928 69.2939 47.1465C69.1752 46.1407 68.8069 45.2062 68.1377 44.4024C66.8547 42.858 64.756 42.6283 63.5007 43.9549C62.5503 44.9567 62.289 46.1843 62.5899 47.5108C62.7919 48.4018 63.1839 49.2017 63.9204 49.8036C64.059 49.9184 64.0986 50.156 64.1857 50.3382C63.9878 50.3936 63.762 50.5401 63.6037 50.4847C63.2037 50.354 62.78 50.1956 62.4672 49.9303C61.6435 49.2334 61.1763 48.3107 61.006 47.2455C60.9545 46.9169 60.907 46.5288 60.4397 46.6436C58.8796 47.0277 57.4778 47.693 56.6185 49.1423C55.3236 51.3242 55.2444 53.6248 56.2027 55.9215C56.567 56.7967 57.256 57.5292 57.7866 58.337C57.8738 58.4717 57.9054 58.642 57.9648 58.7924C57.7866 58.8162 57.5886 58.8914 57.4303 58.8479C57.2125 58.7845 57.0065 58.6499 56.8244 58.5113C55.8503 57.747 55.0227 56.864 54.5277 55.7037C54.3851 55.3751 54.1911 55.2563 53.8624 55.5137C53.411 55.8701 52.9081 56.1671 52.4884 56.5512C50.9044 58.0123 50.3461 59.9447 50.2392 61.992C50.1045 64.6253 50.9361 67.025 52.3815 69.2068C52.7062 69.6978 53.114 70.1374 53.514 70.573C53.7674 70.8502 53.9693 70.8106 54.1555 70.4304C54.492 69.7374 54.8405 69.0445 55.2721 68.4109C56.4007 66.7557 58.0282 66.2607 59.9408 66.5656C60.115 66.5933 60.2615 66.7953 60.4239 66.918C60.3091 67.0645 60.2259 67.2586 60.0794 67.3536C59.8576 67.4962 59.6002 67.611 59.3429 67.6704C56.1314 68.4307 54.7613 72.3787 55.5335 74.5645C56.0839 76.1207 57.058 77.277 58.4123 78.1442C59.1567 78.6233 59.9448 79.0114 60.8753 78.9678C61.2951 78.948 61.4851 78.8094 61.6118 78.3699C61.8296 77.6175 62.1345 76.881 62.4989 76.188C62.681 75.8475 63.0572 75.5901 63.3938 75.3683C63.6987 75.1664 64.0828 75.0832 64.3758 75.4238C64.6649 75.7604 64.5065 76.1009 64.3085 76.4177C64.0353 76.8612 63.7224 77.2849 63.4809 77.7443C62.5701 79.4707 63.0018 81.3239 64.5461 82.2228C65.4806 82.7693 66.4825 83.0544 67.4962 82.3931C68.205 81.9298 68.5733 81.2091 68.6802 80.4132C68.898 78.7619 69.1237 77.0988 69.1712 75.4357C69.2583 72.3628 69.1791 69.286 69.2464 66.2092C69.3494 61.6079 69.5276 57.0105 69.6979 51.6132V51.6172Z" fill="#1E1E1E"/>
<path d="M103.962 76.9523C103.935 77.5304 103.697 78.1521 103.147 78.6273C102.161 79.4747 100.775 79.1302 100.343 77.9106C100.177 77.4473 100.01 76.9365 100.042 76.4573C100.113 75.3446 101.06 74.5645 102.113 74.6279C103.186 74.6912 103.97 75.6218 103.962 76.9563V76.9523Z" fill="#1E1E1E"/>
<path d="M66.1657 58.1033C66.0826 58.4993 66.0628 58.8676 65.9242 59.1844C65.7222 59.6318 65.4094 59.6833 65.0807 59.323C64.7837 58.9943 64.5501 58.6062 64.3244 58.2221C63.8096 57.3431 63.2315 56.5234 62.293 56.0482C61.8099 55.8027 61.311 55.6047 60.7447 55.7908C60.3685 55.9135 60.2101 55.6958 60.1666 55.3592C60.0992 54.8286 60.5229 54.3138 61.1724 54.1316C62.9622 53.6248 65.255 54.8325 65.845 56.6144C66.0073 57.1015 66.0667 57.6202 66.1697 58.1073L66.1657 58.1033Z" fill="#1E1E1E"/>
<path d="M61.6158 69.9393C61.6871 68.1218 62.6414 67.4209 63.972 67.1437C65.1401 66.9021 66.6053 67.8406 66.9379 68.981C66.9894 69.1592 66.9102 69.5275 66.7953 69.5711C66.6171 69.6423 66.336 69.5592 66.138 69.4602C65.7341 69.2582 65.3817 68.89 64.958 68.787C63.8809 68.5217 63.18 69.1632 62.9622 70.4818C62.9147 70.7749 62.8196 71.0718 62.6929 71.3371C62.6256 71.4757 62.4118 71.6658 62.3167 71.6421C62.1583 71.5985 61.9643 71.4243 61.9168 71.2659C61.7703 70.7709 61.6832 70.2561 61.6158 69.9354V69.9393Z" fill="#1E1E1E"/>
</svg>
