<svg width="52" height="26" viewBox="0 0 52 26" fill="none" xmlns="http://www.w3.org/2000/svg">
<path d="M3.46752 15.6777C4.35347 16.1897 13.7068 20.9791 18.0412 25.3976C18.7188 26.0884 19.7192 25.4395 19.6502 24.5609C19.5588 23.3206 19.3169 21.614 19.0077 20.2037L18.7602 19.091C25.9537 20.2187 24.2676 19.6732 40.6491 21.2766C52.5032 22.4361 51.09 23.0552 51.0986 16.7805C51.1128 13.9532 51.1878 11.5266 51.2797 11.3596C51.5031 10.9615 51.2389 8.89322 48.037 8.88831C32.9189 8.80777 23.8124 7.91974 19.6851 8.82263C19.6593 8.82238 18.5777 1.77561 18.578 1.74979C18.5782 1.72397 18.436 -0.949983 14.2972 2.49627C12.6184 3.88746 1.38498 12.0427 1.0744 12.1171C-0.466456 12.5801 0.462728 13.9704 3.46752 15.6777ZM48.766 19.0176C48.738 19.2497 48.2472 19.2708 46.5574 19.1126C43.9646 18.8682 43.9885 19.0749 46.2225 16.3463C47.2153 15.1422 48.1564 13.9375 48.3397 13.6811C48.6149 13.2576 48.9373 17.3149 48.766 19.0176ZM45.5693 11.7695C47.6226 11.7247 47.5968 11.6987 46.7868 12.698C45.7153 14.0305 42.3919 18.6206 42.1202 18.6825C41.8743 18.7447 38.5212 18.351 38.1858 18.322C42.2949 13.9329 42.2564 13.894 43.8901 11.831L45.5693 11.7695ZM40.1486 11.5625C41.2198 11.6115 42.1356 11.685 42.174 11.7241C42.4171 11.9459 36.484 18.0475 36.471 18.0603L34.6261 17.9263C32.3297 17.7493 32.3294 17.7751 33.6067 16.5221C34.8449 15.3074 37.0119 12.8237 38.1869 11.4664L40.1486 11.5625ZM36.0437 11.4716C33.5648 14.1591 33.395 14.3769 30.1751 17.5866C29.2205 17.5 26.9757 17.3235 26.8606 17.2062C26.72 17.0629 31.3971 12.6793 31.844 11.8572C32.225 11.1766 32.0947 11.2788 36.0437 11.4716ZM27.3449 11.1299C30.3272 11.1456 29.867 10.6763 25.4901 16.0698C24.5493 17.2228 24.7305 17.173 22.4346 16.9443L20.4999 16.745L25.3569 11.1107L27.3449 11.1299ZM21.0278 11.521C21.5577 11.4615 21.9446 11.4912 21.9181 11.5684C21.7737 11.8123 18.715 15.7337 18.5433 16.1323C18.517 16.1837 18.336 16.2077 18.1036 16.2055C17.2255 16.2229 16.4963 16.8615 16.3718 17.7253C16.3571 17.9188 17.04 19.3973 17.2762 21.6977C17.3116 22.0467 17.2958 22.3435 17.2442 22.343C16.986 22.3405 13.2205 19.1798 13.2077 19.1668C14.3835 17.732 16.8643 14.838 17.5694 14.0184C19.5928 11.701 19.9551 11.6269 21.0278 11.521ZM17.5321 9.83492L17.8207 10.7027L15.6918 13.2516C12.753 16.7739 11.8487 18.1725 11.7065 18.1841C11.6161 18.1961 9.89703 17.0434 9.51271 16.7299C9.29486 16.5599 9.99715 16.0245 13.9343 12.0598C17.4542 8.53021 17.1684 8.70822 17.5321 9.83492ZM14.5441 6.37195C16.3789 4.87897 16.7164 4.70133 17.1581 4.42152C17.2885 5.6235 17.3789 5.61159 16.6781 5.99219C15.0946 6.85494 8.64289 14.5395 7.56084 15.6266C5.60771 14.6524 3.64129 13.7169 3.88893 13.474C3.915 13.4484 11.2909 9.02615 14.5441 6.37195Z" fill="#FDB716"/>
</svg>
