<svg width="22" height="423" viewBox="0 0 22 423" fill="none" xmlns="http://www.w3.org/2000/svg">
<path d="M19.0419 13.9044C22.4771 4.35128 8.53548 -4.29752 2.51264 4.94893C-3.4094 14.0419 9.46721 22.5197 16.8314 15.4068" stroke="#FDB716" stroke-width="1.65779" stroke-miterlimit="1.5" stroke-linecap="round" stroke-linejoin="round"/>
<path d="M20.0825 62.9044C23.5178 53.3513 9.57613 44.7025 3.55329 53.9489C-2.36875 63.0419 10.5079 71.5197 17.8721 64.4068" stroke="#FDB716" stroke-width="1.65779" stroke-miterlimit="1.5" stroke-linecap="round" stroke-linejoin="round"/>
<path d="M20.0825 113.904C23.5178 104.351 9.57613 95.7025 3.5533 104.949C-2.36875 114.042 10.5079 122.52 17.8721 115.407" stroke="#FDB716" stroke-width="1.65779" stroke-miterlimit="1.5" stroke-linecap="round" stroke-linejoin="round"/>
<path d="M20.0825 189.904C23.5178 180.351 9.57613 171.702 3.5533 180.949C-2.36875 190.042 10.5079 198.52 17.8721 191.407" stroke="#FDB716" stroke-width="1.65779" stroke-miterlimit="1.5" stroke-linecap="round" stroke-linejoin="round"/>
<path d="M9.88208 100C9.98117 89.0044 10.3387 77.9882 9 67" stroke="#FDB716" stroke-width="1.65779" stroke-miterlimit="1.5" stroke-linecap="round" stroke-linejoin="round"/>
<path d="M9.88208 176C9.98117 156.674 10.3387 137.313 9 118" stroke="#FDB716" stroke-width="1.65779" stroke-miterlimit="1.5" stroke-linecap="round" stroke-linejoin="round"/>
<path d="M9.88208 253C9.98117 233.341 10.3387 213.646 9 194" stroke="#FDB716" stroke-width="1.65779" stroke-miterlimit="1.5" stroke-linecap="round" stroke-linejoin="round"/>
<path d="M9.88208 329C9.98117 309.341 10.3387 289.646 9 270" stroke="#FDB716" stroke-width="1.65779" stroke-miterlimit="1.5" stroke-linecap="round" stroke-linejoin="round"/>
<path d="M9.88208 405C9.98117 385.341 10.3387 365.646 9 346" stroke="#FDB716" stroke-width="1.65779" stroke-miterlimit="1.5" stroke-linecap="round" stroke-linejoin="round"/>
<path d="M20.0825 265.904C23.5178 256.351 9.57613 247.702 3.5533 256.949C-2.36875 266.042 10.5079 274.52 17.8721 267.407" stroke="#FDB716" stroke-width="1.65779" stroke-miterlimit="1.5" stroke-linecap="round" stroke-linejoin="round"/>
<path d="M20.0825 341.904C23.5178 332.351 9.57613 323.702 3.5533 332.949C-2.36875 342.042 10.5079 350.52 17.8721 343.407" stroke="#FDB716" stroke-width="1.65779" stroke-miterlimit="1.5" stroke-linecap="round" stroke-linejoin="round"/>
<path d="M20.0825 417.904C23.5178 408.351 9.57613 399.702 3.5533 408.949C-2.36875 418.042 10.5079 426.52 17.8721 419.407" stroke="#FDB716" stroke-width="1.65779" stroke-miterlimit="1.5" stroke-linecap="round" stroke-linejoin="round"/>
<path d="M10.2476 49C10.3466 38.6708 10.7041 28.3223 9.36548 18" stroke="#FDB716" stroke-width="1.65779" stroke-miterlimit="1.5" stroke-linecap="round" stroke-linejoin="round"/>
</svg>
