<svg width="22" height="897" viewBox="0 0 22 897" fill="none" xmlns="http://www.w3.org/2000/svg">
<path d="M19.0418 14.0055C22.477 4.45235 8.53535 -4.19645 2.51252 5.05001C-3.40952 14.1429 9.46709 22.6208 16.8313 15.5078" stroke="#FDB716" stroke-width="1.65779" stroke-miterlimit="1.5" stroke-linecap="round" stroke-linejoin="round"/>
<path d="M20.0825 142.006C23.5178 132.453 9.57613 123.804 3.55329 133.05C-2.36875 142.143 10.5079 150.621 17.8721 143.508" stroke="#FDB716" stroke-width="1.65779" stroke-miterlimit="1.5" stroke-linecap="round" stroke-linejoin="round"/>
<path d="M20.0825 441.006C23.5178 431.453 9.57613 422.804 3.5533 432.05C-2.36875 441.143 10.5079 449.621 17.8721 442.508" stroke="#FDB716" stroke-width="1.65779" stroke-miterlimit="1.5" stroke-linecap="round" stroke-linejoin="round"/>
<path d="M20.0825 892.006C23.5178 882.453 9.57613 873.804 3.5533 883.05C-2.36875 892.143 10.5079 900.621 17.8721 893.508" stroke="#FDB716" stroke-width="1.65779" stroke-miterlimit="1.5" stroke-linecap="round" stroke-linejoin="round"/>
<path d="M9.88208 579.101C9.98117 541.782 10.3387 504.394 9 467.101" stroke="#FDB716" stroke-width="1.65779" stroke-miterlimit="1.5" stroke-linecap="round" stroke-linejoin="round"/>
<path d="M9.88208 253.101C9.98117 217.448 10.3387 181.729 9 146.101" stroke="#FDB716" stroke-width="1.65779" stroke-miterlimit="1.5" stroke-linecap="round" stroke-linejoin="round"/>
<path d="M9.88208 727.101C9.98117 683.451 10.3387 639.721 9 596.101" stroke="#FDB716" stroke-width="1.65779" stroke-miterlimit="1.5" stroke-linecap="round" stroke-linejoin="round"/>
<path d="M9.88208 428.101C9.98117 375.455 10.3387 322.711 9 270.101" stroke="#FDB716" stroke-width="1.65779" stroke-miterlimit="1.5" stroke-linecap="round" stroke-linejoin="round"/>
<path d="M9.88208 878.101C9.98117 834.118 10.3387 790.054 9 746.101" stroke="#FDB716" stroke-width="1.65779" stroke-miterlimit="1.5" stroke-linecap="round" stroke-linejoin="round"/>
<path d="M20.0825 266.006C23.5178 256.453 9.57613 247.804 3.5533 257.05C-2.36875 266.143 10.5079 274.621 17.8721 267.508" stroke="#FDB716" stroke-width="1.65779" stroke-miterlimit="1.5" stroke-linecap="round" stroke-linejoin="round"/>
<path d="M20.0825 741.006C23.5178 731.453 9.57613 722.804 3.5533 732.05C-2.36875 741.143 10.5079 749.621 17.8721 742.508" stroke="#FDB716" stroke-width="1.65779" stroke-miterlimit="1.5" stroke-linecap="round" stroke-linejoin="round"/>
<path d="M20.0825 592.006C23.5178 582.453 9.57613 573.804 3.5533 583.05C-2.36875 592.143 10.5079 600.621 17.8721 593.508" stroke="#FDB716" stroke-width="1.65779" stroke-miterlimit="1.5" stroke-linecap="round" stroke-linejoin="round"/>
<path d="M10.2476 129.101C10.3466 92.1158 10.7041 55.0615 9.36548 18.1011" stroke="#FDB716" stroke-width="1.65779" stroke-miterlimit="1.5" stroke-linecap="round" stroke-linejoin="round"/>
</svg>
