<svg width="36" height="35" viewBox="0 0 36 35" fill="none" xmlns="http://www.w3.org/2000/svg">
<path d="M26.1138 9.85714L34.1603 13.4286V32L23.9193 27.7143M23.9193 27.7143L12.2153 32M23.9193 27.7143V17.7143M12.2153 32L1.97424 27.7143V9.14286L9.28925 12M12.2153 32V17.7143M18.0673 23.8182C18.0673 23.8182 9.28925 17 9.28925 10.5714C9.28925 5.21429 13.6783 2 18.0673 2C22.4563 2 26.8453 5.21429 26.8453 10.5714C26.8453 17 18.0673 23.8182 18.0673 23.8182ZM19.5303 10.5714C19.5303 9.78238 18.8753 9.14286 18.0673 9.14286C17.2592 9.14286 16.6043 9.78238 16.6043 10.5714C16.6043 11.3605 17.2592 12 18.0673 12C18.8753 12 19.5303 11.3605 19.5303 10.5714Z" stroke="#1E1E1E" stroke-width="3"/>
</svg>
