<svg width="495" height="193" viewBox="0 0 495 193" fill="none" xmlns="http://www.w3.org/2000/svg">
<path d="M275.099 81.1553C275.099 66.1766 275.079 51.1978 275.132 36.2191C275.132 34.7113 274.757 33.5986 273.613 32.6373C272.639 31.8209 272.699 31.7617 273.573 30.8399C273.987 30.4053 274.375 29.9379 274.77 29.4836C275.092 29.1149 275.237 28.6737 275.191 28.1865C274.961 25.5002 275.033 22.8073 275.125 20.1276C275.178 18.6594 274.645 17.6849 273.567 16.8422C272.692 16.164 272.685 16.1179 273.389 15.3081C276.184 12.0753 278.999 8.86226 281.807 5.63607C283.28 3.93738 284.753 2.23869 286.213 0.533415C286.811 -0.164497 286.87 -0.184249 287.423 0.513662C291.007 5.01716 294.591 9.52067 298.175 14.0242C298.569 14.518 298.964 15.0052 299.358 15.499C299.707 15.927 299.759 16.4076 299.312 16.7368C297.78 17.8561 297.675 19.4231 297.734 21.135C297.813 23.3538 297.787 25.5792 297.741 27.798C297.721 28.7396 298.017 29.4901 298.615 30.1946C299.95 31.7814 299.976 31.8275 298.642 33.3287C297.984 34.0595 297.741 34.8232 297.747 35.7779C297.78 40.1103 297.773 44.4492 297.76 48.7815C297.76 50.2036 297.681 51.6324 297.648 53.0545C297.648 53.2916 297.576 53.6339 297.806 53.7393C298.122 53.8775 298.254 53.5088 298.424 53.3179C303.304 47.7807 309.426 44.6533 316.746 43.8763C322.737 43.2377 328.491 44.1331 333.982 46.6219C338.493 48.6695 342.057 51.8299 344.734 56.0042C345.201 56.7284 345.345 56.7219 345.858 56.07C350.804 49.7296 357.222 45.733 365.12 44.3109C373.59 42.7834 381.738 43.8171 389.248 48.2284C394.522 51.3229 397.896 56.0437 400.013 61.7126C401.559 65.8605 402.288 70.1797 402.505 74.5844C402.874 82.0376 402.617 89.5039 402.65 96.9637C402.696 107.083 402.663 117.21 402.663 127.329C402.663 128.442 402.598 128.508 401.512 128.508C394.581 128.508 387.65 128.508 380.719 128.508C379.417 128.508 379.443 128.508 379.443 127.171C379.463 120.969 379.39 114.774 379.509 108.571C379.627 102.264 379.528 95.9563 379.66 89.6488C379.719 86.8703 378.936 84.4079 377.621 82.0508C375.004 77.3827 371.65 73.261 368.086 69.304C367.185 68.3098 366.238 67.3551 365.337 66.3543C364.896 65.8605 364.568 65.8079 364.074 66.3148C359.635 70.8908 355.446 75.6576 352.31 81.2607C350.863 83.8482 350.074 86.6069 350.08 89.5829C350.08 102.145 350.08 114.714 350.08 127.277C350.08 128.495 350.08 128.501 348.837 128.501C342.044 128.501 335.244 128.501 328.451 128.501C327.228 128.501 327.175 128.449 327.195 127.27C327.366 115.09 327.353 102.916 327.379 90.7351C327.379 89.8595 327.425 88.9838 327.425 88.1081C327.425 85.4942 326.189 83.2952 324.94 81.1422C322.704 77.2839 319.922 73.8207 316.989 70.4826C315.759 69.0867 314.49 67.7172 313.208 66.3675C312.557 65.6828 312.425 65.7486 311.774 66.4268C309.367 68.9419 307.006 71.5031 304.876 74.2618C302.646 77.1456 300.47 80.0821 299.115 83.5124C298.339 85.4679 297.938 87.4826 297.944 89.6093C297.971 102.198 297.958 114.793 297.958 127.382C297.958 128.409 297.872 128.501 296.826 128.501C290.033 128.501 283.234 128.501 276.44 128.501C275.151 128.501 275.092 128.436 275.092 127.158C275.092 111.824 275.092 96.4896 275.092 81.1553H275.099Z" fill="#1E1E1E"/>
<path d="M87.8229 97.4377C87.8229 114.01 87.8426 130.575 87.8097 147.147C87.7966 153.04 87.1587 158.861 85.245 164.483C81.7596 174.722 75.2755 182.352 65.4771 187.014C60.808 189.233 55.8627 190.504 50.7004 190.945C48.7078 191.116 46.7284 191.458 44.7293 191.392C33.4906 191.03 23.0345 188.212 13.8936 181.385C9.06014 177.777 5.16705 173.332 2.2275 168.058C1.89869 167.466 2.0894 167.189 2.6155 166.893C8.52089 163.594 14.4263 160.283 20.3251 156.964C21.956 156.049 21.9034 156.049 22.8569 157.728C25.4085 162.218 28.953 165.616 33.7273 167.736C38.6923 169.941 43.8546 170.541 49.1484 169.658C55.1064 168.671 59.4336 165.273 62.3665 160.052C64.1553 156.872 64.9181 153.409 64.9312 149.788C64.9575 139.912 64.951 130.035 64.9444 120.159C64.9444 119.876 65.0891 119.468 64.7339 119.356C64.4446 119.264 64.3262 119.659 64.1487 119.85C60.1372 124.057 55.3235 126.934 49.7403 128.508C41.0926 130.937 32.7146 130.016 24.5536 126.46C19.8779 124.426 15.7284 121.588 12.1378 117.973C6.0351 111.831 2.35902 104.404 0.866235 95.9102C-0.876448 85.9815 -0.0675797 76.2831 4.00307 66.9864C7.37664 59.2896 12.7954 53.364 20.0358 49.1041C24.9745 46.2005 30.3012 44.4162 35.983 43.7907C45.183 42.7768 53.6202 44.7849 61.0447 50.4999C62.1364 51.3361 63.1162 52.2908 64.0829 53.2652C64.2868 53.4693 64.4709 53.8775 64.7734 53.759C65.1351 53.6142 64.951 53.173 64.9575 52.8636C64.9641 50.6118 64.9773 48.3667 64.9378 46.1149C64.9247 45.3117 65.2469 45.0681 66.0097 45.0681C72.336 45.0878 78.6688 45.0746 84.9951 45.0746C85.7053 45.0746 86.409 45.259 87.1258 45.1405C87.5532 45.0746 87.7966 45.3117 87.8097 45.7528C87.8163 46.0293 87.8163 46.2993 87.8163 46.5758C87.8163 63.5298 87.8163 80.4838 87.8163 97.4377H87.8229ZM40.1391 58.5456C34.3521 58.3218 30.4984 64.5964 32.4581 69.2974C32.9316 70.4299 33.5366 71.4372 34.3915 72.3195C35.0163 72.9582 34.9768 73.1359 34.1614 73.4717C33.3393 73.8075 32.616 74.2881 31.9057 74.8083C31.2744 75.2757 31.0969 75.1967 30.939 74.433C30.1894 70.713 26.2963 67.6843 22.5084 67.9938C19.4242 68.244 17.0304 69.7451 15.656 72.5565C14.2158 75.4996 14.5381 78.3703 16.4649 81.0105C18.4246 83.6968 21.9757 84.8358 25.277 83.9009C26.3818 83.5849 26.4672 83.6704 26.2897 84.8161C26.099 86.0473 26.191 87.2785 26.4278 88.4966C26.5988 89.3854 26.5396 89.4447 25.711 89.1747C25.5532 89.1221 25.4019 89.0628 25.2441 89.0167C19.7661 87.4168 13.7818 91.8479 14.9655 98.3002C16.0309 104.101 22.5807 106.879 27.9074 103.317C29.8408 102.027 30.7746 100.058 31.064 97.7735C31.1758 96.911 31.281 96.8715 31.9978 97.4048C32.6817 97.9118 33.3919 98.3727 34.1679 98.7216C34.99 99.0903 34.99 99.1891 34.3718 99.8475C31.4914 102.929 30.8338 107.775 34.3718 111.297C37.1272 114.043 41.336 114.55 44.6438 112.443C47.3203 110.738 48.4448 108.216 48.2278 105.088C48.0831 102.995 47.3597 101.138 45.788 99.6763C45.5644 99.4656 45.1962 99.1035 45.7025 98.9126C46.7153 98.5241 47.5702 97.8855 48.4645 97.3061C48.9117 97.0164 48.9972 97.2797 49.0498 97.6945C49.7798 103.475 56.1323 107.064 61.8667 103.482C66.0952 100.842 66.9698 93.6321 61.7615 90.1623C59.5519 88.6875 57.1845 88.3122 54.6264 89.0233C53.7583 89.2669 53.64 89.1418 53.8241 88.253C54.0674 87.081 54.0082 85.9024 53.9293 84.7305C53.857 83.677 53.8307 83.6704 54.8302 83.9338C58.1446 84.8161 61.9325 83.5651 63.741 81.0039C66.5687 76.9876 65.5757 71.885 61.413 69.2711C59.7624 68.2374 57.9408 67.7172 56.0008 68.086C52.3642 68.7641 50.0165 70.871 49.1616 74.5383C49.0432 75.0585 48.8262 75.414 48.2804 74.9795C47.5044 74.3606 46.6626 73.8602 45.7814 73.4059C45.2751 73.1425 45.2619 72.8331 45.7288 72.4775C47.7083 70.9369 48.3461 68.7509 48.2935 66.4202C48.1817 61.9298 44.6109 58.5786 40.1522 58.5588L40.1391 58.5456Z" fill="#1E1E1E"/>
<path d="M181.231 86.7781C181.231 100.275 181.231 113.773 181.231 127.264C181.231 128.238 181.152 128.33 180.139 128.33C173.32 128.33 166.494 128.337 159.674 128.33C158.398 128.33 158.346 128.258 158.346 126.967C158.346 124.663 158.352 122.358 158.346 120.054C158.346 119.817 158.451 119.488 158.181 119.382C157.912 119.277 157.787 119.619 157.629 119.784C152.085 125.624 145.213 128.758 137.289 129.647C129.614 130.503 122.381 128.883 115.62 125.295C103.639 118.928 96.6612 108.868 94.2281 95.581C93.6691 92.526 93.3797 89.4381 93.4324 86.337C93.5639 79.1604 94.8068 72.2076 97.9962 65.7091C101.449 58.6773 106.572 53.1599 113.306 49.1831C118.284 46.24 123.656 44.4228 129.397 43.8039C138.821 42.79 147.548 44.6533 155.222 50.4867C156.07 51.132 156.886 51.8299 157.622 52.6068C157.774 52.7714 157.918 53.0743 158.214 52.9163C158.431 52.7978 158.359 52.5212 158.359 52.3105C158.359 50.2563 158.365 48.1955 158.326 46.1413C158.306 45.3446 158.635 45.0681 159.391 45.0746C165.718 45.0878 172.05 45.0746 178.377 45.0878C179.087 45.0878 179.797 45.18 180.507 45.1932C181.047 45.1997 181.224 45.4697 181.218 45.9635C181.204 46.8392 181.204 47.7214 181.204 48.5971C181.204 61.3241 181.204 74.0511 181.204 86.7781H181.231ZM115.745 87.6011C115.601 89.6488 116.416 92.5721 117.481 95.4428C119.04 99.6302 121.815 102.85 125.544 105.22C129.634 107.827 134.145 108.934 138.999 108.756C145.213 108.532 150.303 105.977 154.091 101.112C159.056 94.7383 160.128 87.4958 158.089 79.7859C156.984 75.6116 154.742 72.0562 151.414 69.2513C148.126 66.486 144.312 65.0639 140.051 64.5767C133.152 63.78 127.234 65.9922 122.249 70.5484C117.633 74.7688 115.785 80.3323 115.752 87.5946L115.745 87.6011Z" fill="#1E1E1E"/>
<path d="M462.322 94.9424C452.05 94.9424 441.772 94.9424 431.5 94.9424C430.434 94.9424 430.31 95.107 430.658 96.0748C432.361 100.789 435.196 104.568 439.713 106.912C442.587 108.4 445.632 109.309 448.874 109.585C451.59 109.816 454.306 109.928 456.976 109.394C463.927 108.005 468.997 104.074 472.226 97.7735C472.529 97.1875 472.778 96.9834 473.403 97.3653C478.776 100.611 484.155 103.831 489.541 107.057C490.777 107.801 490.777 107.821 490.001 109.045C487.956 112.278 485.701 115.34 482.939 118C477.27 123.458 470.549 126.967 462.888 128.692C458.068 129.779 453.168 130.154 448.269 129.772C443.146 129.37 438.168 128.146 433.427 126.052C428.508 123.879 424.141 120.897 420.393 117.039C414.27 110.731 410.574 103.192 409.042 94.5539C408.602 92.0651 408.279 89.55 408.306 87.0349C408.358 81.9915 409.121 77.0403 410.831 72.2668C413.363 65.1692 417.46 59.0987 423.128 54.1672C429.106 48.9658 436.044 45.654 443.85 44.2253C447.585 43.5406 451.347 43.422 455.135 43.6788C461.02 44.0739 466.571 45.6474 471.792 48.3272C479.197 52.1196 484.846 57.7556 488.844 65.0507C491.954 70.7196 493.539 76.8362 494.092 83.2491C494.401 86.8637 494.158 90.485 494.256 94.1062C494.283 95.0082 493.73 94.9555 493.132 94.9555C483.682 94.9555 474.225 94.949 464.775 94.949C463.953 94.949 463.131 94.949 462.309 94.949L462.322 94.9424ZM451.327 76.4741C457.653 76.4741 463.979 76.4741 470.306 76.4741C471.194 76.4741 471.253 76.4016 470.931 75.5918C468.866 70.443 465.13 66.9798 460.054 64.9124C458.133 64.1289 456.082 63.9314 454.023 63.7734C449.755 63.4442 445.625 63.7141 441.726 65.7815C437.471 68.0399 433.992 71.0225 431.822 75.4009C431.316 76.4148 431.349 76.4741 432.506 76.4741C438.78 76.4741 445.053 76.4741 451.32 76.4741H451.327Z" fill="#1E1E1E"/>
<path d="M266.07 86.6267C266.07 100.065 266.07 113.509 266.07 126.948C266.07 127.887 265.594 128.354 264.643 128.35C258.04 128.35 251.438 128.35 244.835 128.343C243.514 128.343 243.5 128.31 243.5 127.007C243.5 124.788 243.507 122.563 243.5 120.344C243.5 120.107 243.612 119.784 243.362 119.659C243.033 119.494 242.895 119.863 242.731 120.047C239.18 123.879 235.011 126.776 230.013 128.383C224.462 130.161 218.833 130.319 213.138 129.153C208.476 128.199 204.182 126.447 200.473 123.405C196.428 120.087 193.614 115.913 191.838 111.007C190.358 106.925 189.576 102.692 189.431 98.3727C189.076 87.7328 189.346 77.093 189.286 66.4531C189.254 60.2246 189.273 54.0026 189.286 47.7741C189.286 47.1157 189.372 46.4639 189.398 45.8055C189.418 45.3248 189.655 45.1076 190.115 45.0944C190.582 45.0812 191.049 45.0746 191.509 45.0746C197.375 45.0746 203.235 45.0746 209.1 45.0812C210.028 45.0812 210.962 45.1536 211.889 45.1536C212.329 45.1536 212.494 45.3709 212.5 45.7462C212.513 46.2664 212.487 46.7865 212.487 47.3066C212.487 62.2591 212.461 77.2049 212.507 92.1573C212.514 95.2716 212.632 98.3924 213.783 101.388C215.696 106.366 219.313 109.217 224.476 110.02C228.033 110.573 231.591 110.428 234.899 108.71C238.43 106.879 240.567 103.877 241.883 100.223C242.869 97.4838 243.316 94.6461 243.323 91.7491C243.343 76.6913 243.336 61.627 243.336 46.5692C243.336 45.2787 243.336 45.2722 244.592 45.1339C244.947 45.0944 245.302 45.0746 245.657 45.0746C251.273 45.0746 256.889 45.0746 262.505 45.0746C263.459 45.0746 264.413 45.2722 265.373 45.101C265.958 44.9956 266.109 45.3578 266.109 45.8976C266.09 53.4957 266.083 61.0937 266.076 68.6917C266.076 74.67 266.076 80.6484 266.076 86.6333L266.07 86.6267Z" fill="#1E1E1E"/>
<path d="M68.9954 12.1346C68.9954 12.5494 68.9822 12.9445 68.9954 13.3395C69.2255 19.5088 69.0348 25.678 69.1006 31.8473C69.1071 32.5255 68.8967 32.8481 68.1404 32.802C67.2987 32.7493 66.4438 32.8415 65.5955 32.8744C64.9181 32.9008 64.6156 32.6242 64.6156 31.9C64.6288 23.0708 64.6288 14.2415 64.6156 5.41229C64.6156 4.6617 64.9116 4.48393 65.6218 4.37859C67.8971 4.05597 69.3899 4.81314 70.6723 6.82786C72.895 10.3108 75.4663 13.5699 77.8995 16.9212C78.4453 17.6718 78.4847 17.6587 79.0503 16.9015C81.9898 12.9379 85.0215 9.04669 87.8492 5.00407C88.1451 4.57611 88.5594 4.41809 89.0461 4.41151C89.8681 4.39834 90.6901 4.41151 91.5121 4.41151C92.1369 4.41151 92.3407 4.68146 92.3407 5.32669C92.321 14.2415 92.3276 23.1498 92.3407 32.0646C92.3407 32.6637 92.1369 32.8349 91.5713 32.802C90.6967 32.7625 89.8155 32.7428 88.9409 32.7888C88.1912 32.8283 87.9281 32.5584 87.9413 31.7946C87.9742 28.8055 87.9479 25.8163 87.9544 22.8271C87.9544 19.4298 87.961 16.0258 87.961 12.6284C87.961 12.3914 88.0399 12.1412 87.7966 11.812C87.5204 12.1741 87.2574 12.4967 87.0075 12.8391C84.331 16.4472 81.6545 20.0618 78.9845 23.6765C78.3927 24.4732 78.3467 24.4666 77.7811 23.7028C75.0323 19.9433 72.2769 16.1904 69.5214 12.4309C69.4228 12.2992 69.3307 12.1675 68.9954 12.1478V12.1346Z" fill="#1E1E1E"/>
<path d="M47.5636 33.0983C39.5867 33.0851 33.1289 26.5867 33.2079 18.5146C33.2802 10.5149 39.4421 4.20082 47.7675 4.07572C55.4682 3.95721 62.2877 10.8705 62.1561 18.666C62.0246 26.7249 55.5405 33.151 47.5636 33.0983ZM47.636 8.35536C41.5267 8.11175 37.5087 13.6687 37.5416 18.3961C37.581 24.2822 41.9936 28.9108 47.6557 28.8977C53.2389 28.8911 57.7041 24.2691 57.7041 18.4817C57.7041 12.7601 53.3243 8.35536 47.636 8.35536Z" fill="#1E1E1E"/>
<path d="M164.008 18.666C164.021 26.5274 157.478 33.0917 149.632 33.0983C141.596 33.0983 135.165 26.7117 135.112 18.7582C135.06 10.8705 141.208 4.07572 149.593 4.10206C159.135 4.12839 164.113 12.2136 164.001 18.666H164.008ZM149.507 8.34878C143.457 8.12492 139.498 13.7214 139.413 18.4092C139.288 25.0065 145.167 29.0293 149.58 28.9042C153.927 28.7857 159.654 25.5595 159.602 18.6265C159.556 11.9305 154.453 8.1776 149.514 8.34878H149.507Z" fill="#1E1E1E"/>
<path d="M211.553 32.7757C210.048 32.7757 208.699 32.7428 207.364 32.7888C206.733 32.8086 206.523 32.5518 206.536 31.979C206.536 31.7025 206.529 31.4325 206.529 31.156C206.529 22.656 206.529 14.1559 206.529 5.6559C206.529 4.45101 206.582 4.37859 207.772 4.39176C210.837 4.42468 213.908 4.22057 216.952 4.68145C219.504 5.06333 221.937 5.8205 223.989 7.4336C228.421 10.91 230.749 17.4611 228.296 23.6897C226.225 28.9503 222.207 31.742 216.722 32.5913C214.953 32.8679 213.171 32.7164 211.56 32.7691L211.553 32.7757ZM210.994 18.5409C210.994 21.5828 211.014 24.6246 210.981 27.6664C210.975 28.3775 211.231 28.6804 211.915 28.6804C212.842 28.6804 213.776 28.7462 214.703 28.7001C218.287 28.5421 221.188 27.0541 223.285 24.1176C224.647 22.2148 224.831 20.0092 224.765 17.7574C224.653 13.7148 222.154 10.4096 218.327 9.13229C216.216 8.42779 214.059 8.59239 211.902 8.53313C211.159 8.51338 210.968 8.7965 210.975 9.49441C211.001 12.5099 210.988 15.5254 210.988 18.5343L210.994 18.5409Z" fill="#1E1E1E"/>
<path d="M174.786 18.6463C174.786 14.2876 174.786 9.92237 174.786 5.56372C174.786 4.48393 174.872 4.38517 175.957 4.39834C179.133 4.44443 182.309 4.31275 185.486 4.51685C190.148 4.81972 193.66 7.78255 194.488 12.2268C195.199 16.0258 193.502 19.8314 190.109 21.8395C189.359 22.2807 189.352 22.577 189.773 23.2814C191.47 26.1323 193.094 29.0228 194.738 31.9C195.146 32.6111 195.067 32.7493 194.265 32.7625C193.252 32.7757 192.239 32.7362 191.227 32.7757C190.595 32.7954 190.214 32.5321 189.918 31.9922C188.517 29.4112 187.084 26.8566 185.703 24.2691C185.4 23.7028 185.038 23.4724 184.414 23.4856C182.96 23.5185 181.507 23.5316 180.06 23.5053C179.422 23.4921 179.278 23.7753 179.278 24.3481C179.297 26.8171 179.291 29.2861 179.278 31.7551C179.278 32.8152 179.258 32.8086 178.225 32.7823C177.403 32.7625 176.575 32.723 175.759 32.7888C174.983 32.8481 174.766 32.5584 174.773 31.8078C174.799 27.4228 174.786 23.0313 174.786 18.6463ZM179.284 14.0177C179.284 15.5781 179.284 17.1385 179.284 18.7055C179.284 19.1796 179.383 19.4956 179.955 19.4956C181.79 19.4956 183.631 19.6141 185.446 19.3113C187.399 18.9821 188.991 18.0998 189.806 16.1246C190.937 13.379 189.944 9.07303 185.617 8.67798C183.703 8.5068 181.79 8.62531 179.876 8.56606C179.311 8.5463 179.291 8.91501 179.291 9.32981C179.291 10.8902 179.291 12.4507 179.291 14.0177H179.284Z" fill="#1E1E1E"/>
<path d="M231.795 18.6858C231.795 14.3271 231.795 9.96188 231.795 5.60322C231.795 4.47076 231.841 4.40492 232.919 4.40492C237.878 4.39834 242.836 4.40492 247.795 4.39176C248.584 4.39176 248.88 4.70121 248.834 5.47813C248.788 6.21554 248.788 6.95954 248.821 7.69696C248.86 8.46071 248.518 8.69774 247.788 8.69115C244.336 8.6714 240.883 8.69115 237.431 8.69115C236.207 8.69115 236.175 8.72407 236.175 9.92237C236.175 11.7857 236.175 13.649 236.26 15.5122C236.286 16.2102 236.549 16.4077 237.201 16.4011C239.805 16.3879 242.409 16.4011 245.006 16.4208C246.072 16.4274 247.137 16.4999 248.209 16.513C248.663 16.513 248.847 16.6842 248.834 17.1517C248.807 18.001 248.794 18.8504 248.827 19.6997C248.853 20.3581 248.65 20.6083 247.939 20.6017C244.375 20.5622 240.817 20.582 237.253 20.582C236.201 20.582 236.168 20.6083 236.181 21.6288C236.207 23.6304 236.273 25.632 236.273 27.6335C236.273 28.3709 236.582 28.5685 237.266 28.5619C240.719 28.5421 244.171 28.5553 247.624 28.5619C248.788 28.5619 248.821 28.5948 248.827 29.7602C248.827 30.4976 248.814 31.2416 248.827 31.979C248.84 32.5518 248.656 32.7954 248.012 32.7888C243.329 32.7625 238.641 32.7691 233.958 32.7757C233.603 32.7757 233.248 32.8152 232.893 32.8415C231.9 32.9205 231.795 32.8283 231.795 31.8473C231.795 27.4557 231.795 23.0708 231.795 18.6792V18.6858Z" fill="#1E1E1E"/>
<path d="M20.5093 33.0983C11.3816 33.0851 5.28546 27.3504 4.74622 19.6273C4.18724 11.5816 10.0926 4.76705 17.9643 4.18765C23.5869 3.77285 27.9404 6.03777 31.2153 10.5544C31.6033 11.0878 31.5178 11.4038 30.9522 11.7264C30.1236 12.2005 29.3016 12.7074 28.5191 13.2539C28.0258 13.5963 27.7694 13.4844 27.4932 12.9906C24.0538 6.8937 14.8143 6.79494 10.9015 12.4704C9.07333 15.1238 8.68534 18.0998 9.38241 21.2009C10.2636 25.1382 12.9204 27.4492 16.6425 28.5092C20.9039 29.7207 25.3559 27.752 27.5721 23.9596C28.1574 22.9588 28.1574 22.9654 29.1175 23.5448C29.8672 23.9925 30.63 24.4337 31.406 24.8353C31.886 25.0855 31.9518 25.362 31.6756 25.8163C28.7887 30.4844 24.6654 32.9995 20.5093 33.1049V33.0983Z" fill="#1E1E1E"/>
<path d="M95.6683 18.6792C95.6683 14.3205 95.6683 9.96188 95.6683 5.60322C95.6683 4.4576 95.7077 4.39834 96.8783 4.40492C99.831 4.42468 102.79 4.33908 105.743 4.51685C111.103 4.83947 115.272 9.00061 115.259 14.3798C115.246 19.3903 111.832 23.3802 106.795 24.2032C104.914 24.5127 103.027 24.3744 101.14 24.3612C100.285 24.3547 100.035 24.7036 100.041 25.4739C100.055 27.5282 100.041 29.589 100.041 31.6432C100.041 32.7625 100.028 32.7625 98.8774 32.7823C98.1409 32.7954 97.3978 32.802 96.6613 32.8679C95.9247 32.9403 95.6354 32.7164 95.642 31.9263C95.6749 27.515 95.6551 23.0971 95.6551 18.6858L95.6683 18.6792ZM100.068 13.8596C100.068 15.6966 100.035 17.5336 100.147 19.3639C100.18 19.9433 100.364 20.1738 100.956 20.233C102.185 20.345 103.422 20.3647 104.645 20.3055C107.893 20.1606 110.044 18.4817 110.688 15.6176C111.366 12.5758 109.373 9.01377 106.072 8.66482C104.428 8.49363 102.79 8.63848 101.153 8.53972C100.344 8.49363 100.068 8.84259 100.068 9.58C100.068 11.0087 100.068 12.4309 100.068 13.8596Z" fill="#1E1E1E"/>
<path d="M127.997 20.6939C127.997 24.3942 127.977 28.101 128.01 31.8012C128.016 32.5847 127.826 32.8876 126.991 32.7954C126.208 32.7098 125.399 32.7164 124.61 32.7888C123.768 32.8679 123.597 32.5057 123.604 31.7486C123.637 28.9767 123.617 26.2048 123.617 23.4395C123.617 18.9162 123.617 14.3864 123.617 9.86312C123.617 9.00719 123.2 8.57703 122.368 8.57264C120.368 8.57264 118.369 8.55289 116.37 8.59239C115.772 8.60556 115.594 8.37512 115.601 7.82864C115.62 7.00563 115.627 6.18262 115.594 5.35961C115.561 4.64195 115.877 4.38517 116.567 4.38517C119.086 4.40492 121.611 4.372 124.13 4.39176C127.72 4.42468 131.305 4.28641 134.895 4.4971C135.612 4.5366 135.96 4.71437 135.901 5.49129C135.849 6.22871 135.862 6.97271 135.901 7.71013C135.928 8.35537 135.645 8.57264 135.02 8.56605C132.995 8.5463 130.963 8.58581 128.937 8.55289C128.22 8.53972 127.984 8.77674 127.99 9.49441C128.016 13.2276 128.003 16.9542 128.003 20.6873L127.997 20.6939Z" fill="#1E1E1E"/>
<path d="M166.803 18.6463C166.803 14.1559 166.809 9.65901 166.79 5.16868C166.79 4.66829 166.987 4.43126 167.434 4.41809C168.473 4.39834 169.512 4.40492 170.551 4.41809C171.025 4.42468 171.228 4.70779 171.215 5.16868C171.209 5.71515 171.215 6.26163 171.215 6.81469C171.215 15.0645 171.215 23.3078 171.215 31.5576C171.215 32.7757 171.215 32.7757 170.012 32.7691C169.19 32.7691 168.368 32.7559 167.552 32.7954C167.039 32.8218 166.816 32.7098 166.822 32.1238C166.849 27.6269 166.836 23.1366 166.836 18.6397H166.796L166.803 18.6463Z" fill="#1E1E1E"/>
<path d="M402.341 190.582C372.229 190.582 342.123 190.582 312.011 190.582C310.419 190.582 310.419 190.582 310.419 188.995C310.419 188.06 310.895 187.593 311.846 187.593C371.407 187.593 430.974 187.593 490.534 187.593C491.468 187.593 492.395 187.593 493.329 187.599C493.888 187.599 494.204 187.804 494.118 188.449C494.065 188.824 494.072 189.226 494.144 189.594C494.296 190.371 493.908 190.575 493.243 190.575C491.711 190.575 490.172 190.582 488.64 190.582C459.869 190.582 431.105 190.582 402.334 190.582H402.341Z" fill="#1E1E1E"/>
<path d="M405.34 161.625V165.556C405.34 167.887 405.34 170.218 405.34 172.548C405.34 173.529 405.241 173.608 404.242 173.621C403.176 173.628 402.104 173.621 401.039 173.648C400.434 173.668 400.138 173.49 400.145 172.818C400.158 166.32 400.158 159.815 400.145 153.316C400.145 152.71 400.375 152.487 400.967 152.5C402.196 152.526 403.433 152.533 404.662 152.5C405.346 152.48 405.761 152.77 406.122 153.343C408.24 156.74 410.39 160.111 412.534 163.495C412.62 163.633 412.679 163.791 412.922 163.857C413.1 163.508 413.014 163.12 413.014 162.758C413.014 159.683 413.001 156.615 412.994 153.54C412.994 152.454 413.008 152.467 414.106 152.493C415.145 152.513 416.19 152.526 417.23 152.493C417.887 152.467 418.17 152.684 418.17 153.375C418.157 159.848 418.157 166.32 418.17 172.798C418.17 173.47 417.867 173.654 417.262 173.628C416.085 173.575 414.908 173.536 413.731 173.516C413.113 173.51 412.81 173.095 412.528 172.654C410.311 169.157 408.102 165.661 405.886 162.165C405.774 161.987 405.715 161.75 405.34 161.638V161.625Z" fill="#1E1E1E"/>
<path d="M361.99 163.001C361.76 169.493 356.952 174.142 350.508 173.779C344.464 173.437 340.255 168.552 340.519 162.488C340.782 156.437 346.023 151.914 351.77 152.171C357.209 152.414 362.18 157.642 361.99 163.008V163.001ZM345.773 162.83C345.733 166.116 348.002 168.618 351.054 168.657C354.256 168.697 356.788 166.293 356.722 163.107C356.67 160.526 355.164 157.385 351.244 157.359C348.239 157.339 345.812 159.755 345.773 162.83Z" fill="#1E1E1E"/>
<path d="M365.159 163.067C365.159 159.887 365.179 156.707 365.146 153.527C365.14 152.75 365.39 152.467 366.185 152.487C368.54 152.533 370.894 152.454 373.248 152.526C375.392 152.592 377.365 153.224 378.851 154.87C381.488 157.787 381.304 162.363 378.384 165.102C377.687 165.754 377.621 166.214 378.062 167.024C379.061 168.881 379.956 170.79 380.89 172.687C381.264 173.444 381.205 173.529 380.396 173.523C379.108 173.51 377.825 173.49 376.536 173.523C375.931 173.536 375.57 173.299 375.32 172.759C374.616 171.212 373.899 169.671 373.169 168.137C372.867 167.492 371.058 167.077 370.526 167.518C370.282 167.716 370.335 168.018 370.335 168.288C370.335 169.77 370.309 171.251 370.335 172.733C370.348 173.411 370.092 173.661 369.414 173.641C368.402 173.608 367.389 173.641 366.376 173.641C365.225 173.641 365.153 173.575 365.153 172.45C365.153 169.322 365.153 166.201 365.153 163.074L365.159 163.067ZM370.335 159.597C370.368 160.197 370.414 161.039 370.447 161.889C370.466 162.33 370.683 162.527 371.117 162.534C371.88 162.534 372.643 162.573 373.399 162.389C374.596 162.093 375.313 161.21 375.339 159.979C375.379 158.294 374.392 157.418 372.4 157.352C371.019 157.308 370.331 158.059 370.335 159.604V159.597Z" fill="#1E1E1E"/>
<path d="M384.204 163.034C384.204 159.854 384.217 156.674 384.191 153.487C384.191 152.757 384.395 152.473 385.171 152.48C388.676 152.513 392.181 152.513 395.693 152.48C396.455 152.48 396.804 152.71 396.778 153.507C396.745 154.495 396.758 155.482 396.784 156.47C396.804 157.109 396.528 157.346 395.896 157.346C394.062 157.326 392.227 157.372 390.392 157.339C389.675 157.326 389.347 157.517 389.366 158.307C389.445 160.941 389.018 160.513 391.569 160.559C392.996 160.585 394.417 160.585 395.844 160.559C396.501 160.552 396.804 160.796 396.784 161.474C396.751 162.488 396.751 163.502 396.771 164.516C396.784 165.187 396.482 165.437 395.824 165.431C393.963 165.411 392.095 165.444 390.234 165.411C389.59 165.398 389.333 165.609 389.379 166.26C389.419 166.807 389.419 167.36 389.379 167.906C389.333 168.604 389.649 168.809 390.307 168.795C392.168 168.762 394.035 168.815 395.896 168.769C396.534 168.749 396.804 168.92 396.791 169.579C396.764 170.645 396.778 171.719 396.784 172.785C396.784 173.365 396.534 173.621 395.936 173.621C392.345 173.615 388.761 173.615 385.171 173.635C384.401 173.635 384.197 173.292 384.204 172.575C384.23 169.395 384.217 166.214 384.217 163.028L384.204 163.034Z" fill="#1E1E1E"/>
<path d="M482.347 163.041C482.347 159.861 482.366 156.681 482.334 153.501C482.327 152.77 482.531 152.48 483.307 152.487C486.897 152.52 490.481 152.52 494.072 152.5C494.769 152.5 494.98 152.77 494.96 153.428C494.927 154.416 494.92 155.403 494.96 156.391C494.986 157.102 494.723 157.379 494.013 157.365C492.178 157.339 490.343 157.379 488.509 157.346C487.818 157.332 487.522 157.537 487.542 158.274C487.614 160.98 487.18 160.519 489.771 160.565C491.198 160.592 492.619 160.598 494.046 160.585C494.69 160.585 494.999 160.796 494.966 161.5C494.92 162.54 494.933 163.587 494.966 164.628C494.98 165.227 494.762 165.451 494.151 165.437C492.264 165.411 490.37 165.451 488.482 165.418C487.752 165.405 487.489 165.668 487.548 166.379C487.594 166.899 487.581 167.419 487.548 167.939C487.502 168.591 487.785 168.809 488.417 168.802C490.337 168.782 492.25 168.822 494.171 168.789C494.789 168.776 494.993 168.96 494.973 169.579C494.933 170.672 494.953 171.771 494.966 172.871C494.966 173.365 494.769 173.536 494.276 173.536C490.659 173.562 487.049 173.608 483.432 173.641C482.399 173.648 482.366 173.615 482.366 172.588C482.366 169.408 482.366 166.228 482.366 163.047L482.347 163.041Z" fill="#1E1E1E"/>
<path d="M430.546 165.161C431.105 163.39 431.645 161.731 432.151 160.065C432.848 157.787 433.532 155.502 434.203 153.217C434.334 152.77 434.545 152.5 435.051 152.506C436.392 152.513 437.734 152.506 439.076 152.5C439.865 152.5 439.542 152.994 439.437 153.349C438.622 155.937 437.787 158.518 436.978 161.105C435.787 164.898 434.61 168.69 433.427 172.482C433.111 173.51 432.874 173.707 431.842 173.575C430.822 173.444 429.823 173.668 428.81 173.621C428.159 173.589 427.778 173.384 427.561 172.706C425.496 166.234 423.398 159.769 421.294 153.303C421.103 152.717 421.248 152.487 421.866 152.5C423.095 152.52 424.332 152.52 425.562 152.5C426.14 152.493 426.43 152.717 426.614 153.296C427.751 156.964 428.922 160.611 430.086 164.272C430.165 164.529 430.191 164.812 430.546 165.168V165.161Z" fill="#1E1E1E"/>
<path d="M311.057 162.982C311.057 159.881 311.057 156.786 311.057 153.685C311.057 152.454 311.057 152.48 312.267 152.487C315.634 152.5 319.008 152.513 322.375 152.473C323.118 152.467 323.335 152.71 323.309 153.415C323.269 154.403 323.263 155.39 323.309 156.378C323.348 157.155 323.019 157.372 322.289 157.359C320.593 157.326 318.89 157.379 317.193 157.346C316.45 157.332 316.213 157.629 316.292 158.333C316.351 158.82 316.358 159.321 316.338 159.815C316.318 160.394 316.575 160.578 317.127 160.572C318.85 160.552 320.58 160.592 322.303 160.572C323.032 160.559 323.348 160.802 323.309 161.573C323.256 162.501 323.256 163.442 323.309 164.371C323.361 165.181 323.105 165.49 322.25 165.464C320.527 165.405 318.797 165.464 317.075 165.431C316.423 165.418 316.213 165.668 316.22 166.3C316.246 168.413 316.206 170.52 316.239 172.634C316.252 173.378 316.009 173.681 315.246 173.648C314.181 173.602 313.109 173.615 312.044 173.648C311.307 173.668 311.024 173.378 311.031 172.627C311.057 169.421 311.044 166.208 311.044 163.001L311.057 162.982Z" fill="#1E1E1E"/>
<path d="M451.439 163.021C451.439 159.841 451.439 156.661 451.439 153.481C451.439 152.473 451.537 152.408 452.524 152.447C453.537 152.487 454.549 152.487 455.562 152.493C456.7 152.506 456.759 152.539 456.765 153.711C456.779 158.287 456.779 162.87 456.779 167.446C456.779 168.227 457.167 168.62 457.943 168.624C459.501 168.624 461.066 168.65 462.625 168.611C463.315 168.591 463.539 168.861 463.526 169.526C463.499 170.593 463.513 171.666 463.545 172.733C463.565 173.352 463.348 173.628 462.697 173.628C459.218 173.615 455.746 173.615 452.267 173.641C451.59 173.641 451.439 173.325 451.445 172.726C451.458 169.493 451.452 166.254 451.445 163.021H451.439Z" fill="#1E1E1E"/>
<path d="M466.912 162.942C466.912 159.788 466.926 156.635 466.906 153.481C466.906 152.73 467.057 152.388 467.925 152.467C469.037 152.572 470.168 152.526 471.292 152.493C471.976 152.473 472.219 152.77 472.219 153.422C472.2 158.221 472.213 163.021 472.167 167.821C472.167 168.453 472.318 168.65 472.93 168.637C474.626 168.611 476.329 168.657 478.026 168.618C478.743 168.604 479.013 168.861 478.986 169.572C478.953 170.639 478.973 171.712 478.986 172.779C478.986 173.352 478.75 173.628 478.145 173.621C474.718 173.615 471.299 173.615 467.873 173.635C467.169 173.635 466.906 173.358 466.912 172.654C466.939 169.421 466.926 166.181 466.926 162.949L466.912 162.942Z" fill="#1E1E1E"/>
<path d="M331.858 160.605C331.858 162.936 331.884 165.266 331.845 167.597C331.831 168.367 332.029 168.664 332.844 168.637C334.515 168.578 336.185 168.637 337.855 168.618C338.401 168.618 338.638 168.769 338.631 169.368C338.611 170.487 338.684 171.613 338.717 172.739C338.736 173.345 338.467 173.628 337.829 173.628C334.403 173.615 330.977 173.621 327.557 173.628C326.873 173.628 326.663 173.325 326.663 172.673C326.676 166.254 326.676 159.834 326.663 153.415C326.663 152.763 326.86 152.454 327.557 152.473C328.708 152.513 329.859 152.513 331.009 152.487C331.647 152.473 331.884 152.724 331.877 153.356C331.858 155.772 331.871 158.182 331.871 160.598L331.858 160.605Z" fill="#1E1E1E"/>
<path d="M447.934 163.021C447.934 166.201 447.934 169.375 447.934 172.555C447.934 173.582 447.894 173.615 446.868 173.621C445.803 173.628 444.731 173.621 443.666 173.635C443.034 173.648 442.719 173.424 442.725 172.726C442.738 166.26 442.738 159.795 442.725 153.329C442.725 152.671 443.001 152.473 443.613 152.493C444.678 152.526 445.744 152.506 446.816 152.5C447.92 152.5 447.927 152.5 447.927 153.573C447.927 156.72 447.927 159.874 447.927 163.021H447.934Z" fill="#1E1E1E"/>
<path d="M271.686 182.36C269.779 182.439 268.299 181.609 267.142 180.154C265.471 178.047 264.735 175.552 264.307 172.965C263.288 166.762 263.282 160.573 264.86 154.457C265.406 152.35 266.234 150.335 267.911 148.821C269.036 147.8 270.357 147.306 271.896 147.399C273.751 147.504 275.461 147.991 276.855 149.282C278.177 150.506 278.203 151.217 276.98 152.534C275.888 153.706 275.244 155.043 275.263 156.676C275.29 158.717 276.901 160.639 278.834 160.909C281.208 161.238 283.102 160.093 283.747 157.9C284.43 155.583 283.957 153.39 282.957 151.283C282.609 150.546 282.142 149.854 281.741 149.137C281.622 148.933 281.419 148.656 281.662 148.472C281.925 148.281 282.096 148.597 282.26 148.755C285.2 151.586 288.133 154.424 291.072 157.262C292.887 159.013 294.709 160.751 296.504 162.522C298.168 164.162 298.142 165.617 296.504 167.282C291.921 171.924 287.1 176.316 282.418 180.859C282.339 180.938 282.267 181.017 282.175 181.083C282.024 181.195 281.846 181.346 281.668 181.175C281.524 181.037 281.649 180.865 281.734 180.727C281.951 180.345 282.195 179.977 282.405 179.595C283.562 177.521 284.312 175.361 283.957 172.918C283.668 170.93 282.523 169.429 280.846 168.961C279.143 168.487 277.295 169.1 276.204 170.496C275.119 171.885 274.967 174.123 275.842 175.71C276.23 176.415 276.769 176.994 277.269 177.613C278.098 178.633 278.078 179.226 277.17 180.194C275.868 181.596 274.185 182.169 272.33 182.353C272.113 182.373 271.89 182.353 271.673 182.353L271.686 182.36Z" fill="#1E1E1E"/>
<path d="M104.539 162.153C104.579 158.196 106.006 154.931 109.406 152.738C112.97 150.44 117.692 151.02 120.467 154.022C121.328 154.951 121.887 156.037 121.933 157.334C121.973 158.328 121.388 159.329 120.572 159.691C119.717 160.073 118.711 159.895 118.06 159.243C117.343 158.526 117.126 157.492 117.672 156.518C118.119 155.714 117.869 155.293 117.212 154.825C115.048 153.291 111.977 153.89 110.662 156.287C108.63 159.987 108.65 163.819 110.497 167.566C112.063 170.739 115.647 170.654 117.356 169.37C117.981 168.902 118.192 168.468 117.784 167.717C117.343 166.894 117.376 166.018 117.942 165.228C118.481 164.478 119.237 164.26 120.118 164.372C121.388 164.524 122.275 165.985 121.973 167.46C121.578 169.363 120.421 170.706 118.783 171.641C114.147 174.281 108.347 172.49 105.796 167.638C104.895 165.926 104.48 164.102 104.546 162.16L104.539 162.153Z" fill="#1E1E1E"/>
<path d="M244.796 164.754C244.763 163.839 245.263 163.174 245.894 162.568C249.084 159.487 252.28 156.406 255.469 153.324C257.028 151.823 258.573 150.315 260.138 148.821C260.322 148.643 260.546 148.261 260.783 148.459C261.078 148.696 260.75 149.012 260.592 149.242C259.665 150.566 258.737 151.889 257.935 153.291C256.074 156.55 255.16 160.053 255.022 163.793C254.864 168.125 255.555 172.253 257.672 176.085C258.481 177.554 259.461 178.903 260.414 180.279C260.506 180.411 260.612 180.543 260.697 180.681C260.796 180.846 260.927 181.043 260.763 181.201C260.546 181.405 260.355 181.208 260.204 181.063C259.5 180.411 258.803 179.759 258.113 179.088C254.022 175.124 249.938 171.154 245.855 167.184C245.184 166.532 244.743 165.762 244.796 164.761V164.754Z" fill="#1E1E1E"/>
<path d="M210.633 163.187C210.731 164.708 210.514 166.117 210.804 167.5C211.113 168.994 211.718 169.58 212.987 169.626C214.309 169.673 215.282 168.968 215.69 167.678C215.966 166.802 215.9 165.88 215.979 164.985C216.078 163.892 216.032 162.799 215.933 161.699C215.861 160.922 215.512 160.58 214.776 160.481C213.895 160.363 213.664 159.935 214.085 159.125C214.664 158.012 215.762 157.67 216.88 157.485C218.741 157.176 219.662 157.907 219.912 159.783C220.201 161.949 219.767 164.109 219.879 166.275C219.918 167.013 219.872 167.757 219.879 168.494C219.885 169.245 220.194 169.705 221.01 169.844C222.102 170.035 222.253 170.515 221.595 171.411C220.898 172.359 218.425 173.024 217.354 172.55C216.979 172.385 216.768 172.069 216.584 171.727C216.104 170.844 216.098 170.831 215.276 171.477C213.993 172.477 212.54 172.846 210.948 172.609C208.64 172.267 207.101 170.502 206.825 168.033C206.641 166.387 206.72 164.748 206.687 163.102C206.68 162.66 206.667 162.226 206.667 161.785C206.661 160.962 206.279 160.534 205.431 160.461C204.556 160.389 204.339 160 204.727 159.204C205.293 158.038 206.411 157.67 207.562 157.479C209.469 157.156 210.508 157.992 210.626 159.935C210.692 161.054 210.639 162.18 210.639 163.181L210.633 163.187Z" fill="#1E1E1E"/>
<path d="M136.835 165.353C136.835 166.42 136.861 167.493 136.828 168.56C136.796 169.435 137.151 169.942 137.999 170.186C138.913 170.449 139.045 170.983 138.433 171.753C137.558 172.872 135.684 173.083 134.441 171.99C133.652 171.299 133.185 171.351 132.33 171.872C130.068 173.248 127.129 172.886 125.399 171.193C122.966 168.81 123.702 165.083 126.859 163.793C128.589 163.088 130.371 162.97 132.173 163.398C132.843 163.556 133.113 163.404 133.054 162.72C133.047 162.641 133.054 162.555 133.054 162.476C133.106 159.586 131.857 159.507 129.549 159.658C129.029 159.691 128.996 160.093 128.963 160.494C128.904 161.344 128.615 162.061 127.76 162.384C127.05 162.654 126.339 162.614 125.761 162.081C125.116 161.482 124.978 160.718 125.215 159.889C125.432 159.138 125.925 158.585 126.603 158.229C129.18 156.866 131.85 156.748 134.527 157.854C136.329 158.598 136.75 160.224 136.822 161.976C136.868 163.095 136.828 164.221 136.828 165.347H136.835V165.353ZM133.087 167.539C133.1 165.999 132.574 165.465 130.976 165.432C129.371 165.399 128.174 166.341 128.148 167.658C128.122 169.027 129.036 169.942 130.456 169.962C132.067 169.982 133.067 169.06 133.087 167.546V167.539Z" fill="#1E1E1E"/>
<path d="M203.938 164.827C203.938 169.396 200.716 172.675 196.238 172.668C191.91 172.662 188.583 169.258 188.609 164.866C188.635 160.659 192.206 157.123 196.422 157.15C200.716 157.169 203.938 160.461 203.938 164.833V164.827ZM192.91 164.767C193.028 166.275 193.18 167.717 194.081 168.948C195.415 170.759 197.934 170.667 198.953 168.659C200.177 166.249 199.854 163.767 198.829 161.363C198.316 160.159 197.165 159.434 196.067 159.54C194.738 159.671 193.87 160.415 193.403 161.66C193.022 162.68 193.048 163.753 192.91 164.761V164.767Z" fill="#1E1E1E"/>
<path d="M184.532 164.846C184.532 165.913 184.532 166.986 184.532 168.053C184.532 169.137 185.034 169.868 186.038 170.245C186.386 170.377 186.728 170.509 186.761 170.93C186.794 171.378 186.577 171.72 186.183 171.944C186.064 172.01 185.939 172.076 185.808 172.115C183.809 172.635 181.803 172.642 179.797 172.174C179.291 172.056 178.87 171.733 178.778 171.207C178.679 170.634 179.166 170.403 179.574 170.186C180.231 169.844 180.52 169.317 180.514 168.586C180.507 165.979 180.501 163.378 180.52 160.771C180.52 160.159 180.29 159.908 179.698 159.961C179.62 159.968 179.534 159.961 179.455 159.961C178.903 159.935 178.311 159.974 178.179 159.23C178.061 158.532 178.462 157.696 179.186 157.67C180.54 157.61 180.494 156.814 180.553 155.82C180.849 151.099 185.216 148.715 189.392 150.98C190.51 151.586 191.397 152.449 191.286 153.897C191.2 155.023 190.372 155.76 189.26 155.721C188.195 155.681 187.458 154.904 187.439 153.792C187.425 153.239 187.636 152.613 186.755 152.475C185.827 152.323 184.887 152.666 184.598 153.43C184.151 154.621 184.354 155.866 184.387 157.097C184.394 157.452 184.736 157.472 185.012 157.472C185.696 157.472 186.38 157.466 187.064 157.472C187.59 157.472 188.142 157.452 188.28 158.157C188.425 158.855 188.076 159.619 187.458 159.869C186.814 160.132 186.117 160.218 185.439 160.099C184.657 159.961 184.499 160.297 184.519 160.988C184.558 162.279 184.532 163.562 184.532 164.853V164.846Z" fill="#1E1E1E"/>
<path d="M172.267 165.103C171.038 165.103 169.801 165.083 168.572 165.103C167.697 165.123 167.579 165.314 167.769 166.163C168.519 169.508 172.149 170.074 174.47 169.054C174.937 168.85 175.358 168.514 175.786 168.224C176.338 167.849 176.601 167.934 176.752 168.593C176.983 169.607 176.601 170.423 175.878 171.101C175.437 171.516 174.931 171.865 174.365 172.076C170.972 173.333 167.362 172.747 165.014 169.613C162.962 166.881 163.127 162.581 165.349 159.889C167.875 156.834 172.432 156.188 175.26 158.565C176.917 159.954 177.528 161.791 177.18 163.944C177.048 164.754 176.654 165.136 175.799 165.103C174.622 165.057 173.445 165.09 172.267 165.09V165.103ZM171.228 162.733V162.753C171.445 162.753 171.669 162.779 171.886 162.753C172.346 162.687 172.984 162.996 173.228 162.45C173.497 161.851 173.28 161.212 172.899 160.672C172.537 160.159 172.05 159.823 171.439 159.684C169.565 159.27 168.223 160.132 167.723 161.995C167.559 162.621 167.736 162.897 168.361 162.871C169.315 162.838 170.268 162.786 171.222 162.739L171.228 162.733Z" fill="#1E1E1E"/>
<path d="M166.665 183.071C167.131 182.623 167.592 182.176 168.065 181.735C169.025 180.846 170.11 180.174 171.386 179.845C172.945 179.45 173.773 180.161 173.655 181.761C173.642 181.945 173.616 182.13 173.596 182.314C173.957 182.465 174.069 182.182 174.234 182.037C175.049 181.3 175.937 180.668 176.963 180.233C177.344 180.075 177.745 179.977 178.153 179.944C179.554 179.838 180.277 180.668 179.975 182.031C179.758 182.999 179.337 183.894 178.975 184.809C178.561 185.856 178.285 186.949 178.028 188.042C177.824 188.918 177.995 189.115 178.883 189.214C179.271 189.26 179.81 189.148 179.856 189.714C179.896 190.241 179.416 190.432 178.995 190.57C178.199 190.84 177.371 190.847 176.562 190.682C175.549 190.478 175.016 189.602 175.194 188.496C175.411 187.16 175.924 185.915 176.397 184.664C176.647 183.999 176.851 183.315 177.042 182.63C177.101 182.406 177.153 182.116 176.89 181.958C176.627 181.8 176.424 181.998 176.226 182.143C174.72 183.288 173.51 184.691 172.636 186.363C172.116 187.357 171.623 188.371 171.13 189.379C170.761 190.123 170.17 190.551 169.348 190.663C168.545 190.768 168.289 190.498 168.453 189.701C168.881 187.621 169.742 185.692 170.485 183.716C170.637 183.308 170.814 182.9 170.827 182.452C170.847 181.781 170.551 181.57 169.966 181.906C168.946 182.479 168.216 183.381 167.467 184.256C166.184 185.744 165.369 187.522 164.462 189.24C164.067 189.984 163.547 190.531 162.673 190.649C161.89 190.761 161.575 190.485 161.7 189.701C161.792 189.109 161.93 188.516 162.094 187.937C162.686 185.797 163.39 183.69 164.126 181.596C164.442 180.688 165.093 180.168 166.02 179.957C167.072 179.72 167.296 179.924 167.053 180.958C166.895 181.636 166.691 182.301 166.507 182.972C166.559 183.005 166.612 183.038 166.665 183.064V183.071Z" fill="#1E1E1E"/>
<path d="M228.776 166.255C228.79 167.105 228.717 167.954 228.836 168.803C228.934 169.508 229.276 169.949 229.96 170.16C230.473 170.311 230.96 170.509 230.894 171.207C230.828 171.878 230.368 172.135 229.796 172.247C228.027 172.602 226.258 172.596 224.495 172.227C223.917 172.109 223.45 171.793 223.351 171.187C223.252 170.575 223.765 170.338 224.213 170.127C224.831 169.831 225.094 169.35 225.094 168.678C225.094 166.295 225.087 163.905 225.094 161.521C225.094 160.791 224.758 160.494 224.048 160.468C223.029 160.428 222.739 159.763 223.305 158.875C224.449 157.077 227.073 156.946 228.296 158.644C228.586 159.046 228.77 159.092 229.085 158.697C229.704 157.92 230.512 157.42 231.486 157.222C232.788 156.952 234.064 157.782 234.346 159.066C234.55 159.994 234.136 160.975 233.367 161.403C232.584 161.831 231.67 161.686 230.947 161.014C229.993 160.126 229.796 160.165 229.256 161.403C228.803 162.437 228.862 163.549 228.776 164.636C228.73 165.182 228.77 165.729 228.77 166.282L228.776 166.255Z" fill="#1E1E1E"/>
<path d="M154.374 165.182C154.374 164.056 154.393 162.93 154.374 161.811C154.347 160.797 154.124 160.58 153.111 160.481C152.302 160.402 152.092 160.112 152.368 159.342C152.868 157.946 154.117 157.584 155.367 157.373C156.353 157.202 157.122 157.716 157.557 158.631C157.793 159.131 158.023 159.072 158.333 158.717C159.01 157.92 159.838 157.367 160.891 157.196C162.055 157.005 163.238 157.762 163.561 158.894C163.843 159.875 163.317 161.001 162.37 161.429C161.509 161.818 160.7 161.614 160.029 160.824C159.516 160.224 159.24 160.257 158.799 160.929C158.148 161.923 158.142 163.069 158.089 164.181C158.017 165.604 158.069 167.032 158.069 168.461C158.069 169.35 158.405 169.995 159.332 170.232C159.753 170.344 160.2 170.463 160.194 171.055C160.194 171.641 159.865 171.99 159.352 172.135C157.412 172.688 155.452 172.629 153.512 172.128C153.058 172.01 152.664 171.681 152.624 171.154C152.585 170.627 152.986 170.357 153.394 170.186C154.176 169.857 154.4 169.238 154.393 168.468C154.393 167.368 154.393 166.275 154.393 165.176H154.374V165.182Z" fill="#1E1E1E"/>
<path d="M145.739 166.222C145.739 166.96 145.779 167.704 145.726 168.441C145.66 169.35 146.042 169.896 146.89 170.173C147.357 170.324 147.863 170.476 147.85 171.121C147.837 171.806 147.337 172.056 146.785 172.188C145.003 172.616 143.207 172.609 141.419 172.201C140.853 172.069 140.393 171.753 140.294 171.141C140.195 170.509 140.715 170.298 141.162 170.107C141.82 169.824 142.03 169.277 142.03 168.652C142.05 166.269 142.043 163.885 142.03 161.495C142.03 160.804 141.688 160.468 140.958 160.448C139.926 160.422 139.65 159.935 140.143 159.019C140.768 157.861 141.912 157.492 143.096 157.347C144.049 157.229 144.792 157.709 145.206 158.598C145.41 159.039 145.601 159.039 145.91 158.684C146.594 157.894 147.429 157.327 148.481 157.183C149.474 157.051 150.329 157.347 150.908 158.216C151.434 159.013 151.395 159.974 150.823 160.758C150.04 161.837 148.567 161.877 147.719 160.85C147.094 160.093 146.916 160.106 146.41 160.962C145.877 161.87 145.811 162.891 145.752 163.898C145.706 164.662 145.746 165.432 145.739 166.203V166.222Z" fill="#1E1E1E"/>
<path d="M212.665 192.947C211.862 192.947 211.244 192.585 210.679 192.058C209.147 190.623 207.923 188.951 206.805 187.18C206.654 186.943 206.562 186.541 206.2 186.6C205.858 186.653 205.852 187.054 205.74 187.324C205.313 188.358 205.01 189.451 204.287 190.346C203.978 190.728 203.636 191.025 203.096 190.761C202.583 190.505 202.505 190.103 202.656 189.589C203.846 185.487 204.852 181.333 206.292 177.303C206.569 176.533 207.003 175.941 207.864 175.796C208.739 175.644 209.16 175.993 209.008 176.862C208.851 177.751 208.594 178.62 208.338 179.489C207.93 180.852 207.483 182.209 207.055 183.565C206.976 183.815 206.759 184.118 207.022 184.329C207.325 184.566 207.588 184.256 207.818 184.092C208.824 183.381 209.515 182.4 210.146 181.366C210.403 180.951 210.593 180.484 211.001 180.168C211.586 179.713 212.218 179.759 212.75 180.174C213.322 180.622 212.987 181.181 212.698 181.642C211.823 183.018 210.475 183.901 209.199 184.829C208.62 185.25 208.568 185.553 208.936 186.152C210.238 188.259 211.547 190.346 213.756 191.65C213.993 191.788 214.23 191.986 214.171 192.302C214.112 192.605 213.822 192.723 213.566 192.796C213.283 192.875 212.98 192.901 212.684 192.947H212.665Z" fill="#1E1E1E"/>
<path d="M190.819 179.983C191.555 180.023 192.081 179.937 192.581 180.141C192.903 180.266 193.186 180.444 193.193 180.832C193.206 181.214 192.949 181.432 192.634 181.57C191.878 181.886 191.088 181.879 190.293 181.827C187.886 181.662 185.92 182.419 184.71 184.625C184.341 185.297 184.058 186.014 183.802 186.738C183.611 187.265 183.519 187.884 184.045 188.246C184.558 188.602 185.15 188.45 185.67 188.128C186.492 187.614 187.143 186.903 187.748 186.159C188.491 185.244 189.201 184.302 189.938 183.387C190.385 182.834 190.917 182.452 191.687 182.465C192.239 182.479 192.45 182.669 192.272 183.216C191.97 184.157 191.667 185.092 191.378 186.034C191.24 186.482 191.082 186.923 190.996 187.377C190.799 188.358 191.266 188.957 192.266 189.056C192.548 189.082 192.917 188.984 193.022 189.379C193.134 189.793 192.871 190.05 192.548 190.248C191.739 190.742 190.858 190.867 189.938 190.742C189.405 190.669 189.083 190.287 188.839 189.833C188.642 189.464 188.603 189.049 188.517 188.648C188.464 188.424 188.57 188.088 188.287 188.003C188.063 187.937 187.932 188.213 187.767 188.352C187.195 188.819 186.656 189.333 186.058 189.76C185.361 190.261 184.578 190.584 183.697 190.61C181.941 190.656 180.889 189.714 180.876 187.943C180.856 186.054 181.783 184.546 183.118 183.354C184.966 181.715 187.097 180.543 189.569 180.115C190.049 180.029 190.549 180.01 190.819 179.983Z" fill="#1E1E1E"/>
<path d="M218.018 190.768C215.091 190.768 213.625 189.688 213.309 187.766C213.23 187.291 213.263 186.831 213.388 186.383C214.296 183.144 216.117 180.747 219.491 179.786C220.083 179.621 220.688 179.601 221.28 179.733C222.233 179.937 223.068 180.365 223.266 181.438C223.515 182.788 223.114 183.94 222.016 184.79C220.747 185.777 219.228 185.994 217.689 186.119C217.446 186.139 217.196 186.133 216.952 186.139C215.696 186.159 215.427 186.659 216.084 187.766C216.716 188.826 217.893 189.122 219.438 188.608C220.365 188.299 221.155 187.779 221.891 187.153C222.134 186.949 222.417 186.508 222.779 186.837C223.127 187.153 222.897 187.581 222.667 187.884C221.332 189.616 219.622 190.676 218.018 190.761V190.768ZM217.038 184.77C218.274 184.566 219.596 184.335 220.484 183.137C220.799 182.709 220.99 182.235 220.701 181.767C220.392 181.274 219.846 181.313 219.359 181.458C217.939 181.879 217.117 182.966 216.472 184.204C216.229 184.671 216.545 184.776 217.038 184.763V184.77Z" fill="#1E1E1E"/>
<path d="M228.961 189.102C229.5 189.01 230.032 188.911 230.572 188.819C230.789 188.779 231.032 188.7 231.17 188.931C231.335 189.194 231.131 189.405 230.96 189.576C230.434 190.096 229.783 190.386 229.079 190.518C228.165 190.689 227.244 190.794 226.31 190.616C225.33 190.432 224.916 190.011 224.936 189.003C224.962 187.673 225.357 186.416 225.732 185.152C226.001 184.256 226.245 183.361 226.521 182.472C226.679 181.952 226.567 181.675 225.975 181.715C225.732 181.735 225.482 181.715 225.238 181.708C224.864 181.695 224.502 181.629 224.456 181.162C224.41 180.688 224.528 180.26 225.048 180.128C225.39 180.042 225.758 179.99 226.1 180.029C226.961 180.128 227.363 179.746 227.487 178.923C227.573 178.383 227.744 177.857 228 177.369C228.441 176.54 229.151 176.145 230.059 176.085C230.664 176.046 230.947 176.296 230.749 176.935C230.519 177.692 230.295 178.456 230.065 179.219C229.829 179.99 229.947 180.128 230.769 180.088C231.394 180.056 232.025 180.042 232.656 180.056C233.025 180.062 233.531 180.009 233.511 180.563C233.498 181.043 233.255 181.484 232.683 181.537C231.92 181.609 231.157 181.682 230.388 181.675C229.802 181.675 229.487 181.886 229.322 182.452C228.822 184.164 228.257 185.85 227.77 187.561C227.441 188.72 227.75 189.069 228.961 189.109V189.102Z" fill="#1E1E1E"/>
<path d="M199.388 180.51C199.276 181.234 199.585 181.175 200.065 180.898C200.9 180.424 201.755 179.983 202.715 179.819C203.636 179.661 203.984 179.996 203.925 180.938C203.846 182.143 203.491 182.479 202.288 182.498C200.03 182.538 198.609 183.653 198.026 185.843C197.737 186.929 197.461 188.016 197.165 189.102C196.915 190.024 196.29 190.537 195.369 190.682C194.784 190.774 194.455 190.498 194.528 189.892C194.58 189.458 194.692 189.03 194.797 188.608C195.369 186.291 195.915 183.967 196.672 181.702C196.981 180.767 197.48 180.036 198.519 179.799C199.151 179.654 199.499 179.779 199.388 180.503V180.51Z" fill="#1E1E1E"/>
</svg>
