<svg width="221" height="87" viewBox="0 0 221 87" fill="none" xmlns="http://www.w3.org/2000/svg">
<path d="M122.828 36.289C122.828 29.6011 122.819 22.9133 122.843 16.2255C122.843 15.5523 122.676 15.0555 122.165 14.6263C121.73 14.2617 121.757 14.2353 122.147 13.8237C122.332 13.6297 122.505 13.421 122.681 13.2181C122.825 13.0535 122.89 12.8566 122.869 12.639C122.767 11.4396 122.799 10.2373 122.84 9.04082C122.864 8.38526 122.626 7.95018 122.144 7.5739C121.754 7.27111 121.751 7.25053 122.065 6.88895C123.313 5.44555 124.569 4.01098 125.823 2.57052C126.481 1.81208 127.139 1.05363 127.79 0.292248C128.058 -0.019361 128.084 -0.0281803 128.331 0.283429C129.931 2.29419 131.531 4.30495 133.131 6.31571C133.308 6.53619 133.484 6.75372 133.66 6.9742C133.815 7.16528 133.839 7.37988 133.639 7.52687C132.955 8.02662 132.908 8.72627 132.935 9.49059C132.97 10.4813 132.958 11.4749 132.938 12.4656C132.929 12.886 133.061 13.2211 133.328 13.5356C133.924 14.2441 133.936 14.2647 133.34 14.9349C133.046 15.2612 132.938 15.6022 132.94 16.0285C132.955 17.9628 132.952 19.9001 132.946 21.8344C132.946 22.4694 132.911 23.1073 132.896 23.7423C132.896 23.8481 132.864 24.001 132.967 24.048C133.108 24.1098 133.167 23.9451 133.243 23.8599C135.422 21.3876 138.155 19.9912 141.423 19.6443C144.098 19.3592 146.667 19.759 149.119 20.8702C151.133 21.7844 152.724 23.1955 153.919 25.0593C154.128 25.3826 154.193 25.3797 154.422 25.0887C156.63 22.2577 159.495 20.4733 163.022 19.8384C166.803 19.1563 170.441 19.6179 173.794 21.5875C176.149 22.9691 177.656 25.0769 178.601 27.608C179.291 29.46 179.617 31.3885 179.714 33.3551C179.878 36.6829 179.764 40.0165 179.778 43.3472C179.799 47.8655 179.784 52.3868 179.784 56.9051C179.784 57.4019 179.755 57.4313 179.27 57.4313C176.176 57.4313 173.081 57.4313 169.986 57.4313C169.405 57.4313 169.417 57.4313 169.417 56.8346C169.425 54.0654 169.393 51.2991 169.446 48.5299C169.499 45.7137 169.455 42.8974 169.514 40.0812C169.54 38.8406 169.191 37.7412 168.603 36.6888C167.435 34.6045 165.937 32.7643 164.346 30.9975C163.944 30.5536 163.521 30.1273 163.119 29.6805C162.922 29.46 162.775 29.4365 162.555 29.6629C160.573 31.706 158.703 33.8343 157.302 36.336C156.656 37.4913 156.304 38.723 156.307 40.0518C156.307 45.6607 156.307 51.2726 156.307 56.8816C156.307 57.4255 156.307 57.4284 155.752 57.4284C152.719 57.4284 149.683 57.4284 146.65 57.4284C146.103 57.4284 146.08 57.4049 146.089 56.8787C146.165 51.4402 146.159 46.0047 146.171 40.5662C146.171 40.1753 146.191 39.7843 146.191 39.3933C146.191 38.2262 145.639 37.2444 145.082 36.2831C144.083 34.5604 142.841 33.0141 141.532 31.5237C140.983 30.9005 140.416 30.289 139.843 29.6864C139.553 29.3806 139.494 29.41 139.203 29.7128C138.129 30.8358 137.075 31.9794 136.123 33.2111C135.128 34.4987 134.156 35.8098 133.551 37.3414C133.205 38.2145 133.026 39.114 133.029 40.0635C133.04 45.6843 133.034 51.3079 133.034 56.9286C133.034 57.3872 132.996 57.4284 132.529 57.4284C129.496 57.4284 126.46 57.4284 123.427 57.4284C122.852 57.4284 122.825 57.399 122.825 56.8287C122.825 49.9821 122.825 43.1355 122.825 36.289H122.828Z" fill="#FDB716"/>
<path d="M39.2118 43.5589C39.2118 50.9581 39.2207 58.3544 39.206 65.7536C39.2001 68.3847 38.9153 70.9834 38.0609 73.4939C36.5047 78.0651 33.6096 81.4723 29.2347 83.5536C27.15 84.5443 24.942 85.1116 22.6371 85.3086C21.7475 85.385 20.8637 85.5379 19.9711 85.5085C14.9531 85.3468 10.2846 84.0886 6.20333 81.0401C4.04524 79.4292 2.30702 77.4449 0.994552 75.0901C0.847743 74.8256 0.932893 74.7021 1.16779 74.5698C3.80447 73.097 6.44116 71.6184 9.07491 70.1367C9.80309 69.7281 9.7796 69.7281 10.2053 70.4778C11.3446 72.4826 12.9272 73.9995 15.0588 74.9461C17.2757 75.9309 19.5806 76.1984 21.9442 75.8045C24.6044 75.3635 26.5364 73.8467 27.8459 71.5155C28.6445 70.0956 28.9851 68.5493 28.991 66.9325C29.0028 62.5229 28.9998 58.1133 28.9969 53.7038C28.9969 53.5774 29.0615 53.3951 28.9029 53.3451C28.7737 53.304 28.7209 53.4804 28.6416 53.5656C26.8505 55.4441 24.7013 56.7287 22.2084 57.4313C18.3474 58.5161 14.6067 58.1045 10.9629 56.5171C8.87525 55.6087 7.02253 54.3417 5.41937 52.7278C2.6946 49.9851 1.05328 46.6691 0.386764 42.8768C-0.391324 38.4438 -0.0301735 34.1136 1.78732 29.9627C3.29358 26.5262 5.71299 23.8805 8.94572 21.9785C11.1508 20.6821 13.5291 19.8854 16.066 19.6061C20.1737 19.1534 23.9408 20.05 27.2557 22.6017C27.7431 22.975 28.1806 23.4013 28.6122 23.8364C28.7033 23.9275 28.7855 24.1098 28.9205 24.0568C29.082 23.9922 28.9998 23.7952 29.0028 23.657C29.0057 22.6517 29.0116 21.6492 28.9939 20.6438C28.9881 20.2852 29.1319 20.1764 29.4725 20.1764C32.2971 20.1852 35.1247 20.1794 37.9493 20.1794C38.2664 20.1794 38.5806 20.2617 38.9006 20.2088C39.0915 20.1794 39.2001 20.2852 39.206 20.4822C39.2089 20.6056 39.2089 20.7262 39.2089 20.8496C39.2089 28.4194 39.2089 35.9891 39.2089 43.5589H39.2118ZM17.9216 26.194C15.3378 26.0941 13.6172 28.8956 14.4922 30.9945C14.7036 31.5002 14.9737 31.9499 15.3554 32.3439C15.6343 32.629 15.6167 32.7084 15.2526 32.8583C14.8856 33.0082 14.5626 33.2228 14.2455 33.4551C13.9636 33.6638 13.8844 33.6285 13.8139 33.2875C13.4792 31.6266 11.741 30.2743 10.0497 30.4125C8.67266 30.5242 7.60389 31.1944 6.99023 32.4497C6.3472 33.7637 6.49108 35.0455 7.35138 36.2243C8.22636 37.4237 9.8119 37.9323 11.2859 37.5148C11.7791 37.3737 11.8173 37.4119 11.738 37.9234C11.6529 38.4732 11.694 39.0229 11.7997 39.5667C11.876 39.9636 11.8496 39.9901 11.4796 39.8695C11.4092 39.846 11.3416 39.8195 11.2712 39.799C8.82534 39.0846 6.15342 41.063 6.68193 43.944C7.15759 46.5338 10.082 47.7744 12.4603 46.184C13.3236 45.6078 13.7405 44.7289 13.8697 43.7088C13.9196 43.3237 13.9666 43.306 14.2866 43.5442C14.592 43.7705 14.9091 43.9763 15.2556 44.1321C15.6226 44.2967 15.6226 44.3408 15.3466 44.6348C14.0605 46.0106 13.7669 48.1742 15.3466 49.7469C16.5768 50.9728 18.456 51.1992 19.9329 50.2584C21.1279 49.4971 21.63 48.3712 21.5331 46.9748C21.4685 46.04 21.1455 45.211 20.4438 44.5584C20.344 44.4643 20.1795 44.3026 20.4056 44.2173C20.8578 44.0439 21.2395 43.7588 21.6388 43.5001C21.8385 43.3707 21.8766 43.4883 21.9001 43.6735C22.2261 46.2546 25.0624 47.8567 27.6227 46.2575C29.5107 45.0787 29.9012 41.8597 27.5758 40.3105C26.5892 39.652 25.5322 39.4844 24.39 39.8019C24.0024 39.9107 23.9496 39.8548 24.0318 39.458C24.1404 38.9347 24.114 38.4085 24.0788 37.8852C24.0465 37.4149 24.0347 37.4119 24.481 37.5295C25.9609 37.9234 27.6521 37.3649 28.4596 36.2213C29.7221 34.4281 29.2788 32.1498 27.4202 30.9828C26.6832 30.5213 25.8699 30.289 25.0037 30.4536C23.38 30.7564 22.3318 31.6971 21.9501 33.3346C21.8972 33.5668 21.8003 33.7255 21.5566 33.5315C21.2101 33.2552 20.8343 33.0318 20.4409 32.8289C20.2148 32.7113 20.2089 32.5732 20.4174 32.4144C21.3012 31.7265 21.586 30.7505 21.5625 29.7099C21.5126 27.705 19.9182 26.2087 17.9275 26.1999L17.9216 26.194Z" fill="#FDB716"/>
<path d="M80.9173 38.7995C80.9173 44.8259 80.9173 50.8523 80.9173 56.8757C80.9173 57.3108 80.8821 57.352 80.4299 57.352C77.3851 57.352 74.3373 57.3549 71.2925 57.352C70.7229 57.352 70.6994 57.3196 70.6994 56.7434C70.6994 55.7145 70.7024 54.6856 70.6994 53.6567C70.6994 53.5509 70.7464 53.4039 70.626 53.3569C70.5056 53.3099 70.4499 53.4627 70.3794 53.5362C67.9042 56.1437 64.8359 57.543 61.2978 57.9399C57.8713 58.3221 54.6415 57.5989 51.6231 55.9968C46.2734 53.1541 43.1581 48.6622 42.0717 42.7299C41.8221 41.3658 41.6929 39.9871 41.7164 38.6025C41.7751 35.3982 42.3301 32.2939 43.7541 29.3924C45.2956 26.2528 47.5829 23.7893 50.5895 22.0137C52.8122 20.6997 55.2111 19.8883 57.7744 19.612C61.9819 19.1593 65.8782 19.9912 69.3047 22.5958C69.6835 22.8839 70.0476 23.1955 70.3764 23.5424C70.444 23.6159 70.5086 23.7511 70.6407 23.6806C70.7376 23.6276 70.7053 23.5042 70.7053 23.4101C70.7053 22.4929 70.7082 21.5728 70.6906 20.6556C70.6818 20.2999 70.8286 20.1764 71.1663 20.1794C73.9909 20.1852 76.8184 20.1794 79.643 20.1852C79.9601 20.1852 80.2772 20.2264 80.5943 20.2323C80.8351 20.2352 80.9144 20.3558 80.9115 20.5762C80.9056 20.9672 80.9056 21.3611 80.9056 21.7521C80.9056 27.4346 80.9056 33.117 80.9056 38.7995H80.9173ZM51.6789 39.1669C51.6143 40.0812 51.9784 41.3864 52.454 42.6681C53.1499 44.5378 54.389 45.9753 56.0538 47.0336C57.8801 48.1977 59.8943 48.6916 62.0612 48.6122C64.8359 48.5123 67.1085 47.3717 68.7997 45.1992C71.0165 42.3536 71.4951 39.1199 70.5849 35.6775C70.0916 33.8137 69.0904 32.2263 67.6047 30.974C66.1366 29.7393 64.4336 29.1043 62.531 28.8868C59.4509 28.5311 56.8084 29.5188 54.5827 31.5531C52.5215 33.4374 51.6965 35.9215 51.6818 39.164L51.6789 39.1669Z" fill="#FDB716"/>
<path d="M206.421 42.4447C201.835 42.4447 197.246 42.4447 192.659 42.4447C192.184 42.4447 192.128 42.5182 192.284 42.9503C193.044 45.0552 194.31 46.7426 196.327 47.7891C197.61 48.4535 198.969 48.8591 200.417 48.9826C201.629 49.0855 202.842 49.1355 204.034 48.8974C207.138 48.2771 209.402 46.5221 210.843 43.7088C210.978 43.4471 211.09 43.356 211.369 43.5265C213.768 44.9758 216.169 46.4133 218.574 47.8538C219.126 48.186 219.126 48.1948 218.78 48.7416C217.867 50.185 216.859 51.5519 215.626 52.7396C213.095 55.1766 210.094 56.7434 206.674 57.5136C204.522 57.9987 202.334 58.1663 200.147 57.9958C197.859 57.8164 195.637 57.2696 193.52 56.3348C191.323 55.3647 189.374 54.033 187.7 52.3104C184.967 49.4941 183.317 46.1282 182.632 42.2713C182.436 41.1601 182.292 40.0371 182.304 38.9141C182.327 36.6623 182.668 34.4516 183.431 32.3204C184.561 29.1514 186.391 26.4409 188.922 24.2391C191.591 21.9167 194.688 20.4381 198.174 19.8001C199.841 19.4944 201.521 19.4415 203.212 19.5562C205.84 19.7325 208.318 20.4351 210.649 21.6316C213.956 23.3249 216.478 25.8412 218.263 29.0984C219.652 31.6295 220.359 34.3605 220.606 37.2238C220.744 38.8377 220.635 40.4545 220.679 42.0714C220.691 42.4741 220.445 42.4506 220.177 42.4506C215.958 42.4506 211.736 42.4476 207.516 42.4476C207.149 42.4476 206.782 42.4476 206.415 42.4476L206.421 42.4447ZM201.512 34.1988C204.337 34.1988 207.161 34.1988 209.986 34.1988C210.382 34.1988 210.409 34.1665 210.265 33.8049C209.343 31.5061 207.675 29.9598 205.408 29.0367C204.551 28.6869 203.635 28.5987 202.716 28.5281C200.81 28.3811 198.966 28.5017 197.225 29.4247C195.326 30.4331 193.772 31.7648 192.803 33.7197C192.577 34.1724 192.592 34.1988 193.109 34.1988C195.91 34.1988 198.711 34.1988 201.509 34.1988H201.512Z" fill="#FDB716"/>
<path d="M118.797 38.7319C118.797 44.7318 118.797 50.7347 118.797 56.7346C118.797 57.154 118.585 57.3627 118.16 57.3608C115.212 57.3608 112.264 57.3608 109.316 57.3578C108.726 57.3578 108.72 57.3431 108.72 56.7611C108.72 55.7704 108.723 54.7768 108.72 53.7861C108.72 53.6803 108.77 53.5362 108.658 53.4804C108.512 53.4069 108.45 53.5715 108.376 53.6538C106.791 55.3647 104.929 56.6582 102.698 57.3755C100.22 58.1692 97.7064 58.2398 95.1636 57.7194C93.0819 57.2932 91.1646 56.5112 89.5086 55.1531C87.7028 53.6714 86.4461 51.8077 85.6534 49.6176C84.9927 47.795 84.6433 45.9047 84.5787 43.9763C84.4202 39.2257 84.5405 34.4752 84.5141 29.7246C84.4994 26.9436 84.5082 24.1656 84.5141 21.3846C84.5141 21.0907 84.5523 20.7996 84.564 20.5057C84.5728 20.2911 84.6785 20.1941 84.8841 20.1882C85.0925 20.1823 85.301 20.1794 85.5065 20.1794C88.1256 20.1794 90.7418 20.1794 93.3608 20.1823C93.7748 20.1823 94.1918 20.2146 94.6058 20.2146C94.8025 20.2146 94.8759 20.3117 94.8788 20.4792C94.8847 20.7115 94.873 20.9437 94.873 21.1759C94.873 27.852 94.8612 34.5251 94.8818 41.2012C94.8847 42.5917 94.9375 43.9851 95.4514 45.3227C96.3058 47.5451 97.9207 48.818 100.226 49.1766C101.814 49.4236 103.403 49.3589 104.879 48.5916C106.456 47.7744 107.41 46.4339 107.998 44.8023C108.438 43.5794 108.638 42.3124 108.641 41.0189C108.65 34.2958 108.647 27.5698 108.647 20.8467C108.647 20.2705 108.647 20.2676 109.207 20.2058C109.366 20.1882 109.524 20.1794 109.683 20.1794C112.191 20.1794 114.698 20.1794 117.206 20.1794C117.631 20.1794 118.057 20.2676 118.486 20.1911C118.747 20.1441 118.815 20.3058 118.815 20.5468C118.806 23.9393 118.803 27.3317 118.8 30.7241C118.8 33.3933 118.8 36.0626 118.8 38.7348L118.797 38.7319Z" fill="#FDB716"/>
<path d="M30.8056 5.47202C30.8056 5.65722 30.7997 5.8336 30.8056 6.00998C30.9084 8.76449 30.8232 11.519 30.8526 14.2735C30.8555 14.5763 30.7615 14.7203 30.4239 14.6998C30.0481 14.6762 29.6664 14.7174 29.2876 14.7321C28.9852 14.7439 28.8501 14.6204 28.8501 14.297C28.856 10.3549 28.856 6.41272 28.8501 2.47058C28.8501 2.13545 28.9822 2.05608 29.2993 2.00904C30.3153 1.865 30.9818 2.20306 31.5543 3.10261C32.5467 4.65772 33.6948 6.11287 34.7812 7.60918C35.0249 7.94431 35.0425 7.93843 35.295 7.60037C36.6075 5.83066 37.9611 4.0933 39.2236 2.28832C39.3557 2.09723 39.5407 2.02668 39.758 2.02374C40.125 2.01786 40.492 2.02374 40.8591 2.02374C41.138 2.02374 41.229 2.14427 41.229 2.43236C41.2202 6.41272 41.2232 10.3901 41.229 14.3705C41.229 14.638 41.138 14.7145 40.8855 14.6998C40.495 14.6821 40.1015 14.6733 39.711 14.6939C39.3763 14.7115 39.2588 14.591 39.2647 14.25C39.2794 12.9154 39.2677 11.5807 39.2706 10.2461C39.2706 8.72921 39.2735 7.20938 39.2735 5.6925C39.2735 5.58667 39.3088 5.47496 39.2001 5.32797C39.0768 5.48966 38.9594 5.6337 38.8478 5.78657C37.6528 7.39753 36.4577 9.01143 35.2656 10.6253C35.0014 10.981 34.9808 10.9781 34.7283 10.6371C33.501 8.95851 32.2707 7.28288 31.0405 5.6043C30.9964 5.54551 30.9553 5.48672 30.8056 5.4779V5.47202Z" fill="#FBFBFB"/>
<path d="M21.2366 14.832C17.675 14.8262 14.7917 11.9247 14.8269 8.32059C14.8592 4.74885 17.6104 1.92967 21.3276 1.87382C24.7659 1.8209 27.8107 4.90759 27.752 8.38821C27.6932 11.9864 24.7982 14.8556 21.2366 14.832ZM21.2689 3.78463C18.5412 3.67586 16.7472 6.15697 16.7619 8.26768C16.7795 10.8958 18.7496 12.9624 21.2777 12.9565C23.7705 12.9536 25.7642 10.8899 25.7642 8.3059C25.7642 5.75129 23.8087 3.78463 21.2689 3.78463Z" fill="#FBFBFB"/>
<path d="M73.2275 8.38821C73.2334 11.8982 70.3119 14.8291 66.809 14.832C63.221 14.832 60.3494 11.9805 60.3259 8.42936C60.3024 4.90759 63.0478 1.87382 66.7914 1.88558C71.0518 1.89733 73.2745 5.50729 73.2246 8.38821H73.2275ZM66.7532 3.78169C64.0519 3.68174 62.2844 6.18049 62.2462 8.27356C62.1904 11.2191 64.8153 13.0153 66.7855 12.9594C68.7263 12.9065 71.2838 11.4661 71.2603 8.37057C71.2397 5.38089 68.9612 3.70525 66.7562 3.78169H66.7532Z" fill="#FBFBFB"/>
<path d="M94.4561 14.688C93.7837 14.688 93.1818 14.6733 92.5857 14.6939C92.3038 14.7027 92.2099 14.588 92.2158 14.3323C92.2158 14.2088 92.2128 14.0883 92.2128 13.9648C92.2128 10.1697 92.2128 6.37451 92.2128 2.57935C92.2128 2.04138 92.2363 2.00904 92.7678 2.01492C94.136 2.02962 95.5072 1.93849 96.8667 2.14427C98.0059 2.31477 99.0923 2.65284 100.008 3.37307C101.987 4.92523 103.027 7.85024 101.932 10.6312C101.007 12.98 99.2127 14.2265 96.7639 14.6057C95.9741 14.7292 95.1784 14.6615 94.459 14.6851L94.4561 14.688ZM94.2065 8.33235C94.2065 9.6905 94.2153 11.0486 94.2006 12.4068C94.1977 12.7243 94.3122 12.8595 94.6175 12.8595C95.0315 12.8595 95.4485 12.8889 95.8625 12.8683C97.4627 12.7978 98.7576 12.1334 99.6942 10.8223C100.302 9.97271 100.384 8.98791 100.355 7.98253C100.305 6.17755 99.1892 4.70181 97.4803 4.13151C96.5378 3.81696 95.5747 3.89046 94.6117 3.864C94.2799 3.85518 94.1947 3.98159 94.1977 4.2932C94.2094 5.63958 94.2035 6.98597 94.2035 8.32941L94.2065 8.33235Z" fill="#FBFBFB"/>
<path d="M78.0399 8.37939C78.0399 6.4333 78.0399 4.48428 78.0399 2.53819C78.0399 2.05608 78.0781 2.01198 78.5625 2.01786C79.9807 2.03844 81.3989 1.97965 82.817 2.07078C84.8988 2.206 86.4667 3.52887 86.8367 5.51317C87.1538 7.20938 86.3962 8.90854 84.8812 9.80515C84.5465 10.0021 84.5435 10.1344 84.7314 10.4489C85.489 11.7218 86.2142 13.0124 86.9482 14.297C87.1303 14.6145 87.0951 14.6762 86.7368 14.6821C86.2847 14.688 85.8325 14.6704 85.3803 14.688C85.0985 14.6968 84.9282 14.5792 84.796 14.3382C84.1706 13.1858 83.5305 12.0452 82.9139 10.8899C82.7789 10.6371 82.6174 10.5342 82.3384 10.5401C81.6896 10.5548 81.0407 10.5606 80.3947 10.5489C80.1099 10.543 80.0453 10.6694 80.0453 10.9252C80.0541 12.0276 80.0512 13.13 80.0453 14.2323C80.0453 14.7056 80.0365 14.7027 79.5755 14.6909C79.2085 14.6821 78.8385 14.6645 78.4744 14.6939C78.128 14.7203 78.0311 14.591 78.034 14.2559C78.0458 12.298 78.0399 10.3372 78.0399 8.37939ZM80.0482 6.31277C80.0482 7.00948 80.0482 7.7062 80.0482 8.40585C80.0482 8.6175 80.0923 8.75861 80.3477 8.75861C81.1669 8.75861 81.989 8.81152 82.7994 8.6763C83.6715 8.52931 84.382 8.13539 84.7461 7.25348C85.2511 6.02762 84.8078 4.10505 82.8758 3.92867C82.0213 3.85224 81.1669 3.90515 80.3125 3.8787C80.06 3.86988 80.0512 4.0345 80.0512 4.2197C80.0512 4.91641 80.0512 5.61312 80.0512 6.31277H80.0482Z" fill="#FBFBFB"/>
<path d="M103.494 8.39703C103.494 6.45094 103.494 4.50191 103.494 2.55583C103.494 2.0502 103.514 2.0208 103.996 2.0208C106.21 2.01786 108.423 2.0208 110.637 2.01492C110.99 2.01492 111.122 2.15309 111.101 2.49997C111.081 2.82922 111.081 3.16141 111.095 3.49066C111.113 3.83166 110.96 3.93749 110.634 3.93455C109.093 3.92573 107.551 3.93455 106.01 3.93455C105.464 3.93455 105.449 3.94925 105.449 4.48428C105.449 5.31621 105.449 6.14815 105.487 6.98009C105.499 7.2917 105.616 7.37989 105.907 7.37695C107.07 7.37107 108.233 7.37695 109.392 7.38577C109.868 7.38871 110.344 7.42104 110.822 7.42692C111.025 7.42692 111.107 7.50336 111.101 7.71207C111.09 8.0913 111.084 8.47052 111.098 8.84974C111.11 9.14371 111.019 9.25542 110.702 9.25248C109.111 9.23484 107.522 9.24366 105.931 9.24366C105.461 9.24366 105.446 9.25542 105.452 9.71107C105.464 10.6047 105.493 11.4984 105.493 12.3921C105.493 12.7213 105.631 12.8095 105.937 12.8066C107.478 12.7978 109.019 12.8036 110.561 12.8066C111.081 12.8066 111.095 12.8213 111.098 13.3416C111.098 13.6709 111.092 14.003 111.098 14.3323C111.104 14.588 111.022 14.6968 110.734 14.6939C108.644 14.6821 106.55 14.6851 104.46 14.688C104.301 14.688 104.143 14.7056 103.984 14.7174C103.541 14.7527 103.494 14.7115 103.494 14.2735C103.494 12.3127 103.494 10.3549 103.494 8.39409V8.39703Z" fill="#FBFBFB"/>
<path d="M9.15715 14.832C5.08174 14.8262 2.3599 12.2657 2.11913 8.8174C1.86956 5.22508 4.50625 2.18249 8.02085 1.92379C10.5313 1.73859 12.475 2.74985 13.9373 4.76649C14.1105 5.0046 14.0723 5.14571 13.8198 5.28976C13.4498 5.50141 13.0828 5.72777 12.7334 5.97177C12.5132 6.12463 12.3987 6.07466 12.2754 5.85418C10.7398 3.13201 6.61442 3.08792 4.8674 5.62194C4.05114 6.80664 3.87791 8.13539 4.18914 9.51999C4.58259 11.2779 5.7688 12.3098 7.43068 12.7831C9.33332 13.324 11.3211 12.445 12.3106 10.7517C12.5719 10.3049 12.5719 10.3078 13.0006 10.5665C13.3353 10.7664 13.6759 10.9634 14.0224 11.1427C14.2367 11.2544 14.2661 11.3779 14.1428 11.5807C12.8538 13.665 11.0128 14.7879 9.15715 14.835V14.832Z" fill="#FBFBFB"/>
<path d="M42.7147 8.39409C42.7147 6.448 42.7147 4.50191 42.7147 2.55583C42.7147 2.04432 42.7323 2.01786 43.255 2.0208C44.5733 2.02962 45.8946 1.99141 47.213 2.07078C49.6059 2.21482 51.4675 4.07272 51.4616 6.47446C51.4557 8.71158 49.9319 10.493 47.6827 10.8605C46.843 10.9987 46.0003 10.9369 45.1576 10.9311C44.7759 10.9281 44.6644 11.0839 44.6673 11.4279C44.6732 12.3451 44.6673 13.2652 44.6673 14.1824C44.6673 14.6821 44.6614 14.6821 44.1476 14.6909C43.8187 14.6968 43.4869 14.6998 43.1581 14.7292C42.8292 14.7615 42.7001 14.6615 42.703 14.3088C42.7177 12.3392 42.7089 10.3666 42.7089 8.39703L42.7147 8.39409ZM44.679 6.24222C44.679 7.0624 44.6644 7.88258 44.7143 8.69982C44.7289 8.95851 44.8112 9.0614 45.0754 9.08786C45.6245 9.13783 46.1765 9.14665 46.7226 9.12019C48.1731 9.05552 49.1332 8.30589 49.421 7.02712C49.7234 5.66898 48.8337 4.0786 47.3598 3.92279C46.6257 3.84636 45.8946 3.91103 45.1635 3.86694C44.8023 3.84636 44.679 4.00216 44.679 4.33141C44.679 4.96933 44.679 5.6043 44.679 6.24222Z" fill="#FBFBFB"/>
<path d="M57.149 9.29364C57.149 10.9458 57.1402 12.6008 57.1549 14.2529C57.1578 14.6027 57.0726 14.738 56.6997 14.6968C56.3503 14.6586 55.9892 14.6615 55.6368 14.6939C55.261 14.7292 55.1847 14.5675 55.1876 14.2294C55.2023 12.9918 55.1935 11.7542 55.1935 10.5195C55.1935 8.49992 55.1935 6.4774 55.1935 4.45782C55.1935 4.07566 55.0075 3.8836 54.6356 3.88164C53.743 3.88164 52.8504 3.87282 51.9578 3.89046C51.6906 3.89633 51.6113 3.79345 51.6143 3.54945C51.6231 3.18199 51.626 2.81452 51.6114 2.44706C51.5967 2.12663 51.7376 2.01198 52.0459 2.01198C53.1705 2.0208 54.298 2.0061 55.4225 2.01492C57.0257 2.02962 58.6259 1.96789 60.229 2.06196C60.5491 2.0796 60.7047 2.15897 60.6783 2.50585C60.6548 2.8351 60.6607 3.16729 60.6783 3.49653C60.69 3.78463 60.5638 3.88164 60.2848 3.8787C59.3805 3.86988 58.4732 3.88752 57.5689 3.87282C57.2488 3.86694 57.1431 3.97277 57.146 4.2932C57.1578 5.96001 57.1519 7.62388 57.1519 9.2907L57.149 9.29364Z" fill="#FBFBFB"/>
<path d="M74.4754 8.37939C74.4754 6.37451 74.4783 4.36669 74.4695 2.36181C74.4695 2.13839 74.5576 2.03256 74.7572 2.02668C75.2212 2.01786 75.6851 2.0208 76.149 2.02668C76.3604 2.02962 76.4514 2.15603 76.4455 2.36181C76.4426 2.6058 76.4455 2.8498 76.4455 3.09673C76.4455 6.78019 76.4455 10.4607 76.4455 14.1442C76.4455 14.688 76.4455 14.688 75.9082 14.6851C75.5412 14.6851 75.1742 14.6792 74.8101 14.6968C74.5811 14.7086 74.4812 14.6586 74.4842 14.397C74.4959 12.3891 74.4901 10.3843 74.4901 8.37645H74.4724L74.4754 8.37939Z" fill="#FBFBFB"/>
<path d="M179.64 85.1469C166.196 85.1469 152.754 85.1469 139.309 85.1469C138.599 85.1469 138.599 85.1469 138.599 84.4384C138.599 84.021 138.811 83.8123 139.236 83.8123C165.829 83.8123 192.425 83.8123 219.017 83.8123C219.434 83.8123 219.848 83.8123 220.265 83.8152C220.515 83.8152 220.656 83.9063 220.618 84.1944C220.594 84.362 220.597 84.5413 220.629 84.7059C220.697 85.0528 220.524 85.144 220.227 85.144C219.543 85.144 218.856 85.1469 218.172 85.1469C205.326 85.1469 192.483 85.1469 179.637 85.1469H179.64Z" fill="#FBFBFB"/>
<path d="M180.979 72.2181V73.9731C180.979 75.0137 180.979 76.0544 180.979 77.095C180.979 77.5331 180.935 77.5683 180.489 77.5742C180.013 77.5772 179.535 77.5742 179.059 77.586C178.789 77.5948 178.657 77.5154 178.66 77.2156C178.666 74.3141 178.666 71.4096 178.66 68.5082C178.66 68.2377 178.762 68.1378 179.027 68.1436C179.576 68.1554 180.128 68.1583 180.677 68.1436C180.982 68.1348 181.167 68.2642 181.329 68.5199C182.274 70.0368 183.234 71.5419 184.191 73.0529C184.23 73.1147 184.256 73.1852 184.365 73.2146C184.444 73.0588 184.406 72.8854 184.406 72.7237C184.406 71.3509 184.4 69.9809 184.397 68.6081C184.397 68.1231 184.403 68.1289 184.893 68.1407C185.357 68.1495 185.824 68.1554 186.288 68.1407C186.582 68.1289 186.708 68.2259 186.708 68.5346C186.702 71.4243 186.702 74.3141 186.708 77.2067C186.708 77.5066 186.573 77.5889 186.303 77.5771C185.777 77.5536 185.251 77.536 184.726 77.5272C184.45 77.5242 184.315 77.339 184.189 77.1421C183.199 75.5811 182.213 74.0201 181.223 72.4591C181.173 72.3797 181.147 72.2739 180.979 72.2239V72.2181Z" fill="#FBFBFB"/>
<path d="M161.624 72.8325C161.521 75.731 159.375 77.8064 156.497 77.6448C153.799 77.4919 151.92 75.3106 152.037 72.6032C152.155 69.9016 154.495 67.882 157.061 67.9966C159.489 68.1054 161.709 70.4395 161.624 72.8354V72.8325ZM154.383 72.756C154.366 74.2229 155.379 75.34 156.741 75.3577C158.171 75.3753 159.302 74.3023 159.272 72.8795C159.249 71.7271 158.576 70.3249 156.826 70.3131C155.484 70.3043 154.401 71.3832 154.383 72.756Z" fill="#FBFBFB"/>
<path d="M163.039 72.8619C163.039 71.442 163.048 70.0221 163.033 68.6022C163.03 68.2553 163.142 68.1289 163.497 68.1378C164.548 68.1583 165.6 68.1231 166.651 68.1554C167.608 68.1848 168.489 68.467 169.152 69.2019C170.33 70.5042 170.248 72.5473 168.944 73.7702C168.633 74.0613 168.603 74.267 168.8 74.6286C169.246 75.4576 169.646 76.3101 170.063 77.1568C170.23 77.4948 170.204 77.533 169.842 77.5301C169.267 77.5242 168.694 77.5154 168.119 77.5301C167.849 77.536 167.687 77.4302 167.576 77.1891C167.261 76.4983 166.941 75.8104 166.616 75.1254C166.48 74.8373 165.673 74.6521 165.435 74.8491C165.327 74.9373 165.35 75.0725 165.35 75.193C165.35 75.8545 165.338 76.5159 165.35 77.1773C165.356 77.4801 165.241 77.5918 164.939 77.583C164.487 77.5683 164.035 77.583 163.582 77.583C163.069 77.583 163.036 77.5536 163.036 77.0509C163.036 75.6546 163.036 74.2612 163.036 72.8648L163.039 72.8619ZM165.35 71.3126C165.365 71.5801 165.385 71.9564 165.4 72.3357C165.409 72.5326 165.506 72.6208 165.699 72.6237C166.04 72.6237 166.381 72.6414 166.718 72.5591C167.253 72.4268 167.573 72.0329 167.584 71.4831C167.602 70.7306 167.162 70.3396 166.272 70.3102C165.655 70.2906 165.348 70.6257 165.35 71.3156V71.3126Z" fill="#FBFBFB"/>
<path d="M171.542 72.8472C171.542 71.4273 171.548 70.0074 171.537 68.5846C171.537 68.2583 171.628 68.1319 171.974 68.1348C173.539 68.1495 175.104 68.1495 176.672 68.1348C177.013 68.1348 177.168 68.2377 177.156 68.5934C177.142 69.0344 177.148 69.4753 177.159 69.9163C177.168 70.2014 177.045 70.3073 176.763 70.3073C175.944 70.2984 175.125 70.319 174.305 70.3043C173.985 70.2984 173.839 70.3837 173.847 70.7365C173.883 71.9123 173.692 71.7213 174.831 71.7418C175.468 71.7536 176.102 71.7536 176.739 71.7418C177.033 71.7389 177.168 71.8477 177.159 72.1505C177.145 72.6032 177.145 73.0559 177.153 73.5086C177.159 73.8084 177.024 73.9202 176.731 73.9172C175.9 73.9084 175.066 73.9231 174.235 73.9084C173.947 73.9025 173.833 73.9966 173.853 74.2876C173.871 74.5316 173.871 74.7785 173.853 75.0225C173.833 75.3342 173.974 75.4253 174.267 75.4194C175.098 75.4047 175.932 75.4282 176.763 75.4077C177.048 75.3988 177.168 75.4753 177.162 75.7692C177.151 76.2455 177.156 76.7246 177.159 77.2009C177.159 77.4596 177.048 77.5742 176.781 77.5742C175.177 77.5713 173.577 77.5713 171.974 77.5801C171.631 77.5801 171.539 77.4272 171.542 77.1068C171.554 75.6869 171.548 74.267 171.548 72.8442L171.542 72.8472Z" fill="#FBFBFB"/>
<path d="M215.362 72.8501C215.362 71.4302 215.371 70.0103 215.356 68.5905C215.353 68.2642 215.444 68.1348 215.791 68.1378C217.394 68.1525 218.994 68.1524 220.597 68.1436C220.908 68.1436 221.002 68.2642 220.994 68.5581C220.979 68.9991 220.976 69.44 220.994 69.881C221.005 70.1985 220.888 70.322 220.571 70.3161C219.752 70.3043 218.932 70.322 218.113 70.3073C217.805 70.3014 217.673 70.3925 217.682 70.7218C217.714 71.93 217.52 71.7242 218.677 71.7448C219.314 71.7565 219.948 71.7595 220.585 71.7536C220.873 71.7536 221.011 71.8477 220.996 72.1622C220.976 72.6267 220.982 73.0941 220.996 73.5586C221.002 73.8261 220.905 73.926 220.632 73.9202C219.79 73.9084 218.944 73.926 218.101 73.9113C217.775 73.9055 217.658 74.023 217.684 74.3405C217.705 74.5728 217.699 74.805 217.684 75.0372C217.664 75.3283 217.79 75.4253 218.072 75.4223C218.929 75.4135 219.784 75.4312 220.641 75.4165C220.917 75.4106 221.008 75.4929 220.999 75.7692C220.982 76.2572 220.991 76.7482 220.996 77.2391C220.996 77.4596 220.908 77.536 220.688 77.536C219.073 77.5478 217.461 77.5683 215.846 77.583C215.385 77.586 215.371 77.5713 215.371 77.1127C215.371 75.6928 215.371 74.2729 215.371 72.853L215.362 72.8501Z" fill="#FBFBFB"/>
<path d="M192.234 73.7967C192.483 73.0059 192.724 72.2651 192.95 71.5214C193.261 70.5042 193.567 69.4841 193.866 68.4641C193.925 68.2642 194.019 68.1436 194.245 68.1466C194.844 68.1495 195.443 68.1466 196.042 68.1436C196.394 68.1436 196.25 68.3641 196.203 68.5229C195.839 69.6782 195.466 70.8305 195.105 71.9858C194.574 73.6791 194.048 75.3724 193.52 77.0656C193.379 77.5242 193.273 77.6124 192.812 77.5536C192.357 77.4948 191.911 77.5948 191.459 77.5742C191.168 77.5595 190.998 77.4684 190.901 77.1656C189.979 74.2759 189.042 71.3891 188.102 68.5023C188.017 68.2406 188.082 68.1377 188.358 68.1436C188.907 68.1524 189.459 68.1524 190.008 68.1436C190.266 68.1407 190.396 68.2406 190.478 68.4993C190.986 70.1368 191.508 71.7653 192.028 73.3998C192.063 73.5145 192.075 73.6409 192.234 73.7996V73.7967Z" fill="#FBFBFB"/>
<path d="M138.883 72.8236C138.883 71.439 138.883 70.0574 138.883 68.6728C138.883 68.1231 138.883 68.1348 139.424 68.1378C140.927 68.1436 142.433 68.1495 143.936 68.1319C144.268 68.1289 144.365 68.2377 144.353 68.5523C144.336 68.9932 144.333 69.4342 144.353 69.8751C144.371 70.222 144.224 70.319 143.898 70.3131C143.141 70.2984 142.38 70.322 141.623 70.3073C141.291 70.3014 141.185 70.4337 141.221 70.7482C141.247 70.9658 141.25 71.1892 141.241 71.4096C141.232 71.6683 141.347 71.7507 141.593 71.7477C142.363 71.7389 143.135 71.7565 143.904 71.7477C144.23 71.7418 144.371 71.8506 144.353 72.1945C144.33 72.609 144.33 73.0294 144.353 73.4439C144.377 73.8055 144.262 73.9437 143.881 73.9319C143.111 73.9055 142.339 73.9319 141.57 73.9172C141.279 73.9113 141.185 74.023 141.188 74.3053C141.2 75.2489 141.182 76.1896 141.197 77.1333C141.203 77.4654 141.094 77.6007 140.754 77.586C140.278 77.5654 139.799 77.5713 139.324 77.586C138.995 77.5948 138.869 77.4654 138.872 77.1303C138.883 75.6987 138.877 74.2641 138.877 72.8325L138.883 72.8236Z" fill="#FBFBFB"/>
<path d="M201.562 72.8413C201.562 71.4214 201.562 70.0015 201.562 68.5816C201.562 68.1319 201.606 68.1025 202.046 68.1201C202.499 68.1378 202.951 68.1377 203.403 68.1407C203.911 68.1466 203.937 68.1613 203.94 68.6845C203.946 70.7276 203.946 72.7737 203.946 74.8168C203.946 75.1656 204.119 75.341 204.466 75.343C205.162 75.343 205.86 75.3547 206.556 75.3371C206.865 75.3283 206.964 75.4488 206.959 75.7457C206.947 76.2219 206.953 76.7011 206.967 77.1773C206.976 77.4537 206.879 77.5771 206.589 77.5771C205.035 77.5713 203.485 77.5713 201.932 77.583C201.629 77.583 201.562 77.4419 201.565 77.1744C201.571 75.731 201.568 74.2847 201.565 72.8413H201.562Z" fill="#FBFBFB"/>
<path d="M208.471 72.806C208.471 71.3979 208.477 69.9898 208.468 68.5816C208.468 68.2465 208.535 68.0937 208.923 68.1289C209.419 68.176 209.924 68.1554 210.426 68.1407C210.732 68.1319 210.84 68.2642 210.84 68.5552C210.831 70.6982 210.837 72.8413 210.817 74.9843C210.817 75.2665 210.884 75.3547 211.157 75.3489C211.915 75.3371 212.675 75.3577 213.433 75.34C213.753 75.3342 213.873 75.4488 213.862 75.7663C213.847 76.2425 213.856 76.7217 213.862 77.1979C213.862 77.4537 213.756 77.5772 213.486 77.5742C211.956 77.5713 210.429 77.5713 208.899 77.5801C208.585 77.5801 208.468 77.4566 208.471 77.1421C208.482 75.6987 208.477 74.2523 208.477 72.8089L208.471 72.806Z" fill="#FBFBFB"/>
<path d="M148.17 71.7624C148.17 72.8031 148.182 73.8437 148.165 74.8844C148.159 75.2283 148.247 75.3606 148.611 75.3489C149.357 75.3224 150.102 75.3489 150.848 75.34C151.092 75.34 151.198 75.4076 151.195 75.6752C151.186 76.1749 151.218 76.6776 151.233 77.1803C151.242 77.4507 151.121 77.5771 150.836 77.5771C149.307 77.5713 147.777 77.5742 146.25 77.5771C145.945 77.5771 145.851 77.4419 145.851 77.1509C145.857 74.2847 145.857 71.4185 145.851 68.5523C145.851 68.2612 145.939 68.1231 146.25 68.1319C146.764 68.1495 147.278 68.1495 147.792 68.1378C148.076 68.1319 148.182 68.2436 148.179 68.5258C148.17 69.6047 148.176 70.6806 148.176 71.7595L148.17 71.7624Z" fill="#FBFBFB"/>
<path d="M199.997 72.8413C199.997 74.2612 199.997 75.6781 199.997 77.098C199.997 77.5566 199.979 77.5713 199.521 77.5742C199.046 77.5772 198.567 77.5742 198.091 77.5801C197.809 77.586 197.669 77.486 197.671 77.1744C197.677 74.2876 197.677 71.4008 197.671 68.514C197.671 68.2201 197.795 68.1319 198.068 68.1407C198.544 68.1554 199.019 68.1466 199.498 68.1436C199.991 68.1436 199.994 68.1436 199.994 68.6228C199.994 70.028 199.994 71.4361 199.994 72.8413H199.997Z" fill="#FBFBFB"/>
<path d="M121.304 81.4752C120.453 81.5105 119.792 81.1401 119.276 80.4904C118.53 79.5497 118.201 78.4355 118.01 77.2802C117.555 74.511 117.552 71.7477 118.257 69.0167C118.5 68.076 118.87 67.1765 119.619 66.5003C120.121 66.0447 120.711 65.8242 121.398 65.8654C122.226 65.9124 122.99 66.1299 123.612 66.7061C124.202 67.2529 124.214 67.5704 123.668 68.1583C123.181 68.6816 122.893 69.2784 122.902 70.0074C122.913 70.9187 123.633 71.7771 124.496 71.8976C125.556 72.0446 126.402 71.5331 126.689 70.5542C126.995 69.5194 126.783 68.5405 126.337 67.5998C126.181 67.2705 125.973 66.9619 125.794 66.6414C125.741 66.5503 125.65 66.4268 125.759 66.3445C125.876 66.2593 125.952 66.4004 126.026 66.4709C127.338 67.735 128.648 69.002 129.96 70.269C130.771 71.051 131.584 71.8271 132.386 72.6179C133.128 73.3499 133.117 73.9995 132.386 74.7433C130.339 76.8158 128.187 78.7766 126.096 80.8049C126.061 80.8402 126.029 80.8755 125.988 80.9049C125.92 80.9549 125.841 81.0225 125.762 80.9461C125.697 80.8843 125.753 80.8079 125.791 80.7462C125.888 80.5756 125.996 80.411 126.09 80.2405C126.607 79.3145 126.942 78.3503 126.783 77.2597C126.654 76.3719 126.143 75.7016 125.395 75.4929C124.634 75.2812 123.809 75.5546 123.322 76.1779C122.837 76.7981 122.77 77.7976 123.16 78.5061C123.333 78.8206 123.574 79.0793 123.797 79.3557C124.167 79.8113 124.158 80.0759 123.753 80.508C123.172 81.1342 122.42 81.3899 121.592 81.4723C121.495 81.4811 121.395 81.4723 121.299 81.4723L121.304 81.4752Z" fill="#FBFBFB"/>
<path d="M46.6756 72.4532C46.6932 70.6865 47.3304 69.2284 48.8484 68.2495C50.4398 67.2235 52.548 67.4822 53.787 68.8227C54.1717 69.2372 54.4213 69.7223 54.4418 70.3014C54.4594 70.7453 54.1981 71.1921 53.834 71.3538C53.4523 71.5243 53.0031 71.4449 52.7124 71.1539C52.3924 70.8335 52.2955 70.3719 52.5392 69.9369C52.7388 69.5782 52.6272 69.3901 52.3336 69.1813C51.3676 68.4964 49.9964 68.7639 49.4092 69.834C48.5019 71.4861 48.5107 73.197 49.3358 74.8697C50.0346 76.2866 51.6348 76.2484 52.3982 75.6752C52.6772 75.4664 52.7711 75.2724 52.5891 74.9373C52.3924 74.5698 52.407 74.1789 52.6595 73.8261C52.9003 73.491 53.238 73.3939 53.6314 73.4439C54.1981 73.5115 54.5945 74.1641 54.4594 74.8226C54.2833 75.6722 53.7665 76.2719 53.0354 76.6894C50.9654 77.8682 48.3757 77.0686 47.2364 74.902C46.8342 74.1377 46.6492 73.3234 46.6786 72.4562L46.6756 72.4532Z" fill="#FBFBFB"/>
<path d="M109.298 73.6144C109.284 73.2058 109.507 72.9089 109.789 72.6384C111.213 71.2627 112.64 69.8869 114.064 68.5111C114.76 67.8408 115.45 67.1676 116.149 66.5003C116.231 66.421 116.331 66.2505 116.436 66.3386C116.568 66.4445 116.422 66.5856 116.351 66.6885C115.937 67.2794 115.523 67.8702 115.165 68.4964C114.334 69.9516 113.926 71.5155 113.864 73.1852C113.794 75.1196 114.102 76.9628 115.047 78.6737C115.409 79.3292 115.846 79.9319 116.272 80.5463C116.313 80.605 116.36 80.6638 116.398 80.7256C116.442 80.7991 116.501 80.8873 116.427 80.9578C116.331 81.0489 116.245 80.9608 116.178 80.8961C115.864 80.605 115.552 80.314 115.244 80.0142C113.418 78.2445 111.594 76.4718 109.771 74.6992C109.472 74.4081 109.275 74.0642 109.298 73.6174V73.6144Z" fill="#FBFBFB"/>
<path d="M94.045 72.9148C94.089 73.5938 93.9921 74.2229 94.1213 74.8403C94.2593 75.5076 94.5294 75.7692 95.0961 75.7898C95.6863 75.8104 96.1208 75.4958 96.3029 74.9197C96.4262 74.5287 96.3969 74.1171 96.4321 73.7173C96.4761 73.2293 96.4556 72.7413 96.4115 72.2504C96.3792 71.9035 96.2236 71.7506 95.8948 71.7065C95.5013 71.6536 95.3985 71.4626 95.5865 71.101C95.8448 70.6042 96.3352 70.4513 96.8343 70.369C97.6653 70.2308 98.0763 70.5571 98.1879 71.3949C98.3171 72.3621 98.1233 73.3263 98.1732 74.2935C98.1909 74.6227 98.1703 74.9549 98.1732 75.2842C98.1762 75.6193 98.3142 75.8251 98.6783 75.8868C99.1657 75.9721 99.2332 76.1867 98.9396 76.5865C98.6283 77.0098 97.5243 77.3067 97.0457 77.095C96.8784 77.0215 96.7844 76.8804 96.7022 76.7276C96.4879 76.3337 96.4849 76.3278 96.1179 76.6159C95.5454 77.0627 94.8965 77.2273 94.1859 77.1215C93.1553 76.9686 92.4683 76.1808 92.3449 75.0784C92.2627 74.3435 92.2979 73.6115 92.2833 72.8766C92.2803 72.6796 92.2745 72.4856 92.2745 72.2886C92.2715 71.9212 92.1012 71.7301 91.7225 71.6977C91.3319 71.6654 91.2351 71.492 91.4083 71.1362C91.6608 70.6159 92.16 70.4513 92.6738 70.366C93.5253 70.222 93.9892 70.5953 94.042 71.4626C94.0714 71.9623 94.0479 72.465 94.0479 72.9118L94.045 72.9148Z" fill="#FBFBFB"/>
<path d="M61.0952 73.8819C61.0952 74.3582 61.1069 74.8373 61.0922 75.3136C61.0776 75.7046 61.2361 75.9309 61.6149 76.0397C62.023 76.1573 62.0817 76.3954 61.8087 76.7393C61.4182 77.2391 60.5814 77.3332 60.0264 76.8452C59.6741 76.5365 59.4656 76.56 59.0839 76.7922C58.0739 77.4066 56.7614 77.245 55.9892 76.4895C54.9028 75.4253 55.2316 73.7614 56.641 73.1852C57.4132 72.8707 58.2089 72.8178 59.0134 73.0088C59.3129 73.0794 59.4333 73.0118 59.4069 72.7061C59.4039 72.6708 59.4069 72.6326 59.4069 72.5973C59.4304 71.3068 58.8725 71.2715 57.8419 71.3391C57.6099 71.3538 57.5953 71.5331 57.5806 71.7124C57.5542 72.0917 57.425 72.4121 57.0433 72.5561C56.7262 72.6767 56.409 72.659 56.1507 72.4209C55.8629 72.1534 55.8013 71.8124 55.907 71.442C56.0039 71.1069 56.2241 70.8599 56.5265 70.7012C57.6775 70.0927 58.8696 70.0397 60.0646 70.5336C60.8691 70.8658 61.057 71.5919 61.0893 72.3739C61.1099 72.8736 61.0922 73.3763 61.0922 73.879H61.0952V73.8819ZM59.4216 74.8579C59.4274 74.17 59.1925 73.9319 58.4791 73.9172C57.7626 73.9025 57.2282 74.3229 57.2165 74.9108C57.2048 75.5223 57.6129 75.9309 58.2471 75.9397C58.9665 75.9486 59.4128 75.537 59.4216 74.8609V74.8579Z" fill="#FBFBFB"/>
<path d="M91.0559 73.6468C91.0559 75.6869 89.6172 77.1509 87.6177 77.1479C85.6857 77.145 84.2 75.6252 84.2117 73.6644C84.2235 71.7859 85.8178 70.2073 87.6999 70.2191C89.6172 70.2279 91.0559 71.6977 91.0559 73.6497V73.6468ZM86.132 73.6203C86.1848 74.2935 86.2523 74.9373 86.6546 75.487C87.2507 76.2954 88.3752 76.2543 88.8303 75.3577C89.3764 74.2817 89.2326 73.1735 88.7745 72.1005C88.5455 71.5625 88.0317 71.2391 87.5413 71.2862C86.9482 71.345 86.5606 71.6772 86.3522 72.2328C86.1819 72.6884 86.1936 73.1676 86.132 73.6174V73.6203Z" fill="#FBFBFB"/>
<path d="M82.3913 73.6556C82.3913 74.1318 82.3913 74.611 82.3913 75.0872C82.3913 75.5713 82.6154 75.8976 83.0637 76.0661C83.2193 76.1249 83.372 76.1837 83.3866 76.3719C83.4013 76.5718 83.3044 76.7246 83.1283 76.8246C83.0754 76.854 83.0196 76.8834 82.9609 76.901C82.0683 77.1333 81.1728 77.1362 80.2772 76.9275C80.0511 76.8746 79.8632 76.7305 79.8221 76.4953C79.7781 76.2396 79.9954 76.1367 80.1774 76.0397C80.471 75.8868 80.6002 75.6516 80.5973 75.3253C80.5943 74.1612 80.5914 73 80.6002 71.8359C80.6002 71.5625 80.4974 71.4508 80.2332 71.4743C80.198 71.4773 80.1598 71.4743 80.1245 71.4743C79.8779 71.4626 79.6137 71.4802 79.5549 71.148C79.5021 70.8364 79.6812 70.4631 80.0042 70.4513C80.609 70.4248 80.5885 70.0691 80.6149 69.6252C80.747 67.5175 82.6966 66.4533 84.5611 67.4646C85.0603 67.735 85.4566 68.1201 85.4067 68.7668C85.3686 69.2695 84.9986 69.5988 84.5024 69.5812C84.0267 69.5635 83.6979 69.2166 83.6891 68.7198C83.6832 68.4729 83.7772 68.1936 83.3837 68.1319C82.9697 68.0643 82.5498 68.2171 82.4206 68.5581C82.221 69.0902 82.312 69.6458 82.3267 70.1955C82.3296 70.3543 82.4823 70.3631 82.6056 70.3631C82.911 70.3631 83.2163 70.3602 83.5217 70.3631C83.7566 70.3631 84.0032 70.3543 84.0649 70.6688C84.1295 70.9804 83.9739 71.3215 83.6979 71.4332C83.4101 71.5507 83.0989 71.589 82.7965 71.5361C82.4471 71.4743 82.3766 71.6242 82.3854 71.9329C82.403 72.5091 82.3913 73.0823 82.3913 73.6585V73.6556Z" fill="#FBFBFB"/>
<path d="M76.9153 73.7702C76.3662 73.7702 75.8142 73.7614 75.2652 73.7702C74.8747 73.7791 74.8218 73.8643 74.907 74.2435C75.2417 75.7369 76.8625 75.9897 77.8989 75.5341C78.1074 75.4429 78.2953 75.293 78.4862 75.1637C78.7328 74.9961 78.8503 75.0343 78.9178 75.3283C79.0205 75.781 78.8503 76.1455 78.5273 76.4483C78.3306 76.6335 78.1045 76.7893 77.8519 76.8834C76.3369 77.4449 74.7249 77.1832 73.6767 75.7839C72.7606 74.564 72.834 72.6443 73.8265 71.442C74.9539 70.078 76.9887 69.7899 78.2513 70.8511C78.9912 71.4714 79.2643 72.2916 79.1086 73.2528C79.0499 73.6144 78.8737 73.7849 78.492 73.7702C77.9665 73.7497 77.4409 73.7643 76.9153 73.7643V73.7702ZM76.4514 72.7119V72.7208C76.5483 72.7208 76.6481 72.7325 76.745 72.7208C76.9505 72.6914 77.2353 72.8295 77.344 72.5855C77.4644 72.318 77.3675 72.0329 77.1972 71.7918C77.0357 71.5625 76.8184 71.4126 76.5454 71.3509C75.7085 71.1656 75.1096 71.5508 74.8864 72.3827C74.813 72.662 74.8923 72.7854 75.1712 72.7737C75.597 72.759 76.0227 72.7355 76.4485 72.7149L76.4514 72.7119Z" fill="#FBFBFB"/>
<path d="M74.4137 81.7927C74.6222 81.5928 74.8277 81.3929 75.0391 81.1959C75.4678 80.7991 75.9522 80.4992 76.5219 80.3522C77.2177 80.1758 77.5877 80.4933 77.5349 81.2077C77.529 81.29 77.5172 81.3723 77.5084 81.4546C77.6699 81.5222 77.7198 81.3958 77.7932 81.3312C78.1573 81.0019 78.5537 80.7197 79.0117 80.5257C79.182 80.4551 79.3612 80.411 79.5432 80.3963C80.1686 80.3493 80.4916 80.7197 80.3565 81.3282C80.2596 81.7603 80.0717 82.1601 79.9102 82.5688C79.7252 83.0362 79.6019 83.5242 79.4874 84.0122C79.3964 84.4031 79.4727 84.4913 79.8691 84.5354C80.0423 84.556 80.2831 84.506 80.3037 84.7589C80.3213 84.994 80.1069 85.0793 79.919 85.141C79.5638 85.2615 79.1938 85.2645 78.8326 85.191C78.3805 85.0999 78.1426 84.7089 78.2219 84.215C78.3188 83.6182 78.5478 83.0626 78.7592 82.5041C78.8708 82.2072 78.9618 81.9015 79.047 81.5957C79.0734 81.4958 79.0969 81.3664 78.9794 81.2959C78.862 81.2253 78.771 81.3135 78.6829 81.3782C78.0105 81.8897 77.4703 82.5158 77.0797 83.2625C76.8478 83.7064 76.6276 84.1591 76.4074 84.6089C76.2429 84.9411 75.9787 85.1322 75.6117 85.1822C75.2534 85.2292 75.1389 85.1087 75.2123 84.753C75.4032 83.824 75.7878 82.9627 76.1196 82.0808C76.1871 81.8985 76.2664 81.7163 76.2723 81.5164C76.2811 81.2165 76.149 81.1224 75.8877 81.2724C75.4325 81.5281 75.1066 81.9309 74.7719 82.3218C74.1994 82.9862 73.8353 83.7799 73.4301 84.5472C73.2539 84.8794 73.0219 85.1234 72.6314 85.1763C72.282 85.2263 72.1411 85.1028 72.1969 84.753C72.238 84.4884 72.2996 84.2238 72.373 83.9651C72.6373 83.0097 72.9515 82.069 73.2803 81.1342C73.4213 80.7285 73.7119 80.4963 74.1259 80.4022C74.5957 80.2964 74.6956 80.3875 74.5869 80.849C74.5165 81.1518 74.4254 81.4487 74.3432 81.7486C74.3667 81.7633 74.3902 81.778 74.4137 81.7897V81.7927Z" fill="#FBFBFB"/>
<path d="M102.146 74.2847C102.152 74.6639 102.119 75.0431 102.172 75.4223C102.216 75.7369 102.369 75.9339 102.674 76.0279C102.903 76.0955 103.121 76.1837 103.091 76.4953C103.062 76.7952 102.856 76.9098 102.601 76.9598C101.811 77.1186 101.021 77.1156 100.234 76.951C99.976 76.8981 99.7676 76.757 99.7235 76.4865C99.6795 76.2131 99.9085 76.1073 100.108 76.0132C100.384 75.8809 100.502 75.6663 100.502 75.3665C100.502 74.3023 100.499 73.2352 100.502 72.171C100.502 71.8447 100.352 71.7124 100.035 71.7007C99.5797 71.683 99.4505 71.3861 99.703 70.9893C100.214 70.1867 101.385 70.1279 101.932 70.8864C102.061 71.0657 102.143 71.0863 102.284 70.9099C102.56 70.563 102.921 70.3396 103.356 70.2514C103.937 70.1309 104.507 70.5013 104.633 71.0745C104.724 71.489 104.539 71.927 104.195 72.1181C103.846 72.3092 103.438 72.2445 103.115 71.9447C102.689 71.5478 102.601 71.5655 102.36 72.1181C102.158 72.5797 102.184 73.0765 102.146 73.5615C102.125 73.8055 102.143 74.0495 102.143 74.2964L102.146 74.2847Z" fill="#FBFBFB"/>
<path d="M68.926 73.8055C68.926 73.3028 68.9348 72.8001 68.926 72.3004C68.9142 71.8477 68.8144 71.7506 68.3622 71.7066C68.0011 71.6713 67.9071 71.5419 68.0304 71.198C68.2536 70.5748 68.8115 70.4131 69.3693 70.319C69.8098 70.2426 70.1533 70.4719 70.3471 70.8805C70.4528 71.1039 70.5555 71.0775 70.6935 70.9187C70.996 70.563 71.3659 70.3161 71.8357 70.2396C72.3554 70.1544 72.8839 70.4925 73.0278 70.9981C73.1541 71.4361 72.9192 71.9388 72.4964 72.1299C72.1117 72.3033 71.7506 72.2122 71.4511 71.8594C71.2221 71.5919 71.0987 71.6066 70.902 71.9065C70.6113 72.3504 70.6084 72.8619 70.5849 73.3587C70.5526 73.9936 70.5761 74.6316 70.5761 75.2695C70.5761 75.6663 70.7259 75.9544 71.1399 76.0603C71.3278 76.1102 71.5274 76.1631 71.5245 76.4277C71.5245 76.6894 71.3777 76.8452 71.1487 76.9098C70.2825 77.1568 69.4075 77.1303 68.5413 76.9069C68.3387 76.854 68.1626 76.707 68.1449 76.4718C68.1273 76.2366 68.3064 76.1161 68.4885 76.0397C68.8379 75.8927 68.9377 75.6164 68.9348 75.2724C68.9348 74.7815 68.9348 74.2935 68.9348 73.8026H68.926V73.8055Z" fill="#FBFBFB"/>
<path d="M65.0708 74.27C65.0708 74.5992 65.0884 74.9314 65.0649 75.2607C65.0355 75.6663 65.2058 75.9103 65.5846 76.0338C65.7931 76.1014 66.0192 76.169 66.0133 76.4571C66.0074 76.7628 65.7843 76.8746 65.5376 76.9334C64.7419 77.1244 63.9403 77.1215 63.1417 76.9392C62.8892 76.8804 62.6837 76.7393 62.6396 76.4659C62.5956 76.1837 62.8275 76.0897 63.0272 76.0044C63.3208 75.878 63.4148 75.634 63.4148 75.3547C63.4236 74.2906 63.4206 73.2264 63.4148 72.1593C63.4148 71.8506 63.2621 71.7007 62.9362 71.6919C62.4752 71.6801 62.3519 71.4626 62.5721 71.0539C62.851 70.5365 63.3619 70.3719 63.8904 70.3073C64.3162 70.2543 64.648 70.4689 64.8329 70.8658C64.924 71.0628 65.0091 71.0628 65.1471 70.904C65.4525 70.5513 65.8254 70.2984 66.2952 70.2338C66.7385 70.175 67.1202 70.3073 67.3786 70.6953C67.6135 71.051 67.5959 71.4802 67.3404 71.83C66.991 72.3121 66.3333 72.3298 65.9546 71.8712C65.6756 71.5331 65.5963 71.539 65.3703 71.9212C65.1324 72.3268 65.1031 72.7825 65.0766 73.2323C65.0561 73.5733 65.0737 73.9172 65.0708 74.2612V74.27Z" fill="#FBFBFB"/>
<path d="M94.9522 86.2022C94.594 86.2022 94.318 86.0406 94.0655 85.8054C93.3814 85.1645 92.8353 84.4179 92.3361 83.6271C92.2686 83.5212 92.2275 83.3419 92.066 83.3684C91.9133 83.3919 91.9104 83.5712 91.8604 83.6917C91.6696 84.1533 91.5345 84.6413 91.2116 85.0411C91.0736 85.2116 90.9209 85.3439 90.6801 85.2263C90.4511 85.1116 90.4158 84.9323 90.4834 84.703C91.0148 82.8716 91.4641 81.0166 92.1071 79.2175C92.2304 78.8736 92.4242 78.609 92.8088 78.5443C93.1993 78.4767 93.3873 78.6325 93.3197 79.0205C93.2493 79.4174 93.1348 79.8055 93.0202 80.1935C92.8382 80.802 92.6385 81.4076 92.4477 82.0132C92.4124 82.1249 92.3156 82.2601 92.433 82.3542C92.5681 82.46 92.6855 82.3218 92.7883 82.2483C93.2375 81.9309 93.5458 81.4928 93.8277 81.0313C93.9422 80.8461 94.0273 80.6374 94.2094 80.4963C94.4707 80.2934 94.7526 80.314 94.9904 80.4992C95.2459 80.6991 95.0961 80.949 94.9669 81.1548C94.5764 81.7692 93.9745 82.1631 93.4049 82.5776C93.1465 82.7657 93.123 82.901 93.2874 83.1685C93.8688 84.1092 94.4531 85.0411 95.4396 85.6231C95.5453 85.6849 95.6511 85.7731 95.6246 85.9142C95.5982 86.0494 95.469 86.1023 95.3545 86.1346C95.2282 86.1699 95.0932 86.1817 94.961 86.2022H94.9522Z" fill="#FBFBFB"/>
<path d="M85.1983 80.414C85.5271 80.4316 85.762 80.3934 85.9852 80.4845C86.129 80.5404 86.2553 80.6197 86.2582 80.7932C86.2641 80.9637 86.1496 81.0607 86.0087 81.1224C85.671 81.2635 85.3187 81.2606 84.9634 81.2371C83.8887 81.1636 83.0108 81.5017 82.4706 82.4865C82.3061 82.7863 82.1799 83.1067 82.0654 83.4301C81.9802 83.6653 81.9391 83.9416 82.174 84.1033C82.403 84.262 82.6673 84.1944 82.8992 84.0504C83.2663 83.8211 83.5569 83.5036 83.8271 83.1714C84.1589 82.7628 84.476 82.3424 84.8048 81.9338C85.0045 81.6869 85.2423 81.5164 85.5858 81.5222C85.8325 81.5281 85.9264 81.6134 85.8472 81.8574C85.7121 82.2777 85.577 82.6952 85.4478 83.1156C85.3862 83.3155 85.3157 83.5124 85.2775 83.7153C85.1895 84.1533 85.3979 84.4208 85.8442 84.4649C85.9705 84.4766 86.1349 84.4325 86.1819 84.6089C86.2318 84.7941 86.1144 84.9088 85.9705 84.997C85.6093 85.2175 85.2159 85.2733 84.8048 85.2175C84.567 85.1851 84.4231 85.0146 84.3145 84.8118C84.2264 84.6471 84.2088 84.4619 84.1706 84.2826C84.1471 84.1827 84.1941 84.0327 84.0678 83.9945C83.968 83.9651 83.9093 84.0886 83.8359 84.1503C83.5804 84.3591 83.3397 84.5883 83.0725 84.7794C82.7612 85.0028 82.4118 85.1469 82.0184 85.1587C81.2344 85.1792 80.7646 84.7589 80.7588 83.9681C80.75 83.1244 81.164 82.4512 81.76 81.9191C82.5851 81.1871 83.5364 80.6638 84.6404 80.4728C84.8547 80.4345 85.0779 80.4257 85.1983 80.414Z" fill="#FBFBFB"/>
<path d="M97.3423 85.2292C96.0357 85.2292 95.3809 84.7471 95.24 83.8887C95.2048 83.677 95.2194 83.4713 95.2752 83.2714C95.6804 81.825 96.4937 80.755 98 80.3258C98.2643 80.2523 98.5344 80.2435 98.7986 80.3023C99.2244 80.3934 99.5973 80.5845 99.6854 81.0636C99.7969 81.6663 99.6178 82.1807 99.1275 82.5599C98.5608 83.0009 97.8826 83.0979 97.1955 83.1538C97.0868 83.1626 96.9753 83.1596 96.8666 83.1626C96.3058 83.1714 96.1854 83.3948 96.4791 83.8887C96.7609 84.362 97.2865 84.4943 97.9765 84.265C98.3905 84.1268 98.7429 83.8946 99.0717 83.6153C99.1803 83.5242 99.3066 83.3272 99.4681 83.4742C99.6237 83.6153 99.5209 83.8064 99.4182 83.9416C98.8221 84.7148 98.0587 85.188 97.3423 85.2263V85.2292ZM96.9048 82.5511C97.4568 82.46 98.047 82.3571 98.4434 81.8221C98.5843 81.631 98.6694 81.4193 98.5403 81.2106C98.4023 80.9901 98.1586 81.0078 97.9413 81.0725C97.3071 81.2606 96.94 81.7456 96.6523 82.2983C96.5437 82.507 96.6846 82.5541 96.9048 82.5482V82.5511Z" fill="#FBFBFB"/>
<path d="M102.228 84.4855C102.469 84.4443 102.707 84.4002 102.947 84.359C103.044 84.3414 103.153 84.3061 103.215 84.409C103.288 84.5266 103.197 84.6207 103.121 84.6971C102.886 84.9293 102.595 85.0587 102.281 85.1175C101.873 85.1939 101.462 85.241 101.045 85.1616C100.607 85.0793 100.422 84.8911 100.431 84.4414C100.443 83.8475 100.619 83.2861 100.786 82.7216C100.907 82.3218 101.015 81.922 101.139 81.5252C101.209 81.2929 101.159 81.1695 100.895 81.1871C100.786 81.1959 100.675 81.1871 100.566 81.1842C100.399 81.1783 100.237 81.1489 100.217 80.9402C100.196 80.7285 100.249 80.5374 100.481 80.4786C100.634 80.4404 100.798 80.4169 100.951 80.4345C101.336 80.4786 101.515 80.3081 101.57 79.9407C101.609 79.6996 101.685 79.4644 101.799 79.2469C101.996 78.8765 102.313 78.7001 102.718 78.6737C102.989 78.656 103.115 78.7677 103.027 79.0529C102.924 79.3909 102.824 79.732 102.721 80.073C102.616 80.4169 102.669 80.4786 103.036 80.461C103.314 80.4463 103.596 80.4404 103.878 80.4463C104.043 80.4492 104.269 80.4257 104.26 80.6727C104.254 80.8873 104.145 81.0842 103.89 81.1077C103.549 81.1401 103.209 81.1724 102.865 81.1695C102.604 81.1695 102.463 81.2635 102.39 81.5164C102.166 82.2807 101.914 83.0332 101.697 83.7976C101.55 84.315 101.688 84.4708 102.228 84.4884V84.4855Z" fill="#FBFBFB"/>
<path d="M89.0241 80.6491C88.9742 80.9725 89.1122 80.9461 89.3265 80.8226C89.6994 80.6109 90.0811 80.414 90.5098 80.3405C90.9209 80.2699 91.0765 80.4198 91.0501 80.8402C91.0148 81.3782 90.8563 81.5281 90.319 81.5369C89.3109 81.5546 88.6767 82.0524 88.4163 83.0303C88.2871 83.5154 88.1638 84.0004 88.0317 84.4855C87.9201 84.897 87.6412 85.1263 87.2301 85.191C86.9688 85.2321 86.822 85.1087 86.8543 84.8382C86.8778 84.6442 86.9277 84.4531 86.9747 84.265C87.2301 83.2302 87.4738 82.1925 87.8115 81.1812C87.9495 80.7638 88.1726 80.4375 88.6365 80.3317C88.9184 80.267 89.074 80.3228 89.0241 80.6462V80.6491Z" fill="#FBFBFB"/>
</svg>
