<svg width="33" height="32" viewBox="0 0 33 32" fill="none" xmlns="http://www.w3.org/2000/svg">
<path d="M30.8524 12.0672L30.8523 12.0672C30.3809 11.6126 29.7316 11.332 29.02 11.332H3.1026C2.39093 11.332 1.74168 11.6126 1.2702 12.0672L1.2702 12.0672C0.798451 12.522 0.5 13.1562 0.5 13.8592V28.972C0.5 29.6749 0.798452 30.3092 1.2702 30.764L1.61724 30.404L1.2702 30.764C1.74168 31.2186 2.39093 31.4991 3.1026 31.4991H29.02C29.7316 31.4991 30.3809 31.2186 30.8523 30.764L30.8524 30.764C31.3241 30.3091 31.6225 29.6749 31.6225 28.972V13.8592C31.6225 13.1563 31.3241 12.522 30.8524 12.0672ZM2.65176 13.4499L2.65176 13.4499C2.76662 13.3391 2.92581 13.2695 3.1026 13.2695H29.02C29.1967 13.2695 29.3559 13.3391 29.4708 13.4499C29.5854 13.5604 29.6502 13.7056 29.6502 13.8592V28.972C29.6502 29.1255 29.5854 29.2707 29.4708 29.3813C29.3559 29.492 29.1967 29.5617 29.02 29.5617H3.1026C2.92581 29.5617 2.76662 29.492 2.65176 29.3813C2.53713 29.2708 2.47234 29.1256 2.47234 28.972V13.8592C2.47234 13.7056 2.53713 13.5604 2.65176 13.4499Z" fill="#1E1E1E" stroke="#1E1E1E"/>
<path d="M30.6273 13.3466L30.6276 13.3463C30.9512 13.1054 31.0143 12.6505 30.7608 12.334C30.5118 12.0231 30.0549 11.9687 29.7368 12.2053C29.7367 12.2054 29.7366 12.2055 29.7365 12.2055L16.0613 22.3523L2.36806 12.2197L2.36806 12.2197L2.36756 12.2193C2.04798 11.9841 1.59098 12.0409 1.3435 12.3533L1.3435 12.3533C1.09168 12.6713 1.15746 13.1259 1.48214 13.3651C1.48223 13.3652 1.48233 13.3653 1.48243 13.3654L15.5846 23.8005C15.7804 23.9634 16.0487 24.013 16.289 23.9368L16.3134 23.9672L16.4692 23.8516C16.482 23.8432 16.4947 23.8345 16.5071 23.8252L16.7151 23.6709L16.7142 23.6698L30.6273 13.3466Z" fill="#1E1E1E" stroke="#1E1E1E" stroke-width="0.5"/>
<path d="M8.18286 26.0146H7.93286V26.2646V27.2021V27.4521H8.18286H23.9397H24.1897V27.2021V26.2646V26.0146H23.9397H8.18286Z" fill="#1E1E1E" stroke="#1E1E1E" stroke-width="0.5"/>
<path d="M11.019 4.98479L15.5386 0.96255C15.8156 0.689641 16.2652 0.677637 16.5572 0.937546L16.7484 1.10771L16.7478 1.10839L21.2561 5.12057C21.418 5.25072 21.5245 5.4499 21.5245 5.67552C21.5245 6.08099 21.1862 6.39424 20.7883 6.39424L18.6155 6.39425V10.5835C18.6155 10.989 18.2772 11.3022 17.8793 11.3022H14.2432C13.8453 11.3022 13.507 10.989 13.507 10.5835V6.39425H11.3342H11.0842V6.35162C10.9783 6.31442 10.8791 6.25277 10.7964 6.16636L11.019 4.98479ZM11.019 4.98479L11.0183 4.9841L10.8382 5.14436C10.8288 5.15273 10.8197 5.16128 10.8108 5.17001L11.019 4.98479ZM17.1432 5.67553V9.86479H14.9793V5.67553C14.9793 5.27006 14.641 4.95681 14.2432 4.95681H13.2332L16.0612 2.44001L18.8893 4.95681H17.8793C17.4815 4.95681 17.1432 5.27007 17.1432 5.67553Z" fill="#1E1E1E" stroke="#1E1E1E" stroke-width="0.5"/>
</svg>
