<svg width="156" height="69" viewBox="0 0 156 69" fill="none" xmlns="http://www.w3.org/2000/svg">
<path fill-rule="evenodd" clip-rule="evenodd" d="M43.5035 4.60949C25.079 8.99269 15.0044 15.2274 10.7545 24.9118C9.89392 26.9116 9.055 28.0653 7.53624 29.4282C-1.58296 37.6449 -2.03332 48.212 6.38022 56.1444C15.25 64.4774 43.2731 69.6021 74.3879 68.5704C78.8431 68.4305 86.0286 68.3458 90.3265 68.4222C143.881 69.3085 165.218 49.0671 152.082 30.4246C144.088 19.0423 130.57 12.4758 106.895 8.32624C84.349 4.40741 52.795 8.76443 29.0283 18.0752C22.8169 20.5092 22.3763 19.059 24.3133 17.6047C31.1454 12.4425 48.1222 7.08707 65.2739 4.99848C80.5766 3.12452 87.6132 2.48868 98.5566 4.25098C102.833 4.93087 105.799 2.39524 99.2767 0.932522C92.3564 -0.556835 63.5228 -0.152573 43.5035 4.60949ZM35.7564 60.89C44.4831 63.6144 33.9441 62.082 20.8881 58.7499C-3.44828 52.5465 6.08778 39.463 8.75769 37.4846C14.3266 49.3893 23.5442 57.0929 35.7564 60.89Z" fill="#FDB716"/>
</svg>
