<svg width="156" height="71" viewBox="0 0 156 71" fill="none" xmlns="http://www.w3.org/2000/svg">
<path fill-rule="evenodd" clip-rule="evenodd" d="M155.248 32.4347C155.563 19.2432 155.676 16.7681 155.946 15.0002C156.171 13.5043 155.676 11.9267 154.797 11.4371C153.424 10.6484 153.761 11.3555 153.333 22.9151C153.221 25.9614 153.266 32.3259 153.153 35.073C153.108 35.9162 151.757 36.297 151.802 34.8826L151.982 8.93484L152.996 8.74446C154.167 8.52686 154.324 8.01009 153.491 6.86773C152.838 5.97017 152.005 5.75257 147.591 5.37178C91.1305 0.693571 91.3332 0.203992 53.5656 0.0407984C41.607 -0.0135995 31.7203 -0.0135995 31.6076 0.0407984C31.0671 0.285589 15.6403 0.149595 2.73578 1.18315C0.686374 1.34635 0.506206 1.56394 1.38452 2.78789C2.26284 4.01185 4.1546 4.14783 16.969 3.76705C40.1656 3.11427 92.0764 3.65826 92.0764 4.55582C92.0764 4.80061 86.9642 4.90941 79.1269 4.82781C56.741 4.58302 25.6621 6.26935 5.82115 8.77165C-0.191943 9.53322 -0.236986 9.56042 0.12335 10.866C0.686374 12.8515 0.708895 23.9758 0.979146 27.6477C1.04671 28.4637 2.2178 61.1568 2.2178 62.0543C2.2178 64.339 2.44301 65.8078 2.84839 66.1886C3.2988 66.5965 4.37981 66.6509 4.49242 66.243C4.53746 66.0526 4.76267 66.0526 5.21309 66.243C6.47426 66.8141 13.8837 67.1133 22.3515 66.9501C26.9233 66.8413 33.7697 66.8957 37.5532 67.0589C45.9985 67.3853 76.537 68.1197 89.464 68.8541C93.2925 69.0717 117.638 70.2956 123.358 70.6492C131.533 71.1388 149.122 71.1116 149.392 70.5948C150.09 69.2076 147.32 67.9293 143.604 67.9021C140.542 67.9021 140.451 66.0798 143.987 65.9166C144.235 65.9166 146.149 65.8078 152.027 66.107C152.027 66.107 152.027 66.8685 151.87 68.4189C151.712 70.0236 153.131 72.4715 153.829 68.3373C153.874 68.0109 154.077 66.0526 154.077 66.0526C154.077 66.0526 155.225 65.9166 155.405 65.835C156.058 65.5358 156.194 64.5294 155.586 63.5775C155.383 63.2783 154.505 62.9519 154.505 62.9519C154.505 62.9519 154.707 54.6834 155.248 32.4347Z" fill="#FDB716"/>
</svg>
