<svg width="250" height="71" viewBox="0 0 250 71" fill="none" xmlns="http://www.w3.org/2000/svg">
<path fill-rule="evenodd" clip-rule="evenodd" d="M248.794 32.4347C249.3 19.2432 249.48 16.7681 249.913 15.0002C250.274 13.5043 249.48 11.9267 248.073 11.4371C245.871 10.6484 246.412 11.3555 245.727 22.9151C245.546 25.9614 245.618 32.3259 245.438 35.073C245.366 35.9162 243.2 36.297 243.272 34.8826L243.561 8.93484L245.185 8.74446C247.062 8.52686 247.315 8.01009 245.979 6.86773C244.933 5.97017 243.597 5.75257 236.523 5.37178C146.043 0.693571 146.367 0.203992 85.8423 0.0407984C66.6778 -0.0135995 50.8337 -0.0135995 50.6533 0.0407984C49.7871 0.285589 25.0646 0.149595 4.38426 1.18315C1.09996 1.34635 0.811228 1.56394 2.21879 2.78789C3.62635 4.01185 6.65802 4.14783 27.194 3.76705C64.368 3.11427 147.558 3.65826 147.558 4.55582C147.558 4.80061 139.366 4.90941 126.806 4.82781C90.9311 4.58302 41.1252 6.26935 9.32877 8.77165C-0.307602 9.53322 -0.379785 9.56042 0.197676 10.866C1.09996 12.8515 1.13605 23.9758 1.56914 27.6477C1.67742 28.4637 3.55416 61.1568 3.55416 62.0543C3.55416 64.339 3.91508 65.8078 4.56472 66.1886C5.28655 66.5965 7.01893 66.6509 7.19938 66.243C7.27157 66.0526 7.63248 66.0526 8.3543 66.243C10.3754 66.8141 22.2494 67.1133 35.8198 66.9501C43.1463 66.8413 54.118 66.8957 60.1814 67.0589C73.7156 67.3853 122.655 68.1197 143.372 68.8541C149.507 69.0717 188.522 70.2956 197.689 70.6492C210.79 71.1388 238.978 71.1116 239.411 70.5948C240.529 69.2076 236.09 67.9293 230.135 67.9021C225.227 67.9021 225.082 66.0798 230.749 65.9166C231.146 65.9166 234.214 65.8078 243.633 66.107C243.633 66.107 243.633 66.8685 243.381 68.4189C243.128 70.0236 245.402 72.4715 246.521 68.3373C246.593 68.0109 246.918 66.0526 246.918 66.0526C246.918 66.0526 248.758 65.9166 249.047 65.835C250.094 65.5358 250.31 64.5294 249.336 63.5775C249.011 63.2783 247.603 62.9519 247.603 62.9519C247.603 62.9519 247.928 54.6834 248.794 32.4347Z" fill="#FDB716"/>
</svg>
