<svg width="445" height="93" viewBox="0 0 445 93" fill="none" xmlns="http://www.w3.org/2000/svg">
<path fill-rule="evenodd" clip-rule="evenodd" d="M442.854 42.4079C443.753 25.2942 444.075 22.0832 444.846 19.7896C445.488 17.8488 444.075 15.8023 441.569 15.1671C437.65 14.1438 438.614 15.0612 437.393 30.0578C437.072 34.0098 437.201 42.2668 436.879 45.8307C436.751 46.9245 432.896 47.4185 433.025 45.5837L433.539 11.9208L436.43 11.6738C439.77 11.3915 440.22 10.7211 437.843 9.23906C435.98 8.07462 433.603 7.79232 421.012 7.29832C259.956 1.22912 260.534 0.593976 152.799 0.382259C118.687 0.311687 90.4841 0.311687 90.1628 0.382259C88.621 0.699834 44.6149 0.523405 7.80399 1.86427C1.95793 2.07599 1.44399 2.35828 3.94944 3.94615C6.4549 5.53403 11.8513 5.71045 48.4052 5.21644C114.575 4.36958 262.654 5.0753 262.654 6.23974C262.654 6.55732 248.071 6.69846 225.714 6.5926C161.857 6.27503 73.2028 8.46276 16.6052 11.7091C-0.547531 12.6971 -0.676017 12.7324 0.351863 14.4261C1.95792 17.002 2.02217 31.434 2.79308 36.1976C2.9858 37.2562 6.32641 79.67 6.32641 80.8344C6.32641 83.7984 6.96884 85.7039 8.1252 86.1979C9.41005 86.7272 12.4937 86.7978 12.8149 86.2685C12.9434 86.0215 13.5858 86.0215 14.8707 86.2685C18.4682 87.0095 39.604 87.3976 63.7592 87.1859C76.8004 87.0448 96.3301 87.1153 107.123 87.327C131.214 87.7505 218.327 88.7032 255.202 89.6559C266.123 89.9382 335.569 91.5261 351.887 91.9848C375.207 92.6199 425.38 92.5847 426.151 91.9142C428.143 90.1146 420.241 88.4562 409.641 88.4209C400.904 88.4209 400.647 86.0567 410.733 85.845C411.439 85.845 416.9 85.7039 433.667 86.092C433.667 86.092 433.667 87.08 433.218 89.0913C432.768 91.1732 436.815 94.349 438.807 88.9855C438.935 88.562 439.513 86.0215 439.513 86.0215C439.513 86.0215 442.79 85.845 443.304 85.7392C445.167 85.351 445.552 84.0454 443.818 82.8104C443.24 82.4223 440.734 81.9988 440.734 81.9988C440.734 81.9988 441.312 71.2719 442.854 42.4079Z" fill="#FDB716"/>
</svg>
