<svg width="307" height="62" viewBox="0 0 307 62" fill="none" xmlns="http://www.w3.org/2000/svg">
<path fill-rule="evenodd" clip-rule="evenodd" d="M305.52 28.3233C306.14 16.804 306.362 14.6426 306.893 13.0988C307.337 11.7925 306.362 10.4149 304.633 9.98737C301.93 9.29858 302.594 9.91611 301.752 20.0104C301.531 22.6705 301.619 28.2283 301.398 30.6271C301.309 31.3634 298.65 31.6959 298.739 30.4609L299.093 7.80226L301.087 7.636C303.392 7.44599 303.702 6.99472 302.063 5.99717C300.777 5.21338 299.137 5.02337 290.451 4.69085C179.34 0.605654 179.739 0.178134 105.414 0.0356268C81.8803 -0.0118756 62.4238 -0.0118756 62.2022 0.0356268C61.1385 0.249387 30.7793 0.130632 5.38388 1.03318C1.35075 1.17568 0.996188 1.3657 2.72467 2.4345C4.45315 3.5033 8.17604 3.62205 33.3942 3.28954C79.0439 2.71951 181.202 3.19453 181.202 3.97832C181.202 4.19208 171.141 4.28709 155.718 4.21583C111.663 4.00207 50.5017 5.47465 11.4557 7.65976C-0.377735 8.32479 -0.466376 8.34854 0.242746 9.48859C1.35075 11.2224 1.39507 20.9367 1.92691 24.1431C2.05987 24.8556 4.36451 53.4045 4.36451 54.1883C4.36451 56.1834 4.80771 57.466 5.60548 57.7985C6.49188 58.1547 8.61924 58.2022 8.84084 57.846C8.92948 57.6797 9.37268 57.6797 10.2591 57.846C12.741 58.3447 27.3223 58.606 43.9867 58.4635C52.9837 58.3685 66.457 58.416 73.9027 58.5585C90.5228 58.8435 150.621 59.4848 176.061 60.1261C183.595 60.3161 231.505 61.3849 242.762 61.6937C258.85 62.1212 293.464 62.0974 293.996 61.6462C295.37 60.4349 289.919 59.3186 282.606 59.2948C276.579 59.2948 276.401 57.7035 283.359 57.561C283.847 57.561 287.614 57.466 299.182 57.7272C299.182 57.7272 299.182 58.3922 298.871 59.7461C298.561 61.1474 301.353 63.285 302.727 59.6748C302.816 59.3898 303.215 57.6797 303.215 57.6797C303.215 57.6797 305.475 57.561 305.83 57.4897C307.115 57.2284 307.381 56.3497 306.184 55.5184C305.785 55.2571 304.057 54.9721 304.057 54.9721C304.057 54.9721 304.456 47.7517 305.52 28.3233Z" fill="#FDB716"/>
</svg>
