<svg width="22" height="237" viewBox="0 0 22 237" fill="none" xmlns="http://www.w3.org/2000/svg">
<path d="M19.0419 13.9044C22.4771 4.35128 8.53548 -4.29752 2.51264 4.94893C-3.4094 14.0419 9.46721 22.5197 16.8314 15.4068" stroke="#FDB716" stroke-width="1.65779" stroke-miterlimit="1.5" stroke-linecap="round" stroke-linejoin="round"/>
<path d="M20.0825 87.9044C23.5178 78.3513 9.57613 69.7025 3.55329 78.9489C-2.36875 88.0419 10.5079 96.5197 17.8721 89.4068" stroke="#FDB716" stroke-width="1.65779" stroke-miterlimit="1.5" stroke-linecap="round" stroke-linejoin="round"/>
<path d="M20.0825 163.904C23.5178 154.351 9.57613 145.702 3.5533 154.949C-2.36875 164.042 10.5079 172.52 17.8721 165.407" stroke="#FDB716" stroke-width="1.65779" stroke-miterlimit="1.5" stroke-linecap="round" stroke-linejoin="round"/>
<path d="M20.0825 231.904C23.5178 222.351 9.57613 213.702 3.5533 222.949C-2.36875 232.042 10.5079 240.52 17.8721 233.407" stroke="#FDB716" stroke-width="1.65779" stroke-miterlimit="1.5" stroke-linecap="round" stroke-linejoin="round"/>
<path d="M9.88208 150C9.98117 130.674 10.3387 111.313 9 92L9.88208 150Z" fill="#FBFBFB"/>
<path d="M9.88208 150C9.98117 130.674 10.3387 111.313 9 92" stroke="#FDB716" stroke-width="1.65779" stroke-miterlimit="1.5" stroke-linecap="round" stroke-linejoin="round"/>
<path d="M9.88208 219C9.98117 202.007 10.3387 184.982 9 168L9.88208 219Z" fill="#FBFBFB"/>
<path d="M9.88208 219C9.98117 202.007 10.3387 184.982 9 168" stroke="#FDB716" stroke-width="1.65779" stroke-miterlimit="1.5" stroke-linecap="round" stroke-linejoin="round"/>
<path d="M10.2476 74C10.3466 55.3408 10.7041 36.6467 9.36548 18L10.2476 74Z" fill="#FBFBFB"/>
<path d="M10.2476 74C10.3466 55.3408 10.7041 36.6467 9.36548 18" stroke="#FDB716" stroke-width="1.65779" stroke-miterlimit="1.5" stroke-linecap="round" stroke-linejoin="round"/>
</svg>
