<svg width="22" height="531" viewBox="0 0 22 531" fill="none" xmlns="http://www.w3.org/2000/svg">
<path d="M19.0418 13.9044C22.477 4.35128 8.53535 -4.29752 2.51252 4.94893C-3.40952 14.0419 9.46709 22.5197 16.8313 15.4068" stroke="#FDB716" stroke-width="1.65779" stroke-miterlimit="1.5" stroke-linecap="round" stroke-linejoin="round"/>
<path d="M20.0825 163.904C23.5178 154.351 9.57613 145.702 3.55329 154.949C-2.36875 164.042 10.5079 172.52 17.8721 165.407" stroke="#FDB716" stroke-width="1.65779" stroke-miterlimit="1.5" stroke-linecap="round" stroke-linejoin="round"/>
<path d="M20.0825 371.904C23.5178 362.351 9.57613 353.702 3.5533 362.949C-2.36875 372.042 10.5079 380.52 17.8721 373.407" stroke="#FDB716" stroke-width="1.65779" stroke-miterlimit="1.5" stroke-linecap="round" stroke-linejoin="round"/>
<path d="M20.0825 525.904C23.5178 516.351 9.57613 507.702 3.5533 516.949C-2.36875 526.042 10.5079 534.52 17.8721 527.407" stroke="#FDB716" stroke-width="1.65779" stroke-miterlimit="1.5" stroke-linecap="round" stroke-linejoin="round"/>
<path d="M9.88207 359C9.98116 295.359 10.3387 231.599 9 168L9.88207 359Z" fill="#FBFBFB"/>
<path d="M9.88207 359C9.98116 295.359 10.3387 231.599 9 168" stroke="#FDB716" stroke-width="1.65779" stroke-miterlimit="1.5" stroke-linecap="round" stroke-linejoin="round"/>
<path d="M9.88208 513C9.98117 467.352 10.3387 421.618 9 376L9.88208 513Z" fill="#FBFBFB"/>
<path d="M9.88208 513C9.98117 467.352 10.3387 421.618 9 376" stroke="#FDB716" stroke-width="1.65779" stroke-miterlimit="1.5" stroke-linecap="round" stroke-linejoin="round"/>
<path d="M10.2476 151C10.3466 106.684 10.7041 62.2859 9.36548 18L10.2476 151Z" fill="#FBFBFB"/>
<path d="M10.2476 151C10.3466 106.684 10.7041 62.2859 9.36548 18" stroke="#FDB716" stroke-width="1.65779" stroke-miterlimit="1.5" stroke-linecap="round" stroke-linejoin="round"/>
</svg>
