<svg width="423" height="123" viewBox="0 0 423 123" fill="none" xmlns="http://www.w3.org/2000/svg">
<path d="M26.8344 98L17.1525 30H396.166L405.848 98H26.8344Z" stroke="#FDB716" stroke-width="2"/>
<path d="M415.777 0.629923C413.283 -0.678222 412.826 -0.404301 406.559 5.92347C400.688 11.8253 400.353 12.312 401.57 13.1029C403.761 14.5632 404.704 14.0156 411.427 7.35321C416.903 1.90768 417.237 1.39047 415.777 0.629923Z" fill="#FDB716"/>
<path d="M422.409 21.5302C420.736 18.9443 420.706 19.0355 411.64 19.644C404.947 20.1003 403.304 20.6479 404.034 22.0778C404.856 23.6293 405.16 23.6901 413.708 23.4468C421.801 23.2338 423.444 23.1121 422.409 21.5302Z" fill="#FDB716"/>
<path d="M6.90886 121.924C9.40347 123.232 9.8598 122.958 16.1267 116.63C21.9982 110.728 22.3328 110.242 21.1159 109.451C18.9255 107.991 17.9825 108.538 11.2592 115.201C5.78325 120.646 5.44861 121.163 6.90886 121.924Z" fill="#FDB716"/>
<path d="M0.27685 101.024C1.95006 103.609 1.98048 103.518 11.0462 102.91C17.739 102.453 19.3818 101.906 18.6517 100.476C17.8303 98.9244 17.5261 98.8636 8.97757 99.107C0.885288 99.3199 -0.757498 99.4416 0.27685 101.024Z" fill="#FDB716"/>
</svg>
