<svg width="286" height="144" viewBox="0 0 286 144" fill="none" xmlns="http://www.w3.org/2000/svg">
<path d="M27.2326 120L21.0677 26H259.767L265.932 120H27.2326Z" stroke="#FDB716" stroke-width="2"/>
<path d="M278.777 0.629923C276.283 -0.678222 275.826 -0.404301 269.559 5.92347C263.688 11.8253 263.353 12.312 264.57 13.1029C266.761 14.5632 267.704 14.0156 274.427 7.35321C279.903 1.90768 280.237 1.39047 278.777 0.629923Z" fill="#FDB716"/>
<path d="M285.409 21.5297C283.736 18.9438 283.706 19.035 274.64 19.6435C267.947 20.0999 266.304 20.6474 267.034 22.0773C267.856 23.6288 268.16 23.6896 276.708 23.4463C284.801 23.2333 286.444 23.1116 285.409 21.5297Z" fill="#FDB716"/>
<path d="M6.90886 142.924C9.40347 144.232 9.8598 143.958 16.1267 137.63C21.9982 131.728 22.3328 131.242 21.1159 130.451C18.9255 128.991 17.9825 129.538 11.2592 136.201C5.78325 141.646 5.44861 142.163 6.90886 142.924Z" fill="#FDB716"/>
<path d="M0.27685 122.024C1.95006 124.61 1.98048 124.519 11.0462 123.91C17.739 123.454 19.3818 122.906 18.6517 121.476C17.8303 119.925 17.5261 119.864 8.97757 120.107C0.885288 120.32 -0.757498 120.442 0.27685 122.024Z" fill="#FDB716"/>
</svg>
