<svg width="242" height="63" viewBox="0 0 242 63" fill="none" xmlns="http://www.w3.org/2000/svg">
<path fill-rule="evenodd" clip-rule="evenodd" d="M240.833 28.7801C241.322 17.075 241.497 14.8788 241.916 13.31C242.265 11.9827 241.497 10.5829 240.134 10.1485C238.003 9.44856 238.527 10.076 237.863 20.3331C237.689 23.0361 237.759 28.6836 237.584 31.1211C237.514 31.8693 235.418 32.2072 235.488 30.9522L235.767 7.9281L237.339 7.75916C239.156 7.56609 239.401 7.10754 238.108 6.0939C237.095 5.29747 235.802 5.10439 228.955 4.76651C141.369 0.615422 141.684 0.181007 83.0953 0.0362014C64.5441 -0.0120671 49.2071 -0.0120671 49.0324 0.0362014C48.1939 0.25341 24.2625 0.132739 4.24397 1.04984C1.06476 1.19465 0.785268 1.38772 2.14779 2.47377C3.5103 3.55981 6.44496 3.68047 26.3237 3.34259C62.3082 2.76337 142.836 3.24606 142.836 4.04249C142.836 4.2597 134.906 4.35623 122.748 4.28383C88.0213 4.06662 39.8092 5.56295 9.03025 7.7833C-0.297758 8.45906 -0.367632 8.48319 0.19135 9.64163C1.06476 11.4034 1.0997 21.2743 1.51893 24.5325C1.62374 25.2565 3.44043 54.2659 3.44043 55.0623C3.44043 57.0896 3.78979 58.3928 4.41865 58.7307C5.11738 59.0927 6.79432 59.141 6.969 58.779C7.03888 58.61 7.38824 58.61 8.08697 58.779C10.0434 59.2858 21.5375 59.5513 34.6735 59.4065C41.7656 59.3099 52.3863 59.3582 58.2556 59.503C71.3567 59.7926 118.73 60.4442 138.784 61.0959C144.723 61.2889 182.489 62.375 191.363 62.6887C204.045 63.1231 231.33 63.099 231.75 62.6405C232.833 61.4096 228.535 60.2753 222.771 60.2512C218.02 60.2512 217.88 58.6342 223.365 58.4894C223.749 58.4894 226.719 58.3928 235.837 58.6583C235.837 58.6583 235.837 59.3341 235.593 60.7097C235.348 62.1336 237.549 64.3057 238.632 60.6373C238.702 60.3477 239.016 58.61 239.016 58.61C239.016 58.61 240.798 58.4894 241.078 58.417C242.091 58.1515 242.3 57.2585 241.357 56.4138C241.043 56.1483 239.68 55.8587 239.68 55.8587C239.68 55.8587 239.995 48.5219 240.833 28.7801Z" fill="#FDB716"/>
</svg>
