<svg width="52" height="25" viewBox="0 0 52 25" fill="none" xmlns="http://www.w3.org/2000/svg">
<path d="M48.7868 10.9933C47.9008 10.4813 38.5475 5.69184 34.2131 1.27337C33.5355 0.582575 32.5351 1.23143 32.6041 2.11005C32.6955 3.35038 32.9374 5.05693 33.2466 6.4672L33.4941 7.57997C26.3006 6.45217 27.9867 6.99768 11.6052 5.39429C-0.248941 4.23465 1.16431 3.61558 1.15569 9.89027C1.14144 12.7176 1.06649 15.1442 0.974511 15.3112C0.751203 15.7093 1.01539 17.7776 4.21728 17.7825C19.3353 17.8631 28.4418 18.7512 32.5691 17.8483C32.595 17.8486 33.6765 24.8953 33.6762 24.9212C33.676 24.947 33.8182 27.6209 37.957 24.1747C39.6359 22.7835 50.8693 14.6284 51.1799 14.5539C52.7207 14.091 51.7915 12.7006 48.7868 10.9933ZM3.48827 7.65326C3.51633 7.42113 4.00709 7.39997 5.69692 7.55822C8.28969 7.80261 8.26574 7.59594 6.03175 10.3245C5.03895 11.5286 4.09782 12.7333 3.9146 12.9897C3.6394 13.4132 3.31699 9.35587 3.48827 7.65326ZM6.68498 14.9013C4.63169 14.9461 4.65742 14.9721 5.4675 13.9728C6.539 12.6404 9.86236 8.05027 10.1341 7.98832C10.38 7.92613 13.7331 8.31984 14.0685 8.34888C9.95936 12.7379 9.99785 12.7769 8.36416 14.8399L6.68498 14.9013ZM12.1056 15.1083C11.0345 15.0593 10.1187 14.9858 10.0803 14.9467C9.83712 14.7249 15.7703 8.62333 15.7833 8.61055L17.6282 8.74461C19.9246 8.92159 19.9249 8.89576 18.6476 10.1488C17.4093 11.3634 15.2423 13.8472 14.0673 15.2045L12.1056 15.1083ZM16.2106 15.1992C18.6895 12.5117 18.8593 12.294 22.0792 9.08426C23.0337 9.17089 25.2786 9.34738 25.3936 9.46468C25.5343 9.60806 20.8571 13.9916 20.4103 14.8136C20.0293 15.4943 20.1595 15.3921 16.2106 15.1992ZM24.9094 15.541C21.9271 15.5253 22.3872 15.9946 26.7642 10.6011C27.7049 9.4481 27.5237 9.49797 29.8197 9.72659L31.7544 9.92595L26.8973 15.5602L24.9094 15.541ZM31.2265 15.1499C30.6966 15.2094 30.3096 15.1797 30.3362 15.1025C30.4806 14.8586 33.5393 10.9373 33.711 10.5387C33.7373 10.4873 33.9183 10.4632 34.1507 10.4654C35.0288 10.448 35.758 9.80948 35.8825 8.94564C35.8972 8.75211 35.2142 7.27367 34.9781 4.97324C34.9427 4.6243 34.9585 4.32748 35.0102 4.32798C35.2684 4.33046 39.0338 7.49115 39.0466 7.50418C37.8708 8.93892 35.3899 11.833 34.6849 12.6525C32.6615 14.9699 32.2991 15.044 31.2265 15.1499ZM34.7222 16.836L34.4335 15.9683L36.5625 13.4194C39.5013 9.89708 40.4056 8.49846 40.5477 8.48691C40.6382 8.47487 42.3572 9.62755 42.7416 9.94111C42.9594 10.111 42.2571 10.6465 38.3199 14.6111C34.8001 18.1407 35.0858 17.9627 34.7222 16.836ZM37.7102 20.299C35.8754 21.792 35.5378 21.9696 35.0962 22.2494C34.9657 21.0474 34.8753 21.0594 35.5762 20.6788C37.1596 19.816 43.6114 12.1314 44.6934 11.0444C46.6466 12.0186 48.613 12.9541 48.3653 13.1971C48.3393 13.2226 40.9633 17.6448 37.7102 20.299Z" fill="#FDB716"/>
</svg>
