<svg width="447" height="64" viewBox="0 0 447 64" fill="none" xmlns="http://www.w3.org/2000/svg">
<path fill-rule="evenodd" clip-rule="evenodd" d="M444.844 29.4743C445.748 17.8469 446.07 15.6653 446.845 14.107C447.49 12.7884 446.071 11.3979 443.554 10.9664C439.617 10.2711 440.585 10.8944 439.359 21.0834C439.037 23.7685 439.166 29.3785 438.843 31.7998C438.714 32.543 434.842 32.8787 434.971 31.632L435.487 8.76074L438.391 8.59292C441.747 8.40113 442.199 7.94562 439.811 6.93871C437.94 6.14757 435.552 5.95577 422.904 5.62013C261.124 1.49659 261.705 1.06506 153.486 0.921215C119.22 0.873267 90.8907 0.873267 90.5681 0.921215C89.0193 1.13698 44.8154 1.01711 7.83906 1.92813C1.96672 2.07197 1.45048 2.26377 3.96719 3.3426C6.48391 4.42144 11.9045 4.5413 48.6228 4.20566C115.09 3.63029 263.834 4.10977 263.834 4.90091C263.834 5.11668 249.186 5.21258 226.729 5.14065C162.585 4.92489 73.5318 6.41128 16.6798 8.6169C-0.549992 9.28817 -0.679055 9.31215 0.353444 10.4629C1.96672 12.213 2.03126 22.0184 2.80563 25.2549C2.99922 25.9741 6.35485 54.791 6.35485 55.5821C6.35485 57.5959 7.00016 58.8905 8.16172 59.2262C9.45234 59.5858 12.5498 59.6337 12.8725 59.2741C13.0016 59.1063 13.6469 59.1063 14.9375 59.2741C18.5512 59.7776 39.782 60.0413 64.0457 59.8975C77.1456 59.8016 96.7631 59.8495 107.604 59.9934C131.803 60.2811 219.308 60.9283 256.349 61.5756C267.319 61.7674 337.077 62.8463 353.468 63.1579C376.893 63.5895 427.292 63.5655 428.066 63.11C430.067 61.8873 422.129 60.7605 411.482 60.7366C402.706 60.7366 402.447 59.1303 412.579 58.9864C413.289 58.9864 418.774 58.8906 435.616 59.1543C435.616 59.1543 435.616 59.8255 435.165 61.1921C434.713 62.6065 438.778 64.7642 440.779 61.1201C440.908 60.8324 441.489 59.1063 441.489 59.1063C441.489 59.1063 444.78 58.9864 445.296 58.9145C447.168 58.6508 447.555 57.7638 445.812 56.9247C445.232 56.661 442.715 56.3733 442.715 56.3733C442.715 56.3733 443.296 49.0852 444.844 29.4743Z" fill="#FDB716"/>
</svg>
