<svg width="185" height="63" viewBox="0 0 185 63" fill="none" xmlns="http://www.w3.org/2000/svg">
<path fill-rule="evenodd" clip-rule="evenodd" d="M184.108 28.7801C184.482 17.075 184.615 14.8788 184.936 13.31C185.203 11.9827 184.615 10.5829 183.574 10.1485C181.945 9.44856 182.345 10.076 181.838 20.3331C181.704 23.0361 181.758 28.6836 181.624 31.1211C181.571 31.8693 179.968 32.2072 180.022 30.9522L180.235 7.9281L181.437 7.75916C182.826 7.56609 183.013 7.10754 182.025 6.0939C181.25 5.29747 180.262 5.10439 175.027 4.76651C108.071 0.615422 108.312 0.181007 63.5233 0.0362014C49.3416 -0.0120671 37.617 -0.0120671 37.4834 0.0362014C36.8424 0.25341 18.5478 0.132739 3.24436 1.04984C0.813969 1.19465 0.600309 1.38772 1.6419 2.47377C2.6835 3.55981 4.92693 3.68047 20.1235 3.34259C47.6323 2.76337 109.193 3.24606 109.193 4.04249C109.193 4.2597 103.131 4.35623 93.8363 4.28383C67.289 4.06662 30.4326 5.56295 6.90329 7.7833C-0.227625 8.45906 -0.281041 8.48319 0.14628 9.64163C0.813969 11.4034 0.840676 21.2743 1.16117 24.5325C1.24129 25.2565 2.63008 54.2659 2.63008 55.0623C2.63008 57.0896 2.89716 58.3928 3.37789 58.7307C3.91204 59.0927 5.19401 59.141 5.32754 58.779C5.38096 58.61 5.64803 58.61 6.18219 58.779C7.67781 59.2858 16.4646 59.5513 26.5066 59.4065C31.9283 59.3099 40.0474 59.3582 44.5342 59.503C54.5495 59.7926 90.765 60.4442 106.095 61.0959C110.635 61.2889 139.506 62.375 146.29 62.6887C155.985 63.1231 176.843 63.099 177.164 62.6405C177.992 61.4096 174.707 60.2753 170.3 60.2512C166.668 60.2512 166.561 58.6342 170.754 58.4894C171.048 58.4894 173.318 58.3928 180.289 58.6583C180.289 58.6583 180.289 59.3341 180.102 60.7097C179.915 62.1336 181.597 64.3057 182.425 60.6373C182.479 60.3477 182.719 58.61 182.719 58.61C182.719 58.61 184.081 58.4894 184.295 58.417C185.069 58.1515 185.23 57.2585 184.508 56.4138C184.268 56.1483 183.227 55.8587 183.227 55.8587C183.227 55.8587 183.467 48.5219 184.108 28.7801Z" fill="#FDB716"/>
</svg>
